<?xml version="1.0" encoding="UTF-8" standalone="no"?>
<!DOCTYPE svg PUBLIC "-//W3C//DTD SVG 1.1//EN"
 "http://www.w3.org/Graphics/SVG/1.1/DTD/svg11.dtd">
<!-- Generated by graphviz version 3.0.0 (20220226.1711)
 -->
<!-- Title: dependencies Pages: 1 -->
<svg width="210pt" height="174pt"
 viewBox="0.00 0.00 210.00 173.80" xmlns="http://www.w3.org/2000/svg" xmlns:xlink="http://www.w3.org/1999/xlink">
<g id="graph0" class="graph" transform="scale(1 1) rotate(0) translate(4 169.8)">
<title>dependencies</title>
<polygon fill="white" stroke="transparent" points="-4,4 -4,-169.8 206,-169.8 206,4 -4,4"/>
<text text-anchor="middle" x="101" y="-8.2" font-family="sans-serif" font-size="14.00">dependencies</text>
<g id="clust1" class="cluster">
<title>cluster_ObserverTemplateModule</title>
<polygon fill="none" stroke="black" stroke-dasharray="1,5" points="8,-32.8 8,-157.8 194,-157.8 194,-32.8 8,-32.8"/>
</g>
<g id="clust3" class="cluster">
<title>cluster_ObserverTemplateModule_imports</title>
<polygon fill="none" stroke="black" points="16,-40.8 16,-92.8 186,-92.8 186,-40.8 16,-40.8"/>
</g>
<!-- TemplateCachedModule -->
<g id="node1" class="node">
<title>TemplateCachedModule</title>
<polygon fill="#8dd3c7" stroke="black" points="178.39,-84.8 175.39,-88.8 154.39,-88.8 151.39,-84.8 23.61,-84.8 23.61,-48.8 178.39,-48.8 178.39,-84.8"/>
<text text-anchor="middle" x="101" y="-62.6" font-family="Times,serif" font-size="14.00">TemplateCachedModule</text>
</g>
<!-- ObserverTemplateModule -->
<g id="node2" class="node">
<title>ObserverTemplateModule</title>
<polygon fill="#8dd3c7" stroke="black" points="182.72,-149.8 179.72,-153.8 158.72,-153.8 155.72,-149.8 19.28,-149.8 19.28,-113.8 182.72,-113.8 182.72,-149.8"/>
<text text-anchor="middle" x="101" y="-127.6" font-family="Times,serif" font-size="14.00">ObserverTemplateModule</text>
</g>
<!-- TemplateCachedModule&#45;&gt;ObserverTemplateModule -->
<g id="edge1" class="edge">
<title>TemplateCachedModule&#45;&gt;ObserverTemplateModule</title>
<path fill="none" stroke="black" d="M101,-84.91C101,-84.91 101,-103.79 101,-103.79"/>
<polygon fill="black" stroke="black" points="97.5,-103.79 101,-113.79 104.5,-103.79 97.5,-103.79"/>
</g>
</g>
</svg>
