<?xml version="1.0" encoding="UTF-8" standalone="no"?>
<!DOCTYPE svg PUBLIC "-//W3C//DTD SVG 1.1//EN"
 "http://www.w3.org/Graphics/SVG/1.1/DTD/svg11.dtd">
<!-- Generated by graphviz version 3.0.0 (20220226.1711)
 -->
<!-- Title: dependencies Pages: 1 -->
<svg width="581pt" height="247pt"
 viewBox="0.00 0.00 581.00 246.80" xmlns="http://www.w3.org/2000/svg" xmlns:xlink="http://www.w3.org/1999/xlink">
<g id="graph0" class="graph" transform="scale(1 1) rotate(0) translate(4 242.8)">
<title>dependencies</title>
<polygon fill="white" stroke="transparent" points="-4,4 -4,-242.8 577,-242.8 577,4 -4,4"/>
<text text-anchor="middle" x="286.5" y="-8.2" font-family="sans-serif" font-size="14.00">dependencies</text>
<g id="clust1" class="cluster">
<title>cluster_BlockchainSyncModule</title>
<polygon fill="none" stroke="black" stroke-dasharray="1,5" points="8,-32.8 8,-230.8 565,-230.8 565,-32.8 8,-32.8"/>
</g>
<g id="clust4" class="cluster">
<title>cluster_BlockchainSyncModule_exports</title>
<polygon fill="none" stroke="black" points="161,-170.8 161,-222.8 331,-222.8 331,-170.8 161,-170.8"/>
</g>
<g id="clust6" class="cluster">
<title>cluster_BlockchainSyncModule_providers</title>
<polygon fill="none" stroke="black" points="335,-40.8 335,-92.8 557,-92.8 557,-40.8 335,-40.8"/>
</g>
<g id="clust3" class="cluster">
<title>cluster_BlockchainSyncModule_imports</title>
<polygon fill="none" stroke="black" points="16,-40.8 16,-92.8 327,-92.8 327,-40.8 16,-40.8"/>
</g>
<!-- BlockReceivedModule -->
<g id="node1" class="node">
<title>BlockReceivedModule</title>
<polygon fill="#8dd3c7" stroke="black" points="318.58,-84.8 315.58,-88.8 294.58,-88.8 291.58,-84.8 173.42,-84.8 173.42,-48.8 318.58,-48.8 318.58,-84.8"/>
<text text-anchor="middle" x="246" y="-62.6" font-family="Times,serif" font-size="14.00">BlockReceivedModule</text>
</g>
<!-- BlockchainSyncModule -->
<g id="node3" class="node">
<title>BlockchainSyncModule</title>
<polygon fill="#8dd3c7" stroke="black" points="321.81,-149.8 318.81,-153.8 297.81,-153.8 294.81,-149.8 170.19,-149.8 170.19,-113.8 321.81,-113.8 321.81,-149.8"/>
<text text-anchor="middle" x="246" y="-127.6" font-family="Times,serif" font-size="14.00">BlockchainSyncModule</text>
</g>
<!-- BlockReceivedModule&#45;&gt;BlockchainSyncModule -->
<g id="edge1" class="edge">
<title>BlockReceivedModule&#45;&gt;BlockchainSyncModule</title>
<path fill="none" stroke="black" d="M246,-84.91C246,-84.91 246,-103.79 246,-103.79"/>
<polygon fill="black" stroke="black" points="242.5,-103.79 246,-113.79 249.5,-103.79 242.5,-103.79"/>
</g>
<!-- PersistClientModule -->
<g id="node2" class="node">
<title>PersistClientModule</title>
<polygon fill="#8dd3c7" stroke="black" points="155.61,-84.8 152.61,-88.8 131.61,-88.8 128.61,-84.8 24.39,-84.8 24.39,-48.8 155.61,-48.8 155.61,-84.8"/>
<text text-anchor="middle" x="90" y="-62.6" font-family="Times,serif" font-size="14.00">PersistClientModule</text>
</g>
<!-- PersistClientModule&#45;&gt;BlockchainSyncModule -->
<g id="edge2" class="edge">
<title>PersistClientModule&#45;&gt;BlockchainSyncModule</title>
<path fill="none" stroke="black" d="M90,-84.91C90,-104.14 90,-131.8 90,-131.8 90,-131.8 160.28,-131.8 160.28,-131.8"/>
<polygon fill="black" stroke="black" points="160.28,-135.3 170.28,-131.8 160.28,-128.3 160.28,-135.3"/>
</g>
<!-- BlockchainSyncService  -->
<g id="node4" class="node">
<title>BlockchainSyncService </title>
<polygon fill="#fb8072" stroke="black" points="322.74,-214.8 169.26,-214.8 169.26,-178.8 322.74,-178.8 322.74,-214.8"/>
<text text-anchor="middle" x="246" y="-192.6" font-family="Times,serif" font-size="14.00">BlockchainSyncService </text>
</g>
<!-- BlockchainSyncModule&#45;&gt;BlockchainSyncService  -->
<g id="edge3" class="edge">
<title>BlockchainSyncModule&#45;&gt;BlockchainSyncService </title>
<path fill="none" stroke="black" stroke-dasharray="5,2" d="M246,-149.91C246,-149.91 246,-168.79 246,-168.79"/>
<polygon fill="black" stroke="black" points="242.5,-168.79 246,-178.79 249.5,-168.79 242.5,-168.79"/>
</g>
<!-- BlockchainSyncService -->
<g id="node5" class="node">
<title>BlockchainSyncService</title>
<ellipse fill="#fdb462" stroke="black" cx="446" cy="-66.8" rx="103.07" ry="18"/>
<text text-anchor="middle" x="446" y="-62.6" font-family="Times,serif" font-size="14.00">BlockchainSyncService</text>
</g>
<!-- BlockchainSyncService&#45;&gt;BlockchainSyncModule -->
<g id="edge4" class="edge">
<title>BlockchainSyncService&#45;&gt;BlockchainSyncModule</title>
<path fill="none" stroke="black" d="M446,-84.91C446,-104.14 446,-131.8 446,-131.8 446,-131.8 331.9,-131.8 331.9,-131.8"/>
<polygon fill="black" stroke="black" points="331.9,-128.3 321.9,-131.8 331.9,-135.3 331.9,-128.3"/>
</g>
</g>
</svg>
