<?xml version="1.0" encoding="UTF-8" standalone="no"?>
<!DOCTYPE svg PUBLIC "-//W3C//DTD SVG 1.1//EN"
 "http://www.w3.org/Graphics/SVG/1.1/DTD/svg11.dtd">
<!-- Generated by graphviz version 2.47.3 (20210619.1520)
 -->
<!-- Title: dependencies Pages: 1 -->
<svg width="953pt" height="247pt"
 viewBox="0.00 0.00 953.00 246.80" xmlns="http://www.w3.org/2000/svg" xmlns:xlink="http://www.w3.org/1999/xlink">
<g id="graph0" class="graph" transform="scale(1 1) rotate(0) translate(4 242.8)">
<title>dependencies</title>
<polygon fill="white" stroke="transparent" points="-4,4 -4,-242.8 949,-242.8 949,4 -4,4"/>
<text text-anchor="middle" x="472.5" y="-8.2" font-family="sans-serif" font-size="14.00">dependencies</text>
<g id="clust1" class="cluster">
<title>cluster_HttpValidatorModule</title>
<polygon fill="none" stroke="black" stroke-dasharray="1,5" points="8,-32.8 8,-230.8 937,-230.8 937,-32.8 8,-32.8"/>
</g>
<g id="clust6" class="cluster">
<title>cluster_HttpValidatorModule_providers</title>
<polygon fill="none" stroke="black" points="725,-40.8 725,-92.8 929,-92.8 929,-40.8 725,-40.8"/>
</g>
<g id="clust3" class="cluster">
<title>cluster_HttpValidatorModule_imports</title>
<polygon fill="none" stroke="black" points="16,-40.8 16,-92.8 717,-92.8 717,-40.8 16,-40.8"/>
</g>
<g id="clust4" class="cluster">
<title>cluster_HttpValidatorModule_exports</title>
<polygon fill="none" stroke="black" points="399,-170.8 399,-222.8 517,-222.8 517,-170.8 399,-170.8"/>
</g>
<!-- ConfigModule -->
<g id="node1" class="node">
<title>ConfigModule</title>
<polygon fill="#8dd3c7" stroke="black" points="709.44,-84.8 706.44,-88.8 685.44,-88.8 682.44,-84.8 610.56,-84.8 610.56,-48.8 709.44,-48.8 709.44,-84.8"/>
<text text-anchor="middle" x="660" y="-62.6" font-family="Times,serif" font-size="14.00">ConfigModule</text>
</g>
<!-- HttpValidatorModule -->
<g id="node6" class="node">
<title>HttpValidatorModule</title>
<polygon fill="#8dd3c7" stroke="black" points="526.81,-149.8 523.81,-153.8 502.81,-153.8 499.81,-149.8 389.19,-149.8 389.19,-113.8 526.81,-113.8 526.81,-149.8"/>
<text text-anchor="middle" x="458" y="-127.6" font-family="Times,serif" font-size="14.00">HttpValidatorModule</text>
</g>
<!-- ConfigModule&#45;&gt;HttpValidatorModule -->
<g id="edge1" class="edge">
<title>ConfigModule&#45;&gt;HttpValidatorModule</title>
<path fill="none" stroke="black" d="M660,-84.82C660,-102.17 660,-125.8 660,-125.8 660,-125.8 536.67,-125.8 536.67,-125.8"/>
<polygon fill="black" stroke="black" points="536.67,-122.3 526.67,-125.8 536.67,-129.3 536.67,-122.3"/>
</g>
<!-- EventClientModule -->
<g id="node2" class="node">
<title>EventClientModule</title>
<polygon fill="#8dd3c7" stroke="black" points="593.43,-84.8 590.43,-88.8 569.43,-88.8 566.43,-84.8 466.57,-84.8 466.57,-48.8 593.43,-48.8 593.43,-84.8"/>
<text text-anchor="middle" x="530" y="-62.6" font-family="Times,serif" font-size="14.00">EventClientModule</text>
</g>
<!-- EventClientModule&#45;&gt;HttpValidatorModule -->
<g id="edge2" class="edge">
<title>EventClientModule&#45;&gt;HttpValidatorModule</title>
<path fill="none" stroke="black" d="M496.72,-84.91C496.72,-84.91 496.72,-103.79 496.72,-103.79"/>
<polygon fill="black" stroke="black" points="493.22,-103.79 496.72,-113.79 500.22,-103.79 493.22,-103.79"/>
</g>
<!-- ParseClientModule -->
<g id="node3" class="node">
<title>ParseClientModule</title>
<polygon fill="#8dd3c7" stroke="black" points="449.09,-84.8 446.09,-88.8 425.09,-88.8 422.09,-84.8 324.91,-84.8 324.91,-48.8 449.09,-48.8 449.09,-84.8"/>
<text text-anchor="middle" x="387" y="-62.6" font-family="Times,serif" font-size="14.00">ParseClientModule</text>
</g>
<!-- ParseClientModule&#45;&gt;HttpValidatorModule -->
<g id="edge3" class="edge">
<title>ParseClientModule&#45;&gt;HttpValidatorModule</title>
<path fill="none" stroke="black" d="M419.2,-84.91C419.2,-84.91 419.2,-103.79 419.2,-103.79"/>
<polygon fill="black" stroke="black" points="415.7,-103.79 419.2,-113.79 422.7,-103.79 415.7,-103.79"/>
</g>
<!-- ValidatorDidModule -->
<g id="node4" class="node">
<title>ValidatorDidModule</title>
<polygon fill="#8dd3c7" stroke="black" points="306.92,-84.8 303.92,-88.8 282.92,-88.8 279.92,-84.8 173.08,-84.8 173.08,-48.8 306.92,-48.8 306.92,-84.8"/>
<text text-anchor="middle" x="240" y="-62.6" font-family="Times,serif" font-size="14.00">ValidatorDidModule</text>
</g>
<!-- ValidatorDidModule&#45;&gt;HttpValidatorModule -->
<g id="edge4" class="edge">
<title>ValidatorDidModule&#45;&gt;HttpValidatorModule</title>
<path fill="none" stroke="black" d="M240,-84.82C240,-102.17 240,-125.8 240,-125.8 240,-125.8 379.32,-125.8 379.32,-125.8"/>
<polygon fill="black" stroke="black" points="379.32,-129.3 389.32,-125.8 379.32,-122.3 379.32,-129.3"/>
</g>
<!-- WalletClientModule -->
<g id="node5" class="node">
<title>WalletClientModule</title>
<polygon fill="#8dd3c7" stroke="black" points="155.59,-84.8 152.59,-88.8 131.59,-88.8 128.59,-84.8 24.41,-84.8 24.41,-48.8 155.59,-48.8 155.59,-84.8"/>
<text text-anchor="middle" x="90" y="-62.6" font-family="Times,serif" font-size="14.00">WalletClientModule</text>
</g>
<!-- WalletClientModule&#45;&gt;HttpValidatorModule -->
<g id="edge5" class="edge">
<title>WalletClientModule&#45;&gt;HttpValidatorModule</title>
<path fill="none" stroke="black" d="M90,-85.08C90,-106.12 90,-137.8 90,-137.8 90,-137.8 379.21,-137.8 379.21,-137.8"/>
<polygon fill="black" stroke="black" points="379.21,-141.3 389.21,-137.8 379.21,-134.3 379.21,-141.3"/>
</g>
<!-- ConfigModule  -->
<g id="node7" class="node">
<title>ConfigModule </title>
<polygon fill="#fb8072" stroke="black" points="508.94,-214.8 407.06,-214.8 407.06,-178.8 508.94,-178.8 508.94,-214.8"/>
<text text-anchor="middle" x="458" y="-192.6" font-family="Times,serif" font-size="14.00">ConfigModule </text>
</g>
<!-- HttpValidatorModule&#45;&gt;ConfigModule  -->
<g id="edge6" class="edge">
<title>HttpValidatorModule&#45;&gt;ConfigModule </title>
<path fill="none" stroke="black" stroke-dasharray="5,2" d="M458,-149.91C458,-149.91 458,-168.79 458,-168.79"/>
<polygon fill="black" stroke="black" points="454.5,-168.79 458,-178.79 461.5,-168.79 454.5,-168.79"/>
</g>
<!-- HttpValidatorService -->
<g id="node8" class="node">
<title>HttpValidatorService</title>
<ellipse fill="#fdb462" stroke="black" cx="827" cy="-66.8" rx="93.75" ry="18"/>
<text text-anchor="middle" x="827" y="-62.6" font-family="Times,serif" font-size="14.00">HttpValidatorService</text>
</g>
<!-- HttpValidatorService&#45;&gt;HttpValidatorModule -->
<g id="edge7" class="edge">
<title>HttpValidatorService&#45;&gt;HttpValidatorModule</title>
<path fill="none" stroke="black" d="M827,-85.08C827,-106.12 827,-137.8 827,-137.8 827,-137.8 536.97,-137.8 536.97,-137.8"/>
<polygon fill="black" stroke="black" points="536.97,-134.3 526.97,-137.8 536.97,-141.3 536.97,-134.3"/>
</g>
</g>
</svg>
