<?xml version="1.0" encoding="UTF-8" standalone="no"?>
<!DOCTYPE svg PUBLIC "-//W3C//DTD SVG 1.1//EN"
 "http://www.w3.org/Graphics/SVG/1.1/DTD/svg11.dtd">
<!-- Generated by graphviz version 2.47.3 (20210619.1520)
 -->
<!-- Title: dependencies Pages: 1 -->
<svg width="953pt" height="247pt"
 viewBox="0.00 0.00 953.00 246.80" xmlns="http://www.w3.org/2000/svg" xmlns:xlink="http://www.w3.org/1999/xlink">
<g id="graph0" class="graph" transform="scale(1 1) rotate(0) translate(4 242.8)">
<title>dependencies</title>
<polygon fill="white" stroke="transparent" points="-4,4 -4,-242.8 949,-242.8 949,4 -4,4"/>
<text text-anchor="middle" x="472.5" y="-8.2" font-family="sans-serif" font-size="14.00">dependencies</text>
<g id="clust1" class="cluster">
<title>cluster_HttpValidatorModule</title>
<polygon fill="none" stroke="black" stroke-dasharray="1,5" points="8,-32.8 8,-230.8 937,-230.8 937,-32.8 8,-32.8"/>
</g>
<g id="clust3" class="cluster">
<title>cluster_HttpValidatorModule_imports</title>
<polygon fill="none" stroke="black" points="228,-40.8 228,-92.8 929,-92.8 929,-40.8 228,-40.8"/>
</g>
<g id="clust6" class="cluster">
<title>cluster_HttpValidatorModule_providers</title>
<polygon fill="none" stroke="black" points="16,-40.8 16,-92.8 220,-92.8 220,-40.8 16,-40.8"/>
</g>
<g id="clust4" class="cluster">
<title>cluster_HttpValidatorModule_exports</title>
<polygon fill="none" stroke="black" points="466,-170.8 466,-222.8 584,-222.8 584,-170.8 466,-170.8"/>
</g>
<!-- ConfigModule -->
<g id="node1" class="node">
<title>ConfigModule</title>
<polygon fill="#8dd3c7" stroke="black" points="921.44,-84.8 918.44,-88.8 897.44,-88.8 894.44,-84.8 822.56,-84.8 822.56,-48.8 921.44,-48.8 921.44,-84.8"/>
<text text-anchor="middle" x="872" y="-62.6" font-family="Times,serif" font-size="14.00">ConfigModule</text>
</g>
<!-- HttpValidatorModule -->
<g id="node6" class="node">
<title>HttpValidatorModule</title>
<polygon fill="#8dd3c7" stroke="black" points="593.81,-149.8 590.81,-153.8 569.81,-153.8 566.81,-149.8 456.19,-149.8 456.19,-113.8 593.81,-113.8 593.81,-149.8"/>
<text text-anchor="middle" x="525" y="-127.6" font-family="Times,serif" font-size="14.00">HttpValidatorModule</text>
</g>
<!-- ConfigModule&#45;&gt;HttpValidatorModule -->
<g id="edge1" class="edge">
<title>ConfigModule&#45;&gt;HttpValidatorModule</title>
<path fill="none" stroke="black" d="M872,-85.08C872,-106.12 872,-137.8 872,-137.8 872,-137.8 603.97,-137.8 603.97,-137.8"/>
<polygon fill="black" stroke="black" points="603.97,-134.3 593.97,-137.8 603.97,-141.3 603.97,-134.3"/>
</g>
<!-- EventClientModule -->
<g id="node2" class="node">
<title>EventClientModule</title>
<polygon fill="#8dd3c7" stroke="black" points="805.43,-84.8 802.43,-88.8 781.43,-88.8 778.43,-84.8 678.57,-84.8 678.57,-48.8 805.43,-48.8 805.43,-84.8"/>
<text text-anchor="middle" x="742" y="-62.6" font-family="Times,serif" font-size="14.00">EventClientModule</text>
</g>
<!-- EventClientModule&#45;&gt;HttpValidatorModule -->
<g id="edge2" class="edge">
<title>EventClientModule&#45;&gt;HttpValidatorModule</title>
<path fill="none" stroke="black" d="M742,-84.82C742,-102.17 742,-125.8 742,-125.8 742,-125.8 603.66,-125.8 603.66,-125.8"/>
<polygon fill="black" stroke="black" points="603.66,-122.3 593.66,-125.8 603.66,-129.3 603.66,-122.3"/>
</g>
<!-- ParseClientModule -->
<g id="node3" class="node">
<title>ParseClientModule</title>
<polygon fill="#8dd3c7" stroke="black" points="661.09,-84.8 658.09,-88.8 637.09,-88.8 634.09,-84.8 536.91,-84.8 536.91,-48.8 661.09,-48.8 661.09,-84.8"/>
<text text-anchor="middle" x="599" y="-62.6" font-family="Times,serif" font-size="14.00">ParseClientModule</text>
</g>
<!-- ParseClientModule&#45;&gt;HttpValidatorModule -->
<g id="edge3" class="edge">
<title>ParseClientModule&#45;&gt;HttpValidatorModule</title>
<path fill="none" stroke="black" d="M565.3,-84.91C565.3,-84.91 565.3,-103.79 565.3,-103.79"/>
<polygon fill="black" stroke="black" points="561.8,-103.79 565.3,-113.79 568.8,-103.79 561.8,-103.79"/>
</g>
<!-- ValidatorDidModule -->
<g id="node4" class="node">
<title>ValidatorDidModule</title>
<polygon fill="#8dd3c7" stroke="black" points="518.92,-84.8 515.92,-88.8 494.92,-88.8 491.92,-84.8 385.08,-84.8 385.08,-48.8 518.92,-48.8 518.92,-84.8"/>
<text text-anchor="middle" x="452" y="-62.6" font-family="Times,serif" font-size="14.00">ValidatorDidModule</text>
</g>
<!-- ValidatorDidModule&#45;&gt;HttpValidatorModule -->
<g id="edge4" class="edge">
<title>ValidatorDidModule&#45;&gt;HttpValidatorModule</title>
<path fill="none" stroke="black" d="M487.53,-84.91C487.53,-84.91 487.53,-103.79 487.53,-103.79"/>
<polygon fill="black" stroke="black" points="484.03,-103.79 487.53,-113.79 491.03,-103.79 484.03,-103.79"/>
</g>
<!-- WalletClientModule -->
<g id="node5" class="node">
<title>WalletClientModule</title>
<polygon fill="#8dd3c7" stroke="black" points="367.59,-84.8 364.59,-88.8 343.59,-88.8 340.59,-84.8 236.41,-84.8 236.41,-48.8 367.59,-48.8 367.59,-84.8"/>
<text text-anchor="middle" x="302" y="-62.6" font-family="Times,serif" font-size="14.00">WalletClientModule</text>
</g>
<!-- WalletClientModule&#45;&gt;HttpValidatorModule -->
<g id="edge5" class="edge">
<title>WalletClientModule&#45;&gt;HttpValidatorModule</title>
<path fill="none" stroke="black" d="M302,-84.82C302,-102.17 302,-125.8 302,-125.8 302,-125.8 446.27,-125.8 446.27,-125.8"/>
<polygon fill="black" stroke="black" points="446.27,-129.3 456.27,-125.8 446.27,-122.3 446.27,-129.3"/>
</g>
<!-- ConfigModule  -->
<g id="node7" class="node">
<title>ConfigModule </title>
<polygon fill="#fb8072" stroke="black" points="575.94,-214.8 474.06,-214.8 474.06,-178.8 575.94,-178.8 575.94,-214.8"/>
<text text-anchor="middle" x="525" y="-192.6" font-family="Times,serif" font-size="14.00">ConfigModule </text>
</g>
<!-- HttpValidatorModule&#45;&gt;ConfigModule  -->
<g id="edge6" class="edge">
<title>HttpValidatorModule&#45;&gt;ConfigModule </title>
<path fill="none" stroke="black" stroke-dasharray="5,2" d="M525,-149.91C525,-149.91 525,-168.79 525,-168.79"/>
<polygon fill="black" stroke="black" points="521.5,-168.79 525,-178.79 528.5,-168.79 521.5,-168.79"/>
</g>
<!-- HttpValidatorService -->
<g id="node8" class="node">
<title>HttpValidatorService</title>
<ellipse fill="#fdb462" stroke="black" cx="118" cy="-66.8" rx="93.75" ry="18"/>
<text text-anchor="middle" x="118" y="-62.6" font-family="Times,serif" font-size="14.00">HttpValidatorService</text>
</g>
<!-- HttpValidatorService&#45;&gt;HttpValidatorModule -->
<g id="edge7" class="edge">
<title>HttpValidatorService&#45;&gt;HttpValidatorModule</title>
<path fill="none" stroke="black" d="M118,-85.08C118,-106.12 118,-137.8 118,-137.8 118,-137.8 445.96,-137.8 445.96,-137.8"/>
<polygon fill="black" stroke="black" points="445.96,-141.3 455.96,-137.8 445.96,-134.3 445.96,-141.3"/>
</g>
</g>
</svg>
