<?xml version="1.0" encoding="UTF-8" standalone="no"?>
<!DOCTYPE svg PUBLIC "-//W3C//DTD SVG 1.1//EN"
 "http://www.w3.org/Graphics/SVG/1.1/DTD/svg11.dtd">
<!-- Generated by graphviz version 2.47.3 (20210619.1520)
 -->
<!-- Title: dependencies Pages: 1 -->
<svg width="552pt" height="247pt"
 viewBox="0.00 0.00 552.00 246.80" xmlns="http://www.w3.org/2000/svg" xmlns:xlink="http://www.w3.org/1999/xlink">
<g id="graph0" class="graph" transform="scale(1 1) rotate(0) translate(4 242.8)">
<title>dependencies</title>
<polygon fill="white" stroke="transparent" points="-4,4 -4,-242.8 548,-242.8 548,4 -4,4"/>
<text text-anchor="middle" x="272" y="-8.2" font-family="sans-serif" font-size="14.00">dependencies</text>
<g id="clust1" class="cluster">
<title>cluster_BlockReceivedModule</title>
<polygon fill="none" stroke="black" stroke-dasharray="1,5" points="8,-32.8 8,-230.8 536,-230.8 536,-32.8 8,-32.8"/>
</g>
<g id="clust3" class="cluster">
<title>cluster_BlockReceivedModule_imports</title>
<polygon fill="none" stroke="black" points="238,-40.8 238,-92.8 528,-92.8 528,-40.8 238,-40.8"/>
</g>
<g id="clust4" class="cluster">
<title>cluster_BlockReceivedModule_exports</title>
<polygon fill="none" stroke="black" points="230,-170.8 230,-222.8 394,-222.8 394,-170.8 230,-170.8"/>
</g>
<g id="clust6" class="cluster">
<title>cluster_BlockReceivedModule_providers</title>
<polygon fill="none" stroke="black" points="16,-40.8 16,-92.8 230,-92.8 230,-40.8 16,-40.8"/>
</g>
<!-- ParseClientModule -->
<g id="node1" class="node">
<title>ParseClientModule</title>
<polygon fill="#8dd3c7" stroke="black" points="520.09,-84.8 517.09,-88.8 496.09,-88.8 493.09,-84.8 395.91,-84.8 395.91,-48.8 520.09,-48.8 520.09,-84.8"/>
<text text-anchor="middle" x="458" y="-62.6" font-family="Times,serif" font-size="14.00">ParseClientModule</text>
</g>
<!-- BlockReceivedModule -->
<g id="node3" class="node">
<title>BlockReceivedModule</title>
<polygon fill="#8dd3c7" stroke="black" points="384.58,-149.8 381.58,-153.8 360.58,-153.8 357.58,-149.8 239.42,-149.8 239.42,-113.8 384.58,-113.8 384.58,-149.8"/>
<text text-anchor="middle" x="312" y="-127.6" font-family="Times,serif" font-size="14.00">BlockReceivedModule</text>
</g>
<!-- ParseClientModule&#45;&gt;BlockReceivedModule -->
<g id="edge1" class="edge">
<title>ParseClientModule&#45;&gt;BlockReceivedModule</title>
<path fill="none" stroke="black" d="M458,-84.91C458,-104.14 458,-131.8 458,-131.8 458,-131.8 394.57,-131.8 394.57,-131.8"/>
<polygon fill="black" stroke="black" points="394.57,-128.3 384.57,-131.8 394.57,-135.3 394.57,-128.3"/>
</g>
<!-- PersistClientModule -->
<g id="node2" class="node">
<title>PersistClientModule</title>
<polygon fill="#8dd3c7" stroke="black" points="377.6,-84.8 374.6,-88.8 353.6,-88.8 350.6,-84.8 246.4,-84.8 246.4,-48.8 377.6,-48.8 377.6,-84.8"/>
<text text-anchor="middle" x="312" y="-62.6" font-family="Times,serif" font-size="14.00">PersistClientModule</text>
</g>
<!-- PersistClientModule&#45;&gt;BlockReceivedModule -->
<g id="edge2" class="edge">
<title>PersistClientModule&#45;&gt;BlockReceivedModule</title>
<path fill="none" stroke="black" d="M312,-84.91C312,-84.91 312,-103.79 312,-103.79"/>
<polygon fill="black" stroke="black" points="308.5,-103.79 312,-113.79 315.5,-103.79 308.5,-103.79"/>
</g>
<!-- BlockReceivedService  -->
<g id="node4" class="node">
<title>BlockReceivedService </title>
<polygon fill="#fb8072" stroke="black" points="385.51,-214.8 238.49,-214.8 238.49,-178.8 385.51,-178.8 385.51,-214.8"/>
<text text-anchor="middle" x="312" y="-192.6" font-family="Times,serif" font-size="14.00">BlockReceivedService </text>
</g>
<!-- BlockReceivedModule&#45;&gt;BlockReceivedService  -->
<g id="edge3" class="edge">
<title>BlockReceivedModule&#45;&gt;BlockReceivedService </title>
<path fill="none" stroke="black" stroke-dasharray="5,2" d="M312,-149.91C312,-149.91 312,-168.79 312,-168.79"/>
<polygon fill="black" stroke="black" points="308.5,-168.79 312,-178.79 315.5,-168.79 308.5,-168.79"/>
</g>
<!-- BlockReceivedService -->
<g id="node5" class="node">
<title>BlockReceivedService</title>
<ellipse fill="#fdb462" stroke="black" cx="123" cy="-66.8" rx="98.97" ry="18"/>
<text text-anchor="middle" x="123" y="-62.6" font-family="Times,serif" font-size="14.00">BlockReceivedService</text>
</g>
<!-- BlockReceivedService&#45;&gt;BlockReceivedModule -->
<g id="edge4" class="edge">
<title>BlockReceivedService&#45;&gt;BlockReceivedModule</title>
<path fill="none" stroke="black" d="M123,-84.91C123,-104.14 123,-131.8 123,-131.8 123,-131.8 229.2,-131.8 229.2,-131.8"/>
<polygon fill="black" stroke="black" points="229.2,-135.3 239.2,-131.8 229.2,-128.3 229.2,-135.3"/>
</g>
</g>
</svg>
