<?xml version="1.0" encoding="UTF-8" standalone="no"?>
<!DOCTYPE svg PUBLIC "-//W3C//DTD SVG 1.1//EN"
 "http://www.w3.org/Graphics/SVG/1.1/DTD/svg11.dtd">
<!-- Generated by graphviz version 3.0.0 (20220226.1711)
 -->
<!-- Title: dependencies Pages: 1 -->
<svg width="552pt" height="247pt"
 viewBox="0.00 0.00 552.00 246.80" xmlns="http://www.w3.org/2000/svg" xmlns:xlink="http://www.w3.org/1999/xlink">
<g id="graph0" class="graph" transform="scale(1 1) rotate(0) translate(4 242.8)">
<title>dependencies</title>
<polygon fill="white" stroke="transparent" points="-4,4 -4,-242.8 548,-242.8 548,4 -4,4"/>
<text text-anchor="middle" x="272" y="-8.2" font-family="sans-serif" font-size="14.00">dependencies</text>
<g id="clust1" class="cluster">
<title>cluster_BlockReceivedModule</title>
<polygon fill="none" stroke="black" stroke-dasharray="1,5" points="8,-32.8 8,-230.8 536,-230.8 536,-32.8 8,-32.8"/>
</g>
<g id="clust6" class="cluster">
<title>cluster_BlockReceivedModule_providers</title>
<polygon fill="none" stroke="black" points="314,-40.8 314,-92.8 528,-92.8 528,-40.8 314,-40.8"/>
</g>
<g id="clust4" class="cluster">
<title>cluster_BlockReceivedModule_exports</title>
<polygon fill="none" stroke="black" points="154,-170.8 154,-222.8 318,-222.8 318,-170.8 154,-170.8"/>
</g>
<g id="clust3" class="cluster">
<title>cluster_BlockReceivedModule_imports</title>
<polygon fill="none" stroke="black" points="16,-40.8 16,-92.8 306,-92.8 306,-40.8 16,-40.8"/>
</g>
<!-- ParseClientModule -->
<g id="node1" class="node">
<title>ParseClientModule</title>
<polygon fill="#8dd3c7" stroke="black" points="298.1,-84.8 295.1,-88.8 274.1,-88.8 271.1,-84.8 173.9,-84.8 173.9,-48.8 298.1,-48.8 298.1,-84.8"/>
<text text-anchor="middle" x="236" y="-62.6" font-family="Times,serif" font-size="14.00">ParseClientModule</text>
</g>
<!-- BlockReceivedModule -->
<g id="node3" class="node">
<title>BlockReceivedModule</title>
<polygon fill="#8dd3c7" stroke="black" points="308.58,-149.8 305.58,-153.8 284.58,-153.8 281.58,-149.8 163.42,-149.8 163.42,-113.8 308.58,-113.8 308.58,-149.8"/>
<text text-anchor="middle" x="236" y="-127.6" font-family="Times,serif" font-size="14.00">BlockReceivedModule</text>
</g>
<!-- ParseClientModule&#45;&gt;BlockReceivedModule -->
<g id="edge1" class="edge">
<title>ParseClientModule&#45;&gt;BlockReceivedModule</title>
<path fill="none" stroke="black" d="M236,-84.91C236,-84.91 236,-103.79 236,-103.79"/>
<polygon fill="black" stroke="black" points="232.5,-103.79 236,-113.79 239.5,-103.79 232.5,-103.79"/>
</g>
<!-- PersistClientModule -->
<g id="node2" class="node">
<title>PersistClientModule</title>
<polygon fill="#8dd3c7" stroke="black" points="155.61,-84.8 152.61,-88.8 131.61,-88.8 128.61,-84.8 24.39,-84.8 24.39,-48.8 155.61,-48.8 155.61,-84.8"/>
<text text-anchor="middle" x="90" y="-62.6" font-family="Times,serif" font-size="14.00">PersistClientModule</text>
</g>
<!-- PersistClientModule&#45;&gt;BlockReceivedModule -->
<g id="edge2" class="edge">
<title>PersistClientModule&#45;&gt;BlockReceivedModule</title>
<path fill="none" stroke="black" d="M155.71,-66.8C163.48,-66.8 168.71,-66.8 168.71,-66.8 168.71,-66.8 168.71,-103.69 168.71,-103.69"/>
<polygon fill="black" stroke="black" points="165.21,-103.69 168.71,-113.69 172.21,-103.69 165.21,-103.69"/>
</g>
<!-- BlockReceivedService  -->
<g id="node4" class="node">
<title>BlockReceivedService </title>
<polygon fill="#fb8072" stroke="black" points="309.5,-214.8 162.5,-214.8 162.5,-178.8 309.5,-178.8 309.5,-214.8"/>
<text text-anchor="middle" x="236" y="-192.6" font-family="Times,serif" font-size="14.00">BlockReceivedService </text>
</g>
<!-- BlockReceivedModule&#45;&gt;BlockReceivedService  -->
<g id="edge3" class="edge">
<title>BlockReceivedModule&#45;&gt;BlockReceivedService </title>
<path fill="none" stroke="black" stroke-dasharray="5,2" d="M236,-149.91C236,-149.91 236,-168.79 236,-168.79"/>
<polygon fill="black" stroke="black" points="232.5,-168.79 236,-178.79 239.5,-168.79 232.5,-168.79"/>
</g>
<!-- BlockReceivedService -->
<g id="node5" class="node">
<title>BlockReceivedService</title>
<ellipse fill="#fdb462" stroke="black" cx="421" cy="-66.8" rx="98.97" ry="18"/>
<text text-anchor="middle" x="421" y="-62.6" font-family="Times,serif" font-size="14.00">BlockReceivedService</text>
</g>
<!-- BlockReceivedService&#45;&gt;BlockReceivedModule -->
<g id="edge4" class="edge">
<title>BlockReceivedService&#45;&gt;BlockReceivedModule</title>
<path fill="none" stroke="black" d="M321.94,-66.8C310.77,-66.8 303.29,-66.8 303.29,-66.8 303.29,-66.8 303.29,-103.69 303.29,-103.69"/>
<polygon fill="black" stroke="black" points="299.79,-103.69 303.29,-113.69 306.79,-103.69 299.79,-103.69"/>
</g>
</g>
</svg>
