<?xml version="1.0" encoding="UTF-8" standalone="no"?>
<!DOCTYPE svg PUBLIC "-//W3C//DTD SVG 1.1//EN"
 "http://www.w3.org/Graphics/SVG/1.1/DTD/svg11.dtd">
<!-- Generated by graphviz version 2.47.3 (20210619.1520)
 -->
<!-- Title: dependencies Pages: 1 -->
<svg width="2239pt" height="174pt"
 viewBox="0.00 0.00 2239.00 173.80" xmlns="http://www.w3.org/2000/svg" xmlns:xlink="http://www.w3.org/1999/xlink">
<g id="graph0" class="graph" transform="scale(1 1) rotate(0) translate(4 169.8)">
<title>dependencies</title>
<polygon fill="white" stroke="transparent" points="-4,4 -4,-169.8 2235,-169.8 2235,4 -4,4"/>
<text text-anchor="middle" x="1115.5" y="-8.2" font-family="sans-serif" font-size="14.00">dependencies</text>
<g id="clust1" class="cluster">
<title>cluster_NetworkValidatorModule</title>
<polygon fill="none" stroke="black" stroke-dasharray="1,5" points="8,-32.8 8,-157.8 2223,-157.8 2223,-32.8 8,-32.8"/>
</g>
<g id="clust3" class="cluster">
<title>cluster_NetworkValidatorModule_imports</title>
<polygon fill="none" stroke="black" points="420,-40.8 420,-92.8 2215,-92.8 2215,-40.8 420,-40.8"/>
</g>
<g id="clust6" class="cluster">
<title>cluster_NetworkValidatorModule_providers</title>
<polygon fill="none" stroke="black" points="16,-40.8 16,-92.8 412,-92.8 412,-40.8 16,-40.8"/>
</g>
<!-- BlockReceivedModule -->
<g id="node1" class="node">
<title>BlockReceivedModule</title>
<polygon fill="#8dd3c7" stroke="black" points="2206.58,-84.8 2203.58,-88.8 2182.58,-88.8 2179.58,-84.8 2061.42,-84.8 2061.42,-48.8 2206.58,-48.8 2206.58,-84.8"/>
<text text-anchor="middle" x="2134" y="-62.6" font-family="Times,serif" font-size="14.00">BlockReceivedModule</text>
</g>
<!-- NetworkValidatorModule -->
<g id="node13" class="node">
<title>NetworkValidatorModule</title>
<polygon fill="#8dd3c7" stroke="black" points="1421.9,-149.8 1418.9,-153.8 1397.9,-153.8 1394.9,-149.8 1260.1,-149.8 1260.1,-113.8 1421.9,-113.8 1421.9,-149.8"/>
<text text-anchor="middle" x="1341" y="-127.6" font-family="Times,serif" font-size="14.00">NetworkValidatorModule</text>
</g>
<!-- BlockReceivedModule&#45;&gt;NetworkValidatorModule -->
<g id="edge1" class="edge">
<title>BlockReceivedModule&#45;&gt;NetworkValidatorModule</title>
<path fill="none" stroke="black" d="M2134,-84.89C2134,-107.93 2134,-144.8 2134,-144.8 2134,-144.8 1431.77,-144.8 1431.77,-144.8"/>
<polygon fill="black" stroke="black" points="1431.77,-141.3 1421.77,-144.8 1431.77,-148.3 1431.77,-141.3"/>
</g>
<!-- ConfigModule -->
<g id="node2" class="node">
<title>ConfigModule</title>
<polygon fill="#8dd3c7" stroke="black" points="2043.44,-84.8 2040.44,-88.8 2019.44,-88.8 2016.44,-84.8 1944.56,-84.8 1944.56,-48.8 2043.44,-48.8 2043.44,-84.8"/>
<text text-anchor="middle" x="1994" y="-62.6" font-family="Times,serif" font-size="14.00">ConfigModule</text>
</g>
<!-- ConfigModule&#45;&gt;NetworkValidatorModule -->
<g id="edge2" class="edge">
<title>ConfigModule&#45;&gt;NetworkValidatorModule</title>
<path fill="none" stroke="black" d="M1994,-84.84C1994,-106.46 1994,-139.8 1994,-139.8 1994,-139.8 1431.73,-139.8 1431.73,-139.8"/>
<polygon fill="black" stroke="black" points="1431.73,-136.3 1421.73,-139.8 1431.73,-143.3 1431.73,-136.3"/>
</g>
<!-- DidIdCachedModule -->
<g id="node3" class="node">
<title>DidIdCachedModule</title>
<polygon fill="#8dd3c7" stroke="black" points="1927.19,-84.8 1924.19,-88.8 1903.19,-88.8 1900.19,-84.8 1792.81,-84.8 1792.81,-48.8 1927.19,-48.8 1927.19,-84.8"/>
<text text-anchor="middle" x="1860" y="-62.6" font-family="Times,serif" font-size="14.00">DidIdCachedModule</text>
</g>
<!-- DidIdCachedModule&#45;&gt;NetworkValidatorModule -->
<g id="edge3" class="edge">
<title>DidIdCachedModule&#45;&gt;NetworkValidatorModule</title>
<path fill="none" stroke="black" d="M1882.36,-85.02C1882.36,-105.17 1882.36,-134.8 1882.36,-134.8 1882.36,-134.8 1431.76,-134.8 1431.76,-134.8"/>
<polygon fill="black" stroke="black" points="1431.76,-131.3 1421.76,-134.8 1431.76,-138.3 1431.76,-131.3"/>
</g>
<!-- DidIdCachedModule&#45;&gt;NetworkValidatorModule -->
<g id="edge4" class="edge">
<title>DidIdCachedModule&#45;&gt;NetworkValidatorModule</title>
<path fill="none" stroke="black" d="M1837.64,-85.02C1837.64,-103.63 1837.64,-129.8 1837.64,-129.8 1837.64,-129.8 1431.9,-129.8 1431.9,-129.8"/>
<polygon fill="black" stroke="black" points="1431.9,-126.3 1421.9,-129.8 1431.9,-133.3 1431.9,-126.3"/>
</g>
<!-- DidIdDbModule -->
<g id="node4" class="node">
<title>DidIdDbModule</title>
<polygon fill="#8dd3c7" stroke="black" points="1774.81,-84.8 1771.81,-88.8 1750.81,-88.8 1747.81,-84.8 1665.19,-84.8 1665.19,-48.8 1774.81,-48.8 1774.81,-84.8"/>
<text text-anchor="middle" x="1720" y="-62.6" font-family="Times,serif" font-size="14.00">DidIdDbModule</text>
</g>
<!-- DidIdDbModule&#45;&gt;NetworkValidatorModule -->
<g id="edge5" class="edge">
<title>DidIdDbModule&#45;&gt;NetworkValidatorModule</title>
<path fill="none" stroke="black" d="M1720,-84.83C1720,-101.86 1720,-124.8 1720,-124.8 1720,-124.8 1431.84,-124.8 1431.84,-124.8"/>
<polygon fill="black" stroke="black" points="1431.84,-121.3 1421.84,-124.8 1431.84,-128.3 1431.84,-121.3"/>
</g>
<!-- EventClientModule -->
<g id="node5" class="node">
<title>EventClientModule</title>
<polygon fill="#8dd3c7" stroke="black" points="1647.43,-84.8 1644.43,-88.8 1623.43,-88.8 1620.43,-84.8 1520.57,-84.8 1520.57,-48.8 1647.43,-48.8 1647.43,-84.8"/>
<text text-anchor="middle" x="1584" y="-62.6" font-family="Times,serif" font-size="14.00">EventClientModule</text>
</g>
<!-- EventClientModule&#45;&gt;NetworkValidatorModule -->
<g id="edge6" class="edge">
<title>EventClientModule&#45;&gt;NetworkValidatorModule</title>
<path fill="none" stroke="black" d="M1584,-85.04C1584,-100.37 1584,-119.8 1584,-119.8 1584,-119.8 1431.92,-119.8 1431.92,-119.8"/>
<polygon fill="black" stroke="black" points="1431.92,-116.3 1421.92,-119.8 1431.92,-123.3 1431.92,-116.3"/>
</g>
<!-- P2PModule -->
<g id="node6" class="node">
<title>P2PModule</title>
<polygon fill="#8dd3c7" stroke="black" points="1503.12,-84.8 1500.12,-88.8 1479.12,-88.8 1476.12,-84.8 1420.88,-84.8 1420.88,-48.8 1503.12,-48.8 1503.12,-84.8"/>
<text text-anchor="middle" x="1462" y="-62.6" font-family="Times,serif" font-size="14.00">P2PModule</text>
</g>
<!-- P2PModule&#45;&gt;NetworkValidatorModule -->
<g id="edge7" class="edge">
<title>P2PModule&#45;&gt;NetworkValidatorModule</title>
<path fill="none" stroke="black" d="M1420.7,-66.8C1415.52,-66.8 1411.99,-66.8 1411.99,-66.8 1411.99,-66.8 1411.99,-103.69 1411.99,-103.69"/>
<polygon fill="black" stroke="black" points="1408.49,-103.69 1411.99,-113.69 1415.49,-103.69 1408.49,-103.69"/>
</g>
<!-- ParseClientModule -->
<g id="node7" class="node">
<title>ParseClientModule</title>
<polygon fill="#8dd3c7" stroke="black" points="1403.09,-84.8 1400.09,-88.8 1379.09,-88.8 1376.09,-84.8 1278.91,-84.8 1278.91,-48.8 1403.09,-48.8 1403.09,-84.8"/>
<text text-anchor="middle" x="1341" y="-62.6" font-family="Times,serif" font-size="14.00">ParseClientModule</text>
</g>
<!-- ParseClientModule&#45;&gt;NetworkValidatorModule -->
<g id="edge8" class="edge">
<title>ParseClientModule&#45;&gt;NetworkValidatorModule</title>
<path fill="none" stroke="black" d="M1341,-84.91C1341,-84.91 1341,-103.79 1341,-103.79"/>
<polygon fill="black" stroke="black" points="1337.5,-103.79 1341,-113.79 1344.5,-103.79 1337.5,-103.79"/>
</g>
<!-- PersistClientModule -->
<g id="node8" class="node">
<title>PersistClientModule</title>
<polygon fill="#8dd3c7" stroke="black" points="1260.6,-84.8 1257.6,-88.8 1236.6,-88.8 1233.6,-84.8 1129.4,-84.8 1129.4,-48.8 1260.6,-48.8 1260.6,-84.8"/>
<text text-anchor="middle" x="1195" y="-62.6" font-family="Times,serif" font-size="14.00">PersistClientModule</text>
</g>
<!-- PersistClientModule&#45;&gt;NetworkValidatorModule -->
<g id="edge9" class="edge">
<title>PersistClientModule&#45;&gt;NetworkValidatorModule</title>
<path fill="none" stroke="black" d="M1260.59,-66.8C1266.18,-66.8 1269.75,-66.8 1269.75,-66.8 1269.75,-66.8 1269.75,-103.69 1269.75,-103.69"/>
<polygon fill="black" stroke="black" points="1266.25,-103.69 1269.75,-113.69 1273.25,-103.69 1266.25,-103.69"/>
</g>
<!-- ValidatorBlockchainModule -->
<g id="node9" class="node">
<title>ValidatorBlockchainModule</title>
<polygon fill="#8dd3c7" stroke="black" points="1111.18,-84.8 1108.18,-88.8 1087.18,-88.8 1084.18,-84.8 934.82,-84.8 934.82,-48.8 1111.18,-48.8 1111.18,-84.8"/>
<text text-anchor="middle" x="1023" y="-62.6" font-family="Times,serif" font-size="14.00">ValidatorBlockchainModule</text>
</g>
<!-- ValidatorBlockchainModule&#45;&gt;NetworkValidatorModule -->
<g id="edge10" class="edge">
<title>ValidatorBlockchainModule&#45;&gt;NetworkValidatorModule</title>
<path fill="none" stroke="black" d="M1023,-85.04C1023,-100.37 1023,-119.8 1023,-119.8 1023,-119.8 1249.93,-119.8 1249.93,-119.8"/>
<polygon fill="black" stroke="black" points="1249.93,-123.3 1259.93,-119.8 1249.93,-116.3 1249.93,-123.3"/>
</g>
<!-- ValidatorConsensusModule -->
<g id="node10" class="node">
<title>ValidatorConsensusModule</title>
<polygon fill="#8dd3c7" stroke="black" points="917.3,-84.8 914.3,-88.8 893.3,-88.8 890.3,-84.8 744.7,-84.8 744.7,-48.8 917.3,-48.8 917.3,-84.8"/>
<text text-anchor="middle" x="831" y="-62.6" font-family="Times,serif" font-size="14.00">ValidatorConsensusModule</text>
</g>
<!-- ValidatorConsensusModule&#45;&gt;NetworkValidatorModule -->
<g id="edge11" class="edge">
<title>ValidatorConsensusModule&#45;&gt;NetworkValidatorModule</title>
<path fill="none" stroke="black" d="M831,-84.83C831,-101.86 831,-124.8 831,-124.8 831,-124.8 1250.19,-124.8 1250.19,-124.8"/>
<polygon fill="black" stroke="black" points="1250.19,-128.3 1260.19,-124.8 1250.19,-121.3 1250.19,-128.3"/>
</g>
<!-- ValidatorHealthModule -->
<g id="node11" class="node">
<title>ValidatorHealthModule</title>
<polygon fill="#8dd3c7" stroke="black" points="726.74,-84.8 723.74,-88.8 702.74,-88.8 699.74,-84.8 577.26,-84.8 577.26,-48.8 726.74,-48.8 726.74,-84.8"/>
<text text-anchor="middle" x="652" y="-62.6" font-family="Times,serif" font-size="14.00">ValidatorHealthModule</text>
</g>
<!-- ValidatorHealthModule&#45;&gt;NetworkValidatorModule -->
<g id="edge12" class="edge">
<title>ValidatorHealthModule&#45;&gt;NetworkValidatorModule</title>
<path fill="none" stroke="black" d="M652,-85.02C652,-103.63 652,-129.8 652,-129.8 652,-129.8 1250.28,-129.8 1250.28,-129.8"/>
<polygon fill="black" stroke="black" points="1250.28,-133.3 1260.28,-129.8 1250.28,-126.3 1250.28,-133.3"/>
</g>
<!-- WalletClientModule -->
<g id="node12" class="node">
<title>WalletClientModule</title>
<polygon fill="#8dd3c7" stroke="black" points="559.59,-84.8 556.59,-88.8 535.59,-88.8 532.59,-84.8 428.41,-84.8 428.41,-48.8 559.59,-48.8 559.59,-84.8"/>
<text text-anchor="middle" x="494" y="-62.6" font-family="Times,serif" font-size="14.00">WalletClientModule</text>
</g>
<!-- WalletClientModule&#45;&gt;NetworkValidatorModule -->
<g id="edge13" class="edge">
<title>WalletClientModule&#45;&gt;NetworkValidatorModule</title>
<path fill="none" stroke="black" d="M494,-85.02C494,-105.17 494,-134.8 494,-134.8 494,-134.8 1250.17,-134.8 1250.17,-134.8"/>
<polygon fill="black" stroke="black" points="1250.17,-138.3 1260.17,-134.8 1250.17,-131.3 1250.17,-138.3"/>
</g>
<!-- GenesisService -->
<g id="node14" class="node">
<title>GenesisService</title>
<ellipse fill="#fdb462" stroke="black" cx="333" cy="-66.8" rx="70.62" ry="18"/>
<text text-anchor="middle" x="333" y="-62.6" font-family="Times,serif" font-size="14.00">GenesisService</text>
</g>
<!-- GenesisService&#45;&gt;NetworkValidatorModule -->
<g id="edge14" class="edge">
<title>GenesisService&#45;&gt;NetworkValidatorModule</title>
<path fill="none" stroke="black" d="M333,-84.84C333,-106.46 333,-139.8 333,-139.8 333,-139.8 1250.22,-139.8 1250.22,-139.8"/>
<polygon fill="black" stroke="black" points="1250.22,-143.3 1260.22,-139.8 1250.22,-136.3 1250.22,-143.3"/>
</g>
<!-- NetworkValidatorService -->
<g id="node15" class="node">
<title>NetworkValidatorService</title>
<ellipse fill="#fdb462" stroke="black" cx="134" cy="-66.8" rx="110.49" ry="18"/>
<text text-anchor="middle" x="134" y="-62.6" font-family="Times,serif" font-size="14.00">NetworkValidatorService</text>
</g>
<!-- NetworkValidatorService&#45;&gt;NetworkValidatorModule -->
<g id="edge15" class="edge">
<title>NetworkValidatorService&#45;&gt;NetworkValidatorModule</title>
<path fill="none" stroke="black" d="M134,-84.89C134,-107.93 134,-144.8 134,-144.8 134,-144.8 1249.93,-144.8 1249.93,-144.8"/>
<polygon fill="black" stroke="black" points="1249.93,-148.3 1259.93,-144.8 1249.93,-141.3 1249.93,-148.3"/>
</g>
</g>
</svg>
