<?xml version="1.0" encoding="UTF-8" standalone="no"?>
<!DOCTYPE svg PUBLIC "-//W3C//DTD SVG 1.1//EN"
 "http://www.w3.org/Graphics/SVG/1.1/DTD/svg11.dtd">
<!-- Generated by graphviz version 2.47.3 (20210619.1520)
 -->
<!-- Title: dependencies Pages: 1 -->
<svg width="2239pt" height="174pt"
 viewBox="0.00 0.00 2239.00 173.80" xmlns="http://www.w3.org/2000/svg" xmlns:xlink="http://www.w3.org/1999/xlink">
<g id="graph0" class="graph" transform="scale(1 1) rotate(0) translate(4 169.8)">
<title>dependencies</title>
<polygon fill="white" stroke="transparent" points="-4,4 -4,-169.8 2235,-169.8 2235,4 -4,4"/>
<text text-anchor="middle" x="1115.5" y="-8.2" font-family="sans-serif" font-size="14.00">dependencies</text>
<g id="clust1" class="cluster">
<title>cluster_NetworkValidatorModule</title>
<polygon fill="none" stroke="black" stroke-dasharray="1,5" points="8,-32.8 8,-157.8 2223,-157.8 2223,-32.8 8,-32.8"/>
</g>
<g id="clust6" class="cluster">
<title>cluster_NetworkValidatorModule_providers</title>
<polygon fill="none" stroke="black" points="1819,-40.8 1819,-92.8 2215,-92.8 2215,-40.8 1819,-40.8"/>
</g>
<g id="clust3" class="cluster">
<title>cluster_NetworkValidatorModule_imports</title>
<polygon fill="none" stroke="black" points="16,-40.8 16,-92.8 1811,-92.8 1811,-40.8 16,-40.8"/>
</g>
<!-- BlockReceivedModule -->
<g id="node1" class="node">
<title>BlockReceivedModule</title>
<polygon fill="#8dd3c7" stroke="black" points="1802.58,-84.8 1799.58,-88.8 1778.58,-88.8 1775.58,-84.8 1657.42,-84.8 1657.42,-48.8 1802.58,-48.8 1802.58,-84.8"/>
<text text-anchor="middle" x="1730" y="-62.6" font-family="Times,serif" font-size="14.00">BlockReceivedModule</text>
</g>
<!-- NetworkValidatorModule -->
<g id="node13" class="node">
<title>NetworkValidatorModule</title>
<polygon fill="#8dd3c7" stroke="black" points="1260.9,-149.8 1257.9,-153.8 1236.9,-153.8 1233.9,-149.8 1099.1,-149.8 1099.1,-113.8 1260.9,-113.8 1260.9,-149.8"/>
<text text-anchor="middle" x="1180" y="-127.6" font-family="Times,serif" font-size="14.00">NetworkValidatorModule</text>
</g>
<!-- BlockReceivedModule&#45;&gt;NetworkValidatorModule -->
<g id="edge1" class="edge">
<title>BlockReceivedModule&#45;&gt;NetworkValidatorModule</title>
<path fill="none" stroke="black" d="M1730,-85.02C1730,-105.17 1730,-134.8 1730,-134.8 1730,-134.8 1270.86,-134.8 1270.86,-134.8"/>
<polygon fill="black" stroke="black" points="1270.86,-131.3 1260.86,-134.8 1270.86,-138.3 1270.86,-131.3"/>
</g>
<!-- ConfigModule -->
<g id="node2" class="node">
<title>ConfigModule</title>
<polygon fill="#8dd3c7" stroke="black" points="1639.44,-84.8 1636.44,-88.8 1615.44,-88.8 1612.44,-84.8 1540.56,-84.8 1540.56,-48.8 1639.44,-48.8 1639.44,-84.8"/>
<text text-anchor="middle" x="1590" y="-62.6" font-family="Times,serif" font-size="14.00">ConfigModule</text>
</g>
<!-- ConfigModule&#45;&gt;NetworkValidatorModule -->
<g id="edge2" class="edge">
<title>ConfigModule&#45;&gt;NetworkValidatorModule</title>
<path fill="none" stroke="black" d="M1590,-85.02C1590,-103.63 1590,-129.8 1590,-129.8 1590,-129.8 1271,-129.8 1271,-129.8"/>
<polygon fill="black" stroke="black" points="1271,-126.3 1261,-129.8 1271,-133.3 1271,-126.3"/>
</g>
<!-- DidIdCachedModule -->
<g id="node3" class="node">
<title>DidIdCachedModule</title>
<polygon fill="#8dd3c7" stroke="black" points="1523.19,-84.8 1520.19,-88.8 1499.19,-88.8 1496.19,-84.8 1388.81,-84.8 1388.81,-48.8 1523.19,-48.8 1523.19,-84.8"/>
<text text-anchor="middle" x="1456" y="-62.6" font-family="Times,serif" font-size="14.00">DidIdCachedModule</text>
</g>
<!-- DidIdCachedModule&#45;&gt;NetworkValidatorModule -->
<g id="edge3" class="edge">
<title>DidIdCachedModule&#45;&gt;NetworkValidatorModule</title>
<path fill="none" stroke="black" d="M1478.36,-84.83C1478.36,-101.86 1478.36,-124.8 1478.36,-124.8 1478.36,-124.8 1270.74,-124.8 1270.74,-124.8"/>
<polygon fill="black" stroke="black" points="1270.74,-121.3 1260.74,-124.8 1270.74,-128.3 1270.74,-121.3"/>
</g>
<!-- DidIdCachedModule&#45;&gt;NetworkValidatorModule -->
<g id="edge4" class="edge">
<title>DidIdCachedModule&#45;&gt;NetworkValidatorModule</title>
<path fill="none" stroke="black" d="M1433.64,-85.04C1433.64,-100.37 1433.64,-119.8 1433.64,-119.8 1433.64,-119.8 1270.95,-119.8 1270.95,-119.8"/>
<polygon fill="black" stroke="black" points="1270.95,-116.3 1260.95,-119.8 1270.95,-123.3 1270.95,-116.3"/>
</g>
<!-- DidIdDbModule -->
<g id="node4" class="node">
<title>DidIdDbModule</title>
<polygon fill="#8dd3c7" stroke="black" points="1370.81,-84.8 1367.81,-88.8 1346.81,-88.8 1343.81,-84.8 1261.19,-84.8 1261.19,-48.8 1370.81,-48.8 1370.81,-84.8"/>
<text text-anchor="middle" x="1316" y="-62.6" font-family="Times,serif" font-size="14.00">DidIdDbModule</text>
</g>
<!-- DidIdDbModule&#45;&gt;NetworkValidatorModule -->
<g id="edge5" class="edge">
<title>DidIdDbModule&#45;&gt;NetworkValidatorModule</title>
<path fill="none" stroke="black" d="M1261.13,-66.8C1255.59,-66.8 1251.96,-66.8 1251.96,-66.8 1251.96,-66.8 1251.96,-103.69 1251.96,-103.69"/>
<polygon fill="black" stroke="black" points="1248.46,-103.69 1251.96,-113.69 1255.46,-103.69 1248.46,-103.69"/>
</g>
<!-- EventClientModule -->
<g id="node5" class="node">
<title>EventClientModule</title>
<polygon fill="#8dd3c7" stroke="black" points="1243.43,-84.8 1240.43,-88.8 1219.43,-88.8 1216.43,-84.8 1116.57,-84.8 1116.57,-48.8 1243.43,-48.8 1243.43,-84.8"/>
<text text-anchor="middle" x="1180" y="-62.6" font-family="Times,serif" font-size="14.00">EventClientModule</text>
</g>
<!-- EventClientModule&#45;&gt;NetworkValidatorModule -->
<g id="edge6" class="edge">
<title>EventClientModule&#45;&gt;NetworkValidatorModule</title>
<path fill="none" stroke="black" d="M1180,-84.91C1180,-84.91 1180,-103.79 1180,-103.79"/>
<polygon fill="black" stroke="black" points="1176.5,-103.79 1180,-113.79 1183.5,-103.79 1176.5,-103.79"/>
</g>
<!-- P2PModule -->
<g id="node6" class="node">
<title>P2PModule</title>
<polygon fill="#8dd3c7" stroke="black" points="1099.12,-84.8 1096.12,-88.8 1075.12,-88.8 1072.12,-84.8 1016.88,-84.8 1016.88,-48.8 1099.12,-48.8 1099.12,-84.8"/>
<text text-anchor="middle" x="1058" y="-62.6" font-family="Times,serif" font-size="14.00">P2PModule</text>
</g>
<!-- P2PModule&#45;&gt;NetworkValidatorModule -->
<g id="edge7" class="edge">
<title>P2PModule&#45;&gt;NetworkValidatorModule</title>
<path fill="none" stroke="black" d="M1099.33,-66.8C1104.51,-66.8 1108.04,-66.8 1108.04,-66.8 1108.04,-66.8 1108.04,-103.69 1108.04,-103.69"/>
<polygon fill="black" stroke="black" points="1104.54,-103.69 1108.04,-113.69 1111.54,-103.69 1104.54,-103.69"/>
</g>
<!-- ParseClientModule -->
<g id="node7" class="node">
<title>ParseClientModule</title>
<polygon fill="#8dd3c7" stroke="black" points="999.09,-84.8 996.09,-88.8 975.09,-88.8 972.09,-84.8 874.91,-84.8 874.91,-48.8 999.09,-48.8 999.09,-84.8"/>
<text text-anchor="middle" x="937" y="-62.6" font-family="Times,serif" font-size="14.00">ParseClientModule</text>
</g>
<!-- ParseClientModule&#45;&gt;NetworkValidatorModule -->
<g id="edge8" class="edge">
<title>ParseClientModule&#45;&gt;NetworkValidatorModule</title>
<path fill="none" stroke="black" d="M937,-85.04C937,-100.37 937,-119.8 937,-119.8 937,-119.8 1089.08,-119.8 1089.08,-119.8"/>
<polygon fill="black" stroke="black" points="1089.08,-123.3 1099.08,-119.8 1089.08,-116.3 1089.08,-123.3"/>
</g>
<!-- PersistClientModule -->
<g id="node8" class="node">
<title>PersistClientModule</title>
<polygon fill="#8dd3c7" stroke="black" points="856.6,-84.8 853.6,-88.8 832.6,-88.8 829.6,-84.8 725.4,-84.8 725.4,-48.8 856.6,-48.8 856.6,-84.8"/>
<text text-anchor="middle" x="791" y="-62.6" font-family="Times,serif" font-size="14.00">PersistClientModule</text>
</g>
<!-- PersistClientModule&#45;&gt;NetworkValidatorModule -->
<g id="edge9" class="edge">
<title>PersistClientModule&#45;&gt;NetworkValidatorModule</title>
<path fill="none" stroke="black" d="M791,-84.83C791,-101.86 791,-124.8 791,-124.8 791,-124.8 1088.93,-124.8 1088.93,-124.8"/>
<polygon fill="black" stroke="black" points="1088.93,-128.3 1098.93,-124.8 1088.93,-121.3 1088.93,-128.3"/>
</g>
<!-- ValidatorBlockchainModule -->
<g id="node9" class="node">
<title>ValidatorBlockchainModule</title>
<polygon fill="#8dd3c7" stroke="black" points="707.18,-84.8 704.18,-88.8 683.18,-88.8 680.18,-84.8 530.82,-84.8 530.82,-48.8 707.18,-48.8 707.18,-84.8"/>
<text text-anchor="middle" x="619" y="-62.6" font-family="Times,serif" font-size="14.00">ValidatorBlockchainModule</text>
</g>
<!-- ValidatorBlockchainModule&#45;&gt;NetworkValidatorModule -->
<g id="edge10" class="edge">
<title>ValidatorBlockchainModule&#45;&gt;NetworkValidatorModule</title>
<path fill="none" stroke="black" d="M619,-85.02C619,-103.63 619,-129.8 619,-129.8 619,-129.8 1089.02,-129.8 1089.02,-129.8"/>
<polygon fill="black" stroke="black" points="1089.02,-133.3 1099.02,-129.8 1089.02,-126.3 1089.02,-133.3"/>
</g>
<!-- ValidatorConsensusModule -->
<g id="node10" class="node">
<title>ValidatorConsensusModule</title>
<polygon fill="#8dd3c7" stroke="black" points="513.3,-84.8 510.3,-88.8 489.3,-88.8 486.3,-84.8 340.7,-84.8 340.7,-48.8 513.3,-48.8 513.3,-84.8"/>
<text text-anchor="middle" x="427" y="-62.6" font-family="Times,serif" font-size="14.00">ValidatorConsensusModule</text>
</g>
<!-- ValidatorConsensusModule&#45;&gt;NetworkValidatorModule -->
<g id="edge11" class="edge">
<title>ValidatorConsensusModule&#45;&gt;NetworkValidatorModule</title>
<path fill="none" stroke="black" d="M427,-85.02C427,-105.17 427,-134.8 427,-134.8 427,-134.8 1089.06,-134.8 1089.06,-134.8"/>
<polygon fill="black" stroke="black" points="1089.06,-138.3 1099.06,-134.8 1089.06,-131.3 1089.06,-138.3"/>
</g>
<!-- ValidatorHealthModule -->
<g id="node11" class="node">
<title>ValidatorHealthModule</title>
<polygon fill="#8dd3c7" stroke="black" points="322.74,-84.8 319.74,-88.8 298.74,-88.8 295.74,-84.8 173.26,-84.8 173.26,-48.8 322.74,-48.8 322.74,-84.8"/>
<text text-anchor="middle" x="248" y="-62.6" font-family="Times,serif" font-size="14.00">ValidatorHealthModule</text>
</g>
<!-- ValidatorHealthModule&#45;&gt;NetworkValidatorModule -->
<g id="edge12" class="edge">
<title>ValidatorHealthModule&#45;&gt;NetworkValidatorModule</title>
<path fill="none" stroke="black" d="M248,-84.84C248,-106.46 248,-139.8 248,-139.8 248,-139.8 1088.92,-139.8 1088.92,-139.8"/>
<polygon fill="black" stroke="black" points="1088.92,-143.3 1098.92,-139.8 1088.92,-136.3 1088.92,-143.3"/>
</g>
<!-- WalletClientModule -->
<g id="node12" class="node">
<title>WalletClientModule</title>
<polygon fill="#8dd3c7" stroke="black" points="155.59,-84.8 152.59,-88.8 131.59,-88.8 128.59,-84.8 24.41,-84.8 24.41,-48.8 155.59,-48.8 155.59,-84.8"/>
<text text-anchor="middle" x="90" y="-62.6" font-family="Times,serif" font-size="14.00">WalletClientModule</text>
</g>
<!-- WalletClientModule&#45;&gt;NetworkValidatorModule -->
<g id="edge13" class="edge">
<title>WalletClientModule&#45;&gt;NetworkValidatorModule</title>
<path fill="none" stroke="black" d="M90,-84.89C90,-107.93 90,-144.8 90,-144.8 90,-144.8 1088.96,-144.8 1088.96,-144.8"/>
<polygon fill="black" stroke="black" points="1088.96,-148.3 1098.96,-144.8 1088.96,-141.3 1088.96,-148.3"/>
</g>
<!-- GenesisService -->
<g id="node14" class="node">
<title>GenesisService</title>
<ellipse fill="#fdb462" stroke="black" cx="2136" cy="-66.8" rx="70.62" ry="18"/>
<text text-anchor="middle" x="2136" y="-62.6" font-family="Times,serif" font-size="14.00">GenesisService</text>
</g>
<!-- GenesisService&#45;&gt;NetworkValidatorModule -->
<g id="edge14" class="edge">
<title>GenesisService&#45;&gt;NetworkValidatorModule</title>
<path fill="none" stroke="black" d="M2136,-84.89C2136,-107.93 2136,-144.8 2136,-144.8 2136,-144.8 1271.1,-144.8 1271.1,-144.8"/>
<polygon fill="black" stroke="black" points="1271.1,-141.3 1261.1,-144.8 1271.1,-148.3 1271.1,-141.3"/>
</g>
<!-- NetworkValidatorService -->
<g id="node15" class="node">
<title>NetworkValidatorService</title>
<ellipse fill="#fdb462" stroke="black" cx="1937" cy="-66.8" rx="110.49" ry="18"/>
<text text-anchor="middle" x="1937" y="-62.6" font-family="Times,serif" font-size="14.00">NetworkValidatorService</text>
</g>
<!-- NetworkValidatorService&#45;&gt;NetworkValidatorModule -->
<g id="edge15" class="edge">
<title>NetworkValidatorService&#45;&gt;NetworkValidatorModule</title>
<path fill="none" stroke="black" d="M1937,-84.84C1937,-106.46 1937,-139.8 1937,-139.8 1937,-139.8 1271.01,-139.8 1271.01,-139.8"/>
<polygon fill="black" stroke="black" points="1271.01,-136.3 1261.01,-139.8 1271.01,-143.3 1271.01,-136.3"/>
</g>
</g>
</svg>
