<?xml version="1.0" encoding="UTF-8" standalone="no"?>
<!DOCTYPE svg PUBLIC "-//W3C//DTD SVG 1.1//EN"
 "http://www.w3.org/Graphics/SVG/1.1/DTD/svg11.dtd">
<!-- Generated by graphviz version 2.47.3 (20210619.1520)
 -->
<!-- Title: dependencies Pages: 1 -->
<svg width="518pt" height="247pt"
 viewBox="0.00 0.00 518.00 246.80" xmlns="http://www.w3.org/2000/svg" xmlns:xlink="http://www.w3.org/1999/xlink">
<g id="graph0" class="graph" transform="scale(1 1) rotate(0) translate(4 242.8)">
<title>dependencies</title>
<polygon fill="white" stroke="transparent" points="-4,4 -4,-242.8 514,-242.8 514,4 -4,4"/>
<text text-anchor="middle" x="255" y="-8.2" font-family="sans-serif" font-size="14.00">dependencies</text>
<g id="clust1" class="cluster">
<title>cluster_SignatureModule</title>
<polygon fill="none" stroke="black" stroke-dasharray="1,5" points="8,-32.8 8,-230.8 502,-230.8 502,-32.8 8,-32.8"/>
</g>
<g id="clust4" class="cluster">
<title>cluster_SignatureModule_exports</title>
<polygon fill="none" stroke="black" points="175,-170.8 175,-222.8 307,-222.8 307,-170.8 175,-170.8"/>
</g>
<g id="clust6" class="cluster">
<title>cluster_SignatureModule_providers</title>
<polygon fill="none" stroke="black" points="324,-40.8 324,-92.8 494,-92.8 494,-40.8 324,-40.8"/>
</g>
<g id="clust3" class="cluster">
<title>cluster_SignatureModule_imports</title>
<polygon fill="none" stroke="black" points="16,-40.8 16,-92.8 316,-92.8 316,-40.8 16,-40.8"/>
</g>
<!-- DidIdCachedModule -->
<g id="node1" class="node">
<title>DidIdCachedModule</title>
<polygon fill="#8dd3c7" stroke="black" points="308.19,-84.8 305.19,-88.8 284.19,-88.8 281.19,-84.8 173.81,-84.8 173.81,-48.8 308.19,-48.8 308.19,-84.8"/>
<text text-anchor="middle" x="241" y="-62.6" font-family="Times,serif" font-size="14.00">DidIdCachedModule</text>
</g>
<!-- SignatureModule -->
<g id="node3" class="node">
<title>SignatureModule</title>
<polygon fill="#8dd3c7" stroke="black" points="297.7,-149.8 294.7,-153.8 273.7,-153.8 270.7,-149.8 184.3,-149.8 184.3,-113.8 297.7,-113.8 297.7,-149.8"/>
<text text-anchor="middle" x="241" y="-127.6" font-family="Times,serif" font-size="14.00">SignatureModule</text>
</g>
<!-- DidIdCachedModule&#45;&gt;SignatureModule -->
<g id="edge1" class="edge">
<title>DidIdCachedModule&#45;&gt;SignatureModule</title>
<path fill="none" stroke="black" d="M241,-84.91C241,-84.91 241,-103.79 241,-103.79"/>
<polygon fill="black" stroke="black" points="237.5,-103.79 241,-113.79 244.5,-103.79 237.5,-103.79"/>
</g>
<!-- WalletClientModule -->
<g id="node2" class="node">
<title>WalletClientModule</title>
<polygon fill="#8dd3c7" stroke="black" points="155.59,-84.8 152.59,-88.8 131.59,-88.8 128.59,-84.8 24.41,-84.8 24.41,-48.8 155.59,-48.8 155.59,-84.8"/>
<text text-anchor="middle" x="90" y="-62.6" font-family="Times,serif" font-size="14.00">WalletClientModule</text>
</g>
<!-- WalletClientModule&#45;&gt;SignatureModule -->
<g id="edge2" class="edge">
<title>WalletClientModule&#45;&gt;SignatureModule</title>
<path fill="none" stroke="black" d="M90,-84.91C90,-104.14 90,-131.8 90,-131.8 90,-131.8 174.34,-131.8 174.34,-131.8"/>
<polygon fill="black" stroke="black" points="174.34,-135.3 184.34,-131.8 174.34,-128.3 174.34,-135.3"/>
</g>
<!-- SignatureService  -->
<g id="node4" class="node">
<title>SignatureService </title>
<polygon fill="#fb8072" stroke="black" points="298.63,-214.8 183.37,-214.8 183.37,-178.8 298.63,-178.8 298.63,-214.8"/>
<text text-anchor="middle" x="241" y="-192.6" font-family="Times,serif" font-size="14.00">SignatureService </text>
</g>
<!-- SignatureModule&#45;&gt;SignatureService  -->
<g id="edge3" class="edge">
<title>SignatureModule&#45;&gt;SignatureService </title>
<path fill="none" stroke="black" stroke-dasharray="5,2" d="M241,-149.91C241,-149.91 241,-168.79 241,-168.79"/>
<polygon fill="black" stroke="black" points="237.5,-168.79 241,-178.79 244.5,-168.79 237.5,-168.79"/>
</g>
<!-- SignatureService -->
<g id="node5" class="node">
<title>SignatureService</title>
<ellipse fill="#fdb462" stroke="black" cx="409" cy="-66.8" rx="77" ry="18"/>
<text text-anchor="middle" x="409" y="-62.6" font-family="Times,serif" font-size="14.00">SignatureService</text>
</g>
<!-- SignatureService&#45;&gt;SignatureModule -->
<g id="edge4" class="edge">
<title>SignatureService&#45;&gt;SignatureModule</title>
<path fill="none" stroke="black" d="M409,-84.91C409,-104.14 409,-131.8 409,-131.8 409,-131.8 307.88,-131.8 307.88,-131.8"/>
<polygon fill="black" stroke="black" points="307.88,-128.3 297.88,-131.8 307.88,-135.3 307.88,-128.3"/>
</g>
</g>
</svg>
