<?xml version="1.0" encoding="UTF-8" standalone="no"?>
<!DOCTYPE svg PUBLIC "-//W3C//DTD SVG 1.1//EN"
 "http://www.w3.org/Graphics/SVG/1.1/DTD/svg11.dtd">
<!-- Generated by graphviz version 2.47.3 (20210619.1520)
 -->
<!-- Title: dependencies Pages: 1 -->
<svg width="654pt" height="247pt"
 viewBox="0.00 0.00 654.00 246.80" xmlns="http://www.w3.org/2000/svg" xmlns:xlink="http://www.w3.org/1999/xlink">
<g id="graph0" class="graph" transform="scale(1 1) rotate(0) translate(4 242.8)">
<title>dependencies</title>
<polygon fill="white" stroke="transparent" points="-4,4 -4,-242.8 650,-242.8 650,4 -4,4"/>
<text text-anchor="middle" x="323" y="-8.2" font-family="sans-serif" font-size="14.00">dependencies</text>
<g id="clust1" class="cluster">
<title>cluster_SchemaBlockchainModule</title>
<polygon fill="none" stroke="black" stroke-dasharray="1,5" points="8,-32.8 8,-230.8 638,-230.8 638,-32.8 8,-32.8"/>
</g>
<g id="clust4" class="cluster">
<title>cluster_SchemaBlockchainModule_exports</title>
<polygon fill="none" stroke="black" points="140,-170.8 140,-222.8 364,-222.8 364,-170.8 140,-170.8"/>
</g>
<g id="clust6" class="cluster">
<title>cluster_SchemaBlockchainModule_providers</title>
<polygon fill="none" stroke="black" points="332,-40.8 332,-92.8 630,-92.8 630,-40.8 332,-40.8"/>
</g>
<g id="clust3" class="cluster">
<title>cluster_SchemaBlockchainModule_imports</title>
<polygon fill="none" stroke="black" points="16,-40.8 16,-92.8 324,-92.8 324,-40.8 16,-40.8"/>
</g>
<!-- BlockCheckModule -->
<g id="node1" class="node">
<title>BlockCheckModule</title>
<polygon fill="#8dd3c7" stroke="black" points="316.26,-84.8 313.26,-88.8 292.26,-88.8 289.26,-84.8 187.74,-84.8 187.74,-48.8 316.26,-48.8 316.26,-84.8"/>
<text text-anchor="middle" x="252" y="-62.6" font-family="Times,serif" font-size="14.00">BlockCheckModule</text>
</g>
<!-- SchemaBlockchainModule -->
<g id="node3" class="node">
<title>SchemaBlockchainModule</title>
<polygon fill="#8dd3c7" stroke="black" points="335.63,-149.8 332.63,-153.8 311.63,-153.8 308.63,-149.8 168.37,-149.8 168.37,-113.8 335.63,-113.8 335.63,-149.8"/>
<text text-anchor="middle" x="252" y="-127.6" font-family="Times,serif" font-size="14.00">SchemaBlockchainModule</text>
</g>
<!-- BlockCheckModule&#45;&gt;SchemaBlockchainModule -->
<g id="edge1" class="edge">
<title>BlockCheckModule&#45;&gt;SchemaBlockchainModule</title>
<path fill="none" stroke="black" d="M252,-84.91C252,-84.91 252,-103.79 252,-103.79"/>
<polygon fill="black" stroke="black" points="248.5,-103.79 252,-113.79 255.5,-103.79 248.5,-103.79"/>
</g>
<!-- SchemaCachedModule -->
<g id="node2" class="node">
<title>SchemaCachedModule</title>
<polygon fill="#8dd3c7" stroke="black" points="169.85,-84.8 166.85,-88.8 145.85,-88.8 142.85,-84.8 24.15,-84.8 24.15,-48.8 169.85,-48.8 169.85,-84.8"/>
<text text-anchor="middle" x="97" y="-62.6" font-family="Times,serif" font-size="14.00">SchemaCachedModule</text>
</g>
<!-- SchemaCachedModule&#45;&gt;SchemaBlockchainModule -->
<g id="edge2" class="edge">
<title>SchemaCachedModule&#45;&gt;SchemaBlockchainModule</title>
<path fill="none" stroke="black" d="M170.02,-66.8C175.4,-66.8 178.77,-66.8 178.77,-66.8 178.77,-66.8 178.77,-103.69 178.77,-103.69"/>
<polygon fill="black" stroke="black" points="175.27,-103.69 178.77,-113.69 182.27,-103.69 175.27,-103.69"/>
</g>
<!-- SchemaTransactionCheckService  -->
<g id="node4" class="node">
<title>SchemaTransactionCheckService </title>
<polygon fill="#fb8072" stroke="black" points="355.64,-214.8 148.36,-214.8 148.36,-178.8 355.64,-178.8 355.64,-214.8"/>
<text text-anchor="middle" x="252" y="-192.6" font-family="Times,serif" font-size="14.00">SchemaTransactionCheckService </text>
</g>
<!-- SchemaBlockchainModule&#45;&gt;SchemaTransactionCheckService  -->
<g id="edge3" class="edge">
<title>SchemaBlockchainModule&#45;&gt;SchemaTransactionCheckService </title>
<path fill="none" stroke="black" stroke-dasharray="5,2" d="M252,-149.91C252,-149.91 252,-168.79 252,-168.79"/>
<polygon fill="black" stroke="black" points="248.5,-168.79 252,-178.79 255.5,-168.79 248.5,-168.79"/>
</g>
<!-- SchemaTransactionCheckService -->
<g id="node5" class="node">
<title>SchemaTransactionCheckService</title>
<ellipse fill="#fdb462" stroke="black" cx="481" cy="-66.8" rx="140.63" ry="18"/>
<text text-anchor="middle" x="481" y="-62.6" font-family="Times,serif" font-size="14.00">SchemaTransactionCheckService</text>
</g>
<!-- SchemaTransactionCheckService&#45;&gt;SchemaBlockchainModule -->
<g id="edge4" class="edge">
<title>SchemaTransactionCheckService&#45;&gt;SchemaBlockchainModule</title>
<path fill="none" stroke="black" d="M348,-72.8C348,-88.89 348,-131.8 348,-131.8 348,-131.8 345.84,-131.8 345.84,-131.8"/>
<polygon fill="black" stroke="black" points="345.84,-128.3 335.84,-131.8 345.84,-135.3 345.84,-128.3"/>
</g>
</g>
</svg>
