<?xml version="1.0" encoding="UTF-8" standalone="no"?>
<!DOCTYPE svg PUBLIC "-//W3C//DTD SVG 1.1//EN"
 "http://www.w3.org/Graphics/SVG/1.1/DTD/svg11.dtd">
<!-- Generated by graphviz version 3.0.0 (20220226.1711)
 -->
<!-- Title: dependencies Pages: 1 -->
<svg width="190pt" height="174pt"
 viewBox="0.00 0.00 190.00 173.80" xmlns="http://www.w3.org/2000/svg" xmlns:xlink="http://www.w3.org/1999/xlink">
<g id="graph0" class="graph" transform="scale(1 1) rotate(0) translate(4 169.8)">
<title>dependencies</title>
<polygon fill="white" stroke="transparent" points="-4,4 -4,-169.8 186,-169.8 186,4 -4,4"/>
<text text-anchor="middle" x="91" y="-8.2" font-family="sans-serif" font-size="14.00">dependencies</text>
<g id="clust1" class="cluster">
<title>cluster_ObserverDidModule</title>
<polygon fill="none" stroke="black" stroke-dasharray="1,5" points="8,-32.8 8,-157.8 174,-157.8 174,-32.8 8,-32.8"/>
</g>
<g id="clust3" class="cluster">
<title>cluster_ObserverDidModule_imports</title>
<polygon fill="none" stroke="black" points="16,-40.8 16,-92.8 166,-92.8 166,-40.8 16,-40.8"/>
</g>
<!-- DidIdCachedModule -->
<g id="node1" class="node">
<title>DidIdCachedModule</title>
<polygon fill="#8dd3c7" stroke="black" points="158.19,-84.8 155.19,-88.8 134.19,-88.8 131.19,-84.8 23.81,-84.8 23.81,-48.8 158.19,-48.8 158.19,-84.8"/>
<text text-anchor="middle" x="91" y="-62.6" font-family="Times,serif" font-size="14.00">DidIdCachedModule</text>
</g>
<!-- ObserverDidModule -->
<g id="node2" class="node">
<title>ObserverDidModule</title>
<polygon fill="#8dd3c7" stroke="black" points="156.86,-149.8 153.86,-153.8 132.86,-153.8 129.86,-149.8 25.14,-149.8 25.14,-113.8 156.86,-113.8 156.86,-149.8"/>
<text text-anchor="middle" x="91" y="-127.6" font-family="Times,serif" font-size="14.00">ObserverDidModule</text>
</g>
<!-- DidIdCachedModule&#45;&gt;ObserverDidModule -->
<g id="edge1" class="edge">
<title>DidIdCachedModule&#45;&gt;ObserverDidModule</title>
<path fill="none" stroke="black" d="M91,-84.91C91,-84.91 91,-103.79 91,-103.79"/>
<polygon fill="black" stroke="black" points="87.5,-103.79 91,-113.79 94.5,-103.79 87.5,-103.79"/>
</g>
</g>
</svg>
