<?xml version="1.0" encoding="UTF-8" standalone="no"?>
<!DOCTYPE svg PUBLIC "-//W3C//DTD SVG 1.1//EN"
 "http://www.w3.org/Graphics/SVG/1.1/DTD/svg11.dtd">
<!-- Generated by graphviz version 2.47.3 (20210619.1520)
 -->
<!-- Title: dependencies Pages: 1 -->
<svg width="700pt" height="247pt"
 viewBox="0.00 0.00 700.00 246.80" xmlns="http://www.w3.org/2000/svg" xmlns:xlink="http://www.w3.org/1999/xlink">
<g id="graph0" class="graph" transform="scale(1 1) rotate(0) translate(4 242.8)">
<title>dependencies</title>
<polygon fill="white" stroke="transparent" points="-4,4 -4,-242.8 696,-242.8 696,4 -4,4"/>
<text text-anchor="middle" x="346" y="-8.2" font-family="sans-serif" font-size="14.00">dependencies</text>
<g id="clust1" class="cluster">
<title>cluster_GatewayBlockchainModule</title>
<polygon fill="none" stroke="black" stroke-dasharray="1,5" points="8,-32.8 8,-230.8 684,-230.8 684,-32.8 8,-32.8"/>
</g>
<g id="clust4" class="cluster">
<title>cluster_GatewayBlockchainModule_exports</title>
<polygon fill="none" stroke="black" points="260,-170.8 260,-222.8 560,-222.8 560,-170.8 260,-170.8"/>
</g>
<g id="clust3" class="cluster">
<title>cluster_GatewayBlockchainModule_imports</title>
<polygon fill="none" stroke="black" points="276,-40.8 276,-92.8 676,-92.8 676,-40.8 276,-40.8"/>
</g>
<g id="clust6" class="cluster">
<title>cluster_GatewayBlockchainModule_providers</title>
<polygon fill="none" stroke="black" points="16,-40.8 16,-92.8 268,-92.8 268,-40.8 16,-40.8"/>
</g>
<!-- DidIdCachedModule -->
<g id="node1" class="node">
<title>DidIdCachedModule</title>
<polygon fill="#8dd3c7" stroke="black" points="668.19,-84.8 665.19,-88.8 644.19,-88.8 641.19,-84.8 533.81,-84.8 533.81,-48.8 668.19,-48.8 668.19,-84.8"/>
<text text-anchor="middle" x="601" y="-62.6" font-family="Times,serif" font-size="14.00">DidIdCachedModule</text>
</g>
<!-- GatewayBlockchainModule -->
<g id="node4" class="node">
<title>GatewayBlockchainModule</title>
<polygon fill="#8dd3c7" stroke="black" points="476.56,-149.8 473.56,-153.8 452.56,-153.8 449.56,-149.8 303.44,-149.8 303.44,-113.8 476.56,-113.8 476.56,-149.8"/>
<text text-anchor="middle" x="390" y="-127.6" font-family="Times,serif" font-size="14.00">GatewayBlockchainModule</text>
</g>
<!-- DidIdCachedModule&#45;&gt;GatewayBlockchainModule -->
<g id="edge1" class="edge">
<title>DidIdCachedModule&#45;&gt;GatewayBlockchainModule</title>
<path fill="none" stroke="black" d="M543.2,-84.91C543.2,-104.14 543.2,-131.8 543.2,-131.8 543.2,-131.8 486.9,-131.8 486.9,-131.8"/>
<polygon fill="black" stroke="black" points="486.9,-128.3 476.9,-131.8 486.9,-135.3 486.9,-128.3"/>
</g>
<!-- EventClientModule -->
<g id="node2" class="node">
<title>EventClientModule</title>
<polygon fill="#8dd3c7" stroke="black" points="516.43,-84.8 513.43,-88.8 492.43,-88.8 489.43,-84.8 389.57,-84.8 389.57,-48.8 516.43,-48.8 516.43,-84.8"/>
<text text-anchor="middle" x="453" y="-62.6" font-family="Times,serif" font-size="14.00">EventClientModule</text>
</g>
<!-- EventClientModule&#45;&gt;GatewayBlockchainModule -->
<g id="edge2" class="edge">
<title>EventClientModule&#45;&gt;GatewayBlockchainModule</title>
<path fill="none" stroke="black" d="M433.16,-84.91C433.16,-84.91 433.16,-103.79 433.16,-103.79"/>
<polygon fill="black" stroke="black" points="429.66,-103.79 433.16,-113.79 436.66,-103.79 429.66,-103.79"/>
</g>
<!-- HashModule -->
<g id="node3" class="node">
<title>HashModule</title>
<polygon fill="#8dd3c7" stroke="black" points="372.32,-84.8 369.32,-88.8 348.32,-88.8 345.32,-84.8 283.68,-84.8 283.68,-48.8 372.32,-48.8 372.32,-84.8"/>
<text text-anchor="middle" x="328" y="-62.6" font-family="Times,serif" font-size="14.00">HashModule</text>
</g>
<!-- HashModule&#45;&gt;GatewayBlockchainModule -->
<g id="edge3" class="edge">
<title>HashModule&#45;&gt;GatewayBlockchainModule</title>
<path fill="none" stroke="black" d="M337.81,-84.91C337.81,-84.91 337.81,-103.79 337.81,-103.79"/>
<polygon fill="black" stroke="black" points="334.31,-103.79 337.81,-113.79 341.31,-103.79 334.31,-103.79"/>
</g>
<!-- GatewayBlockchainService  -->
<g id="node5" class="node">
<title>GatewayBlockchainService </title>
<polygon fill="#fb8072" stroke="black" points="552.49,-214.8 377.51,-214.8 377.51,-178.8 552.49,-178.8 552.49,-214.8"/>
<text text-anchor="middle" x="465" y="-192.6" font-family="Times,serif" font-size="14.00">GatewayBlockchainService </text>
</g>
<!-- GatewayBlockchainModule&#45;&gt;GatewayBlockchainService  -->
<g id="edge4" class="edge">
<title>GatewayBlockchainModule&#45;&gt;GatewayBlockchainService </title>
<path fill="none" stroke="black" stroke-dasharray="5,2" d="M427.02,-149.91C427.02,-149.91 427.02,-168.79 427.02,-168.79"/>
<polygon fill="black" stroke="black" points="423.52,-168.79 427.02,-178.79 430.52,-168.79 423.52,-168.79"/>
</g>
<!-- HashModule  -->
<g id="node6" class="node">
<title>HashModule </title>
<polygon fill="#fb8072" stroke="black" points="359.82,-214.8 268.18,-214.8 268.18,-178.8 359.82,-178.8 359.82,-214.8"/>
<text text-anchor="middle" x="314" y="-192.6" font-family="Times,serif" font-size="14.00">HashModule </text>
</g>
<!-- GatewayBlockchainModule&#45;&gt;HashModule  -->
<g id="edge5" class="edge">
<title>GatewayBlockchainModule&#45;&gt;HashModule </title>
<path fill="none" stroke="black" stroke-dasharray="5,2" d="M331.69,-149.91C331.69,-149.91 331.69,-168.79 331.69,-168.79"/>
<polygon fill="black" stroke="black" points="328.19,-168.79 331.69,-178.79 335.19,-168.79 328.19,-168.79"/>
</g>
<!-- GatewayBlockchainService -->
<g id="node7" class="node">
<title>GatewayBlockchainService</title>
<ellipse fill="#fdb462" stroke="black" cx="142" cy="-66.8" rx="118.08" ry="18"/>
<text text-anchor="middle" x="142" y="-62.6" font-family="Times,serif" font-size="14.00">GatewayBlockchainService</text>
</g>
<!-- GatewayBlockchainService&#45;&gt;GatewayBlockchainModule -->
<g id="edge6" class="edge">
<title>GatewayBlockchainService&#45;&gt;GatewayBlockchainModule</title>
<path fill="none" stroke="black" d="M142,-84.91C142,-104.14 142,-131.8 142,-131.8 142,-131.8 293.26,-131.8 293.26,-131.8"/>
<polygon fill="black" stroke="black" points="293.26,-135.3 303.26,-131.8 293.26,-128.3 293.26,-135.3"/>
</g>
</g>
</svg>
