<?xml version="1.0" encoding="UTF-8" standalone="no"?>
<!DOCTYPE svg PUBLIC "-//W3C//DTD SVG 1.1//EN"
 "http://www.w3.org/Graphics/SVG/1.1/DTD/svg11.dtd">
<!-- Generated by graphviz version 2.47.3 (20210619.1520)
 -->
<!-- Title: dependencies Pages: 1 -->
<svg width="700pt" height="247pt"
 viewBox="0.00 0.00 700.00 246.80" xmlns="http://www.w3.org/2000/svg" xmlns:xlink="http://www.w3.org/1999/xlink">
<g id="graph0" class="graph" transform="scale(1 1) rotate(0) translate(4 242.8)">
<title>dependencies</title>
<polygon fill="white" stroke="transparent" points="-4,4 -4,-242.8 696,-242.8 696,4 -4,4"/>
<text text-anchor="middle" x="346" y="-8.2" font-family="sans-serif" font-size="14.00">dependencies</text>
<g id="clust1" class="cluster">
<title>cluster_GatewayBlockchainModule</title>
<polygon fill="none" stroke="black" stroke-dasharray="1,5" points="8,-32.8 8,-230.8 684,-230.8 684,-32.8 8,-32.8"/>
</g>
<g id="clust6" class="cluster">
<title>cluster_GatewayBlockchainModule_providers</title>
<polygon fill="none" stroke="black" points="424,-40.8 424,-92.8 676,-92.8 676,-40.8 424,-40.8"/>
</g>
<g id="clust3" class="cluster">
<title>cluster_GatewayBlockchainModule_imports</title>
<polygon fill="none" stroke="black" points="16,-40.8 16,-92.8 416,-92.8 416,-40.8 16,-40.8"/>
</g>
<g id="clust4" class="cluster">
<title>cluster_GatewayBlockchainModule_exports</title>
<polygon fill="none" stroke="black" points="77,-170.8 77,-222.8 377,-222.8 377,-170.8 77,-170.8"/>
</g>
<!-- DidIdCachedModule -->
<g id="node1" class="node">
<title>DidIdCachedModule</title>
<polygon fill="#8dd3c7" stroke="black" points="408.19,-84.8 405.19,-88.8 384.19,-88.8 381.19,-84.8 273.81,-84.8 273.81,-48.8 408.19,-48.8 408.19,-84.8"/>
<text text-anchor="middle" x="341" y="-62.6" font-family="Times,serif" font-size="14.00">DidIdCachedModule</text>
</g>
<!-- GatewayBlockchainModule -->
<g id="node4" class="node">
<title>GatewayBlockchainModule</title>
<polygon fill="#8dd3c7" stroke="black" points="323.56,-149.8 320.56,-153.8 299.56,-153.8 296.56,-149.8 150.44,-149.8 150.44,-113.8 323.56,-113.8 323.56,-149.8"/>
<text text-anchor="middle" x="237" y="-127.6" font-family="Times,serif" font-size="14.00">GatewayBlockchainModule</text>
</g>
<!-- DidIdCachedModule&#45;&gt;GatewayBlockchainModule -->
<g id="edge1" class="edge">
<title>DidIdCachedModule&#45;&gt;GatewayBlockchainModule</title>
<path fill="none" stroke="black" d="M298.72,-84.91C298.72,-84.91 298.72,-103.79 298.72,-103.79"/>
<polygon fill="black" stroke="black" points="295.22,-103.79 298.72,-113.79 302.22,-103.79 295.22,-103.79"/>
</g>
<!-- EventClientModule -->
<g id="node2" class="node">
<title>EventClientModule</title>
<polygon fill="#8dd3c7" stroke="black" points="256.43,-84.8 253.43,-88.8 232.43,-88.8 229.43,-84.8 129.57,-84.8 129.57,-48.8 256.43,-48.8 256.43,-84.8"/>
<text text-anchor="middle" x="193" y="-62.6" font-family="Times,serif" font-size="14.00">EventClientModule</text>
</g>
<!-- EventClientModule&#45;&gt;GatewayBlockchainModule -->
<g id="edge2" class="edge">
<title>EventClientModule&#45;&gt;GatewayBlockchainModule</title>
<path fill="none" stroke="black" d="M203.34,-84.91C203.34,-84.91 203.34,-103.79 203.34,-103.79"/>
<polygon fill="black" stroke="black" points="199.84,-103.79 203.34,-113.79 206.84,-103.79 199.84,-103.79"/>
</g>
<!-- HashModule -->
<g id="node3" class="node">
<title>HashModule</title>
<polygon fill="#8dd3c7" stroke="black" points="112.32,-84.8 109.32,-88.8 88.32,-88.8 85.32,-84.8 23.68,-84.8 23.68,-48.8 112.32,-48.8 112.32,-84.8"/>
<text text-anchor="middle" x="68" y="-62.6" font-family="Times,serif" font-size="14.00">HashModule</text>
</g>
<!-- HashModule&#45;&gt;GatewayBlockchainModule -->
<g id="edge3" class="edge">
<title>HashModule&#45;&gt;GatewayBlockchainModule</title>
<path fill="none" stroke="black" d="M98.62,-84.91C98.62,-104.14 98.62,-131.8 98.62,-131.8 98.62,-131.8 140.15,-131.8 140.15,-131.8"/>
<polygon fill="black" stroke="black" points="140.15,-135.3 150.15,-131.8 140.15,-128.3 140.15,-135.3"/>
</g>
<!-- GatewayBlockchainService  -->
<g id="node5" class="node">
<title>GatewayBlockchainService </title>
<polygon fill="#fb8072" stroke="black" points="369.49,-214.8 194.51,-214.8 194.51,-178.8 369.49,-178.8 369.49,-214.8"/>
<text text-anchor="middle" x="282" y="-192.6" font-family="Times,serif" font-size="14.00">GatewayBlockchainService </text>
</g>
<!-- GatewayBlockchainModule&#45;&gt;GatewayBlockchainService  -->
<g id="edge4" class="edge">
<title>GatewayBlockchainModule&#45;&gt;GatewayBlockchainService </title>
<path fill="none" stroke="black" stroke-dasharray="5,2" d="M259.02,-149.91C259.02,-149.91 259.02,-168.79 259.02,-168.79"/>
<polygon fill="black" stroke="black" points="255.52,-168.79 259.02,-178.79 262.52,-168.79 255.52,-168.79"/>
</g>
<!-- HashModule  -->
<g id="node6" class="node">
<title>HashModule </title>
<polygon fill="#fb8072" stroke="black" points="176.82,-214.8 85.18,-214.8 85.18,-178.8 176.82,-178.8 176.82,-214.8"/>
<text text-anchor="middle" x="131" y="-192.6" font-family="Times,serif" font-size="14.00">HashModule </text>
</g>
<!-- GatewayBlockchainModule&#45;&gt;HashModule  -->
<g id="edge5" class="edge">
<title>GatewayBlockchainModule&#45;&gt;HashModule </title>
<path fill="none" stroke="black" stroke-dasharray="5,2" d="M163.69,-149.91C163.69,-149.91 163.69,-168.79 163.69,-168.79"/>
<polygon fill="black" stroke="black" points="160.19,-168.79 163.69,-178.79 167.19,-168.79 160.19,-168.79"/>
</g>
<!-- GatewayBlockchainService -->
<g id="node7" class="node">
<title>GatewayBlockchainService</title>
<ellipse fill="#fdb462" stroke="black" cx="550" cy="-66.8" rx="118.08" ry="18"/>
<text text-anchor="middle" x="550" y="-62.6" font-family="Times,serif" font-size="14.00">GatewayBlockchainService</text>
</g>
<!-- GatewayBlockchainService&#45;&gt;GatewayBlockchainModule -->
<g id="edge6" class="edge">
<title>GatewayBlockchainService&#45;&gt;GatewayBlockchainModule</title>
<path fill="none" stroke="black" d="M550,-84.91C550,-104.14 550,-131.8 550,-131.8 550,-131.8 333.77,-131.8 333.77,-131.8"/>
<polygon fill="black" stroke="black" points="333.77,-128.3 323.77,-131.8 333.77,-135.3 333.77,-128.3"/>
</g>
</g>
</svg>
