<?xml version="1.0" encoding="UTF-8" standalone="no"?>
<!DOCTYPE svg PUBLIC "-//W3C//DTD SVG 1.1//EN"
 "http://www.w3.org/Graphics/SVG/1.1/DTD/svg11.dtd">
<!-- Generated by graphviz version 2.47.3 (20210619.1520)
 -->
<!-- Title: dependencies Pages: 1 -->
<svg width="468pt" height="247pt"
 viewBox="0.00 0.00 468.00 246.80" xmlns="http://www.w3.org/2000/svg" xmlns:xlink="http://www.w3.org/1999/xlink">
<g id="graph0" class="graph" transform="scale(1 1) rotate(0) translate(4 242.8)">
<title>dependencies</title>
<polygon fill="white" stroke="transparent" points="-4,4 -4,-242.8 464,-242.8 464,4 -4,4"/>
<text text-anchor="middle" x="230" y="-8.2" font-family="sans-serif" font-size="14.00">dependencies</text>
<g id="clust1" class="cluster">
<title>cluster_InviteModule</title>
<polygon fill="none" stroke="black" stroke-dasharray="1,5" points="8,-32.8 8,-230.8 452,-230.8 452,-32.8 8,-32.8"/>
</g>
<g id="clust6" class="cluster">
<title>cluster_InviteModule_providers</title>
<polygon fill="none" stroke="black" points="302,-40.8 302,-92.8 444,-92.8 444,-40.8 302,-40.8"/>
</g>
<g id="clust3" class="cluster">
<title>cluster_InviteModule_imports</title>
<polygon fill="none" stroke="black" points="16,-40.8 16,-92.8 294,-92.8 294,-40.8 16,-40.8"/>
</g>
<g id="clust4" class="cluster">
<title>cluster_InviteModule_exports</title>
<polygon fill="none" stroke="black" points="164,-170.8 164,-222.8 274,-222.8 274,-170.8 164,-170.8"/>
</g>
<!-- DidIdCachedModule -->
<g id="node1" class="node">
<title>DidIdCachedModule</title>
<polygon fill="#8dd3c7" stroke="black" points="286.19,-84.8 283.19,-88.8 262.19,-88.8 259.19,-84.8 151.81,-84.8 151.81,-48.8 286.19,-48.8 286.19,-84.8"/>
<text text-anchor="middle" x="219" y="-62.6" font-family="Times,serif" font-size="14.00">DidIdCachedModule</text>
</g>
<!-- InviteModule -->
<g id="node3" class="node">
<title>InviteModule</title>
<polygon fill="#8dd3c7" stroke="black" points="265.21,-149.8 262.21,-153.8 241.21,-153.8 238.21,-149.8 172.79,-149.8 172.79,-113.8 265.21,-113.8 265.21,-149.8"/>
<text text-anchor="middle" x="219" y="-127.6" font-family="Times,serif" font-size="14.00">InviteModule</text>
</g>
<!-- DidIdCachedModule&#45;&gt;InviteModule -->
<g id="edge1" class="edge">
<title>DidIdCachedModule&#45;&gt;InviteModule</title>
<path fill="none" stroke="black" d="M219,-84.91C219,-84.91 219,-103.79 219,-103.79"/>
<polygon fill="black" stroke="black" points="215.5,-103.79 219,-113.79 222.5,-103.79 215.5,-103.79"/>
</g>
<!-- InviteDbModule -->
<g id="node2" class="node">
<title>InviteDbModule</title>
<polygon fill="#8dd3c7" stroke="black" points="133.81,-84.8 130.81,-88.8 109.81,-88.8 106.81,-84.8 24.19,-84.8 24.19,-48.8 133.81,-48.8 133.81,-84.8"/>
<text text-anchor="middle" x="79" y="-62.6" font-family="Times,serif" font-size="14.00">InviteDbModule</text>
</g>
<!-- InviteDbModule&#45;&gt;InviteModule -->
<g id="edge2" class="edge">
<title>InviteDbModule&#45;&gt;InviteModule</title>
<path fill="none" stroke="black" d="M79,-84.91C79,-104.14 79,-131.8 79,-131.8 79,-131.8 162.77,-131.8 162.77,-131.8"/>
<polygon fill="black" stroke="black" points="162.77,-135.3 172.77,-131.8 162.77,-128.3 162.77,-135.3"/>
</g>
<!-- InviteService  -->
<g id="node4" class="node">
<title>InviteService </title>
<polygon fill="#fb8072" stroke="black" points="266.13,-214.8 171.87,-214.8 171.87,-178.8 266.13,-178.8 266.13,-214.8"/>
<text text-anchor="middle" x="219" y="-192.6" font-family="Times,serif" font-size="14.00">InviteService </text>
</g>
<!-- InviteModule&#45;&gt;InviteService  -->
<g id="edge3" class="edge">
<title>InviteModule&#45;&gt;InviteService </title>
<path fill="none" stroke="black" stroke-dasharray="5,2" d="M219,-149.91C219,-149.91 219,-168.79 219,-168.79"/>
<polygon fill="black" stroke="black" points="215.5,-168.79 219,-178.79 222.5,-168.79 215.5,-168.79"/>
</g>
<!-- InviteService -->
<g id="node5" class="node">
<title>InviteService</title>
<ellipse fill="#fdb462" stroke="black" cx="373" cy="-66.8" rx="62.54" ry="18"/>
<text text-anchor="middle" x="373" y="-62.6" font-family="Times,serif" font-size="14.00">InviteService</text>
</g>
<!-- InviteService&#45;&gt;InviteModule -->
<g id="edge4" class="edge">
<title>InviteService&#45;&gt;InviteModule</title>
<path fill="none" stroke="black" d="M373,-84.91C373,-104.14 373,-131.8 373,-131.8 373,-131.8 275.21,-131.8 275.21,-131.8"/>
<polygon fill="black" stroke="black" points="275.21,-128.3 265.21,-131.8 275.21,-135.3 275.21,-128.3"/>
</g>
</g>
</svg>
