<?xml version="1.0" encoding="UTF-8" standalone="no"?>
<!DOCTYPE svg PUBLIC "-//W3C//DTD SVG 1.1//EN"
 "http://www.w3.org/Graphics/SVG/1.1/DTD/svg11.dtd">
<!-- Generated by graphviz version 2.47.3 (20210619.1520)
 -->
<!-- Title: dependencies Pages: 1 -->
<svg width="468pt" height="247pt"
 viewBox="0.00 0.00 468.00 246.80" xmlns="http://www.w3.org/2000/svg" xmlns:xlink="http://www.w3.org/1999/xlink">
<g id="graph0" class="graph" transform="scale(1 1) rotate(0) translate(4 242.8)">
<title>dependencies</title>
<polygon fill="white" stroke="transparent" points="-4,4 -4,-242.8 464,-242.8 464,4 -4,4"/>
<text text-anchor="middle" x="230" y="-8.2" font-family="sans-serif" font-size="14.00">dependencies</text>
<g id="clust1" class="cluster">
<title>cluster_InviteModule</title>
<polygon fill="none" stroke="black" stroke-dasharray="1,5" points="8,-32.8 8,-230.8 452,-230.8 452,-32.8 8,-32.8"/>
</g>
<g id="clust4" class="cluster">
<title>cluster_InviteModule_exports</title>
<polygon fill="none" stroke="black" points="174,-170.8 174,-222.8 284,-222.8 284,-170.8 174,-170.8"/>
</g>
<g id="clust3" class="cluster">
<title>cluster_InviteModule_imports</title>
<polygon fill="none" stroke="black" points="166,-40.8 166,-92.8 444,-92.8 444,-40.8 166,-40.8"/>
</g>
<g id="clust6" class="cluster">
<title>cluster_InviteModule_providers</title>
<polygon fill="none" stroke="black" points="16,-40.8 16,-92.8 158,-92.8 158,-40.8 16,-40.8"/>
</g>
<!-- DidIdCachedModule -->
<g id="node1" class="node">
<title>DidIdCachedModule</title>
<polygon fill="#8dd3c7" stroke="black" points="436.19,-84.8 433.19,-88.8 412.19,-88.8 409.19,-84.8 301.81,-84.8 301.81,-48.8 436.19,-48.8 436.19,-84.8"/>
<text text-anchor="middle" x="369" y="-62.6" font-family="Times,serif" font-size="14.00">DidIdCachedModule</text>
</g>
<!-- InviteModule -->
<g id="node3" class="node">
<title>InviteModule</title>
<polygon fill="#8dd3c7" stroke="black" points="275.21,-149.8 272.21,-153.8 251.21,-153.8 248.21,-149.8 182.79,-149.8 182.79,-113.8 275.21,-113.8 275.21,-149.8"/>
<text text-anchor="middle" x="229" y="-127.6" font-family="Times,serif" font-size="14.00">InviteModule</text>
</g>
<!-- DidIdCachedModule&#45;&gt;InviteModule -->
<g id="edge1" class="edge">
<title>DidIdCachedModule&#45;&gt;InviteModule</title>
<path fill="none" stroke="black" d="M369,-84.91C369,-104.14 369,-131.8 369,-131.8 369,-131.8 285.23,-131.8 285.23,-131.8"/>
<polygon fill="black" stroke="black" points="285.23,-128.3 275.23,-131.8 285.23,-135.3 285.23,-128.3"/>
</g>
<!-- InviteDbModule -->
<g id="node2" class="node">
<title>InviteDbModule</title>
<polygon fill="#8dd3c7" stroke="black" points="283.81,-84.8 280.81,-88.8 259.81,-88.8 256.81,-84.8 174.19,-84.8 174.19,-48.8 283.81,-48.8 283.81,-84.8"/>
<text text-anchor="middle" x="229" y="-62.6" font-family="Times,serif" font-size="14.00">InviteDbModule</text>
</g>
<!-- InviteDbModule&#45;&gt;InviteModule -->
<g id="edge2" class="edge">
<title>InviteDbModule&#45;&gt;InviteModule</title>
<path fill="none" stroke="black" d="M229,-84.91C229,-84.91 229,-103.79 229,-103.79"/>
<polygon fill="black" stroke="black" points="225.5,-103.79 229,-113.79 232.5,-103.79 225.5,-103.79"/>
</g>
<!-- InviteService  -->
<g id="node4" class="node">
<title>InviteService </title>
<polygon fill="#fb8072" stroke="black" points="276.13,-214.8 181.87,-214.8 181.87,-178.8 276.13,-178.8 276.13,-214.8"/>
<text text-anchor="middle" x="229" y="-192.6" font-family="Times,serif" font-size="14.00">InviteService </text>
</g>
<!-- InviteModule&#45;&gt;InviteService  -->
<g id="edge3" class="edge">
<title>InviteModule&#45;&gt;InviteService </title>
<path fill="none" stroke="black" stroke-dasharray="5,2" d="M229,-149.91C229,-149.91 229,-168.79 229,-168.79"/>
<polygon fill="black" stroke="black" points="225.5,-168.79 229,-178.79 232.5,-168.79 225.5,-168.79"/>
</g>
<!-- InviteService -->
<g id="node5" class="node">
<title>InviteService</title>
<ellipse fill="#fdb462" stroke="black" cx="87" cy="-66.8" rx="62.54" ry="18"/>
<text text-anchor="middle" x="87" y="-62.6" font-family="Times,serif" font-size="14.00">InviteService</text>
</g>
<!-- InviteService&#45;&gt;InviteModule -->
<g id="edge4" class="edge">
<title>InviteService&#45;&gt;InviteModule</title>
<path fill="none" stroke="black" d="M87,-84.91C87,-104.14 87,-131.8 87,-131.8 87,-131.8 172.9,-131.8 172.9,-131.8"/>
<polygon fill="black" stroke="black" points="172.9,-135.3 182.9,-131.8 172.9,-128.3 172.9,-135.3"/>
</g>
</g>
</svg>
