<?xml version="1.0" encoding="UTF-8" standalone="no"?>
<!DOCTYPE svg PUBLIC "-//W3C//DTD SVG 1.1//EN"
 "http://www.w3.org/Graphics/SVG/1.1/DTD/svg11.dtd">
<!-- Generated by graphviz version 3.0.0 (20220226.1711)
 -->
<!-- Title: dependencies Pages: 1 -->
<svg width="368pt" height="174pt"
 viewBox="0.00 0.00 368.00 173.80" xmlns="http://www.w3.org/2000/svg" xmlns:xlink="http://www.w3.org/1999/xlink">
<g id="graph0" class="graph" transform="scale(1 1) rotate(0) translate(4 169.8)">
<title>dependencies</title>
<polygon fill="white" stroke="transparent" points="-4,4 -4,-169.8 364,-169.8 364,4 -4,4"/>
<text text-anchor="middle" x="180" y="-8.2" font-family="sans-serif" font-size="14.00">dependencies</text>
<g id="clust1" class="cluster">
<title>cluster_GatewayHealthModule</title>
<polygon fill="none" stroke="black" stroke-dasharray="1,5" points="8,-32.8 8,-157.8 352,-157.8 352,-32.8 8,-32.8"/>
</g>
<g id="clust6" class="cluster">
<title>cluster_GatewayHealthModule_providers</title>
<polygon fill="none" stroke="black" points="128,-40.8 128,-92.8 344,-92.8 344,-40.8 128,-40.8"/>
</g>
<g id="clust3" class="cluster">
<title>cluster_GatewayHealthModule_imports</title>
<polygon fill="none" stroke="black" points="16,-40.8 16,-92.8 120,-92.8 120,-40.8 16,-40.8"/>
</g>
<!-- HashModule -->
<g id="node1" class="node">
<title>HashModule</title>
<polygon fill="#8dd3c7" stroke="black" points="112.32,-84.8 109.32,-88.8 88.32,-88.8 85.32,-84.8 23.68,-84.8 23.68,-48.8 112.32,-48.8 112.32,-84.8"/>
<text text-anchor="middle" x="68" y="-62.6" font-family="Times,serif" font-size="14.00">HashModule</text>
</g>
<!-- GatewayHealthModule -->
<g id="node2" class="node">
<title>GatewayHealthModule</title>
<polygon fill="#8dd3c7" stroke="black" points="235.12,-149.8 232.12,-153.8 211.12,-153.8 208.12,-149.8 88.88,-149.8 88.88,-113.8 235.12,-113.8 235.12,-149.8"/>
<text text-anchor="middle" x="162" y="-127.6" font-family="Times,serif" font-size="14.00">GatewayHealthModule</text>
</g>
<!-- HashModule&#45;&gt;GatewayHealthModule -->
<g id="edge1" class="edge">
<title>HashModule&#45;&gt;GatewayHealthModule</title>
<path fill="none" stroke="black" d="M100.43,-84.91C100.43,-84.91 100.43,-103.79 100.43,-103.79"/>
<polygon fill="black" stroke="black" points="96.93,-103.79 100.43,-113.79 103.93,-103.79 96.93,-103.79"/>
</g>
<!-- GatewayHealthService -->
<g id="node3" class="node">
<title>GatewayHealthService</title>
<ellipse fill="#fdb462" stroke="black" cx="236" cy="-66.8" rx="100.1" ry="18"/>
<text text-anchor="middle" x="236" y="-62.6" font-family="Times,serif" font-size="14.00">GatewayHealthService</text>
</g>
<!-- GatewayHealthService&#45;&gt;GatewayHealthModule -->
<g id="edge2" class="edge">
<title>GatewayHealthService&#45;&gt;GatewayHealthModule</title>
<path fill="none" stroke="black" d="M185.63,-82.53C185.63,-82.53 185.63,-103.45 185.63,-103.45"/>
<polygon fill="black" stroke="black" points="182.13,-103.45 185.63,-113.45 189.13,-103.45 182.13,-103.45"/>
</g>
</g>
</svg>
