<?xml version="1.0" encoding="UTF-8" standalone="no"?>
<!DOCTYPE svg PUBLIC "-//W3C//DTD SVG 1.1//EN"
 "http://www.w3.org/Graphics/SVG/1.1/DTD/svg11.dtd">
<!-- Generated by graphviz version 2.47.3 (20210619.1520)
 -->
<!-- Title: dependencies Pages: 1 -->
<svg width="368pt" height="174pt"
 viewBox="0.00 0.00 368.00 173.80" xmlns="http://www.w3.org/2000/svg" xmlns:xlink="http://www.w3.org/1999/xlink">
<g id="graph0" class="graph" transform="scale(1 1) rotate(0) translate(4 169.8)">
<title>dependencies</title>
<polygon fill="white" stroke="transparent" points="-4,4 -4,-169.8 364,-169.8 364,4 -4,4"/>
<text text-anchor="middle" x="180" y="-8.2" font-family="sans-serif" font-size="14.00">dependencies</text>
<g id="clust1" class="cluster">
<title>cluster_GatewayHealthModule</title>
<polygon fill="none" stroke="black" stroke-dasharray="1,5" points="8,-32.8 8,-157.8 352,-157.8 352,-32.8 8,-32.8"/>
</g>
<g id="clust3" class="cluster">
<title>cluster_GatewayHealthModule_imports</title>
<polygon fill="none" stroke="black" points="240,-40.8 240,-92.8 344,-92.8 344,-40.8 240,-40.8"/>
</g>
<g id="clust6" class="cluster">
<title>cluster_GatewayHealthModule_providers</title>
<polygon fill="none" stroke="black" points="16,-40.8 16,-92.8 232,-92.8 232,-40.8 16,-40.8"/>
</g>
<!-- HashModule -->
<g id="node1" class="node">
<title>HashModule</title>
<polygon fill="#8dd3c7" stroke="black" points="336.32,-84.8 333.32,-88.8 312.32,-88.8 309.32,-84.8 247.68,-84.8 247.68,-48.8 336.32,-48.8 336.32,-84.8"/>
<text text-anchor="middle" x="292" y="-62.6" font-family="Times,serif" font-size="14.00">HashModule</text>
</g>
<!-- GatewayHealthModule -->
<g id="node2" class="node">
<title>GatewayHealthModule</title>
<polygon fill="#8dd3c7" stroke="black" points="270.11,-149.8 267.11,-153.8 246.11,-153.8 243.11,-149.8 123.89,-149.8 123.89,-113.8 270.11,-113.8 270.11,-149.8"/>
<text text-anchor="middle" x="197" y="-127.6" font-family="Times,serif" font-size="14.00">GatewayHealthModule</text>
</g>
<!-- HashModule&#45;&gt;GatewayHealthModule -->
<g id="edge1" class="edge">
<title>HashModule&#45;&gt;GatewayHealthModule</title>
<path fill="none" stroke="black" d="M259.07,-84.91C259.07,-84.91 259.07,-103.79 259.07,-103.79"/>
<polygon fill="black" stroke="black" points="255.57,-103.79 259.07,-113.79 262.57,-103.79 255.57,-103.79"/>
</g>
<!-- GatewayHealthService -->
<g id="node3" class="node">
<title>GatewayHealthService</title>
<ellipse fill="#fdb462" stroke="black" cx="124" cy="-66.8" rx="100.09" ry="18"/>
<text text-anchor="middle" x="124" y="-62.6" font-family="Times,serif" font-size="14.00">GatewayHealthService</text>
</g>
<!-- GatewayHealthService&#45;&gt;GatewayHealthModule -->
<g id="edge2" class="edge">
<title>GatewayHealthService&#45;&gt;GatewayHealthModule</title>
<path fill="none" stroke="black" d="M173.87,-82.53C173.87,-82.53 173.87,-103.45 173.87,-103.45"/>
<polygon fill="black" stroke="black" points="170.37,-103.45 173.87,-113.45 177.37,-103.45 170.37,-103.45"/>
</g>
</g>
</svg>
