<?xml version="1.0" encoding="UTF-8" standalone="no"?>
<!DOCTYPE svg PUBLIC "-//W3C//DTD SVG 1.1//EN"
 "http://www.w3.org/Graphics/SVG/1.1/DTD/svg11.dtd">
<!-- Generated by graphviz version 2.47.3 (20210619.1520)
 -->
<!-- Title: dependencies Pages: 1 -->
<svg width="454pt" height="174pt"
 viewBox="0.00 0.00 454.00 173.80" xmlns="http://www.w3.org/2000/svg" xmlns:xlink="http://www.w3.org/1999/xlink">
<g id="graph0" class="graph" transform="scale(1 1) rotate(0) translate(4 169.8)">
<title>dependencies</title>
<polygon fill="white" stroke="transparent" points="-4,4 -4,-169.8 450,-169.8 450,4 -4,4"/>
<text text-anchor="middle" x="223" y="-8.2" font-family="sans-serif" font-size="14.00">dependencies</text>
<g id="clust1" class="cluster">
<title>cluster_WalletModule</title>
<polygon fill="none" stroke="black" stroke-dasharray="1,5" points="8,-32.8 8,-157.8 438,-157.8 438,-32.8 8,-32.8"/>
</g>
<g id="clust6" class="cluster">
<title>cluster_WalletModule_providers</title>
<polygon fill="none" stroke="black" points="282,-40.8 282,-92.8 430,-92.8 430,-40.8 282,-40.8"/>
</g>
<g id="clust3" class="cluster">
<title>cluster_WalletModule_imports</title>
<polygon fill="none" stroke="black" points="16,-40.8 16,-92.8 274,-92.8 274,-40.8 16,-40.8"/>
</g>
<!-- ConfigModule -->
<g id="node1" class="node">
<title>ConfigModule</title>
<polygon fill="#8dd3c7" stroke="black" points="266.44,-84.8 263.44,-88.8 242.44,-88.8 239.44,-84.8 167.56,-84.8 167.56,-48.8 266.44,-48.8 266.44,-84.8"/>
<text text-anchor="middle" x="217" y="-62.6" font-family="Times,serif" font-size="14.00">ConfigModule</text>
</g>
<!-- WalletModule -->
<g id="node3" class="node">
<title>WalletModule</title>
<polygon fill="#8dd3c7" stroke="black" points="265.37,-149.8 262.37,-153.8 241.37,-153.8 238.37,-149.8 168.63,-149.8 168.63,-113.8 265.37,-113.8 265.37,-149.8"/>
<text text-anchor="middle" x="217" y="-127.6" font-family="Times,serif" font-size="14.00">WalletModule</text>
</g>
<!-- ConfigModule&#45;&gt;WalletModule -->
<g id="edge1" class="edge">
<title>ConfigModule&#45;&gt;WalletModule</title>
<path fill="none" stroke="black" d="M217,-84.91C217,-84.91 217,-103.79 217,-103.79"/>
<polygon fill="black" stroke="black" points="213.5,-103.79 217,-113.79 220.5,-103.79 213.5,-103.79"/>
</g>
<!-- EventClientModule -->
<g id="node2" class="node">
<title>EventClientModule</title>
<polygon fill="#8dd3c7" stroke="black" points="150.43,-84.8 147.43,-88.8 126.43,-88.8 123.43,-84.8 23.57,-84.8 23.57,-48.8 150.43,-48.8 150.43,-84.8"/>
<text text-anchor="middle" x="87" y="-62.6" font-family="Times,serif" font-size="14.00">EventClientModule</text>
</g>
<!-- EventClientModule&#45;&gt;WalletModule -->
<g id="edge2" class="edge">
<title>EventClientModule&#45;&gt;WalletModule</title>
<path fill="none" stroke="black" d="M87,-84.91C87,-104.14 87,-131.8 87,-131.8 87,-131.8 158.59,-131.8 158.59,-131.8"/>
<polygon fill="black" stroke="black" points="158.59,-135.3 168.59,-131.8 158.59,-128.3 158.59,-135.3"/>
</g>
<!-- WalletService -->
<g id="node4" class="node">
<title>WalletService</title>
<ellipse fill="#fdb462" stroke="black" cx="356" cy="-66.8" rx="65.96" ry="18"/>
<text text-anchor="middle" x="356" y="-62.6" font-family="Times,serif" font-size="14.00">WalletService</text>
</g>
<!-- WalletService&#45;&gt;WalletModule -->
<g id="edge3" class="edge">
<title>WalletService&#45;&gt;WalletModule</title>
<path fill="none" stroke="black" d="M356,-84.91C356,-104.14 356,-131.8 356,-131.8 356,-131.8 275.62,-131.8 275.62,-131.8"/>
<polygon fill="black" stroke="black" points="275.62,-128.3 265.62,-131.8 275.62,-135.3 275.62,-128.3"/>
</g>
</g>
</svg>
