<?xml version="1.0" encoding="UTF-8" standalone="no"?>
<!DOCTYPE svg PUBLIC "-//W3C//DTD SVG 1.1//EN"
 "http://www.w3.org/Graphics/SVG/1.1/DTD/svg11.dtd">
<!-- Generated by graphviz version 2.47.3 (20210619.1520)
 -->
<!-- Title: dependencies Pages: 1 -->
<svg width="454pt" height="174pt"
 viewBox="0.00 0.00 454.00 173.80" xmlns="http://www.w3.org/2000/svg" xmlns:xlink="http://www.w3.org/1999/xlink">
<g id="graph0" class="graph" transform="scale(1 1) rotate(0) translate(4 169.8)">
<title>dependencies</title>
<polygon fill="white" stroke="transparent" points="-4,4 -4,-169.8 450,-169.8 450,4 -4,4"/>
<text text-anchor="middle" x="223" y="-8.2" font-family="sans-serif" font-size="14.00">dependencies</text>
<g id="clust1" class="cluster">
<title>cluster_WalletModule</title>
<polygon fill="none" stroke="black" stroke-dasharray="1,5" points="8,-32.8 8,-157.8 438,-157.8 438,-32.8 8,-32.8"/>
</g>
<g id="clust3" class="cluster">
<title>cluster_WalletModule_imports</title>
<polygon fill="none" stroke="black" points="172,-40.8 172,-92.8 430,-92.8 430,-40.8 172,-40.8"/>
</g>
<g id="clust6" class="cluster">
<title>cluster_WalletModule_providers</title>
<polygon fill="none" stroke="black" points="16,-40.8 16,-92.8 164,-92.8 164,-40.8 16,-40.8"/>
</g>
<!-- ConfigModule -->
<g id="node1" class="node">
<title>ConfigModule</title>
<polygon fill="#8dd3c7" stroke="black" points="422.44,-84.8 419.44,-88.8 398.44,-88.8 395.44,-84.8 323.56,-84.8 323.56,-48.8 422.44,-48.8 422.44,-84.8"/>
<text text-anchor="middle" x="373" y="-62.6" font-family="Times,serif" font-size="14.00">ConfigModule</text>
</g>
<!-- WalletModule -->
<g id="node3" class="node">
<title>WalletModule</title>
<polygon fill="#8dd3c7" stroke="black" points="291.37,-149.8 288.37,-153.8 267.37,-153.8 264.37,-149.8 194.63,-149.8 194.63,-113.8 291.37,-113.8 291.37,-149.8"/>
<text text-anchor="middle" x="243" y="-127.6" font-family="Times,serif" font-size="14.00">WalletModule</text>
</g>
<!-- ConfigModule&#45;&gt;WalletModule -->
<g id="edge1" class="edge">
<title>ConfigModule&#45;&gt;WalletModule</title>
<path fill="none" stroke="black" d="M373,-84.91C373,-104.14 373,-131.8 373,-131.8 373,-131.8 301.41,-131.8 301.41,-131.8"/>
<polygon fill="black" stroke="black" points="301.41,-128.3 291.41,-131.8 301.41,-135.3 301.41,-128.3"/>
</g>
<!-- EventClientModule -->
<g id="node2" class="node">
<title>EventClientModule</title>
<polygon fill="#8dd3c7" stroke="black" points="306.43,-84.8 303.43,-88.8 282.43,-88.8 279.43,-84.8 179.57,-84.8 179.57,-48.8 306.43,-48.8 306.43,-84.8"/>
<text text-anchor="middle" x="243" y="-62.6" font-family="Times,serif" font-size="14.00">EventClientModule</text>
</g>
<!-- EventClientModule&#45;&gt;WalletModule -->
<g id="edge2" class="edge">
<title>EventClientModule&#45;&gt;WalletModule</title>
<path fill="none" stroke="black" d="M243,-84.91C243,-84.91 243,-103.79 243,-103.79"/>
<polygon fill="black" stroke="black" points="239.5,-103.79 243,-113.79 246.5,-103.79 239.5,-103.79"/>
</g>
<!-- WalletService -->
<g id="node4" class="node">
<title>WalletService</title>
<ellipse fill="#fdb462" stroke="black" cx="90" cy="-66.8" rx="65.96" ry="18"/>
<text text-anchor="middle" x="90" y="-62.6" font-family="Times,serif" font-size="14.00">WalletService</text>
</g>
<!-- WalletService&#45;&gt;WalletModule -->
<g id="edge3" class="edge">
<title>WalletService&#45;&gt;WalletModule</title>
<path fill="none" stroke="black" d="M90,-84.91C90,-104.14 90,-131.8 90,-131.8 90,-131.8 184.59,-131.8 184.59,-131.8"/>
<polygon fill="black" stroke="black" points="184.59,-135.3 194.59,-131.8 184.59,-128.3 184.59,-135.3"/>
</g>
</g>
</svg>
