<?xml version="1.0" encoding="UTF-8" standalone="no"?>
<!DOCTYPE svg PUBLIC "-//W3C//DTD SVG 1.1//EN"
 "http://www.w3.org/Graphics/SVG/1.1/DTD/svg11.dtd">
<!-- Generated by graphviz version 2.47.3 (20210619.1520)
 -->
<!-- Title: dependencies Pages: 1 -->
<svg width="234pt" height="247pt"
 viewBox="0.00 0.00 234.00 246.80" xmlns="http://www.w3.org/2000/svg" xmlns:xlink="http://www.w3.org/1999/xlink">
<g id="graph0" class="graph" transform="scale(1 1) rotate(0) translate(4 242.8)">
<title>dependencies</title>
<polygon fill="white" stroke="transparent" points="-4,4 -4,-242.8 230,-242.8 230,4 -4,4"/>
<text text-anchor="middle" x="113" y="-8.2" font-family="sans-serif" font-size="14.00">dependencies</text>
<g id="clust1" class="cluster">
<title>cluster_PersistClientModule</title>
<polygon fill="none" stroke="black" stroke-dasharray="1,5" points="8,-32.8 8,-230.8 218,-230.8 218,-32.8 8,-32.8"/>
</g>
<g id="clust6" class="cluster">
<title>cluster_PersistClientModule_providers</title>
<polygon fill="none" stroke="black" points="16,-40.8 16,-92.8 210,-92.8 210,-40.8 16,-40.8"/>
</g>
<g id="clust4" class="cluster">
<title>cluster_PersistClientModule_exports</title>
<polygon fill="none" stroke="black" points="38,-170.8 38,-222.8 188,-222.8 188,-170.8 38,-170.8"/>
</g>
<!-- PersistClientService  -->
<g id="node1" class="node">
<title>PersistClientService </title>
<polygon fill="#fb8072" stroke="black" points="179.53,-214.8 46.47,-214.8 46.47,-178.8 179.53,-178.8 179.53,-214.8"/>
<text text-anchor="middle" x="113" y="-192.6" font-family="Times,serif" font-size="14.00">PersistClientService </text>
</g>
<!-- PersistClientModule -->
<g id="node2" class="node">
<title>PersistClientModule</title>
<polygon fill="#8dd3c7" stroke="black" points="178.6,-149.8 175.6,-153.8 154.6,-153.8 151.6,-149.8 47.4,-149.8 47.4,-113.8 178.6,-113.8 178.6,-149.8"/>
<text text-anchor="middle" x="113" y="-127.6" font-family="Times,serif" font-size="14.00">PersistClientModule</text>
</g>
<!-- PersistClientModule&#45;&gt;PersistClientService  -->
<g id="edge1" class="edge">
<title>PersistClientModule&#45;&gt;PersistClientService </title>
<path fill="none" stroke="black" stroke-dasharray="5,2" d="M113,-149.91C113,-149.91 113,-168.79 113,-168.79"/>
<polygon fill="black" stroke="black" points="109.5,-168.79 113,-178.79 116.5,-168.79 109.5,-168.79"/>
</g>
<!-- PersistClientService -->
<g id="node3" class="node">
<title>PersistClientService</title>
<ellipse fill="#fdb462" stroke="black" cx="113" cy="-66.8" rx="89.19" ry="18"/>
<text text-anchor="middle" x="113" y="-62.6" font-family="Times,serif" font-size="14.00">PersistClientService</text>
</g>
<!-- PersistClientService&#45;&gt;PersistClientModule -->
<g id="edge2" class="edge">
<title>PersistClientService&#45;&gt;PersistClientModule</title>
<path fill="none" stroke="black" d="M113,-84.91C113,-84.91 113,-103.79 113,-103.79"/>
<polygon fill="black" stroke="black" points="109.5,-103.79 113,-113.79 116.5,-103.79 109.5,-103.79"/>
</g>
</g>
</svg>
