<?xml version="1.0" encoding="UTF-8" standalone="no"?>
<!DOCTYPE svg PUBLIC "-//W3C//DTD SVG 1.1//EN"
 "http://www.w3.org/Graphics/SVG/1.1/DTD/svg11.dtd">
<!-- Generated by graphviz version 2.47.3 (20210619.1520)
 -->
<!-- Title: dependencies Pages: 1 -->
<svg width="548pt" height="174pt"
 viewBox="0.00 0.00 548.00 173.80" xmlns="http://www.w3.org/2000/svg" xmlns:xlink="http://www.w3.org/1999/xlink">
<g id="graph0" class="graph" transform="scale(1 1) rotate(0) translate(4 169.8)">
<title>dependencies</title>
<polygon fill="white" stroke="transparent" points="-4,4 -4,-169.8 544,-169.8 544,4 -4,4"/>
<text text-anchor="middle" x="270" y="-8.2" font-family="sans-serif" font-size="14.00">dependencies</text>
<g id="clust1" class="cluster">
<title>cluster_NetworkObserverModule</title>
<polygon fill="none" stroke="black" stroke-dasharray="1,5" points="8,-32.8 8,-157.8 532,-157.8 532,-32.8 8,-32.8"/>
</g>
<g id="clust3" class="cluster">
<title>cluster_NetworkObserverModule_imports</title>
<polygon fill="none" stroke="black" points="16,-40.8 16,-92.8 524,-92.8 524,-40.8 16,-40.8"/>
</g>
<!-- ConfigModule -->
<g id="node1" class="node">
<title>ConfigModule</title>
<polygon fill="#8dd3c7" stroke="black" points="516.44,-84.8 513.44,-88.8 492.44,-88.8 489.44,-84.8 417.56,-84.8 417.56,-48.8 516.44,-48.8 516.44,-84.8"/>
<text text-anchor="middle" x="467" y="-62.6" font-family="Times,serif" font-size="14.00">ConfigModule</text>
</g>
<!-- NetworkObserverModule -->
<g id="node5" class="node">
<title>NetworkObserverModule</title>
<polygon fill="#8dd3c7" stroke="black" points="355.83,-149.8 352.83,-153.8 331.83,-153.8 328.83,-149.8 196.17,-149.8 196.17,-113.8 355.83,-113.8 355.83,-149.8"/>
<text text-anchor="middle" x="276" y="-127.6" font-family="Times,serif" font-size="14.00">NetworkObserverModule</text>
</g>
<!-- ConfigModule&#45;&gt;NetworkObserverModule -->
<g id="edge1" class="edge">
<title>ConfigModule&#45;&gt;NetworkObserverModule</title>
<path fill="none" stroke="black" d="M467,-84.91C467,-104.14 467,-131.8 467,-131.8 467,-131.8 365.89,-131.8 365.89,-131.8"/>
<polygon fill="black" stroke="black" points="365.89,-128.3 355.89,-131.8 365.89,-135.3 365.89,-128.3"/>
</g>
<!-- EventClientModule -->
<g id="node2" class="node">
<title>EventClientModule</title>
<polygon fill="#8dd3c7" stroke="black" points="400.43,-84.8 397.43,-88.8 376.43,-88.8 373.43,-84.8 273.57,-84.8 273.57,-48.8 400.43,-48.8 400.43,-84.8"/>
<text text-anchor="middle" x="337" y="-62.6" font-family="Times,serif" font-size="14.00">EventClientModule</text>
</g>
<!-- EventClientModule&#45;&gt;NetworkObserverModule -->
<g id="edge2" class="edge">
<title>EventClientModule&#45;&gt;NetworkObserverModule</title>
<path fill="none" stroke="black" d="M314.85,-84.91C314.85,-84.91 314.85,-103.79 314.85,-103.79"/>
<polygon fill="black" stroke="black" points="311.35,-103.79 314.85,-113.79 318.35,-103.79 311.35,-103.79"/>
</g>
<!-- P2PModule -->
<g id="node3" class="node">
<title>P2PModule</title>
<polygon fill="#8dd3c7" stroke="black" points="256.12,-84.8 253.12,-88.8 232.12,-88.8 229.12,-84.8 173.88,-84.8 173.88,-48.8 256.12,-48.8 256.12,-84.8"/>
<text text-anchor="middle" x="215" y="-62.6" font-family="Times,serif" font-size="14.00">P2PModule</text>
</g>
<!-- P2PModule&#45;&gt;NetworkObserverModule -->
<g id="edge3" class="edge">
<title>P2PModule&#45;&gt;NetworkObserverModule</title>
<path fill="none" stroke="black" d="M226.07,-84.91C226.07,-84.91 226.07,-103.79 226.07,-103.79"/>
<polygon fill="black" stroke="black" points="222.57,-103.79 226.07,-113.79 229.57,-103.79 222.57,-103.79"/>
</g>
<!-- WalletClientModule -->
<g id="node4" class="node">
<title>WalletClientModule</title>
<polygon fill="#8dd3c7" stroke="black" points="155.59,-84.8 152.59,-88.8 131.59,-88.8 128.59,-84.8 24.41,-84.8 24.41,-48.8 155.59,-48.8 155.59,-84.8"/>
<text text-anchor="middle" x="90" y="-62.6" font-family="Times,serif" font-size="14.00">WalletClientModule</text>
</g>
<!-- WalletClientModule&#45;&gt;NetworkObserverModule -->
<g id="edge4" class="edge">
<title>WalletClientModule&#45;&gt;NetworkObserverModule</title>
<path fill="none" stroke="black" d="M90,-84.91C90,-104.14 90,-131.8 90,-131.8 90,-131.8 186.04,-131.8 186.04,-131.8"/>
<polygon fill="black" stroke="black" points="186.04,-135.3 196.04,-131.8 186.04,-128.3 186.04,-135.3"/>
</g>
</g>
</svg>
