<?xml version="1.0" encoding="UTF-8" standalone="no"?>
<!DOCTYPE svg PUBLIC "-//W3C//DTD SVG 1.1//EN"
 "http://www.w3.org/Graphics/SVG/1.1/DTD/svg11.dtd">
<!-- Generated by graphviz version 2.47.3 (20210619.1520)
 -->
<!-- Title: dependencies Pages: 1 -->
<svg width="754pt" height="247pt"
 viewBox="0.00 0.00 754.00 246.80" xmlns="http://www.w3.org/2000/svg" xmlns:xlink="http://www.w3.org/1999/xlink">
<g id="graph0" class="graph" transform="scale(1 1) rotate(0) translate(4 242.8)">
<title>dependencies</title>
<polygon fill="white" stroke="transparent" points="-4,4 -4,-242.8 750,-242.8 750,4 -4,4"/>
<text text-anchor="middle" x="373" y="-8.2" font-family="sans-serif" font-size="14.00">dependencies</text>
<g id="clust1" class="cluster">
<title>cluster_DidIdBlockchainModule</title>
<polygon fill="none" stroke="black" stroke-dasharray="1,5" points="8,-32.8 8,-230.8 738,-230.8 738,-32.8 8,-32.8"/>
</g>
<g id="clust3" class="cluster">
<title>cluster_DidIdBlockchainModule_imports</title>
<polygon fill="none" stroke="black" points="306,-40.8 306,-92.8 730,-92.8 730,-40.8 306,-40.8"/>
</g>
<g id="clust6" class="cluster">
<title>cluster_DidIdBlockchainModule_providers</title>
<polygon fill="none" stroke="black" points="16,-40.8 16,-92.8 298,-92.8 298,-40.8 16,-40.8"/>
</g>
<g id="clust4" class="cluster">
<title>cluster_DidIdBlockchainModule_exports</title>
<polygon fill="none" stroke="black" points="333,-170.8 333,-222.8 545,-222.8 545,-170.8 333,-170.8"/>
</g>
<!-- BlockCheckModule -->
<g id="node1" class="node">
<title>BlockCheckModule</title>
<polygon fill="#8dd3c7" stroke="black" points="722.26,-84.8 719.26,-88.8 698.26,-88.8 695.26,-84.8 593.74,-84.8 593.74,-48.8 722.26,-48.8 722.26,-84.8"/>
<text text-anchor="middle" x="658" y="-62.6" font-family="Times,serif" font-size="14.00">BlockCheckModule</text>
</g>
<!-- DidIdBlockchainModule -->
<g id="node4" class="node">
<title>DidIdBlockchainModule</title>
<polygon fill="#8dd3c7" stroke="black" points="516.97,-149.8 513.97,-153.8 492.97,-153.8 489.97,-149.8 361.03,-149.8 361.03,-113.8 516.97,-113.8 516.97,-149.8"/>
<text text-anchor="middle" x="439" y="-127.6" font-family="Times,serif" font-size="14.00">DidIdBlockchainModule</text>
</g>
<!-- BlockCheckModule&#45;&gt;DidIdBlockchainModule -->
<g id="edge1" class="edge">
<title>BlockCheckModule&#45;&gt;DidIdBlockchainModule</title>
<path fill="none" stroke="black" d="M658,-84.91C658,-104.14 658,-131.8 658,-131.8 658,-131.8 527.14,-131.8 527.14,-131.8"/>
<polygon fill="black" stroke="black" points="527.14,-128.3 517.14,-131.8 527.14,-135.3 527.14,-128.3"/>
</g>
<!-- DidIdCachedModule -->
<g id="node2" class="node">
<title>DidIdCachedModule</title>
<polygon fill="#8dd3c7" stroke="black" points="576.19,-84.8 573.19,-88.8 552.19,-88.8 549.19,-84.8 441.81,-84.8 441.81,-48.8 576.19,-48.8 576.19,-84.8"/>
<text text-anchor="middle" x="509" y="-62.6" font-family="Times,serif" font-size="14.00">DidIdCachedModule</text>
</g>
<!-- DidIdCachedModule&#45;&gt;DidIdBlockchainModule -->
<g id="edge2" class="edge">
<title>DidIdCachedModule&#45;&gt;DidIdBlockchainModule</title>
<path fill="none" stroke="black" d="M479.45,-84.91C479.45,-84.91 479.45,-103.79 479.45,-103.79"/>
<polygon fill="black" stroke="black" points="475.95,-103.79 479.45,-113.79 482.95,-103.79 475.95,-103.79"/>
</g>
<!-- DidIdDbModule -->
<g id="node3" class="node">
<title>DidIdDbModule</title>
<polygon fill="#8dd3c7" stroke="black" points="423.81,-84.8 420.81,-88.8 399.81,-88.8 396.81,-84.8 314.19,-84.8 314.19,-48.8 423.81,-48.8 423.81,-84.8"/>
<text text-anchor="middle" x="369" y="-62.6" font-family="Times,serif" font-size="14.00">DidIdDbModule</text>
</g>
<!-- DidIdDbModule&#45;&gt;DidIdBlockchainModule -->
<g id="edge3" class="edge">
<title>DidIdDbModule&#45;&gt;DidIdBlockchainModule</title>
<path fill="none" stroke="black" d="M392.34,-84.91C392.34,-84.91 392.34,-103.79 392.34,-103.79"/>
<polygon fill="black" stroke="black" points="388.84,-103.79 392.34,-113.79 395.84,-103.79 388.84,-103.79"/>
</g>
<!-- DidIdTransactionCheckService  -->
<g id="node5" class="node">
<title>DidIdTransactionCheckService </title>
<polygon fill="#fb8072" stroke="black" points="536.98,-214.8 341.02,-214.8 341.02,-178.8 536.98,-178.8 536.98,-214.8"/>
<text text-anchor="middle" x="439" y="-192.6" font-family="Times,serif" font-size="14.00">DidIdTransactionCheckService </text>
</g>
<!-- DidIdBlockchainModule&#45;&gt;DidIdTransactionCheckService  -->
<g id="edge4" class="edge">
<title>DidIdBlockchainModule&#45;&gt;DidIdTransactionCheckService </title>
<path fill="none" stroke="black" stroke-dasharray="5,2" d="M439,-149.91C439,-149.91 439,-168.79 439,-168.79"/>
<polygon fill="black" stroke="black" points="435.5,-168.79 439,-178.79 442.5,-168.79 435.5,-168.79"/>
</g>
<!-- DidIdTransactionCheckService -->
<g id="node6" class="node">
<title>DidIdTransactionCheckService</title>
<ellipse fill="#fdb462" stroke="black" cx="157" cy="-66.8" rx="132.54" ry="18"/>
<text text-anchor="middle" x="157" y="-62.6" font-family="Times,serif" font-size="14.00">DidIdTransactionCheckService</text>
</g>
<!-- DidIdTransactionCheckService&#45;&gt;DidIdBlockchainModule -->
<g id="edge5" class="edge">
<title>DidIdTransactionCheckService&#45;&gt;DidIdBlockchainModule</title>
<path fill="none" stroke="black" d="M157,-84.91C157,-104.14 157,-131.8 157,-131.8 157,-131.8 350.82,-131.8 350.82,-131.8"/>
<polygon fill="black" stroke="black" points="350.82,-135.3 360.82,-131.8 350.82,-128.3 350.82,-135.3"/>
</g>
</g>
</svg>
