<?xml version="1.0" encoding="UTF-8" standalone="no"?>
<!DOCTYPE svg PUBLIC "-//W3C//DTD SVG 1.1//EN"
 "http://www.w3.org/Graphics/SVG/1.1/DTD/svg11.dtd">
<!-- Generated by graphviz version 3.0.0 (20220226.1711)
 -->
<!-- Title: dependencies Pages: 1 -->
<svg width="795pt" height="247pt"
 viewBox="0.00 0.00 795.00 246.80" xmlns="http://www.w3.org/2000/svg" xmlns:xlink="http://www.w3.org/1999/xlink">
<g id="graph0" class="graph" transform="scale(1 1) rotate(0) translate(4 242.8)">
<title>dependencies</title>
<polygon fill="white" stroke="transparent" points="-4,4 -4,-242.8 791,-242.8 791,4 -4,4"/>
<text text-anchor="middle" x="393.5" y="-8.2" font-family="sans-serif" font-size="14.00">dependencies</text>
<g id="clust1" class="cluster">
<title>cluster_BlockCheckModule</title>
<polygon fill="none" stroke="black" stroke-dasharray="1,5" points="8,-32.8 8,-230.8 779,-230.8 779,-32.8 8,-32.8"/>
</g>
<g id="clust4" class="cluster">
<title>cluster_BlockCheckModule_exports</title>
<polygon fill="none" stroke="black" points="286,-170.8 286,-222.8 588,-222.8 588,-170.8 286,-170.8"/>
</g>
<g id="clust3" class="cluster">
<title>cluster_BlockCheckModule_imports</title>
<polygon fill="none" stroke="black" points="216,-40.8 216,-92.8 771,-92.8 771,-40.8 216,-40.8"/>
</g>
<g id="clust6" class="cluster">
<title>cluster_BlockCheckModule_providers</title>
<polygon fill="none" stroke="black" points="16,-40.8 16,-92.8 208,-92.8 208,-40.8 16,-40.8"/>
</g>
<!-- DidIdCachedModule -->
<g id="node1" class="node">
<title>DidIdCachedModule</title>
<polygon fill="#8dd3c7" stroke="black" points="763.19,-84.8 760.19,-88.8 739.19,-88.8 736.19,-84.8 628.81,-84.8 628.81,-48.8 763.19,-48.8 763.19,-84.8"/>
<text text-anchor="middle" x="696" y="-62.6" font-family="Times,serif" font-size="14.00">DidIdCachedModule</text>
</g>
<!-- BlockCheckModule -->
<g id="node5" class="node">
<title>BlockCheckModule</title>
<polygon fill="#8dd3c7" stroke="black" points="503.26,-149.8 500.26,-153.8 479.26,-153.8 476.26,-149.8 374.74,-149.8 374.74,-113.8 503.26,-113.8 503.26,-149.8"/>
<text text-anchor="middle" x="439" y="-127.6" font-family="Times,serif" font-size="14.00">BlockCheckModule</text>
</g>
<!-- DidIdCachedModule&#45;&gt;BlockCheckModule -->
<g id="edge1" class="edge">
<title>DidIdCachedModule&#45;&gt;BlockCheckModule</title>
<path fill="none" stroke="black" d="M696,-85.08C696,-106.12 696,-137.8 696,-137.8 696,-137.8 513.52,-137.8 513.52,-137.8"/>
<polygon fill="black" stroke="black" points="513.52,-134.3 503.52,-137.8 513.52,-141.3 513.52,-134.3"/>
</g>
<!-- HashModule -->
<g id="node2" class="node">
<title>HashModule</title>
<polygon fill="#8dd3c7" stroke="black" points="611.32,-84.8 608.32,-88.8 587.32,-88.8 584.32,-84.8 522.68,-84.8 522.68,-48.8 611.32,-48.8 611.32,-84.8"/>
<text text-anchor="middle" x="567" y="-62.6" font-family="Times,serif" font-size="14.00">HashModule</text>
</g>
<!-- HashModule&#45;&gt;BlockCheckModule -->
<g id="edge2" class="edge">
<title>HashModule&#45;&gt;BlockCheckModule</title>
<path fill="none" stroke="black" d="M551.59,-84.82C551.59,-102.17 551.59,-125.8 551.59,-125.8 551.59,-125.8 513.52,-125.8 513.52,-125.8"/>
<polygon fill="black" stroke="black" points="513.52,-122.3 503.52,-125.8 513.52,-129.3 513.52,-122.3"/>
</g>
<!-- PersistClientModule -->
<g id="node3" class="node">
<title>PersistClientModule</title>
<polygon fill="#8dd3c7" stroke="black" points="504.61,-84.8 501.61,-88.8 480.61,-88.8 477.61,-84.8 373.39,-84.8 373.39,-48.8 504.61,-48.8 504.61,-84.8"/>
<text text-anchor="middle" x="439" y="-62.6" font-family="Times,serif" font-size="14.00">PersistClientModule</text>
</g>
<!-- PersistClientModule&#45;&gt;BlockCheckModule -->
<g id="edge3" class="edge">
<title>PersistClientModule&#45;&gt;BlockCheckModule</title>
<path fill="none" stroke="black" d="M439,-84.91C439,-84.91 439,-103.79 439,-103.79"/>
<polygon fill="black" stroke="black" points="435.5,-103.79 439,-113.79 442.5,-103.79 435.5,-103.79"/>
</g>
<!-- WalletClientModule -->
<g id="node4" class="node">
<title>WalletClientModule</title>
<polygon fill="#8dd3c7" stroke="black" points="355.58,-84.8 352.58,-88.8 331.58,-88.8 328.58,-84.8 224.42,-84.8 224.42,-48.8 355.58,-48.8 355.58,-84.8"/>
<text text-anchor="middle" x="290" y="-62.6" font-family="Times,serif" font-size="14.00">WalletClientModule</text>
</g>
<!-- WalletClientModule&#45;&gt;BlockCheckModule -->
<g id="edge4" class="edge">
<title>WalletClientModule&#45;&gt;BlockCheckModule</title>
<path fill="none" stroke="black" d="M324.85,-84.82C324.85,-102.17 324.85,-125.8 324.85,-125.8 324.85,-125.8 364.58,-125.8 364.58,-125.8"/>
<polygon fill="black" stroke="black" points="364.58,-129.3 374.58,-125.8 364.58,-122.3 364.58,-129.3"/>
</g>
<!-- BlockCheckService  -->
<g id="node6" class="node">
<title>BlockCheckService </title>
<polygon fill="#fb8072" stroke="black" points="580.19,-214.8 449.81,-214.8 449.81,-178.8 580.19,-178.8 580.19,-214.8"/>
<text text-anchor="middle" x="515" y="-192.6" font-family="Times,serif" font-size="14.00">BlockCheckService </text>
</g>
<!-- BlockCheckModule&#45;&gt;BlockCheckService  -->
<g id="edge5" class="edge">
<title>BlockCheckModule&#45;&gt;BlockCheckService </title>
<path fill="none" stroke="black" stroke-dasharray="5,2" d="M476.52,-149.91C476.52,-149.91 476.52,-168.79 476.52,-168.79"/>
<polygon fill="black" stroke="black" points="473.02,-168.79 476.52,-178.79 480.02,-168.79 473.02,-168.79"/>
</g>
<!-- DidIdCachedModule  -->
<g id="node7" class="node">
<title>DidIdCachedModule </title>
<polygon fill="#fb8072" stroke="black" points="431.69,-214.8 294.31,-214.8 294.31,-178.8 431.69,-178.8 431.69,-214.8"/>
<text text-anchor="middle" x="363" y="-192.6" font-family="Times,serif" font-size="14.00">DidIdCachedModule </text>
</g>
<!-- BlockCheckModule&#45;&gt;DidIdCachedModule  -->
<g id="edge6" class="edge">
<title>BlockCheckModule&#45;&gt;DidIdCachedModule </title>
<path fill="none" stroke="black" stroke-dasharray="5,2" d="M403.23,-149.91C403.23,-149.91 403.23,-168.79 403.23,-168.79"/>
<polygon fill="black" stroke="black" points="399.73,-168.79 403.23,-178.79 406.73,-168.79 399.73,-168.79"/>
</g>
<!-- BlockCheckService -->
<g id="node8" class="node">
<title>BlockCheckService</title>
<ellipse fill="#fdb462" stroke="black" cx="112" cy="-66.8" rx="87.96" ry="18"/>
<text text-anchor="middle" x="112" y="-62.6" font-family="Times,serif" font-size="14.00">BlockCheckService</text>
</g>
<!-- BlockCheckService&#45;&gt;BlockCheckModule -->
<g id="edge7" class="edge">
<title>BlockCheckService&#45;&gt;BlockCheckModule</title>
<path fill="none" stroke="black" d="M112,-85.08C112,-106.12 112,-137.8 112,-137.8 112,-137.8 364.4,-137.8 364.4,-137.8"/>
<polygon fill="black" stroke="black" points="364.4,-141.3 374.4,-137.8 364.4,-134.3 364.4,-141.3"/>
</g>
</g>
</svg>
