<?xml version="1.0" encoding="UTF-8" standalone="no"?>
<!DOCTYPE svg PUBLIC "-//W3C//DTD SVG 1.1//EN"
 "http://www.w3.org/Graphics/SVG/1.1/DTD/svg11.dtd">
<!-- Generated by graphviz version 3.0.0 (20220226.1711)
 -->
<!-- Title: dependencies Pages: 1 -->
<svg width="226pt" height="247pt"
 viewBox="0.00 0.00 226.00 246.80" xmlns="http://www.w3.org/2000/svg" xmlns:xlink="http://www.w3.org/1999/xlink">
<g id="graph0" class="graph" transform="scale(1 1) rotate(0) translate(4 242.8)">
<title>dependencies</title>
<polygon fill="white" stroke="transparent" points="-4,4 -4,-242.8 222,-242.8 222,4 -4,4"/>
<text text-anchor="middle" x="109" y="-8.2" font-family="sans-serif" font-size="14.00">dependencies</text>
<g id="clust1" class="cluster">
<title>cluster_ParseClientModule</title>
<polygon fill="none" stroke="black" stroke-dasharray="1,5" points="8,-32.8 8,-230.8 210,-230.8 210,-32.8 8,-32.8"/>
</g>
<g id="clust6" class="cluster">
<title>cluster_ParseClientModule_providers</title>
<polygon fill="none" stroke="black" points="16,-40.8 16,-92.8 202,-92.8 202,-40.8 16,-40.8"/>
</g>
<g id="clust4" class="cluster">
<title>cluster_ParseClientModule_exports</title>
<polygon fill="none" stroke="black" points="38,-170.8 38,-222.8 180,-222.8 180,-170.8 38,-170.8"/>
</g>
<!-- ParseClientService  -->
<g id="node1" class="node">
<title>ParseClientService </title>
<polygon fill="#fb8072" stroke="black" points="172.02,-214.8 45.98,-214.8 45.98,-178.8 172.02,-178.8 172.02,-214.8"/>
<text text-anchor="middle" x="109" y="-192.6" font-family="Times,serif" font-size="14.00">ParseClientService </text>
</g>
<!-- ParseClientModule -->
<g id="node2" class="node">
<title>ParseClientModule</title>
<polygon fill="#8dd3c7" stroke="black" points="171.1,-149.8 168.1,-153.8 147.1,-153.8 144.1,-149.8 46.9,-149.8 46.9,-113.8 171.1,-113.8 171.1,-149.8"/>
<text text-anchor="middle" x="109" y="-127.6" font-family="Times,serif" font-size="14.00">ParseClientModule</text>
</g>
<!-- ParseClientModule&#45;&gt;ParseClientService  -->
<g id="edge1" class="edge">
<title>ParseClientModule&#45;&gt;ParseClientService </title>
<path fill="none" stroke="black" stroke-dasharray="5,2" d="M109,-149.91C109,-149.91 109,-168.79 109,-168.79"/>
<polygon fill="black" stroke="black" points="105.5,-168.79 109,-178.79 112.5,-168.79 105.5,-168.79"/>
</g>
<!-- ParseClientService -->
<g id="node3" class="node">
<title>ParseClientService</title>
<ellipse fill="#fdb462" stroke="black" cx="109" cy="-66.8" rx="84.53" ry="18"/>
<text text-anchor="middle" x="109" y="-62.6" font-family="Times,serif" font-size="14.00">ParseClientService</text>
</g>
<!-- ParseClientService&#45;&gt;ParseClientModule -->
<g id="edge2" class="edge">
<title>ParseClientService&#45;&gt;ParseClientModule</title>
<path fill="none" stroke="black" d="M109,-84.91C109,-84.91 109,-103.79 109,-103.79"/>
<polygon fill="black" stroke="black" points="105.5,-103.79 109,-113.79 112.5,-103.79 105.5,-103.79"/>
</g>
</g>
</svg>
