<?xml version="1.0" encoding="UTF-8" standalone="no"?>
<!DOCTYPE svg PUBLIC "-//W3C//DTD SVG 1.1//EN"
 "http://www.w3.org/Graphics/SVG/1.1/DTD/svg11.dtd">
<!-- Generated by graphviz version 3.0.0 (20220226.1711)
 -->
<!-- Title: dependencies Pages: 1 -->
<svg width="1865pt" height="247pt"
 viewBox="0.00 0.00 1865.00 246.80" xmlns="http://www.w3.org/2000/svg" xmlns:xlink="http://www.w3.org/1999/xlink">
<g id="graph0" class="graph" transform="scale(1 1) rotate(0) translate(4 242.8)">
<title>dependencies</title>
<polygon fill="white" stroke="transparent" points="-4,4 -4,-242.8 1861,-242.8 1861,4 -4,4"/>
<text text-anchor="middle" x="928.5" y="-8.2" font-family="sans-serif" font-size="14.00">dependencies</text>
<g id="clust1" class="cluster">
<title>cluster_ParseModule</title>
<polygon fill="none" stroke="black" stroke-dasharray="1,5" points="8,-32.8 8,-230.8 1849,-230.8 1849,-32.8 8,-32.8"/>
</g>
<g id="clust6" class="cluster">
<title>cluster_ParseModule_providers</title>
<polygon fill="none" stroke="black" points="1703,-40.8 1703,-92.8 1841,-92.8 1841,-40.8 1703,-40.8"/>
</g>
<g id="clust3" class="cluster">
<title>cluster_ParseModule_imports</title>
<polygon fill="none" stroke="black" points="16,-40.8 16,-92.8 1695,-92.8 1695,-40.8 16,-40.8"/>
</g>
<g id="clust4" class="cluster">
<title>cluster_ParseModule_exports</title>
<polygon fill="none" stroke="black" points="930,-170.8 930,-222.8 1038,-222.8 1038,-170.8 930,-170.8"/>
</g>
<!-- ConfigModule -->
<g id="node1" class="node">
<title>ConfigModule</title>
<polygon fill="#8dd3c7" stroke="black" points="1687.44,-84.8 1684.44,-88.8 1663.44,-88.8 1660.44,-84.8 1588.56,-84.8 1588.56,-48.8 1687.44,-48.8 1687.44,-84.8"/>
<text text-anchor="middle" x="1638" y="-62.6" font-family="Times,serif" font-size="14.00">ConfigModule</text>
</g>
<!-- ParseModule -->
<g id="node12" class="node">
<title>ParseModule</title>
<polygon fill="#8dd3c7" stroke="black" points="1028.88,-149.8 1025.88,-153.8 1004.88,-153.8 1001.88,-149.8 939.12,-149.8 939.12,-113.8 1028.88,-113.8 1028.88,-149.8"/>
<text text-anchor="middle" x="984" y="-127.6" font-family="Times,serif" font-size="14.00">ParseModule</text>
</g>
<!-- ConfigModule&#45;&gt;ParseModule -->
<g id="edge1" class="edge">
<title>ConfigModule&#45;&gt;ParseModule</title>
<path fill="none" stroke="black" d="M1638,-85.08C1638,-106.12 1638,-137.8 1638,-137.8 1638,-137.8 1038.95,-137.8 1038.95,-137.8"/>
<polygon fill="black" stroke="black" points="1038.95,-134.3 1028.95,-137.8 1038.95,-141.3 1038.95,-134.3"/>
</g>
<!-- DidIdCachedModule -->
<g id="node2" class="node">
<title>DidIdCachedModule</title>
<polygon fill="#8dd3c7" stroke="black" points="1571.19,-84.8 1568.19,-88.8 1547.19,-88.8 1544.19,-84.8 1436.81,-84.8 1436.81,-48.8 1571.19,-48.8 1571.19,-84.8"/>
<text text-anchor="middle" x="1504" y="-62.6" font-family="Times,serif" font-size="14.00">DidIdCachedModule</text>
</g>
<!-- DidIdCachedModule&#45;&gt;ParseModule -->
<g id="edge2" class="edge">
<title>DidIdCachedModule&#45;&gt;ParseModule</title>
<path fill="none" stroke="black" d="M1504,-84.91C1504,-104.14 1504,-131.8 1504,-131.8 1504,-131.8 1039.24,-131.8 1039.24,-131.8"/>
<polygon fill="black" stroke="black" points="1039.24,-128.3 1029.24,-131.8 1039.24,-135.3 1039.24,-128.3"/>
</g>
<!-- DidIdParsingModule -->
<g id="node3" class="node">
<title>DidIdParsingModule</title>
<polygon fill="#8dd3c7" stroke="black" points="1419.21,-84.8 1416.21,-88.8 1395.21,-88.8 1392.21,-84.8 1284.79,-84.8 1284.79,-48.8 1419.21,-48.8 1419.21,-84.8"/>
<text text-anchor="middle" x="1352" y="-62.6" font-family="Times,serif" font-size="14.00">DidIdParsingModule</text>
</g>
<!-- DidIdParsingModule&#45;&gt;ParseModule -->
<g id="edge3" class="edge">
<title>DidIdParsingModule&#45;&gt;ParseModule</title>
<path fill="none" stroke="black" d="M1352,-84.82C1352,-102.17 1352,-125.8 1352,-125.8 1352,-125.8 1039.12,-125.8 1039.12,-125.8"/>
<polygon fill="black" stroke="black" points="1039.12,-122.3 1029.12,-125.8 1039.12,-129.3 1039.12,-122.3"/>
</g>
<!-- EventClientModule -->
<g id="node4" class="node">
<title>EventClientModule</title>
<polygon fill="#8dd3c7" stroke="black" points="1267.43,-84.8 1264.43,-88.8 1243.43,-88.8 1240.43,-84.8 1140.57,-84.8 1140.57,-48.8 1267.43,-48.8 1267.43,-84.8"/>
<text text-anchor="middle" x="1204" y="-62.6" font-family="Times,serif" font-size="14.00">EventClientModule</text>
</g>
<!-- EventClientModule&#45;&gt;ParseModule -->
<g id="edge4" class="edge">
<title>EventClientModule&#45;&gt;ParseModule</title>
<path fill="none" stroke="black" d="M1204,-85.04C1204,-100.37 1204,-119.8 1204,-119.8 1204,-119.8 1039.05,-119.8 1039.05,-119.8"/>
<polygon fill="black" stroke="black" points="1039.05,-116.3 1029.05,-119.8 1039.05,-123.3 1039.05,-116.3"/>
</g>
<!-- HashCachedModule -->
<g id="node5" class="node">
<title>HashCachedModule</title>
<polygon fill="#8dd3c7" stroke="black" points="1123.3,-84.8 1120.3,-88.8 1099.3,-88.8 1096.3,-84.8 992.7,-84.8 992.7,-48.8 1123.3,-48.8 1123.3,-84.8"/>
<text text-anchor="middle" x="1058" y="-62.6" font-family="Times,serif" font-size="14.00">HashCachedModule</text>
</g>
<!-- HashCachedModule&#45;&gt;ParseModule -->
<g id="edge5" class="edge">
<title>HashCachedModule&#45;&gt;ParseModule</title>
<path fill="none" stroke="black" d="M1010.89,-84.91C1010.89,-84.91 1010.89,-103.79 1010.89,-103.79"/>
<polygon fill="black" stroke="black" points="1007.39,-103.79 1010.89,-113.79 1014.39,-103.79 1007.39,-103.79"/>
</g>
<!-- HashParsingModule -->
<g id="node6" class="node">
<title>HashParsingModule</title>
<polygon fill="#8dd3c7" stroke="black" points="975.32,-84.8 972.32,-88.8 951.32,-88.8 948.32,-84.8 844.68,-84.8 844.68,-48.8 975.32,-48.8 975.32,-84.8"/>
<text text-anchor="middle" x="910" y="-62.6" font-family="Times,serif" font-size="14.00">HashParsingModule</text>
</g>
<!-- HashParsingModule&#45;&gt;ParseModule -->
<g id="edge6" class="edge">
<title>HashParsingModule&#45;&gt;ParseModule</title>
<path fill="none" stroke="black" d="M957.11,-84.91C957.11,-84.91 957.11,-103.79 957.11,-103.79"/>
<polygon fill="black" stroke="black" points="953.61,-103.79 957.11,-113.79 960.61,-103.79 953.61,-103.79"/>
</g>
<!-- PersistClientModule -->
<g id="node7" class="node">
<title>PersistClientModule</title>
<polygon fill="#8dd3c7" stroke="black" points="826.61,-84.8 823.61,-88.8 802.61,-88.8 799.61,-84.8 695.39,-84.8 695.39,-48.8 826.61,-48.8 826.61,-84.8"/>
<text text-anchor="middle" x="761" y="-62.6" font-family="Times,serif" font-size="14.00">PersistClientModule</text>
</g>
<!-- PersistClientModule&#45;&gt;ParseModule -->
<g id="edge7" class="edge">
<title>PersistClientModule&#45;&gt;ParseModule</title>
<path fill="none" stroke="black" d="M761,-85.04C761,-100.37 761,-119.8 761,-119.8 761,-119.8 928.87,-119.8 928.87,-119.8"/>
<polygon fill="black" stroke="black" points="928.87,-123.3 938.87,-119.8 928.87,-116.3 928.87,-123.3"/>
</g>
<!-- SchemaCachedModule -->
<g id="node8" class="node">
<title>SchemaCachedModule</title>
<polygon fill="#8dd3c7" stroke="black" points="677.85,-84.8 674.85,-88.8 653.85,-88.8 650.85,-84.8 532.15,-84.8 532.15,-48.8 677.85,-48.8 677.85,-84.8"/>
<text text-anchor="middle" x="605" y="-62.6" font-family="Times,serif" font-size="14.00">SchemaCachedModule</text>
</g>
<!-- SchemaCachedModule&#45;&gt;ParseModule -->
<g id="edge8" class="edge">
<title>SchemaCachedModule&#45;&gt;ParseModule</title>
<path fill="none" stroke="black" d="M605,-84.82C605,-102.17 605,-125.8 605,-125.8 605,-125.8 929.04,-125.8 929.04,-125.8"/>
<polygon fill="black" stroke="black" points="929.04,-129.3 939.04,-125.8 929.04,-122.3 929.04,-129.3"/>
</g>
<!-- SchemaParsingModule -->
<g id="node9" class="node">
<title>SchemaParsingModule</title>
<polygon fill="#8dd3c7" stroke="black" points="513.87,-84.8 510.87,-88.8 489.87,-88.8 486.87,-84.8 368.13,-84.8 368.13,-48.8 513.87,-48.8 513.87,-84.8"/>
<text text-anchor="middle" x="441" y="-62.6" font-family="Times,serif" font-size="14.00">SchemaParsingModule</text>
</g>
<!-- SchemaParsingModule&#45;&gt;ParseModule -->
<g id="edge9" class="edge">
<title>SchemaParsingModule&#45;&gt;ParseModule</title>
<path fill="none" stroke="black" d="M441,-84.91C441,-104.14 441,-131.8 441,-131.8 441,-131.8 929.1,-131.8 929.1,-131.8"/>
<polygon fill="black" stroke="black" points="929.1,-135.3 939.1,-131.8 929.1,-128.3 929.1,-135.3"/>
</g>
<!-- TemplateCachedModule -->
<g id="node10" class="node">
<title>TemplateCachedModule</title>
<polygon fill="#8dd3c7" stroke="black" points="350.39,-84.8 347.39,-88.8 326.39,-88.8 323.39,-84.8 195.61,-84.8 195.61,-48.8 350.39,-48.8 350.39,-84.8"/>
<text text-anchor="middle" x="273" y="-62.6" font-family="Times,serif" font-size="14.00">TemplateCachedModule</text>
</g>
<!-- TemplateCachedModule&#45;&gt;ParseModule -->
<g id="edge10" class="edge">
<title>TemplateCachedModule&#45;&gt;ParseModule</title>
<path fill="none" stroke="black" d="M273,-85.08C273,-106.12 273,-137.8 273,-137.8 273,-137.8 928.98,-137.8 928.98,-137.8"/>
<polygon fill="black" stroke="black" points="928.98,-141.3 938.98,-137.8 928.98,-134.3 928.98,-141.3"/>
</g>
<!-- TemplateParsingModule -->
<g id="node11" class="node">
<title>TemplateParsingModule</title>
<polygon fill="#8dd3c7" stroke="black" points="178.41,-84.8 175.41,-88.8 154.41,-88.8 151.41,-84.8 23.59,-84.8 23.59,-48.8 178.41,-48.8 178.41,-84.8"/>
<text text-anchor="middle" x="101" y="-62.6" font-family="Times,serif" font-size="14.00">TemplateParsingModule</text>
</g>
<!-- TemplateParsingModule&#45;&gt;ParseModule -->
<g id="edge11" class="edge">
<title>TemplateParsingModule&#45;&gt;ParseModule</title>
<path fill="none" stroke="black" d="M101,-85.05C101,-107.82 101,-143.8 101,-143.8 101,-143.8 929,-143.8 929,-143.8"/>
<polygon fill="black" stroke="black" points="929,-147.3 939,-143.8 929,-140.3 929,-147.3"/>
</g>
<!-- ParseService  -->
<g id="node13" class="node">
<title>ParseService </title>
<polygon fill="#fb8072" stroke="black" points="1029.8,-214.8 938.2,-214.8 938.2,-178.8 1029.8,-178.8 1029.8,-214.8"/>
<text text-anchor="middle" x="984" y="-192.6" font-family="Times,serif" font-size="14.00">ParseService </text>
</g>
<!-- ParseModule&#45;&gt;ParseService  -->
<g id="edge12" class="edge">
<title>ParseModule&#45;&gt;ParseService </title>
<path fill="none" stroke="black" stroke-dasharray="5,2" d="M984,-149.91C984,-149.91 984,-168.79 984,-168.79"/>
<polygon fill="black" stroke="black" points="980.5,-168.79 984,-178.79 987.5,-168.79 980.5,-168.79"/>
</g>
<!-- ParseService -->
<g id="node14" class="node">
<title>ParseService</title>
<ellipse fill="#fdb462" stroke="black" cx="1772" cy="-66.8" rx="60.82" ry="18"/>
<text text-anchor="middle" x="1772" y="-62.6" font-family="Times,serif" font-size="14.00">ParseService</text>
</g>
<!-- ParseService&#45;&gt;ParseModule -->
<g id="edge13" class="edge">
<title>ParseService&#45;&gt;ParseModule</title>
<path fill="none" stroke="black" d="M1772,-85.05C1772,-107.82 1772,-143.8 1772,-143.8 1772,-143.8 1038.91,-143.8 1038.91,-143.8"/>
<polygon fill="black" stroke="black" points="1038.91,-140.3 1028.91,-143.8 1038.91,-147.3 1038.91,-140.3"/>
</g>
</g>
</svg>
