<?xml version="1.0" encoding="UTF-8" standalone="no"?>
<!DOCTYPE svg PUBLIC "-//W3C//DTD SVG 1.1//EN"
 "http://www.w3.org/Graphics/SVG/1.1/DTD/svg11.dtd">
<!-- Generated by graphviz version 2.47.3 (20210619.1520)
 -->
<!-- Title: dependencies Pages: 1 -->
<svg width="314pt" height="174pt"
 viewBox="0.00 0.00 314.00 173.80" xmlns="http://www.w3.org/2000/svg" xmlns:xlink="http://www.w3.org/1999/xlink">
<g id="graph0" class="graph" transform="scale(1 1) rotate(0) translate(4 169.8)">
<title>dependencies</title>
<polygon fill="white" stroke="transparent" points="-4,4 -4,-169.8 310,-169.8 310,4 -4,4"/>
<text text-anchor="middle" x="153" y="-8.2" font-family="sans-serif" font-size="14.00">dependencies</text>
<g id="clust1" class="cluster">
<title>cluster_ObserverHashModule</title>
<polygon fill="none" stroke="black" stroke-dasharray="1,5" points="8,-32.8 8,-157.8 298,-157.8 298,-32.8 8,-32.8"/>
</g>
<g id="clust3" class="cluster">
<title>cluster_ObserverHashModule_imports</title>
<polygon fill="none" stroke="black" points="16,-40.8 16,-92.8 290,-92.8 290,-40.8 16,-40.8"/>
</g>
<!-- HashCachedModule -->
<g id="node1" class="node">
<title>HashCachedModule</title>
<polygon fill="#8dd3c7" stroke="black" points="282.3,-84.8 279.3,-88.8 258.3,-88.8 255.3,-84.8 151.7,-84.8 151.7,-48.8 282.3,-48.8 282.3,-84.8"/>
<text text-anchor="middle" x="217" y="-62.6" font-family="Times,serif" font-size="14.00">HashCachedModule</text>
</g>
<!-- ObserverHashModule -->
<g id="node3" class="node">
<title>ObserverHashModule</title>
<polygon fill="#8dd3c7" stroke="black" points="220.62,-149.8 217.62,-153.8 196.62,-153.8 193.62,-149.8 81.38,-149.8 81.38,-113.8 220.62,-113.8 220.62,-149.8"/>
<text text-anchor="middle" x="151" y="-127.6" font-family="Times,serif" font-size="14.00">ObserverHashModule</text>
</g>
<!-- HashCachedModule&#45;&gt;ObserverHashModule -->
<g id="edge1" class="edge">
<title>HashCachedModule&#45;&gt;ObserverHashModule</title>
<path fill="none" stroke="black" d="M186.33,-84.91C186.33,-84.91 186.33,-103.79 186.33,-103.79"/>
<polygon fill="black" stroke="black" points="182.83,-103.79 186.33,-113.79 189.83,-103.79 182.83,-103.79"/>
</g>
<!-- TrackingModule -->
<g id="node2" class="node">
<title>TrackingModule</title>
<polygon fill="#8dd3c7" stroke="black" points="134.08,-84.8 131.08,-88.8 110.08,-88.8 107.08,-84.8 23.92,-84.8 23.92,-48.8 134.08,-48.8 134.08,-84.8"/>
<text text-anchor="middle" x="79" y="-62.6" font-family="Times,serif" font-size="14.00">TrackingModule</text>
</g>
<!-- TrackingModule&#45;&gt;ObserverHashModule -->
<g id="edge2" class="edge">
<title>TrackingModule&#45;&gt;ObserverHashModule</title>
<path fill="none" stroke="black" d="M107.62,-84.91C107.62,-84.91 107.62,-103.79 107.62,-103.79"/>
<polygon fill="black" stroke="black" points="104.12,-103.79 107.62,-113.79 111.12,-103.79 104.12,-103.79"/>
</g>
</g>
</svg>
