<?xml version="1.0" encoding="UTF-8" standalone="no"?>
<!DOCTYPE svg PUBLIC "-//W3C//DTD SVG 1.1//EN"
 "http://www.w3.org/Graphics/SVG/1.1/DTD/svg11.dtd">
<!-- Generated by graphviz version 2.47.3 (20210619.1520)
 -->
<!-- Title: dependencies Pages: 1 -->
<svg width="485pt" height="247pt"
 viewBox="0.00 0.00 485.00 246.80" xmlns="http://www.w3.org/2000/svg" xmlns:xlink="http://www.w3.org/1999/xlink">
<g id="graph0" class="graph" transform="scale(1 1) rotate(0) translate(4 242.8)">
<title>dependencies</title>
<polygon fill="white" stroke="transparent" points="-4,4 -4,-242.8 481,-242.8 481,4 -4,4"/>
<text text-anchor="middle" x="238.5" y="-8.2" font-family="sans-serif" font-size="14.00">dependencies</text>
<g id="clust1" class="cluster">
<title>cluster_TrackingModule</title>
<polygon fill="none" stroke="black" stroke-dasharray="1,5" points="8,-32.8 8,-230.8 469,-230.8 469,-32.8 8,-32.8"/>
</g>
<g id="clust3" class="cluster">
<title>cluster_TrackingModule_imports</title>
<polygon fill="none" stroke="black" points="190,-40.8 190,-92.8 461,-92.8 461,-40.8 190,-40.8"/>
</g>
<g id="clust6" class="cluster">
<title>cluster_TrackingModule_providers</title>
<polygon fill="none" stroke="black" points="16,-40.8 16,-92.8 182,-92.8 182,-40.8 16,-40.8"/>
</g>
<g id="clust4" class="cluster">
<title>cluster_TrackingModule_exports</title>
<polygon fill="none" stroke="black" points="198,-170.8 198,-222.8 326,-222.8 326,-170.8 198,-170.8"/>
</g>
<!-- DidIdDbModule -->
<g id="node1" class="node">
<title>DidIdDbModule</title>
<polygon fill="#8dd3c7" stroke="black" points="452.81,-84.8 449.81,-88.8 428.81,-88.8 425.81,-84.8 343.19,-84.8 343.19,-48.8 452.81,-48.8 452.81,-84.8"/>
<text text-anchor="middle" x="398" y="-62.6" font-family="Times,serif" font-size="14.00">DidIdDbModule</text>
</g>
<!-- TrackingModule -->
<g id="node3" class="node">
<title>TrackingModule</title>
<polygon fill="#8dd3c7" stroke="black" points="317.08,-149.8 314.08,-153.8 293.08,-153.8 290.08,-149.8 206.92,-149.8 206.92,-113.8 317.08,-113.8 317.08,-149.8"/>
<text text-anchor="middle" x="262" y="-127.6" font-family="Times,serif" font-size="14.00">TrackingModule</text>
</g>
<!-- DidIdDbModule&#45;&gt;TrackingModule -->
<g id="edge1" class="edge">
<title>DidIdDbModule&#45;&gt;TrackingModule</title>
<path fill="none" stroke="black" d="M398,-84.91C398,-104.14 398,-131.8 398,-131.8 398,-131.8 327.32,-131.8 327.32,-131.8"/>
<polygon fill="black" stroke="black" points="327.32,-128.3 317.32,-131.8 327.32,-135.3 327.32,-128.3"/>
</g>
<!-- TrackingDbModule -->
<g id="node2" class="node">
<title>TrackingDbModule</title>
<polygon fill="#8dd3c7" stroke="black" points="325.69,-84.8 322.69,-88.8 301.69,-88.8 298.69,-84.8 198.31,-84.8 198.31,-48.8 325.69,-48.8 325.69,-84.8"/>
<text text-anchor="middle" x="262" y="-62.6" font-family="Times,serif" font-size="14.00">TrackingDbModule</text>
</g>
<!-- TrackingDbModule&#45;&gt;TrackingModule -->
<g id="edge2" class="edge">
<title>TrackingDbModule&#45;&gt;TrackingModule</title>
<path fill="none" stroke="black" d="M262,-84.91C262,-84.91 262,-103.79 262,-103.79"/>
<polygon fill="black" stroke="black" points="258.5,-103.79 262,-113.79 265.5,-103.79 258.5,-103.79"/>
</g>
<!-- TrackingService  -->
<g id="node4" class="node">
<title>TrackingService </title>
<polygon fill="#fb8072" stroke="black" points="318.01,-214.8 205.99,-214.8 205.99,-178.8 318.01,-178.8 318.01,-214.8"/>
<text text-anchor="middle" x="262" y="-192.6" font-family="Times,serif" font-size="14.00">TrackingService </text>
</g>
<!-- TrackingModule&#45;&gt;TrackingService  -->
<g id="edge3" class="edge">
<title>TrackingModule&#45;&gt;TrackingService </title>
<path fill="none" stroke="black" stroke-dasharray="5,2" d="M262,-149.91C262,-149.91 262,-168.79 262,-168.79"/>
<polygon fill="black" stroke="black" points="258.5,-168.79 262,-178.79 265.5,-168.79 258.5,-168.79"/>
</g>
<!-- TrackingService -->
<g id="node5" class="node">
<title>TrackingService</title>
<ellipse fill="#fdb462" stroke="black" cx="99" cy="-66.8" rx="74.7" ry="18"/>
<text text-anchor="middle" x="99" y="-62.6" font-family="Times,serif" font-size="14.00">TrackingService</text>
</g>
<!-- TrackingService&#45;&gt;TrackingModule -->
<g id="edge4" class="edge">
<title>TrackingService&#45;&gt;TrackingModule</title>
<path fill="none" stroke="black" d="M99,-84.91C99,-104.14 99,-131.8 99,-131.8 99,-131.8 196.82,-131.8 196.82,-131.8"/>
<polygon fill="black" stroke="black" points="196.82,-135.3 206.82,-131.8 196.82,-128.3 196.82,-135.3"/>
</g>
</g>
</svg>
