<?xml version="1.0" encoding="UTF-8" standalone="no"?>
<!DOCTYPE svg PUBLIC "-//W3C//DTD SVG 1.1//EN"
 "http://www.w3.org/Graphics/SVG/1.1/DTD/svg11.dtd">
<!-- Generated by graphviz version 2.47.3 (20210619.1520)
 -->
<!-- Title: dependencies Pages: 1 -->
<svg width="485pt" height="247pt"
 viewBox="0.00 0.00 485.00 246.80" xmlns="http://www.w3.org/2000/svg" xmlns:xlink="http://www.w3.org/1999/xlink">
<g id="graph0" class="graph" transform="scale(1 1) rotate(0) translate(4 242.8)">
<title>dependencies</title>
<polygon fill="white" stroke="transparent" points="-4,4 -4,-242.8 481,-242.8 481,4 -4,4"/>
<text text-anchor="middle" x="238.5" y="-8.2" font-family="sans-serif" font-size="14.00">dependencies</text>
<g id="clust1" class="cluster">
<title>cluster_TrackingModule</title>
<polygon fill="none" stroke="black" stroke-dasharray="1,5" points="8,-32.8 8,-230.8 469,-230.8 469,-32.8 8,-32.8"/>
</g>
<g id="clust6" class="cluster">
<title>cluster_TrackingModule_providers</title>
<polygon fill="none" stroke="black" points="295,-40.8 295,-92.8 461,-92.8 461,-40.8 295,-40.8"/>
</g>
<g id="clust3" class="cluster">
<title>cluster_TrackingModule_imports</title>
<polygon fill="none" stroke="black" points="16,-40.8 16,-92.8 287,-92.8 287,-40.8 16,-40.8"/>
</g>
<g id="clust4" class="cluster">
<title>cluster_TrackingModule_exports</title>
<polygon fill="none" stroke="black" points="160,-170.8 160,-222.8 288,-222.8 288,-170.8 160,-170.8"/>
</g>
<!-- DidIdDbModule -->
<g id="node1" class="node">
<title>DidIdDbModule</title>
<polygon fill="#8dd3c7" stroke="black" points="278.81,-84.8 275.81,-88.8 254.81,-88.8 251.81,-84.8 169.19,-84.8 169.19,-48.8 278.81,-48.8 278.81,-84.8"/>
<text text-anchor="middle" x="224" y="-62.6" font-family="Times,serif" font-size="14.00">DidIdDbModule</text>
</g>
<!-- TrackingModule -->
<g id="node3" class="node">
<title>TrackingModule</title>
<polygon fill="#8dd3c7" stroke="black" points="279.08,-149.8 276.08,-153.8 255.08,-153.8 252.08,-149.8 168.92,-149.8 168.92,-113.8 279.08,-113.8 279.08,-149.8"/>
<text text-anchor="middle" x="224" y="-127.6" font-family="Times,serif" font-size="14.00">TrackingModule</text>
</g>
<!-- DidIdDbModule&#45;&gt;TrackingModule -->
<g id="edge1" class="edge">
<title>DidIdDbModule&#45;&gt;TrackingModule</title>
<path fill="none" stroke="black" d="M224,-84.91C224,-84.91 224,-103.79 224,-103.79"/>
<polygon fill="black" stroke="black" points="220.5,-103.79 224,-113.79 227.5,-103.79 220.5,-103.79"/>
</g>
<!-- TrackingDbModule -->
<g id="node2" class="node">
<title>TrackingDbModule</title>
<polygon fill="#8dd3c7" stroke="black" points="151.69,-84.8 148.69,-88.8 127.69,-88.8 124.69,-84.8 24.31,-84.8 24.31,-48.8 151.69,-48.8 151.69,-84.8"/>
<text text-anchor="middle" x="88" y="-62.6" font-family="Times,serif" font-size="14.00">TrackingDbModule</text>
</g>
<!-- TrackingDbModule&#45;&gt;TrackingModule -->
<g id="edge2" class="edge">
<title>TrackingDbModule&#45;&gt;TrackingModule</title>
<path fill="none" stroke="black" d="M88,-84.91C88,-104.14 88,-131.8 88,-131.8 88,-131.8 158.68,-131.8 158.68,-131.8"/>
<polygon fill="black" stroke="black" points="158.68,-135.3 168.68,-131.8 158.68,-128.3 158.68,-135.3"/>
</g>
<!-- TrackingService  -->
<g id="node4" class="node">
<title>TrackingService </title>
<polygon fill="#fb8072" stroke="black" points="280.01,-214.8 167.99,-214.8 167.99,-178.8 280.01,-178.8 280.01,-214.8"/>
<text text-anchor="middle" x="224" y="-192.6" font-family="Times,serif" font-size="14.00">TrackingService </text>
</g>
<!-- TrackingModule&#45;&gt;TrackingService  -->
<g id="edge3" class="edge">
<title>TrackingModule&#45;&gt;TrackingService </title>
<path fill="none" stroke="black" stroke-dasharray="5,2" d="M224,-149.91C224,-149.91 224,-168.79 224,-168.79"/>
<polygon fill="black" stroke="black" points="220.5,-168.79 224,-178.79 227.5,-168.79 220.5,-168.79"/>
</g>
<!-- TrackingService -->
<g id="node5" class="node">
<title>TrackingService</title>
<ellipse fill="#fdb462" stroke="black" cx="378" cy="-66.8" rx="74.7" ry="18"/>
<text text-anchor="middle" x="378" y="-62.6" font-family="Times,serif" font-size="14.00">TrackingService</text>
</g>
<!-- TrackingService&#45;&gt;TrackingModule -->
<g id="edge4" class="edge">
<title>TrackingService&#45;&gt;TrackingModule</title>
<path fill="none" stroke="black" d="M378,-84.91C378,-104.14 378,-131.8 378,-131.8 378,-131.8 289.16,-131.8 289.16,-131.8"/>
<polygon fill="black" stroke="black" points="289.16,-128.3 279.16,-131.8 289.16,-135.3 289.16,-128.3"/>
</g>
</g>
</svg>
