<?xml version="1.0" encoding="UTF-8" standalone="no"?>
<!DOCTYPE svg PUBLIC "-//W3C//DTD SVG 1.1//EN"
 "http://www.w3.org/Graphics/SVG/1.1/DTD/svg11.dtd">
<!-- Generated by graphviz version 2.47.3 (20210619.1520)
 -->
<!-- Title: dependencies Pages: 1 -->
<svg width="801pt" height="247pt"
 viewBox="0.00 0.00 801.00 246.80" xmlns="http://www.w3.org/2000/svg" xmlns:xlink="http://www.w3.org/1999/xlink">
<g id="graph0" class="graph" transform="scale(1 1) rotate(0) translate(4 242.8)">
<title>dependencies</title>
<polygon fill="white" stroke="transparent" points="-4,4 -4,-242.8 797,-242.8 797,4 -4,4"/>
<text text-anchor="middle" x="396.5" y="-8.2" font-family="sans-serif" font-size="14.00">dependencies</text>
<g id="clust1" class="cluster">
<title>cluster_HttpSharedModule</title>
<polygon fill="none" stroke="black" stroke-dasharray="1,5" points="8,-32.8 8,-230.8 785,-230.8 785,-32.8 8,-32.8"/>
</g>
<g id="clust3" class="cluster">
<title>cluster_HttpSharedModule_imports</title>
<polygon fill="none" stroke="black" points="24,-40.8 24,-92.8 768,-92.8 768,-40.8 24,-40.8"/>
</g>
<g id="clust4" class="cluster">
<title>cluster_HttpSharedModule_exports</title>
<polygon fill="none" stroke="black" points="16,-170.8 16,-222.8 777,-222.8 777,-170.8 16,-170.8"/>
</g>
<!-- EventClientModule -->
<g id="node1" class="node">
<title>EventClientModule</title>
<polygon fill="#8dd3c7" stroke="black" points="760.43,-84.8 757.43,-88.8 736.43,-88.8 733.43,-84.8 633.57,-84.8 633.57,-48.8 760.43,-48.8 760.43,-84.8"/>
<text text-anchor="middle" x="697" y="-62.6" font-family="Times,serif" font-size="14.00">EventClientModule</text>
</g>
<!-- HttpSharedModule -->
<g id="node6" class="node">
<title>HttpSharedModule</title>
<polygon fill="#8dd3c7" stroke="black" points="454.81,-149.8 451.81,-153.8 430.81,-153.8 427.81,-149.8 331.19,-149.8 331.19,-113.8 454.81,-113.8 454.81,-149.8"/>
<text text-anchor="middle" x="393" y="-127.6" font-family="Times,serif" font-size="14.00">HttpSharedModule</text>
</g>
<!-- EventClientModule&#45;&gt;HttpSharedModule -->
<g id="edge1" class="edge">
<title>EventClientModule&#45;&gt;HttpSharedModule</title>
<path fill="none" stroke="black" d="M719.82,-85.07C719.82,-103.36 719.82,-128.8 719.82,-128.8 719.82,-128.8 464.86,-128.8 464.86,-128.8"/>
<polygon fill="black" stroke="black" points="464.86,-125.3 454.86,-128.8 464.86,-132.3 464.86,-125.3"/>
</g>
<!-- NetworkClientModule -->
<g id="node2" class="node">
<title>NetworkClientModule</title>
<polygon fill="#8dd3c7" stroke="black" points="615.25,-84.8 612.25,-88.8 591.25,-88.8 588.25,-84.8 472.75,-84.8 472.75,-48.8 615.25,-48.8 615.25,-84.8"/>
<text text-anchor="middle" x="544" y="-62.6" font-family="Times,serif" font-size="14.00">NetworkClientModule</text>
</g>
<!-- NetworkClientModule&#45;&gt;HttpSharedModule -->
<g id="edge2" class="edge">
<title>NetworkClientModule&#45;&gt;HttpSharedModule</title>
<path fill="none" stroke="black" d="M568.54,-84.81C568.54,-100.85 568.54,-121.8 568.54,-121.8 568.54,-121.8 464.89,-121.8 464.89,-121.8"/>
<polygon fill="black" stroke="black" points="464.89,-118.3 454.89,-121.8 464.89,-125.3 464.89,-118.3"/>
</g>
<!-- ParseClientModule -->
<g id="node3" class="node">
<title>ParseClientModule</title>
<polygon fill="#8dd3c7" stroke="black" points="455.09,-84.8 452.09,-88.8 431.09,-88.8 428.09,-84.8 330.91,-84.8 330.91,-48.8 455.09,-48.8 455.09,-84.8"/>
<text text-anchor="middle" x="393" y="-62.6" font-family="Times,serif" font-size="14.00">ParseClientModule</text>
</g>
<!-- ParseClientModule&#45;&gt;HttpSharedModule -->
<g id="edge3" class="edge">
<title>ParseClientModule&#45;&gt;HttpSharedModule</title>
<path fill="none" stroke="black" d="M393,-84.91C393,-84.91 393,-103.79 393,-103.79"/>
<polygon fill="black" stroke="black" points="389.5,-103.79 393,-113.79 396.5,-103.79 389.5,-103.79"/>
</g>
<!-- PersistClientModule -->
<g id="node4" class="node">
<title>PersistClientModule</title>
<polygon fill="#8dd3c7" stroke="black" points="312.6,-84.8 309.6,-88.8 288.6,-88.8 285.6,-84.8 181.4,-84.8 181.4,-48.8 312.6,-48.8 312.6,-84.8"/>
<text text-anchor="middle" x="247" y="-62.6" font-family="Times,serif" font-size="14.00">PersistClientModule</text>
</g>
<!-- PersistClientModule&#45;&gt;HttpSharedModule -->
<g id="edge4" class="edge">
<title>PersistClientModule&#45;&gt;HttpSharedModule</title>
<path fill="none" stroke="black" d="M268.02,-84.81C268.02,-100.85 268.02,-121.8 268.02,-121.8 268.02,-121.8 321.24,-121.8 321.24,-121.8"/>
<polygon fill="black" stroke="black" points="321.24,-125.3 331.24,-121.8 321.24,-118.3 321.24,-125.3"/>
</g>
<!-- WalletClientModule -->
<g id="node5" class="node">
<title>WalletClientModule</title>
<polygon fill="#8dd3c7" stroke="black" points="163.59,-84.8 160.59,-88.8 139.59,-88.8 136.59,-84.8 32.41,-84.8 32.41,-48.8 163.59,-48.8 163.59,-84.8"/>
<text text-anchor="middle" x="98" y="-62.6" font-family="Times,serif" font-size="14.00">WalletClientModule</text>
</g>
<!-- WalletClientModule&#45;&gt;HttpSharedModule -->
<g id="edge5" class="edge">
<title>WalletClientModule&#45;&gt;HttpSharedModule</title>
<path fill="none" stroke="black" d="M116.35,-85.07C116.35,-103.36 116.35,-128.8 116.35,-128.8 116.35,-128.8 321.26,-128.8 321.26,-128.8"/>
<polygon fill="black" stroke="black" points="321.26,-132.3 331.26,-128.8 321.26,-125.3 321.26,-132.3"/>
</g>
<!-- EventClientModule  -->
<g id="node7" class="node">
<title>EventClientModule </title>
<polygon fill="#fb8072" stroke="black" points="768.93,-214.8 639.07,-214.8 639.07,-178.8 768.93,-178.8 768.93,-214.8"/>
<text text-anchor="middle" x="704" y="-192.6" font-family="Times,serif" font-size="14.00">EventClientModule </text>
</g>
<!-- HttpSharedModule&#45;&gt;EventClientModule  -->
<g id="edge6" class="edge">
<title>HttpSharedModule&#45;&gt;EventClientModule </title>
<path fill="none" stroke="black" stroke-dasharray="5,2" d="M454.8,-135.8C539,-135.8 679.43,-135.8 679.43,-135.8 679.43,-135.8 679.43,-168.5 679.43,-168.5"/>
<polygon fill="black" stroke="black" points="675.93,-168.5 679.43,-178.5 682.93,-168.5 675.93,-168.5"/>
</g>
<!-- NetworkClientModule  -->
<g id="node8" class="node">
<title>NetworkClientModule </title>
<polygon fill="#fb8072" stroke="black" points="621.25,-214.8 474.75,-214.8 474.75,-178.8 621.25,-178.8 621.25,-214.8"/>
<text text-anchor="middle" x="548" y="-192.6" font-family="Times,serif" font-size="14.00">NetworkClientModule </text>
</g>
<!-- HttpSharedModule&#45;&gt;NetworkClientModule  -->
<g id="edge7" class="edge">
<title>HttpSharedModule&#45;&gt;NetworkClientModule </title>
<path fill="none" stroke="black" stroke-dasharray="5,2" d="M454.72,-142.8C487.75,-142.8 521.71,-142.8 521.71,-142.8 521.71,-142.8 521.71,-168.52 521.71,-168.52"/>
<polygon fill="black" stroke="black" points="518.21,-168.52 521.71,-178.52 525.21,-168.52 518.21,-168.52"/>
</g>
<!-- ParseClientModule  -->
<g id="node9" class="node">
<title>ParseClientModule </title>
<polygon fill="#fb8072" stroke="black" points="456.59,-214.8 329.41,-214.8 329.41,-178.8 456.59,-178.8 456.59,-214.8"/>
<text text-anchor="middle" x="393" y="-192.6" font-family="Times,serif" font-size="14.00">ParseClientModule </text>
</g>
<!-- HttpSharedModule&#45;&gt;ParseClientModule  -->
<g id="edge8" class="edge">
<title>HttpSharedModule&#45;&gt;ParseClientModule </title>
<path fill="none" stroke="black" stroke-dasharray="5,2" d="M393,-149.91C393,-149.91 393,-168.79 393,-168.79"/>
<polygon fill="black" stroke="black" points="389.5,-168.79 393,-178.79 396.5,-168.79 389.5,-168.79"/>
</g>
<!-- PersistClientModule  -->
<g id="node10" class="node">
<title>PersistClientModule </title>
<polygon fill="#fb8072" stroke="black" points="311.1,-214.8 176.9,-214.8 176.9,-178.8 311.1,-178.8 311.1,-214.8"/>
<text text-anchor="middle" x="244" y="-192.6" font-family="Times,serif" font-size="14.00">PersistClientModule </text>
</g>
<!-- HttpSharedModule&#45;&gt;PersistClientModule  -->
<g id="edge9" class="edge">
<title>HttpSharedModule&#45;&gt;PersistClientModule </title>
<path fill="none" stroke="black" stroke-dasharray="5,2" d="M331.3,-142.8C283.28,-142.8 224.73,-142.8 224.73,-142.8 224.73,-142.8 224.73,-168.52 224.73,-168.52"/>
<polygon fill="black" stroke="black" points="221.23,-168.52 224.73,-178.52 228.23,-168.52 221.23,-168.52"/>
</g>
<!-- WalletClientModule  -->
<g id="node11" class="node">
<title>WalletClientModule </title>
<polygon fill="#fb8072" stroke="black" points="158.09,-214.8 23.91,-214.8 23.91,-178.8 158.09,-178.8 158.09,-214.8"/>
<text text-anchor="middle" x="91" y="-192.6" font-family="Times,serif" font-size="14.00">WalletClientModule </text>
</g>
<!-- HttpSharedModule&#45;&gt;WalletClientModule  -->
<g id="edge10" class="edge">
<title>HttpSharedModule&#45;&gt;WalletClientModule </title>
<path fill="none" stroke="black" stroke-dasharray="5,2" d="M331.19,-135.8C238.54,-135.8 74.4,-135.8 74.4,-135.8 74.4,-135.8 74.4,-168.5 74.4,-168.5"/>
<polygon fill="black" stroke="black" points="70.9,-168.5 74.4,-178.5 77.9,-168.5 70.9,-168.5"/>
</g>
</g>
</svg>
