<?xml version="1.0" encoding="UTF-8" standalone="no"?>
<!DOCTYPE svg PUBLIC "-//W3C//DTD SVG 1.1//EN"
 "http://www.w3.org/Graphics/SVG/1.1/DTD/svg11.dtd">
<!-- Generated by graphviz version 2.47.3 (20210619.1520)
 -->
<!-- Title: dependencies Pages: 1 -->
<svg width="766pt" height="174pt"
 viewBox="0.00 0.00 766.00 173.80" xmlns="http://www.w3.org/2000/svg" xmlns:xlink="http://www.w3.org/1999/xlink">
<g id="graph0" class="graph" transform="scale(1 1) rotate(0) translate(4 169.8)">
<title>dependencies</title>
<polygon fill="white" stroke="transparent" points="-4,4 -4,-169.8 762,-169.8 762,4 -4,4"/>
<text text-anchor="middle" x="379" y="-8.2" font-family="sans-serif" font-size="14.00">dependencies</text>
<g id="clust1" class="cluster">
<title>cluster_HashParsingModule</title>
<polygon fill="none" stroke="black" stroke-dasharray="1,5" points="8,-32.8 8,-157.8 750,-157.8 750,-32.8 8,-32.8"/>
</g>
<g id="clust6" class="cluster">
<title>cluster_HashParsingModule_providers</title>
<polygon fill="none" stroke="black" points="548,-40.8 548,-92.8 742,-92.8 742,-40.8 548,-40.8"/>
</g>
<g id="clust3" class="cluster">
<title>cluster_HashParsingModule_imports</title>
<polygon fill="none" stroke="black" points="16,-40.8 16,-92.8 540,-92.8 540,-40.8 16,-40.8"/>
</g>
<!-- DidIdCachedModule -->
<g id="node1" class="node">
<title>DidIdCachedModule</title>
<polygon fill="#8dd3c7" stroke="black" points="532.19,-84.8 529.19,-88.8 508.19,-88.8 505.19,-84.8 397.81,-84.8 397.81,-48.8 532.19,-48.8 532.19,-84.8"/>
<text text-anchor="middle" x="465" y="-62.6" font-family="Times,serif" font-size="14.00">DidIdCachedModule</text>
</g>
<!-- HashParsingModule -->
<g id="node5" class="node">
<title>HashParsingModule</title>
<polygon fill="#8dd3c7" stroke="black" points="382.31,-149.8 379.31,-153.8 358.31,-153.8 355.31,-149.8 251.69,-149.8 251.69,-113.8 382.31,-113.8 382.31,-149.8"/>
<text text-anchor="middle" x="317" y="-127.6" font-family="Times,serif" font-size="14.00">HashParsingModule</text>
</g>
<!-- DidIdCachedModule&#45;&gt;HashParsingModule -->
<g id="edge1" class="edge">
<title>DidIdCachedModule&#45;&gt;HashParsingModule</title>
<path fill="none" stroke="black" d="M465,-84.82C465,-102.17 465,-125.8 465,-125.8 465,-125.8 392.35,-125.8 392.35,-125.8"/>
<polygon fill="black" stroke="black" points="392.35,-122.3 382.35,-125.8 392.35,-129.3 392.35,-122.3"/>
</g>
<!-- EventClientModule -->
<g id="node2" class="node">
<title>EventClientModule</title>
<polygon fill="#8dd3c7" stroke="black" points="380.43,-84.8 377.43,-88.8 356.43,-88.8 353.43,-84.8 253.57,-84.8 253.57,-48.8 380.43,-48.8 380.43,-84.8"/>
<text text-anchor="middle" x="317" y="-62.6" font-family="Times,serif" font-size="14.00">EventClientModule</text>
</g>
<!-- EventClientModule&#45;&gt;HashParsingModule -->
<g id="edge2" class="edge">
<title>EventClientModule&#45;&gt;HashParsingModule</title>
<path fill="none" stroke="black" d="M317,-84.91C317,-84.91 317,-103.79 317,-103.79"/>
<polygon fill="black" stroke="black" points="313.5,-103.79 317,-113.79 320.5,-103.79 313.5,-103.79"/>
</g>
<!-- HashDbModule -->
<g id="node3" class="node">
<title>HashDbModule</title>
<polygon fill="#8dd3c7" stroke="black" points="235.92,-84.8 232.92,-88.8 211.92,-88.8 208.92,-84.8 130.08,-84.8 130.08,-48.8 235.92,-48.8 235.92,-84.8"/>
<text text-anchor="middle" x="183" y="-62.6" font-family="Times,serif" font-size="14.00">HashDbModule</text>
</g>
<!-- HashDbModule&#45;&gt;HashParsingModule -->
<g id="edge3" class="edge">
<title>HashDbModule&#45;&gt;HashParsingModule</title>
<path fill="none" stroke="black" d="M183,-84.82C183,-102.17 183,-125.8 183,-125.8 183,-125.8 241.57,-125.8 241.57,-125.8"/>
<polygon fill="black" stroke="black" points="241.57,-129.3 251.57,-125.8 241.57,-122.3 241.57,-129.3"/>
</g>
<!-- HashModule -->
<g id="node4" class="node">
<title>HashModule</title>
<polygon fill="#8dd3c7" stroke="black" points="112.32,-84.8 109.32,-88.8 88.32,-88.8 85.32,-84.8 23.68,-84.8 23.68,-48.8 112.32,-48.8 112.32,-84.8"/>
<text text-anchor="middle" x="68" y="-62.6" font-family="Times,serif" font-size="14.00">HashModule</text>
</g>
<!-- HashModule&#45;&gt;HashParsingModule -->
<g id="edge4" class="edge">
<title>HashModule&#45;&gt;HashParsingModule</title>
<path fill="none" stroke="black" d="M68,-85.08C68,-106.12 68,-137.8 68,-137.8 68,-137.8 241.58,-137.8 241.58,-137.8"/>
<polygon fill="black" stroke="black" points="241.58,-141.3 251.58,-137.8 241.58,-134.3 241.58,-141.3"/>
</g>
<!-- HashParsingService -->
<g id="node6" class="node">
<title>HashParsingService</title>
<ellipse fill="#fdb462" stroke="black" cx="645" cy="-66.8" rx="88.6" ry="18"/>
<text text-anchor="middle" x="645" y="-62.6" font-family="Times,serif" font-size="14.00">HashParsingService</text>
</g>
<!-- HashParsingService&#45;&gt;HashParsingModule -->
<g id="edge5" class="edge">
<title>HashParsingService&#45;&gt;HashParsingModule</title>
<path fill="none" stroke="black" d="M645,-85.08C645,-106.12 645,-137.8 645,-137.8 645,-137.8 392.19,-137.8 392.19,-137.8"/>
<polygon fill="black" stroke="black" points="392.19,-134.3 382.19,-137.8 392.19,-141.3 392.19,-134.3"/>
</g>
</g>
</svg>
