<?xml version="1.0" encoding="UTF-8" standalone="no"?>
<!DOCTYPE svg PUBLIC "-//W3C//DTD SVG 1.1//EN"
 "http://www.w3.org/Graphics/SVG/1.1/DTD/svg11.dtd">
<!-- Generated by graphviz version 3.0.0 (20220226.1711)
 -->
<!-- Title: dependencies Pages: 1 -->
<svg width="766pt" height="174pt"
 viewBox="0.00 0.00 766.00 173.80" xmlns="http://www.w3.org/2000/svg" xmlns:xlink="http://www.w3.org/1999/xlink">
<g id="graph0" class="graph" transform="scale(1 1) rotate(0) translate(4 169.8)">
<title>dependencies</title>
<polygon fill="white" stroke="transparent" points="-4,4 -4,-169.8 762,-169.8 762,4 -4,4"/>
<text text-anchor="middle" x="379" y="-8.2" font-family="sans-serif" font-size="14.00">dependencies</text>
<g id="clust1" class="cluster">
<title>cluster_HashParsingModule</title>
<polygon fill="none" stroke="black" stroke-dasharray="1,5" points="8,-32.8 8,-157.8 750,-157.8 750,-32.8 8,-32.8"/>
</g>
<g id="clust3" class="cluster">
<title>cluster_HashParsingModule_imports</title>
<polygon fill="none" stroke="black" points="218,-40.8 218,-92.8 742,-92.8 742,-40.8 218,-40.8"/>
</g>
<g id="clust6" class="cluster">
<title>cluster_HashParsingModule_providers</title>
<polygon fill="none" stroke="black" points="16,-40.8 16,-92.8 210,-92.8 210,-40.8 16,-40.8"/>
</g>
<!-- DidIdCachedModule -->
<g id="node1" class="node">
<title>DidIdCachedModule</title>
<polygon fill="#8dd3c7" stroke="black" points="734.19,-84.8 731.19,-88.8 710.19,-88.8 707.19,-84.8 599.81,-84.8 599.81,-48.8 734.19,-48.8 734.19,-84.8"/>
<text text-anchor="middle" x="667" y="-62.6" font-family="Times,serif" font-size="14.00">DidIdCachedModule</text>
</g>
<!-- HashParsingModule -->
<g id="node5" class="node">
<title>HashParsingModule</title>
<polygon fill="#8dd3c7" stroke="black" points="450.32,-149.8 447.32,-153.8 426.32,-153.8 423.32,-149.8 319.68,-149.8 319.68,-113.8 450.32,-113.8 450.32,-149.8"/>
<text text-anchor="middle" x="385" y="-127.6" font-family="Times,serif" font-size="14.00">HashParsingModule</text>
</g>
<!-- DidIdCachedModule&#45;&gt;HashParsingModule -->
<g id="edge1" class="edge">
<title>DidIdCachedModule&#45;&gt;HashParsingModule</title>
<path fill="none" stroke="black" d="M667,-84.91C667,-104.14 667,-131.8 667,-131.8 667,-131.8 460.41,-131.8 460.41,-131.8"/>
<polygon fill="black" stroke="black" points="460.41,-128.3 450.41,-131.8 460.41,-135.3 460.41,-128.3"/>
</g>
<!-- EventClientModule -->
<g id="node2" class="node">
<title>EventClientModule</title>
<polygon fill="#8dd3c7" stroke="black" points="582.43,-84.8 579.43,-88.8 558.43,-88.8 555.43,-84.8 455.57,-84.8 455.57,-48.8 582.43,-48.8 582.43,-84.8"/>
<text text-anchor="middle" x="519" y="-62.6" font-family="Times,serif" font-size="14.00">EventClientModule</text>
</g>
<!-- EventClientModule&#45;&gt;HashParsingModule -->
<g id="edge2" class="edge">
<title>EventClientModule&#45;&gt;HashParsingModule</title>
<path fill="none" stroke="black" d="M455.67,-66.8C448.63,-66.8 443.94,-66.8 443.94,-66.8 443.94,-66.8 443.94,-103.69 443.94,-103.69"/>
<polygon fill="black" stroke="black" points="440.44,-103.69 443.94,-113.69 447.44,-103.69 440.44,-103.69"/>
</g>
<!-- HashDbModule -->
<g id="node3" class="node">
<title>HashDbModule</title>
<polygon fill="#8dd3c7" stroke="black" points="437.94,-84.8 434.94,-88.8 413.94,-88.8 410.94,-84.8 332.06,-84.8 332.06,-48.8 437.94,-48.8 437.94,-84.8"/>
<text text-anchor="middle" x="385" y="-62.6" font-family="Times,serif" font-size="14.00">HashDbModule</text>
</g>
<!-- HashDbModule&#45;&gt;HashParsingModule -->
<g id="edge3" class="edge">
<title>HashDbModule&#45;&gt;HashParsingModule</title>
<path fill="none" stroke="black" d="M385,-84.91C385,-84.91 385,-103.79 385,-103.79"/>
<polygon fill="black" stroke="black" points="381.5,-103.79 385,-113.79 388.5,-103.79 381.5,-103.79"/>
</g>
<!-- HashModule -->
<g id="node4" class="node">
<title>HashModule</title>
<polygon fill="#8dd3c7" stroke="black" points="314.32,-84.8 311.32,-88.8 290.32,-88.8 287.32,-84.8 225.68,-84.8 225.68,-48.8 314.32,-48.8 314.32,-84.8"/>
<text text-anchor="middle" x="270" y="-62.6" font-family="Times,serif" font-size="14.00">HashModule</text>
</g>
<!-- HashModule&#45;&gt;HashParsingModule -->
<g id="edge4" class="edge">
<title>HashModule&#45;&gt;HashParsingModule</title>
<path fill="none" stroke="black" d="M314.17,-66.8C321.12,-66.8 326.06,-66.8 326.06,-66.8 326.06,-66.8 326.06,-103.69 326.06,-103.69"/>
<polygon fill="black" stroke="black" points="322.56,-103.69 326.06,-113.69 329.56,-103.69 322.56,-103.69"/>
</g>
<!-- HashParsingService -->
<g id="node6" class="node">
<title>HashParsingService</title>
<ellipse fill="#fdb462" stroke="black" cx="113" cy="-66.8" rx="88.62" ry="18"/>
<text text-anchor="middle" x="113" y="-62.6" font-family="Times,serif" font-size="14.00">HashParsingService</text>
</g>
<!-- HashParsingService&#45;&gt;HashParsingModule -->
<g id="edge5" class="edge">
<title>HashParsingService&#45;&gt;HashParsingModule</title>
<path fill="none" stroke="black" d="M113,-84.91C113,-104.14 113,-131.8 113,-131.8 113,-131.8 309.5,-131.8 309.5,-131.8"/>
<polygon fill="black" stroke="black" points="309.5,-135.3 319.5,-131.8 309.5,-128.3 309.5,-135.3"/>
</g>
</g>
</svg>
