<?xml version="1.0" encoding="UTF-8" standalone="no"?>
<!DOCTYPE svg PUBLIC "-//W3C//DTD SVG 1.1//EN"
 "http://www.w3.org/Graphics/SVG/1.1/DTD/svg11.dtd">
<!-- Generated by graphviz version 2.47.3 (20210619.1520)
 -->
<!-- Title: dependencies Pages: 1 -->
<svg width="1142pt" height="247pt"
 viewBox="0.00 0.00 1142.00 246.80" xmlns="http://www.w3.org/2000/svg" xmlns:xlink="http://www.w3.org/1999/xlink">
<g id="graph0" class="graph" transform="scale(1 1) rotate(0) translate(4 242.8)">
<title>dependencies</title>
<polygon fill="white" stroke="transparent" points="-4,4 -4,-242.8 1138,-242.8 1138,4 -4,4"/>
<text text-anchor="middle" x="567" y="-8.2" font-family="sans-serif" font-size="14.00">dependencies</text>
<g id="clust1" class="cluster">
<title>cluster_HashBlockchainModule</title>
<polygon fill="none" stroke="black" stroke-dasharray="1,5" points="8,-32.8 8,-230.8 1126,-230.8 1126,-32.8 8,-32.8"/>
</g>
<g id="clust6" class="cluster">
<title>cluster_HashBlockchainModule_providers</title>
<polygon fill="none" stroke="black" points="842,-40.8 842,-92.8 1118,-92.8 1118,-40.8 842,-40.8"/>
</g>
<g id="clust3" class="cluster">
<title>cluster_HashBlockchainModule_imports</title>
<polygon fill="none" stroke="black" points="16,-40.8 16,-92.8 834,-92.8 834,-40.8 16,-40.8"/>
</g>
<g id="clust4" class="cluster">
<title>cluster_HashBlockchainModule_exports</title>
<polygon fill="none" stroke="black" points="271,-170.8 271,-222.8 631,-222.8 631,-170.8 271,-170.8"/>
</g>
<!-- BlockCheckModule -->
<g id="node1" class="node">
<title>BlockCheckModule</title>
<polygon fill="#8dd3c7" stroke="black" points="826.26,-84.8 823.26,-88.8 802.26,-88.8 799.26,-84.8 697.74,-84.8 697.74,-48.8 826.26,-48.8 826.26,-84.8"/>
<text text-anchor="middle" x="762" y="-62.6" font-family="Times,serif" font-size="14.00">BlockCheckModule</text>
</g>
<!-- HashBlockchainModule -->
<g id="node7" class="node">
<title>HashBlockchainModule</title>
<polygon fill="#8dd3c7" stroke="black" points="541.08,-149.8 538.08,-153.8 517.08,-153.8 514.08,-149.8 388.92,-149.8 388.92,-113.8 541.08,-113.8 541.08,-149.8"/>
<text text-anchor="middle" x="465" y="-127.6" font-family="Times,serif" font-size="14.00">HashBlockchainModule</text>
</g>
<!-- BlockCheckModule&#45;&gt;HashBlockchainModule -->
<g id="edge1" class="edge">
<title>BlockCheckModule&#45;&gt;HashBlockchainModule</title>
<path fill="none" stroke="black" d="M762,-84.82C762,-102.17 762,-125.8 762,-125.8 762,-125.8 551.1,-125.8 551.1,-125.8"/>
<polygon fill="black" stroke="black" points="551.1,-122.3 541.1,-125.8 551.1,-129.3 551.1,-122.3"/>
</g>
<!-- DidIdCachedModule -->
<g id="node2" class="node">
<title>DidIdCachedModule</title>
<polygon fill="#8dd3c7" stroke="black" points="680.19,-84.8 677.19,-88.8 656.19,-88.8 653.19,-84.8 545.81,-84.8 545.81,-48.8 680.19,-48.8 680.19,-84.8"/>
<text text-anchor="middle" x="613" y="-62.6" font-family="Times,serif" font-size="14.00">DidIdCachedModule</text>
</g>
<!-- DidIdCachedModule&#45;&gt;HashBlockchainModule -->
<g id="edge2" class="edge">
<title>DidIdCachedModule&#45;&gt;HashBlockchainModule</title>
<path fill="none" stroke="black" d="M545.86,-66.8C539.08,-66.8 534.63,-66.8 534.63,-66.8 534.63,-66.8 534.63,-103.69 534.63,-103.69"/>
<polygon fill="black" stroke="black" points="531.13,-103.69 534.63,-113.69 538.13,-103.69 531.13,-103.69"/>
</g>
<!-- EventClientModule -->
<g id="node3" class="node">
<title>EventClientModule</title>
<polygon fill="#8dd3c7" stroke="black" points="528.43,-84.8 525.43,-88.8 504.43,-88.8 501.43,-84.8 401.57,-84.8 401.57,-48.8 528.43,-48.8 528.43,-84.8"/>
<text text-anchor="middle" x="465" y="-62.6" font-family="Times,serif" font-size="14.00">EventClientModule</text>
</g>
<!-- EventClientModule&#45;&gt;HashBlockchainModule -->
<g id="edge3" class="edge">
<title>EventClientModule&#45;&gt;HashBlockchainModule</title>
<path fill="none" stroke="black" d="M465,-84.91C465,-84.91 465,-103.79 465,-103.79"/>
<polygon fill="black" stroke="black" points="461.5,-103.79 465,-113.79 468.5,-103.79 461.5,-103.79"/>
</g>
<!-- HashCachedModule -->
<g id="node4" class="node">
<title>HashCachedModule</title>
<polygon fill="#8dd3c7" stroke="black" points="384.3,-84.8 381.3,-88.8 360.3,-88.8 357.3,-84.8 253.7,-84.8 253.7,-48.8 384.3,-48.8 384.3,-84.8"/>
<text text-anchor="middle" x="319" y="-62.6" font-family="Times,serif" font-size="14.00">HashCachedModule</text>
</g>
<!-- HashCachedModule&#45;&gt;HashBlockchainModule -->
<g id="edge4" class="edge">
<title>HashCachedModule&#45;&gt;HashBlockchainModule</title>
<path fill="none" stroke="black" d="M384.43,-66.8C391.04,-66.8 395.37,-66.8 395.37,-66.8 395.37,-66.8 395.37,-103.69 395.37,-103.69"/>
<polygon fill="black" stroke="black" points="391.87,-103.69 395.37,-113.69 398.87,-103.69 391.87,-103.69"/>
</g>
<!-- HashDbModule -->
<g id="node5" class="node">
<title>HashDbModule</title>
<polygon fill="#8dd3c7" stroke="black" points="235.92,-84.8 232.92,-88.8 211.92,-88.8 208.92,-84.8 130.08,-84.8 130.08,-48.8 235.92,-48.8 235.92,-84.8"/>
<text text-anchor="middle" x="183" y="-62.6" font-family="Times,serif" font-size="14.00">HashDbModule</text>
</g>
<!-- HashDbModule&#45;&gt;HashBlockchainModule -->
<g id="edge5" class="edge">
<title>HashDbModule&#45;&gt;HashBlockchainModule</title>
<path fill="none" stroke="black" d="M183,-84.82C183,-102.17 183,-125.8 183,-125.8 183,-125.8 378.69,-125.8 378.69,-125.8"/>
<polygon fill="black" stroke="black" points="378.69,-129.3 388.69,-125.8 378.69,-122.3 378.69,-129.3"/>
</g>
<!-- HashModule -->
<g id="node6" class="node">
<title>HashModule</title>
<polygon fill="#8dd3c7" stroke="black" points="112.32,-84.8 109.32,-88.8 88.32,-88.8 85.32,-84.8 23.68,-84.8 23.68,-48.8 112.32,-48.8 112.32,-84.8"/>
<text text-anchor="middle" x="68" y="-62.6" font-family="Times,serif" font-size="14.00">HashModule</text>
</g>
<!-- HashModule&#45;&gt;HashBlockchainModule -->
<g id="edge6" class="edge">
<title>HashModule&#45;&gt;HashBlockchainModule</title>
<path fill="none" stroke="black" d="M68,-85.08C68,-106.12 68,-137.8 68,-137.8 68,-137.8 378.92,-137.8 378.92,-137.8"/>
<polygon fill="black" stroke="black" points="378.92,-141.3 388.92,-137.8 378.92,-134.3 378.92,-141.3"/>
</g>
<!-- HashCachedModule  -->
<g id="node8" class="node">
<title>HashCachedModule </title>
<polygon fill="#fb8072" stroke="black" points="622.8,-214.8 489.2,-214.8 489.2,-178.8 622.8,-178.8 622.8,-214.8"/>
<text text-anchor="middle" x="556" y="-192.6" font-family="Times,serif" font-size="14.00">HashCachedModule </text>
</g>
<!-- HashBlockchainModule&#45;&gt;HashCachedModule  -->
<g id="edge7" class="edge">
<title>HashBlockchainModule&#45;&gt;HashCachedModule </title>
<path fill="none" stroke="black" stroke-dasharray="5,2" d="M515.07,-149.91C515.07,-149.91 515.07,-168.79 515.07,-168.79"/>
<polygon fill="black" stroke="black" points="511.57,-168.79 515.07,-178.79 518.57,-168.79 511.57,-168.79"/>
</g>
<!-- HashTransactionCheckService  -->
<g id="node9" class="node">
<title>HashTransactionCheckService </title>
<polygon fill="#fb8072" stroke="black" points="471.09,-214.8 278.91,-214.8 278.91,-178.8 471.09,-178.8 471.09,-214.8"/>
<text text-anchor="middle" x="375" y="-192.6" font-family="Times,serif" font-size="14.00">HashTransactionCheckService </text>
</g>
<!-- HashBlockchainModule&#45;&gt;HashTransactionCheckService  -->
<g id="edge8" class="edge">
<title>HashBlockchainModule&#45;&gt;HashTransactionCheckService </title>
<path fill="none" stroke="black" stroke-dasharray="5,2" d="M430,-149.91C430,-149.91 430,-168.79 430,-168.79"/>
<polygon fill="black" stroke="black" points="426.5,-168.79 430,-178.79 433.5,-168.79 426.5,-168.79"/>
</g>
<!-- HashTransactionCheckService -->
<g id="node10" class="node">
<title>HashTransactionCheckService</title>
<ellipse fill="#fdb462" stroke="black" cx="980" cy="-66.8" rx="130.17" ry="18"/>
<text text-anchor="middle" x="980" y="-62.6" font-family="Times,serif" font-size="14.00">HashTransactionCheckService</text>
</g>
<!-- HashTransactionCheckService&#45;&gt;HashBlockchainModule -->
<g id="edge9" class="edge">
<title>HashTransactionCheckService&#45;&gt;HashBlockchainModule</title>
<path fill="none" stroke="black" d="M980,-85.08C980,-106.12 980,-137.8 980,-137.8 980,-137.8 551.27,-137.8 551.27,-137.8"/>
<polygon fill="black" stroke="black" points="551.27,-134.3 541.27,-137.8 551.27,-141.3 551.27,-134.3"/>
</g>
</g>
</svg>
