<?xml version="1.0" encoding="UTF-8" standalone="no"?>
<!DOCTYPE svg PUBLIC "-//W3C//DTD SVG 1.1//EN"
 "http://www.w3.org/Graphics/SVG/1.1/DTD/svg11.dtd">
<!-- Generated by graphviz version 2.47.3 (20210619.1520)
 -->
<!-- Title: dependencies Pages: 1 -->
<svg width="1142pt" height="247pt"
 viewBox="0.00 0.00 1142.00 246.80" xmlns="http://www.w3.org/2000/svg" xmlns:xlink="http://www.w3.org/1999/xlink">
<g id="graph0" class="graph" transform="scale(1 1) rotate(0) translate(4 242.8)">
<title>dependencies</title>
<polygon fill="white" stroke="transparent" points="-4,4 -4,-242.8 1138,-242.8 1138,4 -4,4"/>
<text text-anchor="middle" x="567" y="-8.2" font-family="sans-serif" font-size="14.00">dependencies</text>
<g id="clust1" class="cluster">
<title>cluster_HashBlockchainModule</title>
<polygon fill="none" stroke="black" stroke-dasharray="1,5" points="8,-32.8 8,-230.8 1126,-230.8 1126,-32.8 8,-32.8"/>
</g>
<g id="clust4" class="cluster">
<title>cluster_HashBlockchainModule_exports</title>
<polygon fill="none" stroke="black" points="409,-170.8 409,-222.8 769,-222.8 769,-170.8 409,-170.8"/>
</g>
<g id="clust3" class="cluster">
<title>cluster_HashBlockchainModule_imports</title>
<polygon fill="none" stroke="black" points="300,-40.8 300,-92.8 1118,-92.8 1118,-40.8 300,-40.8"/>
</g>
<g id="clust6" class="cluster">
<title>cluster_HashBlockchainModule_providers</title>
<polygon fill="none" stroke="black" points="16,-40.8 16,-92.8 292,-92.8 292,-40.8 16,-40.8"/>
</g>
<!-- BlockCheckModule -->
<g id="node1" class="node">
<title>BlockCheckModule</title>
<polygon fill="#8dd3c7" stroke="black" points="1110.26,-84.8 1107.26,-88.8 1086.26,-88.8 1083.26,-84.8 981.74,-84.8 981.74,-48.8 1110.26,-48.8 1110.26,-84.8"/>
<text text-anchor="middle" x="1046" y="-62.6" font-family="Times,serif" font-size="14.00">BlockCheckModule</text>
</g>
<!-- HashBlockchainModule -->
<g id="node7" class="node">
<title>HashBlockchainModule</title>
<polygon fill="#8dd3c7" stroke="black" points="679.08,-149.8 676.08,-153.8 655.08,-153.8 652.08,-149.8 526.92,-149.8 526.92,-113.8 679.08,-113.8 679.08,-149.8"/>
<text text-anchor="middle" x="603" y="-127.6" font-family="Times,serif" font-size="14.00">HashBlockchainModule</text>
</g>
<!-- BlockCheckModule&#45;&gt;HashBlockchainModule -->
<g id="edge1" class="edge">
<title>BlockCheckModule&#45;&gt;HashBlockchainModule</title>
<path fill="none" stroke="black" d="M1046,-85.08C1046,-106.12 1046,-137.8 1046,-137.8 1046,-137.8 689.15,-137.8 689.15,-137.8"/>
<polygon fill="black" stroke="black" points="689.15,-134.3 679.15,-137.8 689.15,-141.3 689.15,-134.3"/>
</g>
<!-- DidIdCachedModule -->
<g id="node2" class="node">
<title>DidIdCachedModule</title>
<polygon fill="#8dd3c7" stroke="black" points="964.19,-84.8 961.19,-88.8 940.19,-88.8 937.19,-84.8 829.81,-84.8 829.81,-48.8 964.19,-48.8 964.19,-84.8"/>
<text text-anchor="middle" x="897" y="-62.6" font-family="Times,serif" font-size="14.00">DidIdCachedModule</text>
</g>
<!-- DidIdCachedModule&#45;&gt;HashBlockchainModule -->
<g id="edge2" class="edge">
<title>DidIdCachedModule&#45;&gt;HashBlockchainModule</title>
<path fill="none" stroke="black" d="M897,-84.82C897,-102.17 897,-125.8 897,-125.8 897,-125.8 689.09,-125.8 689.09,-125.8"/>
<polygon fill="black" stroke="black" points="689.09,-122.3 679.09,-125.8 689.09,-129.3 689.09,-122.3"/>
</g>
<!-- EventClientModule -->
<g id="node3" class="node">
<title>EventClientModule</title>
<polygon fill="#8dd3c7" stroke="black" points="812.43,-84.8 809.43,-88.8 788.43,-88.8 785.43,-84.8 685.57,-84.8 685.57,-48.8 812.43,-48.8 812.43,-84.8"/>
<text text-anchor="middle" x="749" y="-62.6" font-family="Times,serif" font-size="14.00">EventClientModule</text>
</g>
<!-- EventClientModule&#45;&gt;HashBlockchainModule -->
<g id="edge3" class="edge">
<title>EventClientModule&#45;&gt;HashBlockchainModule</title>
<path fill="none" stroke="black" d="M685.71,-66.8C678.45,-66.8 673.59,-66.8 673.59,-66.8 673.59,-66.8 673.59,-103.69 673.59,-103.69"/>
<polygon fill="black" stroke="black" points="670.09,-103.69 673.59,-113.69 677.09,-103.69 670.09,-103.69"/>
</g>
<!-- HashCachedModule -->
<g id="node4" class="node">
<title>HashCachedModule</title>
<polygon fill="#8dd3c7" stroke="black" points="668.3,-84.8 665.3,-88.8 644.3,-88.8 641.3,-84.8 537.7,-84.8 537.7,-48.8 668.3,-48.8 668.3,-84.8"/>
<text text-anchor="middle" x="603" y="-62.6" font-family="Times,serif" font-size="14.00">HashCachedModule</text>
</g>
<!-- HashCachedModule&#45;&gt;HashBlockchainModule -->
<g id="edge4" class="edge">
<title>HashCachedModule&#45;&gt;HashBlockchainModule</title>
<path fill="none" stroke="black" d="M603,-84.91C603,-84.91 603,-103.79 603,-103.79"/>
<polygon fill="black" stroke="black" points="599.5,-103.79 603,-113.79 606.5,-103.79 599.5,-103.79"/>
</g>
<!-- HashDbModule -->
<g id="node5" class="node">
<title>HashDbModule</title>
<polygon fill="#8dd3c7" stroke="black" points="519.92,-84.8 516.92,-88.8 495.92,-88.8 492.92,-84.8 414.08,-84.8 414.08,-48.8 519.92,-48.8 519.92,-84.8"/>
<text text-anchor="middle" x="467" y="-62.6" font-family="Times,serif" font-size="14.00">HashDbModule</text>
</g>
<!-- HashDbModule&#45;&gt;HashBlockchainModule -->
<g id="edge5" class="edge">
<title>HashDbModule&#45;&gt;HashBlockchainModule</title>
<path fill="none" stroke="black" d="M519.8,-66.8C527.23,-66.8 532.41,-66.8 532.41,-66.8 532.41,-66.8 532.41,-103.69 532.41,-103.69"/>
<polygon fill="black" stroke="black" points="528.91,-103.69 532.41,-113.69 535.91,-103.69 528.91,-103.69"/>
</g>
<!-- HashModule -->
<g id="node6" class="node">
<title>HashModule</title>
<polygon fill="#8dd3c7" stroke="black" points="396.32,-84.8 393.32,-88.8 372.32,-88.8 369.32,-84.8 307.68,-84.8 307.68,-48.8 396.32,-48.8 396.32,-84.8"/>
<text text-anchor="middle" x="352" y="-62.6" font-family="Times,serif" font-size="14.00">HashModule</text>
</g>
<!-- HashModule&#45;&gt;HashBlockchainModule -->
<g id="edge6" class="edge">
<title>HashModule&#45;&gt;HashBlockchainModule</title>
<path fill="none" stroke="black" d="M352,-84.82C352,-102.17 352,-125.8 352,-125.8 352,-125.8 516.67,-125.8 516.67,-125.8"/>
<polygon fill="black" stroke="black" points="516.67,-129.3 526.67,-125.8 516.67,-122.3 516.67,-129.3"/>
</g>
<!-- HashCachedModule  -->
<g id="node8" class="node">
<title>HashCachedModule </title>
<polygon fill="#fb8072" stroke="black" points="760.8,-214.8 627.2,-214.8 627.2,-178.8 760.8,-178.8 760.8,-214.8"/>
<text text-anchor="middle" x="694" y="-192.6" font-family="Times,serif" font-size="14.00">HashCachedModule </text>
</g>
<!-- HashBlockchainModule&#45;&gt;HashCachedModule  -->
<g id="edge7" class="edge">
<title>HashBlockchainModule&#45;&gt;HashCachedModule </title>
<path fill="none" stroke="black" stroke-dasharray="5,2" d="M653.07,-149.91C653.07,-149.91 653.07,-168.79 653.07,-168.79"/>
<polygon fill="black" stroke="black" points="649.57,-168.79 653.07,-178.79 656.57,-168.79 649.57,-168.79"/>
</g>
<!-- HashTransactionCheckService  -->
<g id="node9" class="node">
<title>HashTransactionCheckService </title>
<polygon fill="#fb8072" stroke="black" points="609.09,-214.8 416.91,-214.8 416.91,-178.8 609.09,-178.8 609.09,-214.8"/>
<text text-anchor="middle" x="513" y="-192.6" font-family="Times,serif" font-size="14.00">HashTransactionCheckService </text>
</g>
<!-- HashBlockchainModule&#45;&gt;HashTransactionCheckService  -->
<g id="edge8" class="edge">
<title>HashBlockchainModule&#45;&gt;HashTransactionCheckService </title>
<path fill="none" stroke="black" stroke-dasharray="5,2" d="M568,-149.91C568,-149.91 568,-168.79 568,-168.79"/>
<polygon fill="black" stroke="black" points="564.5,-168.79 568,-178.79 571.5,-168.79 564.5,-168.79"/>
</g>
<!-- HashTransactionCheckService -->
<g id="node10" class="node">
<title>HashTransactionCheckService</title>
<ellipse fill="#fdb462" stroke="black" cx="154" cy="-66.8" rx="130.17" ry="18"/>
<text text-anchor="middle" x="154" y="-62.6" font-family="Times,serif" font-size="14.00">HashTransactionCheckService</text>
</g>
<!-- HashTransactionCheckService&#45;&gt;HashBlockchainModule -->
<g id="edge9" class="edge">
<title>HashTransactionCheckService&#45;&gt;HashBlockchainModule</title>
<path fill="none" stroke="black" d="M154,-85.08C154,-106.12 154,-137.8 154,-137.8 154,-137.8 516.83,-137.8 516.83,-137.8"/>
<polygon fill="black" stroke="black" points="516.83,-141.3 526.83,-137.8 516.83,-134.3 516.83,-141.3"/>
</g>
</g>
</svg>
