<?xml version="1.0" encoding="UTF-8" standalone="no"?>
<!DOCTYPE svg PUBLIC "-//W3C//DTD SVG 1.1//EN"
 "http://www.w3.org/Graphics/SVG/1.1/DTD/svg11.dtd">
<!-- Generated by graphviz version 3.0.0 (20220226.1711)
 -->
<!-- Title: dependencies Pages: 1 -->
<svg width="992pt" height="174pt"
 viewBox="0.00 0.00 992.00 173.80" xmlns="http://www.w3.org/2000/svg" xmlns:xlink="http://www.w3.org/1999/xlink">
<g id="graph0" class="graph" transform="scale(1 1) rotate(0) translate(4 169.8)">
<title>dependencies</title>
<polygon fill="white" stroke="transparent" points="-4,4 -4,-169.8 988,-169.8 988,4 -4,4"/>
<text text-anchor="middle" x="492" y="-8.2" font-family="sans-serif" font-size="14.00">dependencies</text>
<g id="clust1" class="cluster">
<title>cluster_GatewayTemplateModule</title>
<polygon fill="none" stroke="black" stroke-dasharray="1,5" points="8,-32.8 8,-157.8 976,-157.8 976,-32.8 8,-32.8"/>
</g>
<g id="clust3" class="cluster">
<title>cluster_GatewayTemplateModule_imports</title>
<polygon fill="none" stroke="black" points="262,-40.8 262,-92.8 968,-92.8 968,-40.8 262,-40.8"/>
</g>
<g id="clust6" class="cluster">
<title>cluster_GatewayTemplateModule_providers</title>
<polygon fill="none" stroke="black" points="16,-40.8 16,-92.8 254,-92.8 254,-40.8 16,-40.8"/>
</g>
<!-- GatewayBlockchainModule -->
<g id="node1" class="node">
<title>GatewayBlockchainModule</title>
<polygon fill="#8dd3c7" stroke="black" points="959.56,-84.8 956.56,-88.8 935.56,-88.8 932.56,-84.8 786.44,-84.8 786.44,-48.8 959.56,-48.8 959.56,-84.8"/>
<text text-anchor="middle" x="873" y="-62.6" font-family="Times,serif" font-size="14.00">GatewayBlockchainModule</text>
</g>
<!-- GatewayTemplateModule -->
<g id="node5" class="node">
<title>GatewayTemplateModule</title>
<polygon fill="#8dd3c7" stroke="black" points="578.17,-149.8 575.17,-153.8 554.17,-153.8 551.17,-149.8 415.83,-149.8 415.83,-113.8 578.17,-113.8 578.17,-149.8"/>
<text text-anchor="middle" x="497" y="-127.6" font-family="Times,serif" font-size="14.00">GatewayTemplateModule</text>
</g>
<!-- GatewayBlockchainModule&#45;&gt;GatewayTemplateModule -->
<g id="edge1" class="edge">
<title>GatewayBlockchainModule&#45;&gt;GatewayTemplateModule</title>
<path fill="none" stroke="black" d="M873,-85.08C873,-106.12 873,-137.8 873,-137.8 873,-137.8 588.12,-137.8 588.12,-137.8"/>
<polygon fill="black" stroke="black" points="588.12,-134.3 578.12,-137.8 588.12,-141.3 588.12,-134.3"/>
</g>
<!-- TemplateBlockchainModule -->
<g id="node2" class="node">
<title>TemplateBlockchainModule</title>
<polygon fill="#8dd3c7" stroke="black" points="768.17,-84.8 765.17,-88.8 744.17,-88.8 741.17,-84.8 591.83,-84.8 591.83,-48.8 768.17,-48.8 768.17,-84.8"/>
<text text-anchor="middle" x="680" y="-62.6" font-family="Times,serif" font-size="14.00">TemplateBlockchainModule</text>
</g>
<!-- TemplateBlockchainModule&#45;&gt;GatewayTemplateModule -->
<g id="edge2" class="edge">
<title>TemplateBlockchainModule&#45;&gt;GatewayTemplateModule</title>
<path fill="none" stroke="black" d="M680,-84.82C680,-102.17 680,-125.8 680,-125.8 680,-125.8 588.33,-125.8 588.33,-125.8"/>
<polygon fill="black" stroke="black" points="588.33,-122.3 578.33,-125.8 588.33,-129.3 588.33,-122.3"/>
</g>
<!-- TemplateCachedModule -->
<g id="node3" class="node">
<title>TemplateCachedModule</title>
<polygon fill="#8dd3c7" stroke="black" points="574.39,-84.8 571.39,-88.8 550.39,-88.8 547.39,-84.8 419.61,-84.8 419.61,-48.8 574.39,-48.8 574.39,-84.8"/>
<text text-anchor="middle" x="497" y="-62.6" font-family="Times,serif" font-size="14.00">TemplateCachedModule</text>
</g>
<!-- TemplateCachedModule&#45;&gt;GatewayTemplateModule -->
<g id="edge3" class="edge">
<title>TemplateCachedModule&#45;&gt;GatewayTemplateModule</title>
<path fill="none" stroke="black" d="M497,-84.91C497,-84.91 497,-103.79 497,-103.79"/>
<polygon fill="black" stroke="black" points="493.5,-103.79 497,-113.79 500.5,-103.79 493.5,-103.79"/>
</g>
<!-- WalletClientModule -->
<g id="node4" class="node">
<title>WalletClientModule</title>
<polygon fill="#8dd3c7" stroke="black" points="401.58,-84.8 398.58,-88.8 377.58,-88.8 374.58,-84.8 270.42,-84.8 270.42,-48.8 401.58,-48.8 401.58,-84.8"/>
<text text-anchor="middle" x="336" y="-62.6" font-family="Times,serif" font-size="14.00">WalletClientModule</text>
</g>
<!-- WalletClientModule&#45;&gt;GatewayTemplateModule -->
<g id="edge4" class="edge">
<title>WalletClientModule&#45;&gt;GatewayTemplateModule</title>
<path fill="none" stroke="black" d="M336,-84.82C336,-102.17 336,-125.8 336,-125.8 336,-125.8 405.56,-125.8 405.56,-125.8"/>
<polygon fill="black" stroke="black" points="405.56,-129.3 415.56,-125.8 405.56,-122.3 405.56,-129.3"/>
</g>
<!-- GatewayTemplateService -->
<g id="node6" class="node">
<title>GatewayTemplateService</title>
<ellipse fill="#fdb462" stroke="black" cx="135" cy="-66.8" rx="110.55" ry="18"/>
<text text-anchor="middle" x="135" y="-62.6" font-family="Times,serif" font-size="14.00">GatewayTemplateService</text>
</g>
<!-- GatewayTemplateService&#45;&gt;GatewayTemplateModule -->
<g id="edge5" class="edge">
<title>GatewayTemplateService&#45;&gt;GatewayTemplateModule</title>
<path fill="none" stroke="black" d="M135,-85.08C135,-106.12 135,-137.8 135,-137.8 135,-137.8 405.76,-137.8 405.76,-137.8"/>
<polygon fill="black" stroke="black" points="405.76,-141.3 415.76,-137.8 405.76,-134.3 405.76,-141.3"/>
</g>
</g>
</svg>
