<?xml version="1.0" encoding="UTF-8" standalone="no"?>
<!DOCTYPE svg PUBLIC "-//W3C//DTD SVG 1.1//EN"
 "http://www.w3.org/Graphics/SVG/1.1/DTD/svg11.dtd">
<!-- Generated by graphviz version 2.47.3 (20210619.1520)
 -->
<!-- Title: dependencies Pages: 1 -->
<svg width="992pt" height="174pt"
 viewBox="0.00 0.00 992.00 173.80" xmlns="http://www.w3.org/2000/svg" xmlns:xlink="http://www.w3.org/1999/xlink">
<g id="graph0" class="graph" transform="scale(1 1) rotate(0) translate(4 169.8)">
<title>dependencies</title>
<polygon fill="white" stroke="transparent" points="-4,4 -4,-169.8 988,-169.8 988,4 -4,4"/>
<text text-anchor="middle" x="492" y="-8.2" font-family="sans-serif" font-size="14.00">dependencies</text>
<g id="clust1" class="cluster">
<title>cluster_GatewayTemplateModule</title>
<polygon fill="none" stroke="black" stroke-dasharray="1,5" points="8,-32.8 8,-157.8 976,-157.8 976,-32.8 8,-32.8"/>
</g>
<g id="clust6" class="cluster">
<title>cluster_GatewayTemplateModule_providers</title>
<polygon fill="none" stroke="black" points="730,-40.8 730,-92.8 968,-92.8 968,-40.8 730,-40.8"/>
</g>
<g id="clust3" class="cluster">
<title>cluster_GatewayTemplateModule_imports</title>
<polygon fill="none" stroke="black" points="16,-40.8 16,-92.8 722,-92.8 722,-40.8 16,-40.8"/>
</g>
<!-- GatewayBlockchainModule -->
<g id="node1" class="node">
<title>GatewayBlockchainModule</title>
<polygon fill="#8dd3c7" stroke="black" points="713.56,-84.8 710.56,-88.8 689.56,-88.8 686.56,-84.8 540.44,-84.8 540.44,-48.8 713.56,-48.8 713.56,-84.8"/>
<text text-anchor="middle" x="627" y="-62.6" font-family="Times,serif" font-size="14.00">GatewayBlockchainModule</text>
</g>
<!-- GatewayTemplateModule -->
<g id="node5" class="node">
<title>GatewayTemplateModule</title>
<polygon fill="#8dd3c7" stroke="black" points="515.17,-149.8 512.17,-153.8 491.17,-153.8 488.17,-149.8 352.83,-149.8 352.83,-113.8 515.17,-113.8 515.17,-149.8"/>
<text text-anchor="middle" x="434" y="-127.6" font-family="Times,serif" font-size="14.00">GatewayTemplateModule</text>
</g>
<!-- GatewayBlockchainModule&#45;&gt;GatewayTemplateModule -->
<g id="edge1" class="edge">
<title>GatewayBlockchainModule&#45;&gt;GatewayTemplateModule</title>
<path fill="none" stroke="black" d="M627,-84.82C627,-102.17 627,-125.8 627,-125.8 627,-125.8 525.29,-125.8 525.29,-125.8"/>
<polygon fill="black" stroke="black" points="525.29,-122.3 515.29,-125.8 525.29,-129.3 525.29,-122.3"/>
</g>
<!-- TemplateBlockchainModule -->
<g id="node2" class="node">
<title>TemplateBlockchainModule</title>
<polygon fill="#8dd3c7" stroke="black" points="522.18,-84.8 519.18,-88.8 498.18,-88.8 495.18,-84.8 345.82,-84.8 345.82,-48.8 522.18,-48.8 522.18,-84.8"/>
<text text-anchor="middle" x="434" y="-62.6" font-family="Times,serif" font-size="14.00">TemplateBlockchainModule</text>
</g>
<!-- TemplateBlockchainModule&#45;&gt;GatewayTemplateModule -->
<g id="edge2" class="edge">
<title>TemplateBlockchainModule&#45;&gt;GatewayTemplateModule</title>
<path fill="none" stroke="black" d="M434,-84.91C434,-84.91 434,-103.79 434,-103.79"/>
<polygon fill="black" stroke="black" points="430.5,-103.79 434,-113.79 437.5,-103.79 430.5,-103.79"/>
</g>
<!-- TemplateCachedModule -->
<g id="node3" class="node">
<title>TemplateCachedModule</title>
<polygon fill="#8dd3c7" stroke="black" points="328.4,-84.8 325.4,-88.8 304.4,-88.8 301.4,-84.8 173.6,-84.8 173.6,-48.8 328.4,-48.8 328.4,-84.8"/>
<text text-anchor="middle" x="251" y="-62.6" font-family="Times,serif" font-size="14.00">TemplateCachedModule</text>
</g>
<!-- TemplateCachedModule&#45;&gt;GatewayTemplateModule -->
<g id="edge3" class="edge">
<title>TemplateCachedModule&#45;&gt;GatewayTemplateModule</title>
<path fill="none" stroke="black" d="M251,-84.82C251,-102.17 251,-125.8 251,-125.8 251,-125.8 342.67,-125.8 342.67,-125.8"/>
<polygon fill="black" stroke="black" points="342.67,-129.3 352.67,-125.8 342.67,-122.3 342.67,-129.3"/>
</g>
<!-- WalletClientModule -->
<g id="node4" class="node">
<title>WalletClientModule</title>
<polygon fill="#8dd3c7" stroke="black" points="155.59,-84.8 152.59,-88.8 131.59,-88.8 128.59,-84.8 24.41,-84.8 24.41,-48.8 155.59,-48.8 155.59,-84.8"/>
<text text-anchor="middle" x="90" y="-62.6" font-family="Times,serif" font-size="14.00">WalletClientModule</text>
</g>
<!-- WalletClientModule&#45;&gt;GatewayTemplateModule -->
<g id="edge4" class="edge">
<title>WalletClientModule&#45;&gt;GatewayTemplateModule</title>
<path fill="none" stroke="black" d="M90,-85.08C90,-106.12 90,-137.8 90,-137.8 90,-137.8 342.91,-137.8 342.91,-137.8"/>
<polygon fill="black" stroke="black" points="342.91,-141.3 352.91,-137.8 342.91,-134.3 342.91,-141.3"/>
</g>
<!-- GatewayTemplateService -->
<g id="node6" class="node">
<title>GatewayTemplateService</title>
<ellipse fill="#fdb462" stroke="black" cx="849" cy="-66.8" rx="110.55" ry="18"/>
<text text-anchor="middle" x="849" y="-62.6" font-family="Times,serif" font-size="14.00">GatewayTemplateService</text>
</g>
<!-- GatewayTemplateService&#45;&gt;GatewayTemplateModule -->
<g id="edge5" class="edge">
<title>GatewayTemplateService&#45;&gt;GatewayTemplateModule</title>
<path fill="none" stroke="black" d="M849,-85.08C849,-106.12 849,-137.8 849,-137.8 849,-137.8 525.5,-137.8 525.5,-137.8"/>
<polygon fill="black" stroke="black" points="525.5,-134.3 515.5,-137.8 525.5,-141.3 525.5,-134.3"/>
</g>
</g>
</svg>
