<?xml version="1.0" encoding="UTF-8" standalone="no"?>
<!DOCTYPE svg PUBLIC "-//W3C//DTD SVG 1.1//EN"
 "http://www.w3.org/Graphics/SVG/1.1/DTD/svg11.dtd">
<!-- Generated by graphviz version 2.47.3 (20210619.1520)
 -->
<!-- Title: dependencies Pages: 1 -->
<svg width="1062pt" height="174pt"
 viewBox="0.00 0.00 1062.00 173.80" xmlns="http://www.w3.org/2000/svg" xmlns:xlink="http://www.w3.org/1999/xlink">
<g id="graph0" class="graph" transform="scale(1 1) rotate(0) translate(4 169.8)">
<title>dependencies</title>
<polygon fill="white" stroke="transparent" points="-4,4 -4,-169.8 1058,-169.8 1058,4 -4,4"/>
<text text-anchor="middle" x="527" y="-8.2" font-family="sans-serif" font-size="14.00">dependencies</text>
<g id="clust1" class="cluster">
<title>cluster_GatewayHashModule</title>
<polygon fill="none" stroke="black" stroke-dasharray="1,5" points="8,-32.8 8,-157.8 1046,-157.8 1046,-32.8 8,-32.8"/>
</g>
<g id="clust6" class="cluster">
<title>cluster_GatewayHashModule_providers</title>
<polygon fill="none" stroke="black" points="834,-40.8 834,-92.8 1038,-92.8 1038,-40.8 834,-40.8"/>
</g>
<g id="clust3" class="cluster">
<title>cluster_GatewayHashModule_imports</title>
<polygon fill="none" stroke="black" points="16,-40.8 16,-92.8 826,-92.8 826,-40.8 16,-40.8"/>
</g>
<!-- DidIdCachedModule -->
<g id="node1" class="node">
<title>DidIdCachedModule</title>
<polygon fill="#8dd3c7" stroke="black" points="818.19,-84.8 815.19,-88.8 794.19,-88.8 791.19,-84.8 683.81,-84.8 683.81,-48.8 818.19,-48.8 818.19,-84.8"/>
<text text-anchor="middle" x="751" y="-62.6" font-family="Times,serif" font-size="14.00">DidIdCachedModule</text>
</g>
<!-- GatewayHashModule -->
<g id="node6" class="node">
<title>GatewayHashModule</title>
<polygon fill="#8dd3c7" stroke="black" points="557.06,-149.8 554.06,-153.8 533.06,-153.8 530.06,-149.8 418.94,-149.8 418.94,-113.8 557.06,-113.8 557.06,-149.8"/>
<text text-anchor="middle" x="488" y="-127.6" font-family="Times,serif" font-size="14.00">GatewayHashModule</text>
</g>
<!-- DidIdCachedModule&#45;&gt;GatewayHashModule -->
<g id="edge1" class="edge">
<title>DidIdCachedModule&#45;&gt;GatewayHashModule</title>
<path fill="none" stroke="black" d="M751,-84.82C751,-102.17 751,-125.8 751,-125.8 751,-125.8 567.1,-125.8 567.1,-125.8"/>
<polygon fill="black" stroke="black" points="567.1,-122.3 557.1,-125.8 567.1,-129.3 567.1,-122.3"/>
</g>
<!-- GatewayBlockchainModule -->
<g id="node2" class="node">
<title>GatewayBlockchainModule</title>
<polygon fill="#8dd3c7" stroke="black" points="665.56,-84.8 662.56,-88.8 641.56,-88.8 638.56,-84.8 492.44,-84.8 492.44,-48.8 665.56,-48.8 665.56,-84.8"/>
<text text-anchor="middle" x="579" y="-62.6" font-family="Times,serif" font-size="14.00">GatewayBlockchainModule</text>
</g>
<!-- GatewayBlockchainModule&#45;&gt;GatewayHashModule -->
<g id="edge2" class="edge">
<title>GatewayBlockchainModule&#45;&gt;GatewayHashModule</title>
<path fill="none" stroke="black" d="M524.75,-84.91C524.75,-84.91 524.75,-103.79 524.75,-103.79"/>
<polygon fill="black" stroke="black" points="521.25,-103.79 524.75,-113.79 528.25,-103.79 521.25,-103.79"/>
</g>
<!-- HashBlockchainModule -->
<g id="node3" class="node">
<title>HashBlockchainModule</title>
<polygon fill="#8dd3c7" stroke="black" points="474.08,-84.8 471.08,-88.8 450.08,-88.8 447.08,-84.8 321.92,-84.8 321.92,-48.8 474.08,-48.8 474.08,-84.8"/>
<text text-anchor="middle" x="398" y="-62.6" font-family="Times,serif" font-size="14.00">HashBlockchainModule</text>
</g>
<!-- HashBlockchainModule&#45;&gt;GatewayHashModule -->
<g id="edge3" class="edge">
<title>HashBlockchainModule&#45;&gt;GatewayHashModule</title>
<path fill="none" stroke="black" d="M446.5,-84.91C446.5,-84.91 446.5,-103.79 446.5,-103.79"/>
<polygon fill="black" stroke="black" points="443,-103.79 446.5,-113.79 450,-103.79 443,-103.79"/>
</g>
<!-- HashCachedModule -->
<g id="node4" class="node">
<title>HashCachedModule</title>
<polygon fill="#8dd3c7" stroke="black" points="304.3,-84.8 301.3,-88.8 280.3,-88.8 277.3,-84.8 173.7,-84.8 173.7,-48.8 304.3,-48.8 304.3,-84.8"/>
<text text-anchor="middle" x="239" y="-62.6" font-family="Times,serif" font-size="14.00">HashCachedModule</text>
</g>
<!-- HashCachedModule&#45;&gt;GatewayHashModule -->
<g id="edge4" class="edge">
<title>HashCachedModule&#45;&gt;GatewayHashModule</title>
<path fill="none" stroke="black" d="M239,-84.82C239,-102.17 239,-125.8 239,-125.8 239,-125.8 408.64,-125.8 408.64,-125.8"/>
<polygon fill="black" stroke="black" points="408.64,-129.3 418.64,-125.8 408.64,-122.3 408.64,-129.3"/>
</g>
<!-- WalletClientModule -->
<g id="node5" class="node">
<title>WalletClientModule</title>
<polygon fill="#8dd3c7" stroke="black" points="155.59,-84.8 152.59,-88.8 131.59,-88.8 128.59,-84.8 24.41,-84.8 24.41,-48.8 155.59,-48.8 155.59,-84.8"/>
<text text-anchor="middle" x="90" y="-62.6" font-family="Times,serif" font-size="14.00">WalletClientModule</text>
</g>
<!-- WalletClientModule&#45;&gt;GatewayHashModule -->
<g id="edge5" class="edge">
<title>WalletClientModule&#45;&gt;GatewayHashModule</title>
<path fill="none" stroke="black" d="M90,-85.08C90,-106.12 90,-137.8 90,-137.8 90,-137.8 408.67,-137.8 408.67,-137.8"/>
<polygon fill="black" stroke="black" points="408.67,-141.3 418.67,-137.8 408.67,-134.3 408.67,-141.3"/>
</g>
<!-- GatewayHashService -->
<g id="node7" class="node">
<title>GatewayHashService</title>
<ellipse fill="#fdb462" stroke="black" cx="936" cy="-66.8" rx="94.3" ry="18"/>
<text text-anchor="middle" x="936" y="-62.6" font-family="Times,serif" font-size="14.00">GatewayHashService</text>
</g>
<!-- GatewayHashService&#45;&gt;GatewayHashModule -->
<g id="edge6" class="edge">
<title>GatewayHashService&#45;&gt;GatewayHashModule</title>
<path fill="none" stroke="black" d="M936,-85.08C936,-106.12 936,-137.8 936,-137.8 936,-137.8 567.51,-137.8 567.51,-137.8"/>
<polygon fill="black" stroke="black" points="567.51,-134.3 557.51,-137.8 567.51,-141.3 567.51,-134.3"/>
</g>
</g>
</svg>
