<?xml version="1.0" encoding="UTF-8" standalone="no"?>
<!DOCTYPE svg PUBLIC "-//W3C//DTD SVG 1.1//EN"
 "http://www.w3.org/Graphics/SVG/1.1/DTD/svg11.dtd">
<!-- Generated by graphviz version 2.47.3 (20210619.1520)
 -->
<!-- Title: dependencies Pages: 1 -->
<svg width="1062pt" height="174pt"
 viewBox="0.00 0.00 1062.00 173.80" xmlns="http://www.w3.org/2000/svg" xmlns:xlink="http://www.w3.org/1999/xlink">
<g id="graph0" class="graph" transform="scale(1 1) rotate(0) translate(4 169.8)">
<title>dependencies</title>
<polygon fill="white" stroke="transparent" points="-4,4 -4,-169.8 1058,-169.8 1058,4 -4,4"/>
<text text-anchor="middle" x="527" y="-8.2" font-family="sans-serif" font-size="14.00">dependencies</text>
<g id="clust1" class="cluster">
<title>cluster_GatewayHashModule</title>
<polygon fill="none" stroke="black" stroke-dasharray="1,5" points="8,-32.8 8,-157.8 1046,-157.8 1046,-32.8 8,-32.8"/>
</g>
<g id="clust3" class="cluster">
<title>cluster_GatewayHashModule_imports</title>
<polygon fill="none" stroke="black" points="228,-40.8 228,-92.8 1038,-92.8 1038,-40.8 228,-40.8"/>
</g>
<g id="clust6" class="cluster">
<title>cluster_GatewayHashModule_providers</title>
<polygon fill="none" stroke="black" points="16,-40.8 16,-92.8 220,-92.8 220,-40.8 16,-40.8"/>
</g>
<!-- DidIdCachedModule -->
<g id="node1" class="node">
<title>DidIdCachedModule</title>
<polygon fill="#8dd3c7" stroke="black" points="1030.19,-84.8 1027.19,-88.8 1006.19,-88.8 1003.19,-84.8 895.81,-84.8 895.81,-48.8 1030.19,-48.8 1030.19,-84.8"/>
<text text-anchor="middle" x="963" y="-62.6" font-family="Times,serif" font-size="14.00">DidIdCachedModule</text>
</g>
<!-- GatewayHashModule -->
<g id="node6" class="node">
<title>GatewayHashModule</title>
<polygon fill="#8dd3c7" stroke="black" points="599.06,-149.8 596.06,-153.8 575.06,-153.8 572.06,-149.8 460.94,-149.8 460.94,-113.8 599.06,-113.8 599.06,-149.8"/>
<text text-anchor="middle" x="530" y="-127.6" font-family="Times,serif" font-size="14.00">GatewayHashModule</text>
</g>
<!-- DidIdCachedModule&#45;&gt;GatewayHashModule -->
<g id="edge1" class="edge">
<title>DidIdCachedModule&#45;&gt;GatewayHashModule</title>
<path fill="none" stroke="black" d="M963,-85.08C963,-106.12 963,-137.8 963,-137.8 963,-137.8 609.09,-137.8 609.09,-137.8"/>
<polygon fill="black" stroke="black" points="609.09,-134.3 599.09,-137.8 609.09,-141.3 609.09,-134.3"/>
</g>
<!-- GatewayBlockchainModule -->
<g id="node2" class="node">
<title>GatewayBlockchainModule</title>
<polygon fill="#8dd3c7" stroke="black" points="877.56,-84.8 874.56,-88.8 853.56,-88.8 850.56,-84.8 704.44,-84.8 704.44,-48.8 877.56,-48.8 877.56,-84.8"/>
<text text-anchor="middle" x="791" y="-62.6" font-family="Times,serif" font-size="14.00">GatewayBlockchainModule</text>
</g>
<!-- GatewayBlockchainModule&#45;&gt;GatewayHashModule -->
<g id="edge2" class="edge">
<title>GatewayBlockchainModule&#45;&gt;GatewayHashModule</title>
<path fill="none" stroke="black" d="M791,-84.82C791,-102.17 791,-125.8 791,-125.8 791,-125.8 609.26,-125.8 609.26,-125.8"/>
<polygon fill="black" stroke="black" points="609.26,-122.3 599.26,-125.8 609.26,-129.3 609.26,-122.3"/>
</g>
<!-- HashBlockchainModule -->
<g id="node3" class="node">
<title>HashBlockchainModule</title>
<polygon fill="#8dd3c7" stroke="black" points="686.08,-84.8 683.08,-88.8 662.08,-88.8 659.08,-84.8 533.92,-84.8 533.92,-48.8 686.08,-48.8 686.08,-84.8"/>
<text text-anchor="middle" x="610" y="-62.6" font-family="Times,serif" font-size="14.00">HashBlockchainModule</text>
</g>
<!-- HashBlockchainModule&#45;&gt;GatewayHashModule -->
<g id="edge3" class="edge">
<title>HashBlockchainModule&#45;&gt;GatewayHashModule</title>
<path fill="none" stroke="black" d="M566.5,-84.91C566.5,-84.91 566.5,-103.79 566.5,-103.79"/>
<polygon fill="black" stroke="black" points="563,-103.79 566.5,-113.79 570,-103.79 563,-103.79"/>
</g>
<!-- HashCachedModule -->
<g id="node4" class="node">
<title>HashCachedModule</title>
<polygon fill="#8dd3c7" stroke="black" points="516.3,-84.8 513.3,-88.8 492.3,-88.8 489.3,-84.8 385.7,-84.8 385.7,-48.8 516.3,-48.8 516.3,-84.8"/>
<text text-anchor="middle" x="451" y="-62.6" font-family="Times,serif" font-size="14.00">HashCachedModule</text>
</g>
<!-- HashCachedModule&#45;&gt;GatewayHashModule -->
<g id="edge4" class="edge">
<title>HashCachedModule&#45;&gt;GatewayHashModule</title>
<path fill="none" stroke="black" d="M488.56,-84.91C488.56,-84.91 488.56,-103.79 488.56,-103.79"/>
<polygon fill="black" stroke="black" points="485.06,-103.79 488.56,-113.79 492.06,-103.79 485.06,-103.79"/>
</g>
<!-- WalletClientModule -->
<g id="node5" class="node">
<title>WalletClientModule</title>
<polygon fill="#8dd3c7" stroke="black" points="367.59,-84.8 364.59,-88.8 343.59,-88.8 340.59,-84.8 236.41,-84.8 236.41,-48.8 367.59,-48.8 367.59,-84.8"/>
<text text-anchor="middle" x="302" y="-62.6" font-family="Times,serif" font-size="14.00">WalletClientModule</text>
</g>
<!-- WalletClientModule&#45;&gt;GatewayHashModule -->
<g id="edge5" class="edge">
<title>WalletClientModule&#45;&gt;GatewayHashModule</title>
<path fill="none" stroke="black" d="M302,-84.82C302,-102.17 302,-125.8 302,-125.8 302,-125.8 450.66,-125.8 450.66,-125.8"/>
<polygon fill="black" stroke="black" points="450.66,-129.3 460.66,-125.8 450.66,-122.3 450.66,-129.3"/>
</g>
<!-- GatewayHashService -->
<g id="node7" class="node">
<title>GatewayHashService</title>
<ellipse fill="#fdb462" stroke="black" cx="118" cy="-66.8" rx="94.3" ry="18"/>
<text text-anchor="middle" x="118" y="-62.6" font-family="Times,serif" font-size="14.00">GatewayHashService</text>
</g>
<!-- GatewayHashService&#45;&gt;GatewayHashModule -->
<g id="edge6" class="edge">
<title>GatewayHashService&#45;&gt;GatewayHashModule</title>
<path fill="none" stroke="black" d="M118,-85.08C118,-106.12 118,-137.8 118,-137.8 118,-137.8 450.58,-137.8 450.58,-137.8"/>
<polygon fill="black" stroke="black" points="450.58,-141.3 460.58,-137.8 450.58,-134.3 450.58,-141.3"/>
</g>
</g>
</svg>
