<?xml version="1.0" encoding="UTF-8" standalone="no"?>
<!DOCTYPE svg PUBLIC "-//W3C//DTD SVG 1.1//EN"
 "http://www.w3.org/Graphics/SVG/1.1/DTD/svg11.dtd">
<!-- Generated by graphviz version 2.47.3 (20210619.1520)
 -->
<!-- Title: dependencies Pages: 1 -->
<svg width="803pt" height="174pt"
 viewBox="0.00 0.00 803.00 173.80" xmlns="http://www.w3.org/2000/svg" xmlns:xlink="http://www.w3.org/1999/xlink">
<g id="graph0" class="graph" transform="scale(1 1) rotate(0) translate(4 169.8)">
<title>dependencies</title>
<polygon fill="white" stroke="transparent" points="-4,4 -4,-169.8 799,-169.8 799,4 -4,4"/>
<text text-anchor="middle" x="397.5" y="-8.2" font-family="sans-serif" font-size="14.00">dependencies</text>
<g id="clust1" class="cluster">
<title>cluster_SchemaParsingModule</title>
<polygon fill="none" stroke="black" stroke-dasharray="1,5" points="8,-32.8 8,-157.8 787,-157.8 787,-32.8 8,-32.8"/>
</g>
<g id="clust6" class="cluster">
<title>cluster_SchemaParsingModule_providers</title>
<polygon fill="none" stroke="black" points="563,-40.8 563,-92.8 779,-92.8 779,-40.8 563,-40.8"/>
</g>
<g id="clust3" class="cluster">
<title>cluster_SchemaParsingModule_imports</title>
<polygon fill="none" stroke="black" points="16,-40.8 16,-92.8 555,-92.8 555,-40.8 16,-40.8"/>
</g>
<!-- DidIdCachedModule -->
<g id="node1" class="node">
<title>DidIdCachedModule</title>
<polygon fill="#8dd3c7" stroke="black" points="547.19,-84.8 544.19,-88.8 523.19,-88.8 520.19,-84.8 412.81,-84.8 412.81,-48.8 547.19,-48.8 547.19,-84.8"/>
<text text-anchor="middle" x="480" y="-62.6" font-family="Times,serif" font-size="14.00">DidIdCachedModule</text>
</g>
<!-- SchemaParsingModule -->
<g id="node5" class="node">
<title>SchemaParsingModule</title>
<polygon fill="#8dd3c7" stroke="black" points="404.86,-149.8 401.86,-153.8 380.86,-153.8 377.86,-149.8 259.14,-149.8 259.14,-113.8 404.86,-113.8 404.86,-149.8"/>
<text text-anchor="middle" x="332" y="-127.6" font-family="Times,serif" font-size="14.00">SchemaParsingModule</text>
</g>
<!-- DidIdCachedModule&#45;&gt;SchemaParsingModule -->
<g id="edge1" class="edge">
<title>DidIdCachedModule&#45;&gt;SchemaParsingModule</title>
<path fill="none" stroke="black" d="M412.56,-66.8C405.07,-66.8 400.07,-66.8 400.07,-66.8 400.07,-66.8 400.07,-103.69 400.07,-103.69"/>
<polygon fill="black" stroke="black" points="396.57,-103.69 400.07,-113.69 403.57,-103.69 396.57,-103.69"/>
</g>
<!-- EventClientModule -->
<g id="node2" class="node">
<title>EventClientModule</title>
<polygon fill="#8dd3c7" stroke="black" points="395.43,-84.8 392.43,-88.8 371.43,-88.8 368.43,-84.8 268.57,-84.8 268.57,-48.8 395.43,-48.8 395.43,-84.8"/>
<text text-anchor="middle" x="332" y="-62.6" font-family="Times,serif" font-size="14.00">EventClientModule</text>
</g>
<!-- EventClientModule&#45;&gt;SchemaParsingModule -->
<g id="edge2" class="edge">
<title>EventClientModule&#45;&gt;SchemaParsingModule</title>
<path fill="none" stroke="black" d="M332,-84.91C332,-84.91 332,-103.79 332,-103.79"/>
<polygon fill="black" stroke="black" points="328.5,-103.79 332,-113.79 335.5,-103.79 328.5,-103.79"/>
</g>
<!-- HashModule -->
<g id="node3" class="node">
<title>HashModule</title>
<polygon fill="#8dd3c7" stroke="black" points="251.32,-84.8 248.32,-88.8 227.32,-88.8 224.32,-84.8 162.68,-84.8 162.68,-48.8 251.32,-48.8 251.32,-84.8"/>
<text text-anchor="middle" x="207" y="-62.6" font-family="Times,serif" font-size="14.00">HashModule</text>
</g>
<!-- HashModule&#45;&gt;SchemaParsingModule -->
<g id="edge3" class="edge">
<title>HashModule&#45;&gt;SchemaParsingModule</title>
<path fill="none" stroke="black" d="M251.29,-66.8C258.64,-66.8 263.93,-66.8 263.93,-66.8 263.93,-66.8 263.93,-103.69 263.93,-103.69"/>
<polygon fill="black" stroke="black" points="260.43,-103.69 263.93,-113.69 267.43,-103.69 260.43,-103.69"/>
</g>
<!-- SchemaDbModule -->
<g id="node4" class="node">
<title>SchemaDbModule</title>
<polygon fill="#8dd3c7" stroke="black" points="144.47,-84.8 141.47,-88.8 120.47,-88.8 117.47,-84.8 23.53,-84.8 23.53,-48.8 144.47,-48.8 144.47,-84.8"/>
<text text-anchor="middle" x="84" y="-62.6" font-family="Times,serif" font-size="14.00">SchemaDbModule</text>
</g>
<!-- SchemaDbModule&#45;&gt;SchemaParsingModule -->
<g id="edge4" class="edge">
<title>SchemaDbModule&#45;&gt;SchemaParsingModule</title>
<path fill="none" stroke="black" d="M84,-84.91C84,-104.14 84,-131.8 84,-131.8 84,-131.8 248.93,-131.8 248.93,-131.8"/>
<polygon fill="black" stroke="black" points="248.93,-135.3 258.93,-131.8 248.93,-128.3 248.93,-135.3"/>
</g>
<!-- SchemaParsingService -->
<g id="node6" class="node">
<title>SchemaParsingService</title>
<ellipse fill="#fdb462" stroke="black" cx="671" cy="-66.8" rx="99.55" ry="18"/>
<text text-anchor="middle" x="671" y="-62.6" font-family="Times,serif" font-size="14.00">SchemaParsingService</text>
</g>
<!-- SchemaParsingService&#45;&gt;SchemaParsingModule -->
<g id="edge5" class="edge">
<title>SchemaParsingService&#45;&gt;SchemaParsingModule</title>
<path fill="none" stroke="black" d="M671,-84.91C671,-104.14 671,-131.8 671,-131.8 671,-131.8 415.14,-131.8 415.14,-131.8"/>
<polygon fill="black" stroke="black" points="415.14,-128.3 405.14,-131.8 415.14,-135.3 415.14,-128.3"/>
</g>
</g>
</svg>
