<?xml version="1.0" encoding="UTF-8" standalone="no"?>
<!DOCTYPE svg PUBLIC "-//W3C//DTD SVG 1.1//EN"
 "http://www.w3.org/Graphics/SVG/1.1/DTD/svg11.dtd">
<!-- Generated by graphviz version 2.47.3 (20210619.1520)
 -->
<!-- Title: dependencies Pages: 1 -->
<svg width="803pt" height="174pt"
 viewBox="0.00 0.00 803.00 173.80" xmlns="http://www.w3.org/2000/svg" xmlns:xlink="http://www.w3.org/1999/xlink">
<g id="graph0" class="graph" transform="scale(1 1) rotate(0) translate(4 169.8)">
<title>dependencies</title>
<polygon fill="white" stroke="transparent" points="-4,4 -4,-169.8 799,-169.8 799,4 -4,4"/>
<text text-anchor="middle" x="397.5" y="-8.2" font-family="sans-serif" font-size="14.00">dependencies</text>
<g id="clust1" class="cluster">
<title>cluster_SchemaParsingModule</title>
<polygon fill="none" stroke="black" stroke-dasharray="1,5" points="8,-32.8 8,-157.8 787,-157.8 787,-32.8 8,-32.8"/>
</g>
<g id="clust3" class="cluster">
<title>cluster_SchemaParsingModule_imports</title>
<polygon fill="none" stroke="black" points="240,-40.8 240,-92.8 779,-92.8 779,-40.8 240,-40.8"/>
</g>
<g id="clust6" class="cluster">
<title>cluster_SchemaParsingModule_providers</title>
<polygon fill="none" stroke="black" points="16,-40.8 16,-92.8 232,-92.8 232,-40.8 16,-40.8"/>
</g>
<!-- DidIdCachedModule -->
<g id="node1" class="node">
<title>DidIdCachedModule</title>
<polygon fill="#8dd3c7" stroke="black" points="771.19,-84.8 768.19,-88.8 747.19,-88.8 744.19,-84.8 636.81,-84.8 636.81,-48.8 771.19,-48.8 771.19,-84.8"/>
<text text-anchor="middle" x="704" y="-62.6" font-family="Times,serif" font-size="14.00">DidIdCachedModule</text>
</g>
<!-- SchemaParsingModule -->
<g id="node5" class="node">
<title>SchemaParsingModule</title>
<polygon fill="#8dd3c7" stroke="black" points="503.86,-149.8 500.86,-153.8 479.86,-153.8 476.86,-149.8 358.14,-149.8 358.14,-113.8 503.86,-113.8 503.86,-149.8"/>
<text text-anchor="middle" x="431" y="-127.6" font-family="Times,serif" font-size="14.00">SchemaParsingModule</text>
</g>
<!-- DidIdCachedModule&#45;&gt;SchemaParsingModule -->
<g id="edge1" class="edge">
<title>DidIdCachedModule&#45;&gt;SchemaParsingModule</title>
<path fill="none" stroke="black" d="M704,-84.91C704,-104.14 704,-131.8 704,-131.8 704,-131.8 514.16,-131.8 514.16,-131.8"/>
<polygon fill="black" stroke="black" points="514.16,-128.3 504.16,-131.8 514.16,-135.3 514.16,-128.3"/>
</g>
<!-- EventClientModule -->
<g id="node2" class="node">
<title>EventClientModule</title>
<polygon fill="#8dd3c7" stroke="black" points="619.43,-84.8 616.43,-88.8 595.43,-88.8 592.43,-84.8 492.57,-84.8 492.57,-48.8 619.43,-48.8 619.43,-84.8"/>
<text text-anchor="middle" x="556" y="-62.6" font-family="Times,serif" font-size="14.00">EventClientModule</text>
</g>
<!-- EventClientModule&#45;&gt;SchemaParsingModule -->
<g id="edge2" class="edge">
<title>EventClientModule&#45;&gt;SchemaParsingModule</title>
<path fill="none" stroke="black" d="M498.36,-84.91C498.36,-84.91 498.36,-103.79 498.36,-103.79"/>
<polygon fill="black" stroke="black" points="494.86,-103.79 498.36,-113.79 501.86,-103.79 494.86,-103.79"/>
</g>
<!-- HashModule -->
<g id="node3" class="node">
<title>HashModule</title>
<polygon fill="#8dd3c7" stroke="black" points="475.32,-84.8 472.32,-88.8 451.32,-88.8 448.32,-84.8 386.68,-84.8 386.68,-48.8 475.32,-48.8 475.32,-84.8"/>
<text text-anchor="middle" x="431" y="-62.6" font-family="Times,serif" font-size="14.00">HashModule</text>
</g>
<!-- HashModule&#45;&gt;SchemaParsingModule -->
<g id="edge3" class="edge">
<title>HashModule&#45;&gt;SchemaParsingModule</title>
<path fill="none" stroke="black" d="M431,-84.91C431,-84.91 431,-103.79 431,-103.79"/>
<polygon fill="black" stroke="black" points="427.5,-103.79 431,-113.79 434.5,-103.79 427.5,-103.79"/>
</g>
<!-- SchemaDbModule -->
<g id="node4" class="node">
<title>SchemaDbModule</title>
<polygon fill="#8dd3c7" stroke="black" points="368.47,-84.8 365.47,-88.8 344.47,-88.8 341.47,-84.8 247.53,-84.8 247.53,-48.8 368.47,-48.8 368.47,-84.8"/>
<text text-anchor="middle" x="308" y="-62.6" font-family="Times,serif" font-size="14.00">SchemaDbModule</text>
</g>
<!-- SchemaDbModule&#45;&gt;SchemaParsingModule -->
<g id="edge4" class="edge">
<title>SchemaDbModule&#45;&gt;SchemaParsingModule</title>
<path fill="none" stroke="black" d="M363.28,-84.91C363.28,-84.91 363.28,-103.79 363.28,-103.79"/>
<polygon fill="black" stroke="black" points="359.78,-103.79 363.28,-113.79 366.78,-103.79 359.78,-103.79"/>
</g>
<!-- SchemaParsingService -->
<g id="node6" class="node">
<title>SchemaParsingService</title>
<ellipse fill="#fdb462" stroke="black" cx="124" cy="-66.8" rx="99.55" ry="18"/>
<text text-anchor="middle" x="124" y="-62.6" font-family="Times,serif" font-size="14.00">SchemaParsingService</text>
</g>
<!-- SchemaParsingService&#45;&gt;SchemaParsingModule -->
<g id="edge5" class="edge">
<title>SchemaParsingService&#45;&gt;SchemaParsingModule</title>
<path fill="none" stroke="black" d="M124,-84.91C124,-104.14 124,-131.8 124,-131.8 124,-131.8 347.86,-131.8 347.86,-131.8"/>
<polygon fill="black" stroke="black" points="347.86,-135.3 357.86,-131.8 347.86,-128.3 347.86,-135.3"/>
</g>
</g>
</svg>
