<?xml version="1.0" encoding="UTF-8" standalone="no"?>
<!DOCTYPE svg PUBLIC "-//W3C//DTD SVG 1.1//EN"
 "http://www.w3.org/Graphics/SVG/1.1/DTD/svg11.dtd">
<!-- Generated by graphviz version 2.47.3 (20210619.1520)
 -->
<!-- Title: dependencies Pages: 1 -->
<svg width="498pt" height="174pt"
 viewBox="0.00 0.00 498.00 173.80" xmlns="http://www.w3.org/2000/svg" xmlns:xlink="http://www.w3.org/1999/xlink">
<g id="graph0" class="graph" transform="scale(1 1) rotate(0) translate(4 169.8)">
<title>dependencies</title>
<polygon fill="white" stroke="transparent" points="-4,4 -4,-169.8 494,-169.8 494,4 -4,4"/>
<text text-anchor="middle" x="245" y="-8.2" font-family="sans-serif" font-size="14.00">dependencies</text>
<g id="clust1" class="cluster">
<title>cluster_ObserverHealthModule</title>
<polygon fill="none" stroke="black" stroke-dasharray="1,5" points="8,-32.8 8,-157.8 482,-157.8 482,-32.8 8,-32.8"/>
</g>
<g id="clust3" class="cluster">
<title>cluster_ObserverHealthModule_imports</title>
<polygon fill="none" stroke="black" points="242,-40.8 242,-92.8 474,-92.8 474,-40.8 242,-40.8"/>
</g>
<g id="clust6" class="cluster">
<title>cluster_ObserverHealthModule_providers</title>
<polygon fill="none" stroke="black" points="16,-40.8 16,-92.8 234,-92.8 234,-40.8 16,-40.8"/>
</g>
<!-- DidIdDbModule -->
<g id="node1" class="node">
<title>DidIdDbModule</title>
<polygon fill="#8dd3c7" stroke="black" points="465.81,-84.8 462.81,-88.8 441.81,-88.8 438.81,-84.8 356.19,-84.8 356.19,-48.8 465.81,-48.8 465.81,-84.8"/>
<text text-anchor="middle" x="411" y="-62.6" font-family="Times,serif" font-size="14.00">DidIdDbModule</text>
</g>
<!-- ObserverHealthModule -->
<g id="node3" class="node">
<title>ObserverHealthModule</title>
<polygon fill="#8dd3c7" stroke="black" points="368.17,-149.8 365.17,-153.8 344.17,-153.8 341.17,-149.8 219.83,-149.8 219.83,-113.8 368.17,-113.8 368.17,-149.8"/>
<text text-anchor="middle" x="294" y="-127.6" font-family="Times,serif" font-size="14.00">ObserverHealthModule</text>
</g>
<!-- DidIdDbModule&#45;&gt;ObserverHealthModule -->
<g id="edge1" class="edge">
<title>DidIdDbModule&#45;&gt;ObserverHealthModule</title>
<path fill="none" stroke="black" d="M362.21,-84.91C362.21,-84.91 362.21,-103.79 362.21,-103.79"/>
<polygon fill="black" stroke="black" points="358.71,-103.79 362.21,-113.79 365.71,-103.79 358.71,-103.79"/>
</g>
<!-- HashModule -->
<g id="node2" class="node">
<title>HashModule</title>
<polygon fill="#8dd3c7" stroke="black" points="338.32,-84.8 335.32,-88.8 314.32,-88.8 311.32,-84.8 249.68,-84.8 249.68,-48.8 338.32,-48.8 338.32,-84.8"/>
<text text-anchor="middle" x="294" y="-62.6" font-family="Times,serif" font-size="14.00">HashModule</text>
</g>
<!-- HashModule&#45;&gt;ObserverHealthModule -->
<g id="edge2" class="edge">
<title>HashModule&#45;&gt;ObserverHealthModule</title>
<path fill="none" stroke="black" d="M294,-84.91C294,-84.91 294,-103.79 294,-103.79"/>
<polygon fill="black" stroke="black" points="290.5,-103.79 294,-113.79 297.5,-103.79 290.5,-103.79"/>
</g>
<!-- ObserverHealthService -->
<g id="node4" class="node">
<title>ObserverHealthService</title>
<ellipse fill="#fdb462" stroke="black" cx="125" cy="-66.8" rx="101.24" ry="18"/>
<text text-anchor="middle" x="125" y="-62.6" font-family="Times,serif" font-size="14.00">ObserverHealthService</text>
</g>
<!-- ObserverHealthService&#45;&gt;ObserverHealthModule -->
<g id="edge3" class="edge">
<title>ObserverHealthService&#45;&gt;ObserverHealthModule</title>
<path fill="none" stroke="black" d="M226.32,-66.8C233.5,-66.8 237.98,-66.8 237.98,-66.8 237.98,-66.8 237.98,-103.69 237.98,-103.69"/>
<polygon fill="black" stroke="black" points="234.48,-103.69 237.98,-113.69 241.48,-103.69 234.48,-103.69"/>
</g>
</g>
</svg>
