<?xml version="1.0" encoding="UTF-8" standalone="no"?>
<!DOCTYPE svg PUBLIC "-//W3C//DTD SVG 1.1//EN"
 "http://www.w3.org/Graphics/SVG/1.1/DTD/svg11.dtd">
<!-- Generated by graphviz version 3.0.0 (20220226.1711)
 -->
<!-- Title: dependencies Pages: 1 -->
<svg width="1018pt" height="174pt"
 viewBox="0.00 0.00 1018.00 173.80" xmlns="http://www.w3.org/2000/svg" xmlns:xlink="http://www.w3.org/1999/xlink">
<g id="graph0" class="graph" transform="scale(1 1) rotate(0) translate(4 169.8)">
<title>dependencies</title>
<polygon fill="white" stroke="transparent" points="-4,4 -4,-169.8 1014,-169.8 1014,4 -4,4"/>
<text text-anchor="middle" x="505" y="-8.2" font-family="sans-serif" font-size="14.00">dependencies</text>
<g id="clust1" class="cluster">
<title>cluster_GatewayDidModule</title>
<polygon fill="none" stroke="black" stroke-dasharray="1,5" points="8,-32.8 8,-157.8 1002,-157.8 1002,-32.8 8,-32.8"/>
</g>
<g id="clust6" class="cluster">
<title>cluster_GatewayDidModule_providers</title>
<polygon fill="none" stroke="black" points="800,-40.8 800,-92.8 994,-92.8 994,-40.8 800,-40.8"/>
</g>
<g id="clust3" class="cluster">
<title>cluster_GatewayDidModule_imports</title>
<polygon fill="none" stroke="black" points="16,-40.8 16,-92.8 792,-92.8 792,-40.8 16,-40.8"/>
</g>
<!-- DidIdBlockchainModule -->
<g id="node1" class="node">
<title>DidIdBlockchainModule</title>
<polygon fill="#8dd3c7" stroke="black" points="783.97,-84.8 780.97,-88.8 759.97,-88.8 756.97,-84.8 628.03,-84.8 628.03,-48.8 783.97,-48.8 783.97,-84.8"/>
<text text-anchor="middle" x="706" y="-62.6" font-family="Times,serif" font-size="14.00">DidIdBlockchainModule</text>
</g>
<!-- GatewayDidModule -->
<g id="node6" class="node">
<title>GatewayDidModule</title>
<polygon fill="#8dd3c7" stroke="black" points="522.3,-149.8 519.3,-153.8 498.3,-153.8 495.3,-149.8 391.7,-149.8 391.7,-113.8 522.3,-113.8 522.3,-149.8"/>
<text text-anchor="middle" x="457" y="-127.6" font-family="Times,serif" font-size="14.00">GatewayDidModule</text>
</g>
<!-- DidIdBlockchainModule&#45;&gt;GatewayDidModule -->
<g id="edge1" class="edge">
<title>DidIdBlockchainModule&#45;&gt;GatewayDidModule</title>
<path fill="none" stroke="black" d="M706,-84.82C706,-102.17 706,-125.8 706,-125.8 706,-125.8 532.42,-125.8 532.42,-125.8"/>
<polygon fill="black" stroke="black" points="532.42,-122.3 522.42,-125.8 532.42,-129.3 532.42,-122.3"/>
</g>
<!-- DidIdCachedModule -->
<g id="node2" class="node">
<title>DidIdCachedModule</title>
<polygon fill="#8dd3c7" stroke="black" points="610.19,-84.8 607.19,-88.8 586.19,-88.8 583.19,-84.8 475.81,-84.8 475.81,-48.8 610.19,-48.8 610.19,-84.8"/>
<text text-anchor="middle" x="543" y="-62.6" font-family="Times,serif" font-size="14.00">DidIdCachedModule</text>
</g>
<!-- DidIdCachedModule&#45;&gt;GatewayDidModule -->
<g id="edge2" class="edge">
<title>DidIdCachedModule&#45;&gt;GatewayDidModule</title>
<path fill="none" stroke="black" d="M499.03,-84.91C499.03,-84.91 499.03,-103.79 499.03,-103.79"/>
<polygon fill="black" stroke="black" points="495.53,-103.79 499.03,-113.79 502.53,-103.79 495.53,-103.79"/>
</g>
<!-- GatewayBlockchainModule -->
<g id="node3" class="node">
<title>GatewayBlockchainModule</title>
<polygon fill="#8dd3c7" stroke="black" points="457.56,-84.8 454.56,-88.8 433.56,-88.8 430.56,-84.8 284.44,-84.8 284.44,-48.8 457.56,-48.8 457.56,-84.8"/>
<text text-anchor="middle" x="371" y="-62.6" font-family="Times,serif" font-size="14.00">GatewayBlockchainModule</text>
</g>
<!-- GatewayBlockchainModule&#45;&gt;GatewayDidModule -->
<g id="edge3" class="edge">
<title>GatewayBlockchainModule&#45;&gt;GatewayDidModule</title>
<path fill="none" stroke="black" d="M424.69,-84.91C424.69,-84.91 424.69,-103.79 424.69,-103.79"/>
<polygon fill="black" stroke="black" points="421.19,-103.79 424.69,-113.79 428.19,-103.79 421.19,-103.79"/>
</g>
<!-- InviteModule -->
<g id="node4" class="node">
<title>InviteModule</title>
<polygon fill="#8dd3c7" stroke="black" points="266.21,-84.8 263.21,-88.8 242.21,-88.8 239.21,-84.8 173.79,-84.8 173.79,-48.8 266.21,-48.8 266.21,-84.8"/>
<text text-anchor="middle" x="220" y="-62.6" font-family="Times,serif" font-size="14.00">InviteModule</text>
</g>
<!-- InviteModule&#45;&gt;GatewayDidModule -->
<g id="edge4" class="edge">
<title>InviteModule&#45;&gt;GatewayDidModule</title>
<path fill="none" stroke="black" d="M220,-84.82C220,-102.17 220,-125.8 220,-125.8 220,-125.8 381.61,-125.8 381.61,-125.8"/>
<polygon fill="black" stroke="black" points="381.61,-129.3 391.61,-125.8 381.61,-122.3 381.61,-129.3"/>
</g>
<!-- WalletClientModule -->
<g id="node5" class="node">
<title>WalletClientModule</title>
<polygon fill="#8dd3c7" stroke="black" points="155.58,-84.8 152.58,-88.8 131.58,-88.8 128.58,-84.8 24.42,-84.8 24.42,-48.8 155.58,-48.8 155.58,-84.8"/>
<text text-anchor="middle" x="90" y="-62.6" font-family="Times,serif" font-size="14.00">WalletClientModule</text>
</g>
<!-- WalletClientModule&#45;&gt;GatewayDidModule -->
<g id="edge5" class="edge">
<title>WalletClientModule&#45;&gt;GatewayDidModule</title>
<path fill="none" stroke="black" d="M90,-85.08C90,-106.12 90,-137.8 90,-137.8 90,-137.8 381.81,-137.8 381.81,-137.8"/>
<polygon fill="black" stroke="black" points="381.81,-141.3 391.81,-137.8 381.81,-134.3 381.81,-141.3"/>
</g>
<!-- GatewayDidService -->
<g id="node7" class="node">
<title>GatewayDidService</title>
<ellipse fill="#fdb462" stroke="black" cx="897" cy="-66.8" rx="88.59" ry="18"/>
<text text-anchor="middle" x="897" y="-62.6" font-family="Times,serif" font-size="14.00">GatewayDidService</text>
</g>
<!-- GatewayDidService&#45;&gt;GatewayDidModule -->
<g id="edge6" class="edge">
<title>GatewayDidService&#45;&gt;GatewayDidModule</title>
<path fill="none" stroke="black" d="M897,-85.08C897,-106.12 897,-137.8 897,-137.8 897,-137.8 532.4,-137.8 532.4,-137.8"/>
<polygon fill="black" stroke="black" points="532.4,-134.3 522.4,-137.8 532.4,-141.3 532.4,-134.3"/>
</g>
</g>
</svg>
