<?xml version="1.0" encoding="UTF-8" standalone="no"?>
<!DOCTYPE svg PUBLIC "-//W3C//DTD SVG 1.1//EN"
 "http://www.w3.org/Graphics/SVG/1.1/DTD/svg11.dtd">
<!-- Generated by graphviz version 2.47.3 (20210619.1520)
 -->
<!-- Title: dependencies Pages: 1 -->
<svg width="400pt" height="247pt"
 viewBox="0.00 0.00 400.00 246.80" xmlns="http://www.w3.org/2000/svg" xmlns:xlink="http://www.w3.org/1999/xlink">
<g id="graph0" class="graph" transform="scale(1 1) rotate(0) translate(4 242.8)">
<title>dependencies</title>
<polygon fill="white" stroke="transparent" points="-4,4 -4,-242.8 396,-242.8 396,4 -4,4"/>
<text text-anchor="middle" x="196" y="-8.2" font-family="sans-serif" font-size="14.00">dependencies</text>
<g id="clust1" class="cluster">
<title>cluster_SchemaCachedModule</title>
<polygon fill="none" stroke="black" stroke-dasharray="1,5" points="8,-32.8 8,-230.8 384,-230.8 384,-32.8 8,-32.8"/>
</g>
<g id="clust4" class="cluster">
<title>cluster_SchemaCachedModule_exports</title>
<polygon fill="none" stroke="black" points="127,-170.8 127,-222.8 291,-222.8 291,-170.8 127,-170.8"/>
</g>
<g id="clust3" class="cluster">
<title>cluster_SchemaCachedModule_imports</title>
<polygon fill="none" stroke="black" points="240,-40.8 240,-92.8 376,-92.8 376,-40.8 240,-40.8"/>
</g>
<g id="clust6" class="cluster">
<title>cluster_SchemaCachedModule_providers</title>
<polygon fill="none" stroke="black" points="16,-40.8 16,-92.8 232,-92.8 232,-40.8 16,-40.8"/>
</g>
<!-- SchemaDbModule -->
<g id="node1" class="node">
<title>SchemaDbModule</title>
<polygon fill="#8dd3c7" stroke="black" points="368.47,-84.8 365.47,-88.8 344.47,-88.8 341.47,-84.8 247.53,-84.8 247.53,-48.8 368.47,-48.8 368.47,-84.8"/>
<text text-anchor="middle" x="308" y="-62.6" font-family="Times,serif" font-size="14.00">SchemaDbModule</text>
</g>
<!-- SchemaCachedModule -->
<g id="node2" class="node">
<title>SchemaCachedModule</title>
<polygon fill="#8dd3c7" stroke="black" points="281.85,-149.8 278.85,-153.8 257.85,-153.8 254.85,-149.8 136.15,-149.8 136.15,-113.8 281.85,-113.8 281.85,-149.8"/>
<text text-anchor="middle" x="209" y="-127.6" font-family="Times,serif" font-size="14.00">SchemaCachedModule</text>
</g>
<!-- SchemaDbModule&#45;&gt;SchemaCachedModule -->
<g id="edge1" class="edge">
<title>SchemaDbModule&#45;&gt;SchemaCachedModule</title>
<path fill="none" stroke="black" d="M264.72,-84.91C264.72,-84.91 264.72,-103.79 264.72,-103.79"/>
<polygon fill="black" stroke="black" points="261.22,-103.79 264.72,-113.79 268.22,-103.79 261.22,-103.79"/>
</g>
<!-- SchemaCachedService  -->
<g id="node3" class="node">
<title>SchemaCachedService </title>
<polygon fill="#fb8072" stroke="black" points="282.78,-214.8 135.22,-214.8 135.22,-178.8 282.78,-178.8 282.78,-214.8"/>
<text text-anchor="middle" x="209" y="-192.6" font-family="Times,serif" font-size="14.00">SchemaCachedService </text>
</g>
<!-- SchemaCachedModule&#45;&gt;SchemaCachedService  -->
<g id="edge2" class="edge">
<title>SchemaCachedModule&#45;&gt;SchemaCachedService </title>
<path fill="none" stroke="black" stroke-dasharray="5,2" d="M209,-149.91C209,-149.91 209,-168.79 209,-168.79"/>
<polygon fill="black" stroke="black" points="205.5,-168.79 209,-178.79 212.5,-168.79 205.5,-168.79"/>
</g>
<!-- SchemaCachedService -->
<g id="node4" class="node">
<title>SchemaCachedService</title>
<ellipse fill="#fdb462" stroke="black" cx="124" cy="-66.8" rx="99.54" ry="18"/>
<text text-anchor="middle" x="124" y="-62.6" font-family="Times,serif" font-size="14.00">SchemaCachedService</text>
</g>
<!-- SchemaCachedService&#45;&gt;SchemaCachedModule -->
<g id="edge3" class="edge">
<title>SchemaCachedService&#45;&gt;SchemaCachedModule</title>
<path fill="none" stroke="black" d="M179.8,-81.88C179.8,-81.88 179.8,-103.56 179.8,-103.56"/>
<polygon fill="black" stroke="black" points="176.3,-103.56 179.8,-113.56 183.3,-103.56 176.3,-103.56"/>
</g>
</g>
</svg>
