<?xml version="1.0" encoding="UTF-8" standalone="no"?>
<!DOCTYPE svg PUBLIC "-//W3C//DTD SVG 1.1//EN"
 "http://www.w3.org/Graphics/SVG/1.1/DTD/svg11.dtd">
<!-- Generated by graphviz version 2.47.3 (20210619.1520)
 -->
<!-- Title: dependencies Pages: 1 -->
<svg width="400pt" height="247pt"
 viewBox="0.00 0.00 400.00 246.80" xmlns="http://www.w3.org/2000/svg" xmlns:xlink="http://www.w3.org/1999/xlink">
<g id="graph0" class="graph" transform="scale(1 1) rotate(0) translate(4 242.8)">
<title>dependencies</title>
<polygon fill="white" stroke="transparent" points="-4,4 -4,-242.8 396,-242.8 396,4 -4,4"/>
<text text-anchor="middle" x="196" y="-8.2" font-family="sans-serif" font-size="14.00">dependencies</text>
<g id="clust1" class="cluster">
<title>cluster_SchemaCachedModule</title>
<polygon fill="none" stroke="black" stroke-dasharray="1,5" points="8,-32.8 8,-230.8 384,-230.8 384,-32.8 8,-32.8"/>
</g>
<g id="clust4" class="cluster">
<title>cluster_SchemaCachedModule_exports</title>
<polygon fill="none" stroke="black" points="101,-170.8 101,-222.8 265,-222.8 265,-170.8 101,-170.8"/>
</g>
<g id="clust6" class="cluster">
<title>cluster_SchemaCachedModule_providers</title>
<polygon fill="none" stroke="black" points="160,-40.8 160,-92.8 376,-92.8 376,-40.8 160,-40.8"/>
</g>
<g id="clust3" class="cluster">
<title>cluster_SchemaCachedModule_imports</title>
<polygon fill="none" stroke="black" points="16,-40.8 16,-92.8 152,-92.8 152,-40.8 16,-40.8"/>
</g>
<!-- SchemaDbModule -->
<g id="node1" class="node">
<title>SchemaDbModule</title>
<polygon fill="#8dd3c7" stroke="black" points="144.47,-84.8 141.47,-88.8 120.47,-88.8 117.47,-84.8 23.53,-84.8 23.53,-48.8 144.47,-48.8 144.47,-84.8"/>
<text text-anchor="middle" x="84" y="-62.6" font-family="Times,serif" font-size="14.00">SchemaDbModule</text>
</g>
<!-- SchemaCachedModule -->
<g id="node2" class="node">
<title>SchemaCachedModule</title>
<polygon fill="#8dd3c7" stroke="black" points="255.85,-149.8 252.85,-153.8 231.85,-153.8 228.85,-149.8 110.15,-149.8 110.15,-113.8 255.85,-113.8 255.85,-149.8"/>
<text text-anchor="middle" x="183" y="-127.6" font-family="Times,serif" font-size="14.00">SchemaCachedModule</text>
</g>
<!-- SchemaDbModule&#45;&gt;SchemaCachedModule -->
<g id="edge1" class="edge">
<title>SchemaDbModule&#45;&gt;SchemaCachedModule</title>
<path fill="none" stroke="black" d="M127.28,-84.91C127.28,-84.91 127.28,-103.79 127.28,-103.79"/>
<polygon fill="black" stroke="black" points="123.78,-103.79 127.28,-113.79 130.78,-103.79 123.78,-103.79"/>
</g>
<!-- SchemaCachedService  -->
<g id="node3" class="node">
<title>SchemaCachedService </title>
<polygon fill="#fb8072" stroke="black" points="256.78,-214.8 109.22,-214.8 109.22,-178.8 256.78,-178.8 256.78,-214.8"/>
<text text-anchor="middle" x="183" y="-192.6" font-family="Times,serif" font-size="14.00">SchemaCachedService </text>
</g>
<!-- SchemaCachedModule&#45;&gt;SchemaCachedService  -->
<g id="edge2" class="edge">
<title>SchemaCachedModule&#45;&gt;SchemaCachedService </title>
<path fill="none" stroke="black" stroke-dasharray="5,2" d="M183,-149.91C183,-149.91 183,-168.79 183,-168.79"/>
<polygon fill="black" stroke="black" points="179.5,-168.79 183,-178.79 186.5,-168.79 179.5,-168.79"/>
</g>
<!-- SchemaCachedService -->
<g id="node4" class="node">
<title>SchemaCachedService</title>
<ellipse fill="#fdb462" stroke="black" cx="268" cy="-66.8" rx="99.54" ry="18"/>
<text text-anchor="middle" x="268" y="-62.6" font-family="Times,serif" font-size="14.00">SchemaCachedService</text>
</g>
<!-- SchemaCachedService&#45;&gt;SchemaCachedModule -->
<g id="edge3" class="edge">
<title>SchemaCachedService&#45;&gt;SchemaCachedModule</title>
<path fill="none" stroke="black" d="M212.2,-81.88C212.2,-81.88 212.2,-103.56 212.2,-103.56"/>
<polygon fill="black" stroke="black" points="208.7,-103.56 212.2,-113.56 215.7,-103.56 208.7,-103.56"/>
</g>
</g>
</svg>
