<?xml version="1.0" encoding="UTF-8" standalone="no"?>
<!DOCTYPE svg PUBLIC "-//W3C//DTD SVG 1.1//EN"
 "http://www.w3.org/Graphics/SVG/1.1/DTD/svg11.dtd">
<!-- Generated by graphviz version 3.0.0 (20220226.1711)
 -->
<!-- Title: dependencies Pages: 1 -->
<svg width="234pt" height="247pt"
 viewBox="0.00 0.00 234.00 246.80" xmlns="http://www.w3.org/2000/svg" xmlns:xlink="http://www.w3.org/1999/xlink">
<g id="graph0" class="graph" transform="scale(1 1) rotate(0) translate(4 242.8)">
<title>dependencies</title>
<polygon fill="white" stroke="transparent" points="-4,4 -4,-242.8 230,-242.8 230,4 -4,4"/>
<text text-anchor="middle" x="113" y="-8.2" font-family="sans-serif" font-size="14.00">dependencies</text>
<g id="clust1" class="cluster">
<title>cluster_WalletClientModule</title>
<polygon fill="none" stroke="black" stroke-dasharray="1,5" points="8,-32.8 8,-230.8 218,-230.8 218,-32.8 8,-32.8"/>
</g>
<g id="clust4" class="cluster">
<title>cluster_WalletClientModule_exports</title>
<polygon fill="none" stroke="black" points="38,-170.8 38,-222.8 188,-222.8 188,-170.8 38,-170.8"/>
</g>
<g id="clust6" class="cluster">
<title>cluster_WalletClientModule_providers</title>
<polygon fill="none" stroke="black" points="16,-40.8 16,-92.8 210,-92.8 210,-40.8 16,-40.8"/>
</g>
<!-- WalletClientService  -->
<g id="node1" class="node">
<title>WalletClientService </title>
<polygon fill="#fb8072" stroke="black" points="179.51,-214.8 46.49,-214.8 46.49,-178.8 179.51,-178.8 179.51,-214.8"/>
<text text-anchor="middle" x="113" y="-192.6" font-family="Times,serif" font-size="14.00">WalletClientService </text>
</g>
<!-- WalletClientModule -->
<g id="node2" class="node">
<title>WalletClientModule</title>
<polygon fill="#8dd3c7" stroke="black" points="178.58,-149.8 175.58,-153.8 154.58,-153.8 151.58,-149.8 47.42,-149.8 47.42,-113.8 178.58,-113.8 178.58,-149.8"/>
<text text-anchor="middle" x="113" y="-127.6" font-family="Times,serif" font-size="14.00">WalletClientModule</text>
</g>
<!-- WalletClientModule&#45;&gt;WalletClientService  -->
<g id="edge1" class="edge">
<title>WalletClientModule&#45;&gt;WalletClientService </title>
<path fill="none" stroke="black" stroke-dasharray="5,2" d="M113,-149.91C113,-149.91 113,-168.79 113,-168.79"/>
<polygon fill="black" stroke="black" points="109.5,-168.79 113,-178.79 116.5,-168.79 109.5,-168.79"/>
</g>
<!-- WalletClientService -->
<g id="node3" class="node">
<title>WalletClientService</title>
<ellipse fill="#fdb462" stroke="black" cx="113" cy="-66.8" rx="89.17" ry="18"/>
<text text-anchor="middle" x="113" y="-62.6" font-family="Times,serif" font-size="14.00">WalletClientService</text>
</g>
<!-- WalletClientService&#45;&gt;WalletClientModule -->
<g id="edge2" class="edge">
<title>WalletClientService&#45;&gt;WalletClientModule</title>
<path fill="none" stroke="black" d="M113,-84.91C113,-84.91 113,-103.79 113,-103.79"/>
<polygon fill="black" stroke="black" points="109.5,-103.79 113,-113.79 116.5,-103.79 109.5,-103.79"/>
</g>
</g>
</svg>
