<?xml version="1.0" encoding="UTF-8" standalone="no"?>
<!DOCTYPE svg PUBLIC "-//W3C//DTD SVG 1.1//EN"
 "http://www.w3.org/Graphics/SVG/1.1/DTD/svg11.dtd">
<!-- Generated by graphviz version 2.47.3 (20210619.1520)
 -->
<!-- Title: dependencies Pages: 1 -->
<svg width="1562pt" height="174pt"
 viewBox="0.00 0.00 1562.00 173.80" xmlns="http://www.w3.org/2000/svg" xmlns:xlink="http://www.w3.org/1999/xlink">
<g id="graph0" class="graph" transform="scale(1 1) rotate(0) translate(4 169.8)">
<title>dependencies</title>
<polygon fill="white" stroke="transparent" points="-4,4 -4,-169.8 1558,-169.8 1558,4 -4,4"/>
<text text-anchor="middle" x="777" y="-8.2" font-family="sans-serif" font-size="14.00">dependencies</text>
<g id="clust1" class="cluster">
<title>cluster_HttpGatewayModule</title>
<polygon fill="none" stroke="black" stroke-dasharray="1,5" points="8,-32.8 8,-157.8 1546,-157.8 1546,-32.8 8,-32.8"/>
</g>
<g id="clust3" class="cluster">
<title>cluster_HttpGatewayModule_imports</title>
<polygon fill="none" stroke="black" points="222,-40.8 222,-92.8 1538,-92.8 1538,-40.8 222,-40.8"/>
</g>
<g id="clust6" class="cluster">
<title>cluster_HttpGatewayModule_providers</title>
<polygon fill="none" stroke="black" points="16,-40.8 16,-92.8 214,-92.8 214,-40.8 16,-40.8"/>
</g>
<!-- ConfigModule -->
<g id="node1" class="node">
<title>ConfigModule</title>
<polygon fill="#8dd3c7" stroke="black" points="1530.44,-84.8 1527.44,-88.8 1506.44,-88.8 1503.44,-84.8 1431.56,-84.8 1431.56,-48.8 1530.44,-48.8 1530.44,-84.8"/>
<text text-anchor="middle" x="1481" y="-62.6" font-family="Times,serif" font-size="14.00">ConfigModule</text>
</g>
<!-- HttpGatewayModule -->
<g id="node10" class="node">
<title>HttpGatewayModule</title>
<polygon fill="#8dd3c7" stroke="black" points="868.19,-149.8 865.19,-153.8 844.19,-153.8 841.19,-149.8 733.81,-149.8 733.81,-113.8 868.19,-113.8 868.19,-149.8"/>
<text text-anchor="middle" x="801" y="-127.6" font-family="Times,serif" font-size="14.00">HttpGatewayModule</text>
</g>
<!-- ConfigModule&#45;&gt;HttpGatewayModule -->
<g id="edge1" class="edge">
<title>ConfigModule&#45;&gt;HttpGatewayModule</title>
<path fill="none" stroke="black" d="M1481,-84.81C1481,-107.29 1481,-142.8 1481,-142.8 1481,-142.8 878.37,-142.8 878.37,-142.8"/>
<polygon fill="black" stroke="black" points="878.37,-139.3 868.37,-142.8 878.37,-146.3 878.37,-139.3"/>
</g>
<!-- EventClientModule -->
<g id="node2" class="node">
<title>EventClientModule</title>
<polygon fill="#8dd3c7" stroke="black" points="1414.43,-84.8 1411.43,-88.8 1390.43,-88.8 1387.43,-84.8 1287.57,-84.8 1287.57,-48.8 1414.43,-48.8 1414.43,-84.8"/>
<text text-anchor="middle" x="1351" y="-62.6" font-family="Times,serif" font-size="14.00">EventClientModule</text>
</g>
<!-- EventClientModule&#45;&gt;HttpGatewayModule -->
<g id="edge2" class="edge">
<title>EventClientModule&#45;&gt;HttpGatewayModule</title>
<path fill="none" stroke="black" d="M1351,-84.93C1351,-105.37 1351,-135.8 1351,-135.8 1351,-135.8 878.17,-135.8 878.17,-135.8"/>
<polygon fill="black" stroke="black" points="878.17,-132.3 868.17,-135.8 878.17,-139.3 878.17,-132.3"/>
</g>
<!-- GatewayDidModule -->
<g id="node3" class="node">
<title>GatewayDidModule</title>
<polygon fill="#8dd3c7" stroke="black" points="1270.29,-84.8 1267.29,-88.8 1246.29,-88.8 1243.29,-84.8 1139.71,-84.8 1139.71,-48.8 1270.29,-48.8 1270.29,-84.8"/>
<text text-anchor="middle" x="1205" y="-62.6" font-family="Times,serif" font-size="14.00">GatewayDidModule</text>
</g>
<!-- GatewayDidModule&#45;&gt;HttpGatewayModule -->
<g id="edge3" class="edge">
<title>GatewayDidModule&#45;&gt;HttpGatewayModule</title>
<path fill="none" stroke="black" d="M1205,-85.07C1205,-103.36 1205,-128.8 1205,-128.8 1205,-128.8 878.17,-128.8 878.17,-128.8"/>
<polygon fill="black" stroke="black" points="878.17,-125.3 868.17,-128.8 878.17,-132.3 878.17,-125.3"/>
</g>
<!-- GatewayHashModule -->
<g id="node4" class="node">
<title>GatewayHashModule</title>
<polygon fill="#8dd3c7" stroke="black" points="1122.06,-84.8 1119.06,-88.8 1098.06,-88.8 1095.06,-84.8 983.94,-84.8 983.94,-48.8 1122.06,-48.8 1122.06,-84.8"/>
<text text-anchor="middle" x="1053" y="-62.6" font-family="Times,serif" font-size="14.00">GatewayHashModule</text>
</g>
<!-- GatewayHashModule&#45;&gt;HttpGatewayModule -->
<g id="edge4" class="edge">
<title>GatewayHashModule&#45;&gt;HttpGatewayModule</title>
<path fill="none" stroke="black" d="M1053,-84.81C1053,-100.85 1053,-121.8 1053,-121.8 1053,-121.8 878.2,-121.8 878.2,-121.8"/>
<polygon fill="black" stroke="black" points="878.2,-118.3 868.2,-121.8 878.2,-125.3 878.2,-118.3"/>
</g>
<!-- GatewaySchemaModule -->
<g id="node5" class="node">
<title>GatewaySchemaModule</title>
<polygon fill="#8dd3c7" stroke="black" points="965.61,-84.8 962.61,-88.8 941.61,-88.8 938.61,-84.8 812.39,-84.8 812.39,-48.8 965.61,-48.8 965.61,-84.8"/>
<text text-anchor="middle" x="889" y="-62.6" font-family="Times,serif" font-size="14.00">GatewaySchemaModule</text>
</g>
<!-- GatewaySchemaModule&#45;&gt;HttpGatewayModule -->
<g id="edge5" class="edge">
<title>GatewaySchemaModule&#45;&gt;HttpGatewayModule</title>
<path fill="none" stroke="black" d="M840.14,-84.91C840.14,-84.91 840.14,-103.79 840.14,-103.79"/>
<polygon fill="black" stroke="black" points="836.64,-103.79 840.14,-113.79 843.64,-103.79 836.64,-103.79"/>
</g>
<!-- GatewayTemplateModule -->
<g id="node6" class="node">
<title>GatewayTemplateModule</title>
<polygon fill="#8dd3c7" stroke="black" points="794.17,-84.8 791.17,-88.8 770.17,-88.8 767.17,-84.8 631.83,-84.8 631.83,-48.8 794.17,-48.8 794.17,-84.8"/>
<text text-anchor="middle" x="713" y="-62.6" font-family="Times,serif" font-size="14.00">GatewayTemplateModule</text>
</g>
<!-- GatewayTemplateModule&#45;&gt;HttpGatewayModule -->
<g id="edge6" class="edge">
<title>GatewayTemplateModule&#45;&gt;HttpGatewayModule</title>
<path fill="none" stroke="black" d="M764,-84.91C764,-84.91 764,-103.79 764,-103.79"/>
<polygon fill="black" stroke="black" points="760.5,-103.79 764,-113.79 767.5,-103.79 760.5,-103.79"/>
</g>
<!-- InviteModule -->
<g id="node7" class="node">
<title>InviteModule</title>
<polygon fill="#8dd3c7" stroke="black" points="614.21,-84.8 611.21,-88.8 590.21,-88.8 587.21,-84.8 521.79,-84.8 521.79,-48.8 614.21,-48.8 614.21,-84.8"/>
<text text-anchor="middle" x="568" y="-62.6" font-family="Times,serif" font-size="14.00">InviteModule</text>
</g>
<!-- InviteModule&#45;&gt;HttpGatewayModule -->
<g id="edge7" class="edge">
<title>InviteModule&#45;&gt;HttpGatewayModule</title>
<path fill="none" stroke="black" d="M568,-84.81C568,-100.85 568,-121.8 568,-121.8 568,-121.8 723.61,-121.8 723.61,-121.8"/>
<polygon fill="black" stroke="black" points="723.61,-125.3 733.61,-121.8 723.61,-118.3 723.61,-125.3"/>
</g>
<!-- ParseClientModule -->
<g id="node8" class="node">
<title>ParseClientModule</title>
<polygon fill="#8dd3c7" stroke="black" points="504.09,-84.8 501.09,-88.8 480.09,-88.8 477.09,-84.8 379.91,-84.8 379.91,-48.8 504.09,-48.8 504.09,-84.8"/>
<text text-anchor="middle" x="442" y="-62.6" font-family="Times,serif" font-size="14.00">ParseClientModule</text>
</g>
<!-- ParseClientModule&#45;&gt;HttpGatewayModule -->
<g id="edge8" class="edge">
<title>ParseClientModule&#45;&gt;HttpGatewayModule</title>
<path fill="none" stroke="black" d="M442,-85.07C442,-103.36 442,-128.8 442,-128.8 442,-128.8 723.9,-128.8 723.9,-128.8"/>
<polygon fill="black" stroke="black" points="723.9,-132.3 733.9,-128.8 723.9,-125.3 723.9,-132.3"/>
</g>
<!-- WalletClientModule -->
<g id="node9" class="node">
<title>WalletClientModule</title>
<polygon fill="#8dd3c7" stroke="black" points="361.59,-84.8 358.59,-88.8 337.59,-88.8 334.59,-84.8 230.41,-84.8 230.41,-48.8 361.59,-48.8 361.59,-84.8"/>
<text text-anchor="middle" x="296" y="-62.6" font-family="Times,serif" font-size="14.00">WalletClientModule</text>
</g>
<!-- WalletClientModule&#45;&gt;HttpGatewayModule -->
<g id="edge9" class="edge">
<title>WalletClientModule&#45;&gt;HttpGatewayModule</title>
<path fill="none" stroke="black" d="M296,-84.93C296,-105.37 296,-135.8 296,-135.8 296,-135.8 723.68,-135.8 723.68,-135.8"/>
<polygon fill="black" stroke="black" points="723.68,-139.3 733.68,-135.8 723.68,-132.3 723.68,-139.3"/>
</g>
<!-- HttpGatewayService -->
<g id="node11" class="node">
<title>HttpGatewayService</title>
<ellipse fill="#fdb462" stroke="black" cx="115" cy="-66.8" rx="91.45" ry="18"/>
<text text-anchor="middle" x="115" y="-62.6" font-family="Times,serif" font-size="14.00">HttpGatewayService</text>
</g>
<!-- HttpGatewayService&#45;&gt;HttpGatewayModule -->
<g id="edge10" class="edge">
<title>HttpGatewayService&#45;&gt;HttpGatewayModule</title>
<path fill="none" stroke="black" d="M115,-84.81C115,-107.29 115,-142.8 115,-142.8 115,-142.8 723.66,-142.8 723.66,-142.8"/>
<polygon fill="black" stroke="black" points="723.66,-146.3 733.66,-142.8 723.66,-139.3 723.66,-146.3"/>
</g>
</g>
</svg>
