<?xml version="1.0" encoding="UTF-8" standalone="no"?>
<!DOCTYPE svg PUBLIC "-//W3C//DTD SVG 1.1//EN"
 "http://www.w3.org/Graphics/SVG/1.1/DTD/svg11.dtd">
<!-- Generated by graphviz version 2.47.3 (20210619.1520)
 -->
<!-- Title: dependencies Pages: 1 -->
<svg width="1562pt" height="174pt"
 viewBox="0.00 0.00 1562.00 173.80" xmlns="http://www.w3.org/2000/svg" xmlns:xlink="http://www.w3.org/1999/xlink">
<g id="graph0" class="graph" transform="scale(1 1) rotate(0) translate(4 169.8)">
<title>dependencies</title>
<polygon fill="white" stroke="transparent" points="-4,4 -4,-169.8 1558,-169.8 1558,4 -4,4"/>
<text text-anchor="middle" x="777" y="-8.2" font-family="sans-serif" font-size="14.00">dependencies</text>
<g id="clust1" class="cluster">
<title>cluster_HttpGatewayModule</title>
<polygon fill="none" stroke="black" stroke-dasharray="1,5" points="8,-32.8 8,-157.8 1546,-157.8 1546,-32.8 8,-32.8"/>
</g>
<g id="clust6" class="cluster">
<title>cluster_HttpGatewayModule_providers</title>
<polygon fill="none" stroke="black" points="1340,-40.8 1340,-92.8 1538,-92.8 1538,-40.8 1340,-40.8"/>
</g>
<g id="clust3" class="cluster">
<title>cluster_HttpGatewayModule_imports</title>
<polygon fill="none" stroke="black" points="16,-40.8 16,-92.8 1332,-92.8 1332,-40.8 16,-40.8"/>
</g>
<!-- ConfigModule -->
<g id="node1" class="node">
<title>ConfigModule</title>
<polygon fill="#8dd3c7" stroke="black" points="1324.44,-84.8 1321.44,-88.8 1300.44,-88.8 1297.44,-84.8 1225.56,-84.8 1225.56,-48.8 1324.44,-48.8 1324.44,-84.8"/>
<text text-anchor="middle" x="1275" y="-62.6" font-family="Times,serif" font-size="14.00">ConfigModule</text>
</g>
<!-- HttpGatewayModule -->
<g id="node10" class="node">
<title>HttpGatewayModule</title>
<polygon fill="#8dd3c7" stroke="black" points="832.19,-149.8 829.19,-153.8 808.19,-153.8 805.19,-149.8 697.81,-149.8 697.81,-113.8 832.19,-113.8 832.19,-149.8"/>
<text text-anchor="middle" x="765" y="-127.6" font-family="Times,serif" font-size="14.00">HttpGatewayModule</text>
</g>
<!-- ConfigModule&#45;&gt;HttpGatewayModule -->
<g id="edge1" class="edge">
<title>ConfigModule&#45;&gt;HttpGatewayModule</title>
<path fill="none" stroke="black" d="M1275,-84.93C1275,-105.37 1275,-135.8 1275,-135.8 1275,-135.8 842.2,-135.8 842.2,-135.8"/>
<polygon fill="black" stroke="black" points="842.2,-132.3 832.2,-135.8 842.2,-139.3 842.2,-132.3"/>
</g>
<!-- EventClientModule -->
<g id="node2" class="node">
<title>EventClientModule</title>
<polygon fill="#8dd3c7" stroke="black" points="1208.43,-84.8 1205.43,-88.8 1184.43,-88.8 1181.43,-84.8 1081.57,-84.8 1081.57,-48.8 1208.43,-48.8 1208.43,-84.8"/>
<text text-anchor="middle" x="1145" y="-62.6" font-family="Times,serif" font-size="14.00">EventClientModule</text>
</g>
<!-- EventClientModule&#45;&gt;HttpGatewayModule -->
<g id="edge2" class="edge">
<title>EventClientModule&#45;&gt;HttpGatewayModule</title>
<path fill="none" stroke="black" d="M1145,-85.07C1145,-103.36 1145,-128.8 1145,-128.8 1145,-128.8 842.5,-128.8 842.5,-128.8"/>
<polygon fill="black" stroke="black" points="842.5,-125.3 832.5,-128.8 842.5,-132.3 842.5,-125.3"/>
</g>
<!-- GatewayDidModule -->
<g id="node3" class="node">
<title>GatewayDidModule</title>
<polygon fill="#8dd3c7" stroke="black" points="1064.29,-84.8 1061.29,-88.8 1040.29,-88.8 1037.29,-84.8 933.71,-84.8 933.71,-48.8 1064.29,-48.8 1064.29,-84.8"/>
<text text-anchor="middle" x="999" y="-62.6" font-family="Times,serif" font-size="14.00">GatewayDidModule</text>
</g>
<!-- GatewayDidModule&#45;&gt;HttpGatewayModule -->
<g id="edge3" class="edge">
<title>GatewayDidModule&#45;&gt;HttpGatewayModule</title>
<path fill="none" stroke="black" d="M999,-84.81C999,-100.85 999,-121.8 999,-121.8 999,-121.8 842.37,-121.8 842.37,-121.8"/>
<polygon fill="black" stroke="black" points="842.37,-118.3 832.37,-121.8 842.37,-125.3 842.37,-118.3"/>
</g>
<!-- GatewayHashModule -->
<g id="node4" class="node">
<title>GatewayHashModule</title>
<polygon fill="#8dd3c7" stroke="black" points="916.06,-84.8 913.06,-88.8 892.06,-88.8 889.06,-84.8 777.94,-84.8 777.94,-48.8 916.06,-48.8 916.06,-84.8"/>
<text text-anchor="middle" x="847" y="-62.6" font-family="Times,serif" font-size="14.00">GatewayHashModule</text>
</g>
<!-- GatewayHashModule&#45;&gt;HttpGatewayModule -->
<g id="edge4" class="edge">
<title>GatewayHashModule&#45;&gt;HttpGatewayModule</title>
<path fill="none" stroke="black" d="M805.03,-84.91C805.03,-84.91 805.03,-103.79 805.03,-103.79"/>
<polygon fill="black" stroke="black" points="801.53,-103.79 805.03,-113.79 808.53,-103.79 801.53,-103.79"/>
</g>
<!-- GatewaySchemaModule -->
<g id="node5" class="node">
<title>GatewaySchemaModule</title>
<polygon fill="#8dd3c7" stroke="black" points="759.61,-84.8 756.61,-88.8 735.61,-88.8 732.61,-84.8 606.39,-84.8 606.39,-48.8 759.61,-48.8 759.61,-84.8"/>
<text text-anchor="middle" x="683" y="-62.6" font-family="Times,serif" font-size="14.00">GatewaySchemaModule</text>
</g>
<!-- GatewaySchemaModule&#45;&gt;HttpGatewayModule -->
<g id="edge5" class="edge">
<title>GatewaySchemaModule&#45;&gt;HttpGatewayModule</title>
<path fill="none" stroke="black" d="M728.86,-84.91C728.86,-84.91 728.86,-103.79 728.86,-103.79"/>
<polygon fill="black" stroke="black" points="725.36,-103.79 728.86,-113.79 732.36,-103.79 725.36,-103.79"/>
</g>
<!-- GatewayTemplateModule -->
<g id="node6" class="node">
<title>GatewayTemplateModule</title>
<polygon fill="#8dd3c7" stroke="black" points="588.17,-84.8 585.17,-88.8 564.17,-88.8 561.17,-84.8 425.83,-84.8 425.83,-48.8 588.17,-48.8 588.17,-84.8"/>
<text text-anchor="middle" x="507" y="-62.6" font-family="Times,serif" font-size="14.00">GatewayTemplateModule</text>
</g>
<!-- GatewayTemplateModule&#45;&gt;HttpGatewayModule -->
<g id="edge6" class="edge">
<title>GatewayTemplateModule&#45;&gt;HttpGatewayModule</title>
<path fill="none" stroke="black" d="M507,-84.81C507,-100.85 507,-121.8 507,-121.8 507,-121.8 687.89,-121.8 687.89,-121.8"/>
<polygon fill="black" stroke="black" points="687.89,-125.3 697.89,-121.8 687.89,-118.3 687.89,-125.3"/>
</g>
<!-- InviteModule -->
<g id="node7" class="node">
<title>InviteModule</title>
<polygon fill="#8dd3c7" stroke="black" points="408.21,-84.8 405.21,-88.8 384.21,-88.8 381.21,-84.8 315.79,-84.8 315.79,-48.8 408.21,-48.8 408.21,-84.8"/>
<text text-anchor="middle" x="362" y="-62.6" font-family="Times,serif" font-size="14.00">InviteModule</text>
</g>
<!-- InviteModule&#45;&gt;HttpGatewayModule -->
<g id="edge7" class="edge">
<title>InviteModule&#45;&gt;HttpGatewayModule</title>
<path fill="none" stroke="black" d="M362,-85.07C362,-103.36 362,-128.8 362,-128.8 362,-128.8 687.55,-128.8 687.55,-128.8"/>
<polygon fill="black" stroke="black" points="687.55,-132.3 697.55,-128.8 687.55,-125.3 687.55,-132.3"/>
</g>
<!-- ParseClientModule -->
<g id="node8" class="node">
<title>ParseClientModule</title>
<polygon fill="#8dd3c7" stroke="black" points="298.09,-84.8 295.09,-88.8 274.09,-88.8 271.09,-84.8 173.91,-84.8 173.91,-48.8 298.09,-48.8 298.09,-84.8"/>
<text text-anchor="middle" x="236" y="-62.6" font-family="Times,serif" font-size="14.00">ParseClientModule</text>
</g>
<!-- ParseClientModule&#45;&gt;HttpGatewayModule -->
<g id="edge8" class="edge">
<title>ParseClientModule&#45;&gt;HttpGatewayModule</title>
<path fill="none" stroke="black" d="M236,-84.93C236,-105.37 236,-135.8 236,-135.8 236,-135.8 687.73,-135.8 687.73,-135.8"/>
<polygon fill="black" stroke="black" points="687.73,-139.3 697.73,-135.8 687.73,-132.3 687.73,-139.3"/>
</g>
<!-- WalletClientModule -->
<g id="node9" class="node">
<title>WalletClientModule</title>
<polygon fill="#8dd3c7" stroke="black" points="155.59,-84.8 152.59,-88.8 131.59,-88.8 128.59,-84.8 24.41,-84.8 24.41,-48.8 155.59,-48.8 155.59,-84.8"/>
<text text-anchor="middle" x="90" y="-62.6" font-family="Times,serif" font-size="14.00">WalletClientModule</text>
</g>
<!-- WalletClientModule&#45;&gt;HttpGatewayModule -->
<g id="edge9" class="edge">
<title>WalletClientModule&#45;&gt;HttpGatewayModule</title>
<path fill="none" stroke="black" d="M90,-84.81C90,-107.29 90,-142.8 90,-142.8 90,-142.8 687.81,-142.8 687.81,-142.8"/>
<polygon fill="black" stroke="black" points="687.81,-146.3 697.81,-142.8 687.81,-139.3 687.81,-146.3"/>
</g>
<!-- HttpGatewayService -->
<g id="node11" class="node">
<title>HttpGatewayService</title>
<ellipse fill="#fdb462" stroke="black" cx="1439" cy="-66.8" rx="91.45" ry="18"/>
<text text-anchor="middle" x="1439" y="-62.6" font-family="Times,serif" font-size="14.00">HttpGatewayService</text>
</g>
<!-- HttpGatewayService&#45;&gt;HttpGatewayModule -->
<g id="edge10" class="edge">
<title>HttpGatewayService&#45;&gt;HttpGatewayModule</title>
<path fill="none" stroke="black" d="M1439,-84.81C1439,-107.29 1439,-142.8 1439,-142.8 1439,-142.8 842.4,-142.8 842.4,-142.8"/>
<polygon fill="black" stroke="black" points="842.4,-139.3 832.4,-142.8 842.4,-146.3 842.4,-139.3"/>
</g>
</g>
</svg>
