<?xml version="1.0" encoding="UTF-8" standalone="no"?>
<!DOCTYPE svg PUBLIC "-//W3C//DTD SVG 1.1//EN"
 "http://www.w3.org/Graphics/SVG/1.1/DTD/svg11.dtd">
<!-- Generated by graphviz version 3.0.0 (20220226.1711)
 -->
<!-- Title: dependencies Pages: 1 -->
<svg width="962pt" height="174pt"
 viewBox="0.00 0.00 962.00 173.80" xmlns="http://www.w3.org/2000/svg" xmlns:xlink="http://www.w3.org/1999/xlink">
<g id="graph0" class="graph" transform="scale(1 1) rotate(0) translate(4 169.8)">
<title>dependencies</title>
<polygon fill="white" stroke="transparent" points="-4,4 -4,-169.8 958,-169.8 958,4 -4,4"/>
<text text-anchor="middle" x="477" y="-8.2" font-family="sans-serif" font-size="14.00">dependencies</text>
<g id="clust1" class="cluster">
<title>cluster_GatewaySchemaModule</title>
<polygon fill="none" stroke="black" stroke-dasharray="1,5" points="8,-32.8 8,-157.8 946,-157.8 946,-32.8 8,-32.8"/>
</g>
<g id="clust6" class="cluster">
<title>cluster_GatewaySchemaModule_providers</title>
<polygon fill="none" stroke="black" points="712,-40.8 712,-92.8 938,-92.8 938,-40.8 712,-40.8"/>
</g>
<g id="clust3" class="cluster">
<title>cluster_GatewaySchemaModule_imports</title>
<polygon fill="none" stroke="black" points="16,-40.8 16,-92.8 704,-92.8 704,-40.8 16,-40.8"/>
</g>
<!-- GatewayBlockchainModule -->
<g id="node1" class="node">
<title>GatewayBlockchainModule</title>
<polygon fill="#8dd3c7" stroke="black" points="695.56,-84.8 692.56,-88.8 671.56,-88.8 668.56,-84.8 522.44,-84.8 522.44,-48.8 695.56,-48.8 695.56,-84.8"/>
<text text-anchor="middle" x="609" y="-62.6" font-family="Times,serif" font-size="14.00">GatewayBlockchainModule</text>
</g>
<!-- GatewaySchemaModule -->
<g id="node5" class="node">
<title>GatewaySchemaModule</title>
<polygon fill="#8dd3c7" stroke="black" points="497.62,-149.8 494.62,-153.8 473.62,-153.8 470.62,-149.8 344.38,-149.8 344.38,-113.8 497.62,-113.8 497.62,-149.8"/>
<text text-anchor="middle" x="421" y="-127.6" font-family="Times,serif" font-size="14.00">GatewaySchemaModule</text>
</g>
<!-- GatewayBlockchainModule&#45;&gt;GatewaySchemaModule -->
<g id="edge1" class="edge">
<title>GatewayBlockchainModule&#45;&gt;GatewaySchemaModule</title>
<path fill="none" stroke="black" d="M609,-84.82C609,-102.17 609,-125.8 609,-125.8 609,-125.8 507.74,-125.8 507.74,-125.8"/>
<polygon fill="black" stroke="black" points="507.74,-122.3 497.74,-125.8 507.74,-129.3 507.74,-122.3"/>
</g>
<!-- SchemaBlockchainModule -->
<g id="node2" class="node">
<title>SchemaBlockchainModule</title>
<polygon fill="#8dd3c7" stroke="black" points="504.63,-84.8 501.63,-88.8 480.63,-88.8 477.63,-84.8 337.37,-84.8 337.37,-48.8 504.63,-48.8 504.63,-84.8"/>
<text text-anchor="middle" x="421" y="-62.6" font-family="Times,serif" font-size="14.00">SchemaBlockchainModule</text>
</g>
<!-- SchemaBlockchainModule&#45;&gt;GatewaySchemaModule -->
<g id="edge2" class="edge">
<title>SchemaBlockchainModule&#45;&gt;GatewaySchemaModule</title>
<path fill="none" stroke="black" d="M421,-84.91C421,-84.91 421,-103.79 421,-103.79"/>
<polygon fill="black" stroke="black" points="417.5,-103.79 421,-113.79 424.5,-103.79 417.5,-103.79"/>
</g>
<!-- SchemaCachedModule -->
<g id="node3" class="node">
<title>SchemaCachedModule</title>
<polygon fill="#8dd3c7" stroke="black" points="318.85,-84.8 315.85,-88.8 294.85,-88.8 291.85,-84.8 173.15,-84.8 173.15,-48.8 318.85,-48.8 318.85,-84.8"/>
<text text-anchor="middle" x="246" y="-62.6" font-family="Times,serif" font-size="14.00">SchemaCachedModule</text>
</g>
<!-- SchemaCachedModule&#45;&gt;GatewaySchemaModule -->
<g id="edge3" class="edge">
<title>SchemaCachedModule&#45;&gt;GatewaySchemaModule</title>
<path fill="none" stroke="black" d="M246,-84.82C246,-102.17 246,-125.8 246,-125.8 246,-125.8 334.24,-125.8 334.24,-125.8"/>
<polygon fill="black" stroke="black" points="334.24,-129.3 344.24,-125.8 334.24,-122.3 334.24,-129.3"/>
</g>
<!-- WalletClientModule -->
<g id="node4" class="node">
<title>WalletClientModule</title>
<polygon fill="#8dd3c7" stroke="black" points="155.58,-84.8 152.58,-88.8 131.58,-88.8 128.58,-84.8 24.42,-84.8 24.42,-48.8 155.58,-48.8 155.58,-84.8"/>
<text text-anchor="middle" x="90" y="-62.6" font-family="Times,serif" font-size="14.00">WalletClientModule</text>
</g>
<!-- WalletClientModule&#45;&gt;GatewaySchemaModule -->
<g id="edge4" class="edge">
<title>WalletClientModule&#45;&gt;GatewaySchemaModule</title>
<path fill="none" stroke="black" d="M90,-85.08C90,-106.12 90,-137.8 90,-137.8 90,-137.8 334.23,-137.8 334.23,-137.8"/>
<polygon fill="black" stroke="black" points="334.23,-141.3 344.23,-137.8 334.23,-134.3 334.23,-141.3"/>
</g>
<!-- GatewaySchemaService -->
<g id="node6" class="node">
<title>GatewaySchemaService</title>
<ellipse fill="#fdb462" stroke="black" cx="825" cy="-66.8" rx="104.76" ry="18"/>
<text text-anchor="middle" x="825" y="-62.6" font-family="Times,serif" font-size="14.00">GatewaySchemaService</text>
</g>
<!-- GatewaySchemaService&#45;&gt;GatewaySchemaModule -->
<g id="edge5" class="edge">
<title>GatewaySchemaService&#45;&gt;GatewaySchemaModule</title>
<path fill="none" stroke="black" d="M825,-85.08C825,-106.12 825,-137.8 825,-137.8 825,-137.8 507.94,-137.8 507.94,-137.8"/>
<polygon fill="black" stroke="black" points="507.94,-134.3 497.94,-137.8 507.94,-141.3 507.94,-134.3"/>
</g>
</g>
</svg>
