<?xml version="1.0" encoding="UTF-8" standalone="no"?>
<!DOCTYPE svg PUBLIC "-//W3C//DTD SVG 1.1//EN"
 "http://www.w3.org/Graphics/SVG/1.1/DTD/svg11.dtd">
<!-- Generated by graphviz version 3.0.0 (20220226.1711)
 -->
<!-- Title: dependencies Pages: 1 -->
<svg width="552pt" height="247pt"
 viewBox="0.00 0.00 552.00 246.80" xmlns="http://www.w3.org/2000/svg" xmlns:xlink="http://www.w3.org/1999/xlink">
<g id="graph0" class="graph" transform="scale(1 1) rotate(0) translate(4 242.8)">
<title>dependencies</title>
<polygon fill="white" stroke="transparent" points="-4,4 -4,-242.8 548,-242.8 548,4 -4,4"/>
<text text-anchor="middle" x="272" y="-8.2" font-family="sans-serif" font-size="14.00">dependencies</text>
<g id="clust1" class="cluster">
<title>cluster_ValidatorBlockchainModule</title>
<polygon fill="none" stroke="black" stroke-dasharray="1,5" points="8,-32.8 8,-230.8 536,-230.8 536,-32.8 8,-32.8"/>
</g>
<g id="clust4" class="cluster">
<title>cluster_ValidatorBlockchainModule_exports</title>
<polygon fill="none" stroke="black" points="153,-170.8 153,-222.8 457,-222.8 457,-170.8 153,-170.8"/>
</g>
<g id="clust3" class="cluster">
<title>cluster_ValidatorBlockchainModule_imports</title>
<polygon fill="none" stroke="black" points="280,-40.8 280,-92.8 528,-92.8 528,-40.8 280,-40.8"/>
</g>
<g id="clust6" class="cluster">
<title>cluster_ValidatorBlockchainModule_providers</title>
<polygon fill="none" stroke="black" points="16,-40.8 16,-92.8 272,-92.8 272,-40.8 16,-40.8"/>
</g>
<!-- EventClientModule -->
<g id="node1" class="node">
<title>EventClientModule</title>
<polygon fill="#8dd3c7" stroke="black" points="520.43,-84.8 517.43,-88.8 496.43,-88.8 493.43,-84.8 393.57,-84.8 393.57,-48.8 520.43,-48.8 520.43,-84.8"/>
<text text-anchor="middle" x="457" y="-62.6" font-family="Times,serif" font-size="14.00">EventClientModule</text>
</g>
<!-- ValidatorBlockchainModule -->
<g id="node3" class="node">
<title>ValidatorBlockchainModule</title>
<polygon fill="#8dd3c7" stroke="black" points="420.18,-149.8 417.18,-153.8 396.18,-153.8 393.18,-149.8 243.82,-149.8 243.82,-113.8 420.18,-113.8 420.18,-149.8"/>
<text text-anchor="middle" x="332" y="-127.6" font-family="Times,serif" font-size="14.00">ValidatorBlockchainModule</text>
</g>
<!-- EventClientModule&#45;&gt;ValidatorBlockchainModule -->
<g id="edge1" class="edge">
<title>EventClientModule&#45;&gt;ValidatorBlockchainModule</title>
<path fill="none" stroke="black" d="M406.94,-84.91C406.94,-84.91 406.94,-103.79 406.94,-103.79"/>
<polygon fill="black" stroke="black" points="403.44,-103.79 406.94,-113.79 410.44,-103.79 403.44,-103.79"/>
</g>
<!-- HashModule -->
<g id="node2" class="node">
<title>HashModule</title>
<polygon fill="#8dd3c7" stroke="black" points="376.32,-84.8 373.32,-88.8 352.32,-88.8 349.32,-84.8 287.68,-84.8 287.68,-48.8 376.32,-48.8 376.32,-84.8"/>
<text text-anchor="middle" x="332" y="-62.6" font-family="Times,serif" font-size="14.00">HashModule</text>
</g>
<!-- HashModule&#45;&gt;ValidatorBlockchainModule -->
<g id="edge2" class="edge">
<title>HashModule&#45;&gt;ValidatorBlockchainModule</title>
<path fill="none" stroke="black" d="M332,-84.91C332,-84.91 332,-103.79 332,-103.79"/>
<polygon fill="black" stroke="black" points="328.5,-103.79 332,-113.79 335.5,-103.79 328.5,-103.79"/>
</g>
<!-- HashModule  -->
<g id="node4" class="node">
<title>HashModule </title>
<polygon fill="#fb8072" stroke="black" points="448.82,-214.8 357.18,-214.8 357.18,-178.8 448.82,-178.8 448.82,-214.8"/>
<text text-anchor="middle" x="403" y="-192.6" font-family="Times,serif" font-size="14.00">HashModule </text>
</g>
<!-- ValidatorBlockchainModule&#45;&gt;HashModule  -->
<g id="edge3" class="edge">
<title>ValidatorBlockchainModule&#45;&gt;HashModule </title>
<path fill="none" stroke="black" stroke-dasharray="5,2" d="M388.59,-149.91C388.59,-149.91 388.59,-168.79 388.59,-168.79"/>
<polygon fill="black" stroke="black" points="385.09,-168.79 388.59,-178.79 392.09,-168.79 385.09,-168.79"/>
</g>
<!-- ValidatorBlockchainService  -->
<g id="node5" class="node">
<title>ValidatorBlockchainService </title>
<polygon fill="#fb8072" stroke="black" points="339.11,-214.8 160.89,-214.8 160.89,-178.8 339.11,-178.8 339.11,-214.8"/>
<text text-anchor="middle" x="250" y="-192.6" font-family="Times,serif" font-size="14.00">ValidatorBlockchainService </text>
</g>
<!-- ValidatorBlockchainModule&#45;&gt;ValidatorBlockchainService  -->
<g id="edge4" class="edge">
<title>ValidatorBlockchainModule&#45;&gt;ValidatorBlockchainService </title>
<path fill="none" stroke="black" stroke-dasharray="5,2" d="M291.48,-149.91C291.48,-149.91 291.48,-168.79 291.48,-168.79"/>
<polygon fill="black" stroke="black" points="287.98,-168.79 291.48,-178.79 294.98,-168.79 287.98,-168.79"/>
</g>
<!-- ValidatorBlockchainService -->
<g id="node6" class="node">
<title>ValidatorBlockchainService</title>
<ellipse fill="#fdb462" stroke="black" cx="144" cy="-66.8" rx="120.38" ry="18"/>
<text text-anchor="middle" x="144" y="-62.6" font-family="Times,serif" font-size="14.00">ValidatorBlockchainService</text>
</g>
<!-- ValidatorBlockchainService&#45;&gt;ValidatorBlockchainModule -->
<g id="edge5" class="edge">
<title>ValidatorBlockchainService&#45;&gt;ValidatorBlockchainModule</title>
<path fill="none" stroke="black" d="M254.18,-74.26C254.18,-74.26 254.18,-103.64 254.18,-103.64"/>
<polygon fill="black" stroke="black" points="250.68,-103.64 254.18,-113.64 257.68,-103.64 250.68,-103.64"/>
</g>
</g>
</svg>
