<?xml version="1.0" encoding="UTF-8" standalone="no"?>
<!DOCTYPE svg PUBLIC "-//W3C//DTD SVG 1.1//EN"
 "http://www.w3.org/Graphics/SVG/1.1/DTD/svg11.dtd">
<!-- Generated by graphviz version 2.47.3 (20210619.1520)
 -->
<!-- Title: dependencies Pages: 1 -->
<svg width="552pt" height="247pt"
 viewBox="0.00 0.00 552.00 246.80" xmlns="http://www.w3.org/2000/svg" xmlns:xlink="http://www.w3.org/1999/xlink">
<g id="graph0" class="graph" transform="scale(1 1) rotate(0) translate(4 242.8)">
<title>dependencies</title>
<polygon fill="white" stroke="transparent" points="-4,4 -4,-242.8 548,-242.8 548,4 -4,4"/>
<text text-anchor="middle" x="272" y="-8.2" font-family="sans-serif" font-size="14.00">dependencies</text>
<g id="clust1" class="cluster">
<title>cluster_ValidatorBlockchainModule</title>
<polygon fill="none" stroke="black" stroke-dasharray="1,5" points="8,-32.8 8,-230.8 536,-230.8 536,-32.8 8,-32.8"/>
</g>
<g id="clust4" class="cluster">
<title>cluster_ValidatorBlockchainModule_exports</title>
<polygon fill="none" stroke="black" points="56,-170.8 56,-222.8 360,-222.8 360,-170.8 56,-170.8"/>
</g>
<g id="clust6" class="cluster">
<title>cluster_ValidatorBlockchainModule_providers</title>
<polygon fill="none" stroke="black" points="272,-40.8 272,-92.8 528,-92.8 528,-40.8 272,-40.8"/>
</g>
<g id="clust3" class="cluster">
<title>cluster_ValidatorBlockchainModule_imports</title>
<polygon fill="none" stroke="black" points="16,-40.8 16,-92.8 264,-92.8 264,-40.8 16,-40.8"/>
</g>
<!-- EventClientModule -->
<g id="node1" class="node">
<title>EventClientModule</title>
<polygon fill="#8dd3c7" stroke="black" points="256.43,-84.8 253.43,-88.8 232.43,-88.8 229.43,-84.8 129.57,-84.8 129.57,-48.8 256.43,-48.8 256.43,-84.8"/>
<text text-anchor="middle" x="193" y="-62.6" font-family="Times,serif" font-size="14.00">EventClientModule</text>
</g>
<!-- ValidatorBlockchainModule -->
<g id="node3" class="node">
<title>ValidatorBlockchainModule</title>
<polygon fill="#8dd3c7" stroke="black" points="281.18,-149.8 278.18,-153.8 257.18,-153.8 254.18,-149.8 104.82,-149.8 104.82,-113.8 281.18,-113.8 281.18,-149.8"/>
<text text-anchor="middle" x="193" y="-127.6" font-family="Times,serif" font-size="14.00">ValidatorBlockchainModule</text>
</g>
<!-- EventClientModule&#45;&gt;ValidatorBlockchainModule -->
<g id="edge1" class="edge">
<title>EventClientModule&#45;&gt;ValidatorBlockchainModule</title>
<path fill="none" stroke="black" d="M193,-84.91C193,-84.91 193,-103.79 193,-103.79"/>
<polygon fill="black" stroke="black" points="189.5,-103.79 193,-113.79 196.5,-103.79 189.5,-103.79"/>
</g>
<!-- HashModule -->
<g id="node2" class="node">
<title>HashModule</title>
<polygon fill="#8dd3c7" stroke="black" points="112.32,-84.8 109.32,-88.8 88.32,-88.8 85.32,-84.8 23.68,-84.8 23.68,-48.8 112.32,-48.8 112.32,-84.8"/>
<text text-anchor="middle" x="68" y="-62.6" font-family="Times,serif" font-size="14.00">HashModule</text>
</g>
<!-- HashModule&#45;&gt;ValidatorBlockchainModule -->
<g id="edge2" class="edge">
<title>HashModule&#45;&gt;ValidatorBlockchainModule</title>
<path fill="none" stroke="black" d="M108.53,-84.91C108.53,-84.91 108.53,-103.79 108.53,-103.79"/>
<polygon fill="black" stroke="black" points="105.03,-103.79 108.53,-113.79 112.03,-103.79 105.03,-103.79"/>
</g>
<!-- HashModule  -->
<g id="node4" class="node">
<title>HashModule </title>
<polygon fill="#fb8072" stroke="black" points="351.82,-214.8 260.18,-214.8 260.18,-178.8 351.82,-178.8 351.82,-214.8"/>
<text text-anchor="middle" x="306" y="-192.6" font-family="Times,serif" font-size="14.00">HashModule </text>
</g>
<!-- ValidatorBlockchainModule&#45;&gt;HashModule  -->
<g id="edge3" class="edge">
<title>ValidatorBlockchainModule&#45;&gt;HashModule </title>
<path fill="none" stroke="black" stroke-dasharray="5,2" d="M270.59,-149.91C270.59,-149.91 270.59,-168.79 270.59,-168.79"/>
<polygon fill="black" stroke="black" points="267.09,-168.79 270.59,-178.79 274.09,-168.79 267.09,-168.79"/>
</g>
<!-- ValidatorBlockchainService  -->
<g id="node5" class="node">
<title>ValidatorBlockchainService </title>
<polygon fill="#fb8072" stroke="black" points="242.11,-214.8 63.89,-214.8 63.89,-178.8 242.11,-178.8 242.11,-214.8"/>
<text text-anchor="middle" x="153" y="-192.6" font-family="Times,serif" font-size="14.00">ValidatorBlockchainService </text>
</g>
<!-- ValidatorBlockchainModule&#45;&gt;ValidatorBlockchainService  -->
<g id="edge4" class="edge">
<title>ValidatorBlockchainModule&#45;&gt;ValidatorBlockchainService </title>
<path fill="none" stroke="black" stroke-dasharray="5,2" d="M173.48,-149.91C173.48,-149.91 173.48,-168.79 173.48,-168.79"/>
<polygon fill="black" stroke="black" points="169.98,-168.79 173.48,-178.79 176.98,-168.79 169.98,-168.79"/>
</g>
<!-- ValidatorBlockchainService -->
<g id="node6" class="node">
<title>ValidatorBlockchainService</title>
<ellipse fill="#fdb462" stroke="black" cx="400" cy="-66.8" rx="120.38" ry="18"/>
<text text-anchor="middle" x="400" y="-62.6" font-family="Times,serif" font-size="14.00">ValidatorBlockchainService</text>
</g>
<!-- ValidatorBlockchainService&#45;&gt;ValidatorBlockchainModule -->
<g id="edge5" class="edge">
<title>ValidatorBlockchainService&#45;&gt;ValidatorBlockchainModule</title>
<path fill="none" stroke="black" d="M279.15,-66.8C272.15,-66.8 267.89,-66.8 267.89,-66.8 267.89,-66.8 267.89,-103.69 267.89,-103.69"/>
<polygon fill="black" stroke="black" points="264.39,-103.69 267.89,-113.69 271.39,-103.69 264.39,-103.69"/>
</g>
</g>
</svg>
