<?xml version="1.0" encoding="UTF-8" standalone="no"?>
<!DOCTYPE svg PUBLIC "-//W3C//DTD SVG 1.1//EN"
 "http://www.w3.org/Graphics/SVG/1.1/DTD/svg11.dtd">
<!-- Generated by graphviz version 3.0.0 (20220226.1711)
 -->
<!-- Title: dependencies Pages: 1 -->
<svg width="176pt" height="247pt"
 viewBox="0.00 0.00 176.00 246.80" xmlns="http://www.w3.org/2000/svg" xmlns:xlink="http://www.w3.org/1999/xlink">
<g id="graph0" class="graph" transform="scale(1 1) rotate(0) translate(4 242.8)">
<title>dependencies</title>
<polygon fill="white" stroke="transparent" points="-4,4 -4,-242.8 172,-242.8 172,4 -4,4"/>
<text text-anchor="middle" x="84" y="-8.2" font-family="sans-serif" font-size="14.00">dependencies</text>
<g id="clust1" class="cluster">
<title>cluster_HashModule</title>
<polygon fill="none" stroke="black" stroke-dasharray="1,5" points="8,-32.8 8,-230.8 160,-230.8 160,-32.8 8,-32.8"/>
</g>
<g id="clust4" class="cluster">
<title>cluster_HashModule_exports</title>
<polygon fill="none" stroke="black" points="31,-170.8 31,-222.8 137,-222.8 137,-170.8 31,-170.8"/>
</g>
<g id="clust6" class="cluster">
<title>cluster_HashModule_providers</title>
<polygon fill="none" stroke="black" points="16,-40.8 16,-92.8 152,-92.8 152,-40.8 16,-40.8"/>
</g>
<!-- HashService  -->
<g id="node1" class="node">
<title>HashService </title>
<polygon fill="#fb8072" stroke="black" points="129.25,-214.8 38.75,-214.8 38.75,-178.8 129.25,-178.8 129.25,-214.8"/>
<text text-anchor="middle" x="84" y="-192.6" font-family="Times,serif" font-size="14.00">HashService </text>
</g>
<!-- HashModule -->
<g id="node2" class="node">
<title>HashModule</title>
<polygon fill="#8dd3c7" stroke="black" points="128.32,-149.8 125.32,-153.8 104.32,-153.8 101.32,-149.8 39.68,-149.8 39.68,-113.8 128.32,-113.8 128.32,-149.8"/>
<text text-anchor="middle" x="84" y="-127.6" font-family="Times,serif" font-size="14.00">HashModule</text>
</g>
<!-- HashModule&#45;&gt;HashService  -->
<g id="edge1" class="edge">
<title>HashModule&#45;&gt;HashService </title>
<path fill="none" stroke="black" stroke-dasharray="5,2" d="M84,-149.91C84,-149.91 84,-168.79 84,-168.79"/>
<polygon fill="black" stroke="black" points="80.5,-168.79 84,-178.79 87.5,-168.79 80.5,-168.79"/>
</g>
<!-- HashService -->
<g id="node3" class="node">
<title>HashService</title>
<ellipse fill="#fdb462" stroke="black" cx="84" cy="-66.8" rx="59.68" ry="18"/>
<text text-anchor="middle" x="84" y="-62.6" font-family="Times,serif" font-size="14.00">HashService</text>
</g>
<!-- HashService&#45;&gt;HashModule -->
<g id="edge2" class="edge">
<title>HashService&#45;&gt;HashModule</title>
<path fill="none" stroke="black" d="M84,-84.91C84,-84.91 84,-103.79 84,-103.79"/>
<polygon fill="black" stroke="black" points="80.5,-103.79 84,-113.79 87.5,-103.79 80.5,-103.79"/>
</g>
</g>
</svg>
