<?xml version="1.0" encoding="UTF-8" standalone="no"?>
<!DOCTYPE svg PUBLIC "-//W3C//DTD SVG 1.1//EN"
 "http://www.w3.org/Graphics/SVG/1.1/DTD/svg11.dtd">
<!-- Generated by graphviz version 2.47.3 (20210619.1520)
 -->
<!-- Title: dependencies Pages: 1 -->
<svg width="622pt" height="174pt"
 viewBox="0.00 0.00 622.00 173.80" xmlns="http://www.w3.org/2000/svg" xmlns:xlink="http://www.w3.org/1999/xlink">
<g id="graph0" class="graph" transform="scale(1 1) rotate(0) translate(4 169.8)">
<title>dependencies</title>
<polygon fill="white" stroke="transparent" points="-4,4 -4,-169.8 618,-169.8 618,4 -4,4"/>
<text text-anchor="middle" x="307" y="-8.2" font-family="sans-serif" font-size="14.00">dependencies</text>
<g id="clust1" class="cluster">
<title>cluster_DidIdParsingModule</title>
<polygon fill="none" stroke="black" stroke-dasharray="1,5" points="8,-32.8 8,-157.8 606,-157.8 606,-32.8 8,-32.8"/>
</g>
<g id="clust6" class="cluster">
<title>cluster_DidIdParsingModule_providers</title>
<polygon fill="none" stroke="black" points="400,-40.8 400,-92.8 598,-92.8 598,-40.8 400,-40.8"/>
</g>
<g id="clust3" class="cluster">
<title>cluster_DidIdParsingModule_imports</title>
<polygon fill="none" stroke="black" points="16,-40.8 16,-92.8 392,-92.8 392,-40.8 16,-40.8"/>
</g>
<!-- DidIdDbModule -->
<g id="node1" class="node">
<title>DidIdDbModule</title>
<polygon fill="#8dd3c7" stroke="black" points="383.81,-84.8 380.81,-88.8 359.81,-88.8 356.81,-84.8 274.19,-84.8 274.19,-48.8 383.81,-48.8 383.81,-84.8"/>
<text text-anchor="middle" x="329" y="-62.6" font-family="Times,serif" font-size="14.00">DidIdDbModule</text>
</g>
<!-- DidIdParsingModule -->
<g id="node4" class="node">
<title>DidIdParsingModule</title>
<polygon fill="#8dd3c7" stroke="black" points="328.2,-149.8 325.2,-153.8 304.2,-153.8 301.2,-149.8 193.8,-149.8 193.8,-113.8 328.2,-113.8 328.2,-149.8"/>
<text text-anchor="middle" x="261" y="-127.6" font-family="Times,serif" font-size="14.00">DidIdParsingModule</text>
</g>
<!-- DidIdDbModule&#45;&gt;DidIdParsingModule -->
<g id="edge1" class="edge">
<title>DidIdDbModule&#45;&gt;DidIdParsingModule</title>
<path fill="none" stroke="black" d="M301.22,-84.91C301.22,-84.91 301.22,-103.79 301.22,-103.79"/>
<polygon fill="black" stroke="black" points="297.72,-103.79 301.22,-113.79 304.72,-103.79 297.72,-103.79"/>
</g>
<!-- EventClientModule -->
<g id="node2" class="node">
<title>EventClientModule</title>
<polygon fill="#8dd3c7" stroke="black" points="256.43,-84.8 253.43,-88.8 232.43,-88.8 229.43,-84.8 129.57,-84.8 129.57,-48.8 256.43,-48.8 256.43,-84.8"/>
<text text-anchor="middle" x="193" y="-62.6" font-family="Times,serif" font-size="14.00">EventClientModule</text>
</g>
<!-- EventClientModule&#45;&gt;DidIdParsingModule -->
<g id="edge2" class="edge">
<title>EventClientModule&#45;&gt;DidIdParsingModule</title>
<path fill="none" stroke="black" d="M225.06,-84.91C225.06,-84.91 225.06,-103.79 225.06,-103.79"/>
<polygon fill="black" stroke="black" points="221.56,-103.79 225.06,-113.79 228.56,-103.79 221.56,-103.79"/>
</g>
<!-- HashModule -->
<g id="node3" class="node">
<title>HashModule</title>
<polygon fill="#8dd3c7" stroke="black" points="112.32,-84.8 109.32,-88.8 88.32,-88.8 85.32,-84.8 23.68,-84.8 23.68,-48.8 112.32,-48.8 112.32,-84.8"/>
<text text-anchor="middle" x="68" y="-62.6" font-family="Times,serif" font-size="14.00">HashModule</text>
</g>
<!-- HashModule&#45;&gt;DidIdParsingModule -->
<g id="edge3" class="edge">
<title>HashModule&#45;&gt;DidIdParsingModule</title>
<path fill="none" stroke="black" d="M68,-84.91C68,-104.14 68,-131.8 68,-131.8 68,-131.8 183.77,-131.8 183.77,-131.8"/>
<polygon fill="black" stroke="black" points="183.77,-135.3 193.77,-131.8 183.77,-128.3 183.77,-135.3"/>
</g>
<!-- DidIdParsingService -->
<g id="node5" class="node">
<title>DidIdParsingService</title>
<ellipse fill="#fdb462" stroke="black" cx="499" cy="-66.8" rx="91.47" ry="18"/>
<text text-anchor="middle" x="499" y="-62.6" font-family="Times,serif" font-size="14.00">DidIdParsingService</text>
</g>
<!-- DidIdParsingService&#45;&gt;DidIdParsingModule -->
<g id="edge4" class="edge">
<title>DidIdParsingService&#45;&gt;DidIdParsingModule</title>
<path fill="none" stroke="black" d="M499,-84.91C499,-104.14 499,-131.8 499,-131.8 499,-131.8 338.25,-131.8 338.25,-131.8"/>
<polygon fill="black" stroke="black" points="338.25,-128.3 328.25,-131.8 338.25,-135.3 338.25,-128.3"/>
</g>
</g>
</svg>
