<?xml version="1.0" encoding="UTF-8" standalone="no"?>
<!DOCTYPE svg PUBLIC "-//W3C//DTD SVG 1.1//EN"
 "http://www.w3.org/Graphics/SVG/1.1/DTD/svg11.dtd">
<!-- Generated by graphviz version 2.47.3 (20210619.1520)
 -->
<!-- Title: dependencies Pages: 1 -->
<svg width="160pt" height="174pt"
 viewBox="0.00 0.00 160.00 173.80" xmlns="http://www.w3.org/2000/svg" xmlns:xlink="http://www.w3.org/1999/xlink">
<g id="graph0" class="graph" transform="scale(1 1) rotate(0) translate(4 169.8)">
<title>dependencies</title>
<polygon fill="white" stroke="transparent" points="-4,4 -4,-169.8 156,-169.8 156,4 -4,4"/>
<text text-anchor="middle" x="76" y="-8.2" font-family="sans-serif" font-size="14.00">dependencies</text>
<g id="clust1" class="cluster">
<title>cluster_ConfigModule</title>
<polygon fill="none" stroke="black" stroke-dasharray="1,5" points="8,-32.8 8,-157.8 144,-157.8 144,-32.8 8,-32.8"/>
</g>
<g id="clust3" class="cluster">
<title>cluster_ConfigModule_imports</title>
<polygon fill="none" stroke="black" points="16,-40.8 16,-92.8 136,-92.8 136,-40.8 16,-40.8"/>
</g>
<!-- VersionModule -->
<g id="node1" class="node">
<title>VersionModule</title>
<polygon fill="#8dd3c7" stroke="black" points="127.87,-84.8 124.87,-88.8 103.87,-88.8 100.87,-84.8 24.13,-84.8 24.13,-48.8 127.87,-48.8 127.87,-84.8"/>
<text text-anchor="middle" x="76" y="-62.6" font-family="Times,serif" font-size="14.00">VersionModule</text>
</g>
<!-- ConfigModule -->
<g id="node2" class="node">
<title>ConfigModule</title>
<polygon fill="#8dd3c7" stroke="black" points="125.44,-149.8 122.44,-153.8 101.44,-153.8 98.44,-149.8 26.56,-149.8 26.56,-113.8 125.44,-113.8 125.44,-149.8"/>
<text text-anchor="middle" x="76" y="-127.6" font-family="Times,serif" font-size="14.00">ConfigModule</text>
</g>
<!-- VersionModule&#45;&gt;ConfigModule -->
<g id="edge1" class="edge">
<title>VersionModule&#45;&gt;ConfigModule</title>
<path fill="none" stroke="black" d="M76,-84.91C76,-84.91 76,-103.79 76,-103.79"/>
<polygon fill="black" stroke="black" points="72.5,-103.79 76,-113.79 79.5,-103.79 72.5,-103.79"/>
</g>
</g>
</svg>
