<?xml version="1.0" encoding="UTF-8" standalone="no"?>
<!DOCTYPE svg PUBLIC "-//W3C//DTD SVG 1.1//EN"
 "http://www.w3.org/Graphics/SVG/1.1/DTD/svg11.dtd">
<!-- Generated by graphviz version 3.0.0 (20220226.1711)
 -->
<!-- Title: dependencies Pages: 1 -->
<svg width="1901pt" height="247pt"
 viewBox="0.00 0.00 1901.00 246.80" xmlns="http://www.w3.org/2000/svg" xmlns:xlink="http://www.w3.org/1999/xlink">
<g id="graph0" class="graph" transform="scale(1 1) rotate(0) translate(4 242.8)">
<title>dependencies</title>
<polygon fill="white" stroke="transparent" points="-4,4 -4,-242.8 1897,-242.8 1897,4 -4,4"/>
<text text-anchor="middle" x="946.5" y="-8.2" font-family="sans-serif" font-size="14.00">dependencies</text>
<g id="clust1" class="cluster">
<title>cluster_ValidatorConsensusModule</title>
<polygon fill="none" stroke="black" stroke-dasharray="1,5" points="8,-32.8 8,-230.8 1885,-230.8 1885,-32.8 8,-32.8"/>
</g>
<g id="clust4" class="cluster">
<title>cluster_ValidatorConsensusModule_exports</title>
<polygon fill="none" stroke="black" points="526,-170.8 526,-222.8 1099,-222.8 1099,-170.8 526,-170.8"/>
</g>
<g id="clust6" class="cluster">
<title>cluster_ValidatorConsensusModule_providers</title>
<polygon fill="none" stroke="black" points="1045,-40.8 1045,-92.8 1877,-92.8 1877,-40.8 1045,-40.8"/>
</g>
<g id="clust3" class="cluster">
<title>cluster_ValidatorConsensusModule_imports</title>
<polygon fill="none" stroke="black" points="16,-40.8 16,-92.8 1037,-92.8 1037,-40.8 16,-40.8"/>
</g>
<!-- BlockCheckModule -->
<g id="node1" class="node">
<title>BlockCheckModule</title>
<polygon fill="#8dd3c7" stroke="black" points="1029.26,-84.8 1026.26,-88.8 1005.26,-88.8 1002.26,-84.8 900.74,-84.8 900.74,-48.8 1029.26,-48.8 1029.26,-84.8"/>
<text text-anchor="middle" x="965" y="-62.6" font-family="Times,serif" font-size="14.00">BlockCheckModule</text>
</g>
<!-- ValidatorConsensusModule -->
<g id="node8" class="node">
<title>ValidatorConsensusModule</title>
<polygon fill="#8dd3c7" stroke="black" points="902.32,-149.8 899.32,-153.8 878.32,-153.8 875.32,-149.8 729.68,-149.8 729.68,-113.8 902.32,-113.8 902.32,-149.8"/>
<text text-anchor="middle" x="816" y="-127.6" font-family="Times,serif" font-size="14.00">ValidatorConsensusModule</text>
</g>
<!-- BlockCheckModule&#45;&gt;ValidatorConsensusModule -->
<g id="edge1" class="edge">
<title>BlockCheckModule&#45;&gt;ValidatorConsensusModule</title>
<path fill="none" stroke="black" d="M900.54,-66.8C895.23,-66.8 891.86,-66.8 891.86,-66.8 891.86,-66.8 891.86,-103.69 891.86,-103.69"/>
<polygon fill="black" stroke="black" points="888.36,-103.69 891.86,-113.69 895.36,-103.69 888.36,-103.69"/>
</g>
<!-- DidIdCachedModule -->
<g id="node2" class="node">
<title>DidIdCachedModule</title>
<polygon fill="#8dd3c7" stroke="black" points="883.19,-84.8 880.19,-88.8 859.19,-88.8 856.19,-84.8 748.81,-84.8 748.81,-48.8 883.19,-48.8 883.19,-84.8"/>
<text text-anchor="middle" x="816" y="-62.6" font-family="Times,serif" font-size="14.00">DidIdCachedModule</text>
</g>
<!-- DidIdCachedModule&#45;&gt;ValidatorConsensusModule -->
<g id="edge2" class="edge">
<title>DidIdCachedModule&#45;&gt;ValidatorConsensusModule</title>
<path fill="none" stroke="black" d="M816,-84.91C816,-84.91 816,-103.79 816,-103.79"/>
<polygon fill="black" stroke="black" points="812.5,-103.79 816,-113.79 819.5,-103.79 812.5,-103.79"/>
</g>
<!-- P2PModule -->
<g id="node3" class="node">
<title>P2PModule</title>
<polygon fill="#8dd3c7" stroke="black" points="731.12,-84.8 728.12,-88.8 707.12,-88.8 704.12,-84.8 648.88,-84.8 648.88,-48.8 731.12,-48.8 731.12,-84.8"/>
<text text-anchor="middle" x="690" y="-62.6" font-family="Times,serif" font-size="14.00">P2PModule</text>
</g>
<!-- P2PModule&#45;&gt;ValidatorConsensusModule -->
<g id="edge3" class="edge">
<title>P2PModule&#45;&gt;ValidatorConsensusModule</title>
<path fill="none" stroke="black" d="M731.28,-66.8C736.46,-66.8 739.98,-66.8 739.98,-66.8 739.98,-66.8 739.98,-103.69 739.98,-103.69"/>
<polygon fill="black" stroke="black" points="736.48,-103.69 739.98,-113.69 743.48,-103.69 736.48,-103.69"/>
</g>
<!-- PersistClientModule -->
<g id="node4" class="node">
<title>PersistClientModule</title>
<polygon fill="#8dd3c7" stroke="black" points="630.61,-84.8 627.61,-88.8 606.61,-88.8 603.61,-84.8 499.39,-84.8 499.39,-48.8 630.61,-48.8 630.61,-84.8"/>
<text text-anchor="middle" x="565" y="-62.6" font-family="Times,serif" font-size="14.00">PersistClientModule</text>
</g>
<!-- PersistClientModule&#45;&gt;ValidatorConsensusModule -->
<g id="edge4" class="edge">
<title>PersistClientModule&#45;&gt;ValidatorConsensusModule</title>
<path fill="none" stroke="black" d="M582.22,-85.04C582.22,-100.37 582.22,-119.8 582.22,-119.8 582.22,-119.8 719.61,-119.8 719.61,-119.8"/>
<polygon fill="black" stroke="black" points="719.61,-123.3 729.61,-119.8 719.61,-116.3 719.61,-123.3"/>
</g>
<!-- SignatureModule -->
<g id="node5" class="node">
<title>SignatureModule</title>
<polygon fill="#8dd3c7" stroke="black" points="481.71,-84.8 478.71,-88.8 457.71,-88.8 454.71,-84.8 368.29,-84.8 368.29,-48.8 481.71,-48.8 481.71,-84.8"/>
<text text-anchor="middle" x="425" y="-62.6" font-family="Times,serif" font-size="14.00">SignatureModule</text>
</g>
<!-- SignatureModule&#45;&gt;ValidatorConsensusModule -->
<g id="edge5" class="edge">
<title>SignatureModule&#45;&gt;ValidatorConsensusModule</title>
<path fill="none" stroke="black" d="M425,-84.82C425,-102.17 425,-125.8 425,-125.8 425,-125.8 719.71,-125.8 719.71,-125.8"/>
<polygon fill="black" stroke="black" points="719.71,-129.3 729.71,-125.8 719.71,-122.3 719.71,-129.3"/>
</g>
<!-- ValidatorBlockchainModule -->
<g id="node6" class="node">
<title>ValidatorBlockchainModule</title>
<polygon fill="#8dd3c7" stroke="black" points="350.18,-84.8 347.18,-88.8 326.18,-88.8 323.18,-84.8 173.82,-84.8 173.82,-48.8 350.18,-48.8 350.18,-84.8"/>
<text text-anchor="middle" x="262" y="-62.6" font-family="Times,serif" font-size="14.00">ValidatorBlockchainModule</text>
</g>
<!-- ValidatorBlockchainModule&#45;&gt;ValidatorConsensusModule -->
<g id="edge6" class="edge">
<title>ValidatorBlockchainModule&#45;&gt;ValidatorConsensusModule</title>
<path fill="none" stroke="black" d="M262,-84.91C262,-104.14 262,-131.8 262,-131.8 262,-131.8 719.74,-131.8 719.74,-131.8"/>
<polygon fill="black" stroke="black" points="719.74,-135.3 729.74,-131.8 719.74,-128.3 719.74,-135.3"/>
</g>
<!-- WalletClientModule -->
<g id="node7" class="node">
<title>WalletClientModule</title>
<polygon fill="#8dd3c7" stroke="black" points="155.58,-84.8 152.58,-88.8 131.58,-88.8 128.58,-84.8 24.42,-84.8 24.42,-48.8 155.58,-48.8 155.58,-84.8"/>
<text text-anchor="middle" x="90" y="-62.6" font-family="Times,serif" font-size="14.00">WalletClientModule</text>
</g>
<!-- WalletClientModule&#45;&gt;ValidatorConsensusModule -->
<g id="edge7" class="edge">
<title>WalletClientModule&#45;&gt;ValidatorConsensusModule</title>
<path fill="none" stroke="black" d="M90,-85.08C90,-106.12 90,-137.8 90,-137.8 90,-137.8 719.51,-137.8 719.51,-137.8"/>
<polygon fill="black" stroke="black" points="719.51,-141.3 729.51,-137.8 719.51,-134.3 719.51,-141.3"/>
</g>
<!-- ConsensusHealthIndicator  -->
<g id="node9" class="node">
<title>ConsensusHealthIndicator </title>
<polygon fill="#fb8072" stroke="black" points="1090.75,-214.8 923.25,-214.8 923.25,-178.8 1090.75,-178.8 1090.75,-214.8"/>
<text text-anchor="middle" x="1007" y="-192.6" font-family="Times,serif" font-size="14.00">ConsensusHealthIndicator </text>
</g>
<!-- ValidatorConsensusModule&#45;&gt;ConsensusHealthIndicator  -->
<g id="edge8" class="edge">
<title>ValidatorConsensusModule&#45;&gt;ConsensusHealthIndicator </title>
<path fill="none" stroke="black" stroke-dasharray="5,2" d="M902.29,-143.8C940.25,-143.8 976.38,-143.8 976.38,-143.8 976.38,-143.8 976.38,-168.56 976.38,-168.56"/>
<polygon fill="black" stroke="black" points="972.88,-168.56 976.38,-178.56 979.88,-168.56 972.88,-168.56"/>
</g>
<!-- ValidatorBlockchainModule  -->
<g id="node10" class="node">
<title>ValidatorBlockchainModule </title>
<polygon fill="#fb8072" stroke="black" points="905.68,-214.8 726.32,-214.8 726.32,-178.8 905.68,-178.8 905.68,-214.8"/>
<text text-anchor="middle" x="816" y="-192.6" font-family="Times,serif" font-size="14.00">ValidatorBlockchainModule </text>
</g>
<!-- ValidatorConsensusModule&#45;&gt;ValidatorBlockchainModule  -->
<g id="edge9" class="edge">
<title>ValidatorConsensusModule&#45;&gt;ValidatorBlockchainModule </title>
<path fill="none" stroke="black" stroke-dasharray="5,2" d="M816,-149.91C816,-149.91 816,-168.79 816,-168.79"/>
<polygon fill="black" stroke="black" points="812.5,-168.79 816,-178.79 819.5,-168.79 812.5,-168.79"/>
</g>
<!-- ValidatorConsensusService  -->
<g id="node11" class="node">
<title>ValidatorConsensusService </title>
<polygon fill="#fb8072" stroke="black" points="708.25,-214.8 533.75,-214.8 533.75,-178.8 708.25,-178.8 708.25,-214.8"/>
<text text-anchor="middle" x="621" y="-192.6" font-family="Times,serif" font-size="14.00">ValidatorConsensusService </text>
</g>
<!-- ValidatorConsensusModule&#45;&gt;ValidatorConsensusService  -->
<g id="edge10" class="edge">
<title>ValidatorConsensusModule&#45;&gt;ValidatorConsensusService </title>
<path fill="none" stroke="black" stroke-dasharray="5,2" d="M729.72,-143.8C702.1,-143.8 678.53,-143.8 678.53,-143.8 678.53,-143.8 678.53,-168.56 678.53,-168.56"/>
<polygon fill="black" stroke="black" points="675.03,-168.56 678.53,-178.56 682.03,-168.56 675.03,-168.56"/>
</g>
<!-- ConsensusHealthIndicator -->
<g id="node12" class="node">
<title>ConsensusHealthIndicator</title>
<ellipse fill="#fdb462" stroke="black" cx="1756" cy="-66.8" rx="112.9" ry="18"/>
<text text-anchor="middle" x="1756" y="-62.6" font-family="Times,serif" font-size="14.00">ConsensusHealthIndicator</text>
</g>
<!-- ConsensusHealthIndicator&#45;&gt;ValidatorConsensusModule -->
<g id="edge11" class="edge">
<title>ConsensusHealthIndicator&#45;&gt;ValidatorConsensusModule</title>
<path fill="none" stroke="black" d="M1756,-85.08C1756,-106.12 1756,-137.8 1756,-137.8 1756,-137.8 912.33,-137.8 912.33,-137.8"/>
<polygon fill="black" stroke="black" points="912.33,-134.3 902.33,-137.8 912.33,-141.3 912.33,-134.3"/>
</g>
<!-- ProposerService -->
<g id="node13" class="node">
<title>ProposerService</title>
<ellipse fill="#fdb462" stroke="black" cx="1551" cy="-66.8" rx="74.15" ry="18"/>
<text text-anchor="middle" x="1551" y="-62.6" font-family="Times,serif" font-size="14.00">ProposerService</text>
</g>
<!-- ProposerService&#45;&gt;ValidatorConsensusModule -->
<g id="edge12" class="edge">
<title>ProposerService&#45;&gt;ValidatorConsensusModule</title>
<path fill="none" stroke="black" d="M1551,-84.91C1551,-104.14 1551,-131.8 1551,-131.8 1551,-131.8 912.48,-131.8 912.48,-131.8"/>
<polygon fill="black" stroke="black" points="912.48,-128.3 902.48,-131.8 912.48,-135.3 912.48,-128.3"/>
</g>
<!-- ValidatorConsensusService -->
<g id="node14" class="node">
<title>ValidatorConsensusService</title>
<ellipse fill="#fdb462" stroke="black" cx="1341" cy="-66.8" rx="117.55" ry="18"/>
<text text-anchor="middle" x="1341" y="-62.6" font-family="Times,serif" font-size="14.00">ValidatorConsensusService</text>
</g>
<!-- ValidatorConsensusService&#45;&gt;ValidatorConsensusModule -->
<g id="edge13" class="edge">
<title>ValidatorConsensusService&#45;&gt;ValidatorConsensusModule</title>
<path fill="none" stroke="black" d="M1341,-84.82C1341,-102.17 1341,-125.8 1341,-125.8 1341,-125.8 912.4,-125.8 912.4,-125.8"/>
<polygon fill="black" stroke="black" points="912.4,-122.3 902.4,-125.8 912.4,-129.3 912.4,-122.3"/>
</g>
<!-- ValidatorService -->
<g id="node15" class="node">
<title>ValidatorService</title>
<ellipse fill="#fdb462" stroke="black" cx="1129" cy="-66.8" rx="76.42" ry="18"/>
<text text-anchor="middle" x="1129" y="-62.6" font-family="Times,serif" font-size="14.00">ValidatorService</text>
</g>
<!-- ValidatorService&#45;&gt;ValidatorConsensusModule -->
<g id="edge14" class="edge">
<title>ValidatorService&#45;&gt;ValidatorConsensusModule</title>
<path fill="none" stroke="black" d="M1071.58,-78.83C1071.58,-94.46 1071.58,-119.8 1071.58,-119.8 1071.58,-119.8 912.17,-119.8 912.17,-119.8"/>
<polygon fill="black" stroke="black" points="912.17,-116.3 902.17,-119.8 912.17,-123.3 912.17,-116.3"/>
</g>
</g>
</svg>
