<?xml version="1.0" encoding="UTF-8" standalone="no"?>
<!DOCTYPE svg PUBLIC "-//W3C//DTD SVG 1.1//EN"
 "http://www.w3.org/Graphics/SVG/1.1/DTD/svg11.dtd">
<!-- Generated by graphviz version 3.0.0 (20220226.1711)
 -->
<!-- Title: dependencies Pages: 1 -->
<svg width="521pt" height="247pt"
 viewBox="0.00 0.00 521.00 246.80" xmlns="http://www.w3.org/2000/svg" xmlns:xlink="http://www.w3.org/1999/xlink">
<g id="graph0" class="graph" transform="scale(1 1) rotate(0) translate(4 242.8)">
<title>dependencies</title>
<polygon fill="white" stroke="transparent" points="-4,4 -4,-242.8 517,-242.8 517,4 -4,4"/>
<text text-anchor="middle" x="256.5" y="-8.2" font-family="sans-serif" font-size="14.00">dependencies</text>
<g id="clust1" class="cluster">
<title>cluster_DidIdCachedModule</title>
<polygon fill="none" stroke="black" stroke-dasharray="1,5" points="8,-32.8 8,-230.8 505,-230.8 505,-32.8 8,-32.8"/>
</g>
<g id="clust6" class="cluster">
<title>cluster_DidIdCachedModule_providers</title>
<polygon fill="none" stroke="black" points="299,-40.8 299,-92.8 497,-92.8 497,-40.8 299,-40.8"/>
</g>
<g id="clust4" class="cluster">
<title>cluster_DidIdCachedModule_exports</title>
<polygon fill="none" stroke="black" points="152,-170.8 152,-222.8 304,-222.8 304,-170.8 152,-170.8"/>
</g>
<g id="clust3" class="cluster">
<title>cluster_DidIdCachedModule_imports</title>
<polygon fill="none" stroke="black" points="16,-40.8 16,-92.8 291,-92.8 291,-40.8 16,-40.8"/>
</g>
<!-- DidIdDbModule -->
<g id="node1" class="node">
<title>DidIdDbModule</title>
<polygon fill="#8dd3c7" stroke="black" points="282.82,-84.8 279.82,-88.8 258.82,-88.8 255.82,-84.8 173.18,-84.8 173.18,-48.8 282.82,-48.8 282.82,-84.8"/>
<text text-anchor="middle" x="228" y="-62.6" font-family="Times,serif" font-size="14.00">DidIdDbModule</text>
</g>
<!-- DidIdCachedModule -->
<g id="node3" class="node">
<title>DidIdCachedModule</title>
<polygon fill="#8dd3c7" stroke="black" points="295.19,-149.8 292.19,-153.8 271.19,-153.8 268.19,-149.8 160.81,-149.8 160.81,-113.8 295.19,-113.8 295.19,-149.8"/>
<text text-anchor="middle" x="228" y="-127.6" font-family="Times,serif" font-size="14.00">DidIdCachedModule</text>
</g>
<!-- DidIdDbModule&#45;&gt;DidIdCachedModule -->
<g id="edge1" class="edge">
<title>DidIdDbModule&#45;&gt;DidIdCachedModule</title>
<path fill="none" stroke="black" d="M228,-84.91C228,-84.91 228,-103.79 228,-103.79"/>
<polygon fill="black" stroke="black" points="224.5,-103.79 228,-113.79 231.5,-103.79 224.5,-103.79"/>
</g>
<!-- PersistClientModule -->
<g id="node2" class="node">
<title>PersistClientModule</title>
<polygon fill="#8dd3c7" stroke="black" points="155.61,-84.8 152.61,-88.8 131.61,-88.8 128.61,-84.8 24.39,-84.8 24.39,-48.8 155.61,-48.8 155.61,-84.8"/>
<text text-anchor="middle" x="90" y="-62.6" font-family="Times,serif" font-size="14.00">PersistClientModule</text>
</g>
<!-- PersistClientModule&#45;&gt;DidIdCachedModule -->
<g id="edge2" class="edge">
<title>PersistClientModule&#45;&gt;DidIdCachedModule</title>
<path fill="none" stroke="black" d="M155.74,-66.8C162.6,-66.8 167.12,-66.8 167.12,-66.8 167.12,-66.8 167.12,-103.69 167.12,-103.69"/>
<polygon fill="black" stroke="black" points="163.62,-103.69 167.12,-113.69 170.62,-103.69 163.62,-103.69"/>
</g>
<!-- DidIdCachedService  -->
<g id="node4" class="node">
<title>DidIdCachedService </title>
<polygon fill="#fb8072" stroke="black" points="296.12,-214.8 159.88,-214.8 159.88,-178.8 296.12,-178.8 296.12,-214.8"/>
<text text-anchor="middle" x="228" y="-192.6" font-family="Times,serif" font-size="14.00">DidIdCachedService </text>
</g>
<!-- DidIdCachedModule&#45;&gt;DidIdCachedService  -->
<g id="edge3" class="edge">
<title>DidIdCachedModule&#45;&gt;DidIdCachedService </title>
<path fill="none" stroke="black" stroke-dasharray="5,2" d="M228,-149.91C228,-149.91 228,-168.79 228,-168.79"/>
<polygon fill="black" stroke="black" points="224.5,-168.79 228,-178.79 231.5,-168.79 224.5,-168.79"/>
</g>
<!-- DidIdCachedService -->
<g id="node5" class="node">
<title>DidIdCachedService</title>
<ellipse fill="#fdb462" stroke="black" cx="398" cy="-66.8" rx="91.46" ry="18"/>
<text text-anchor="middle" x="398" y="-62.6" font-family="Times,serif" font-size="14.00">DidIdCachedService</text>
</g>
<!-- DidIdCachedService&#45;&gt;DidIdCachedModule -->
<g id="edge4" class="edge">
<title>DidIdCachedService&#45;&gt;DidIdCachedModule</title>
<path fill="none" stroke="black" d="M306.41,-66.8C295.91,-66.8 288.88,-66.8 288.88,-66.8 288.88,-66.8 288.88,-103.69 288.88,-103.69"/>
<polygon fill="black" stroke="black" points="285.38,-103.69 288.88,-113.69 292.38,-103.69 285.38,-103.69"/>
</g>
</g>
</svg>
