<?xml version="1.0" encoding="UTF-8" standalone="no"?>
<!DOCTYPE svg PUBLIC "-//W3C//DTD SVG 1.1//EN"
 "http://www.w3.org/Graphics/SVG/1.1/DTD/svg11.dtd">
<!-- Generated by graphviz version 2.47.3 (20210619.1520)
 -->
<!-- Title: dependencies Pages: 1 -->
<svg width="986pt" height="174pt"
 viewBox="0.00 0.00 986.00 173.80" xmlns="http://www.w3.org/2000/svg" xmlns:xlink="http://www.w3.org/1999/xlink">
<g id="graph0" class="graph" transform="scale(1 1) rotate(0) translate(4 169.8)">
<title>dependencies</title>
<polygon fill="white" stroke="transparent" points="-4,4 -4,-169.8 982,-169.8 982,4 -4,4"/>
<text text-anchor="middle" x="489" y="-8.2" font-family="sans-serif" font-size="14.00">dependencies</text>
<g id="clust1" class="cluster">
<title>cluster_TemplateParsingModule</title>
<polygon fill="none" stroke="black" stroke-dasharray="1,5" points="8,-32.8 8,-157.8 970,-157.8 970,-32.8 8,-32.8"/>
</g>
<g id="clust3" class="cluster">
<title>cluster_TemplateParsingModule_imports</title>
<polygon fill="none" stroke="black" points="250,-40.8 250,-92.8 962,-92.8 962,-40.8 250,-40.8"/>
</g>
<g id="clust6" class="cluster">
<title>cluster_TemplateParsingModule_providers</title>
<polygon fill="none" stroke="black" points="16,-40.8 16,-92.8 242,-92.8 242,-40.8 16,-40.8"/>
</g>
<!-- DidIdCachedModule -->
<g id="node1" class="node">
<title>DidIdCachedModule</title>
<polygon fill="#8dd3c7" stroke="black" points="954.19,-84.8 951.19,-88.8 930.19,-88.8 927.19,-84.8 819.81,-84.8 819.81,-48.8 954.19,-48.8 954.19,-84.8"/>
<text text-anchor="middle" x="887" y="-62.6" font-family="Times,serif" font-size="14.00">DidIdCachedModule</text>
</g>
<!-- TemplateParsingModule -->
<g id="node6" class="node">
<title>TemplateParsingModule</title>
<polygon fill="#8dd3c7" stroke="black" points="623.41,-149.8 620.41,-153.8 599.41,-153.8 596.41,-149.8 468.59,-149.8 468.59,-113.8 623.41,-113.8 623.41,-149.8"/>
<text text-anchor="middle" x="546" y="-127.6" font-family="Times,serif" font-size="14.00">TemplateParsingModule</text>
</g>
<!-- DidIdCachedModule&#45;&gt;TemplateParsingModule -->
<g id="edge1" class="edge">
<title>DidIdCachedModule&#45;&gt;TemplateParsingModule</title>
<path fill="none" stroke="black" d="M887,-85.08C887,-106.12 887,-137.8 887,-137.8 887,-137.8 633.38,-137.8 633.38,-137.8"/>
<polygon fill="black" stroke="black" points="633.38,-134.3 623.38,-137.8 633.38,-141.3 633.38,-134.3"/>
</g>
<!-- EventClientModule -->
<g id="node2" class="node">
<title>EventClientModule</title>
<polygon fill="#8dd3c7" stroke="black" points="802.43,-84.8 799.43,-88.8 778.43,-88.8 775.43,-84.8 675.57,-84.8 675.57,-48.8 802.43,-48.8 802.43,-84.8"/>
<text text-anchor="middle" x="739" y="-62.6" font-family="Times,serif" font-size="14.00">EventClientModule</text>
</g>
<!-- EventClientModule&#45;&gt;TemplateParsingModule -->
<g id="edge2" class="edge">
<title>EventClientModule&#45;&gt;TemplateParsingModule</title>
<path fill="none" stroke="black" d="M739,-84.82C739,-102.17 739,-125.8 739,-125.8 739,-125.8 633.39,-125.8 633.39,-125.8"/>
<polygon fill="black" stroke="black" points="633.39,-122.3 623.39,-125.8 633.39,-129.3 633.39,-122.3"/>
</g>
<!-- HashModule -->
<g id="node3" class="node">
<title>HashModule</title>
<polygon fill="#8dd3c7" stroke="black" points="658.32,-84.8 655.32,-88.8 634.32,-88.8 631.32,-84.8 569.68,-84.8 569.68,-48.8 658.32,-48.8 658.32,-84.8"/>
<text text-anchor="middle" x="614" y="-62.6" font-family="Times,serif" font-size="14.00">HashModule</text>
</g>
<!-- HashModule&#45;&gt;TemplateParsingModule -->
<g id="edge3" class="edge">
<title>HashModule&#45;&gt;TemplateParsingModule</title>
<path fill="none" stroke="black" d="M596.52,-84.91C596.52,-84.91 596.52,-103.79 596.52,-103.79"/>
<polygon fill="black" stroke="black" points="593.02,-103.79 596.52,-113.79 600.02,-103.79 593.02,-103.79"/>
</g>
<!-- SchemaCachedModule -->
<g id="node4" class="node">
<title>SchemaCachedModule</title>
<polygon fill="#8dd3c7" stroke="black" points="551.85,-84.8 548.85,-88.8 527.85,-88.8 524.85,-84.8 406.15,-84.8 406.15,-48.8 551.85,-48.8 551.85,-84.8"/>
<text text-anchor="middle" x="479" y="-62.6" font-family="Times,serif" font-size="14.00">SchemaCachedModule</text>
</g>
<!-- SchemaCachedModule&#45;&gt;TemplateParsingModule -->
<g id="edge4" class="edge">
<title>SchemaCachedModule&#45;&gt;TemplateParsingModule</title>
<path fill="none" stroke="black" d="M510.36,-84.91C510.36,-84.91 510.36,-103.79 510.36,-103.79"/>
<polygon fill="black" stroke="black" points="506.86,-103.79 510.36,-113.79 513.86,-103.79 506.86,-103.79"/>
</g>
<!-- TemplateDbModule -->
<g id="node5" class="node">
<title>TemplateDbModule</title>
<polygon fill="#8dd3c7" stroke="black" points="387.53,-84.8 384.53,-88.8 363.53,-88.8 360.53,-84.8 258.47,-84.8 258.47,-48.8 387.53,-48.8 387.53,-84.8"/>
<text text-anchor="middle" x="323" y="-62.6" font-family="Times,serif" font-size="14.00">TemplateDbModule</text>
</g>
<!-- TemplateDbModule&#45;&gt;TemplateParsingModule -->
<g id="edge5" class="edge">
<title>TemplateDbModule&#45;&gt;TemplateParsingModule</title>
<path fill="none" stroke="black" d="M323,-84.82C323,-102.17 323,-125.8 323,-125.8 323,-125.8 458.63,-125.8 458.63,-125.8"/>
<polygon fill="black" stroke="black" points="458.63,-129.3 468.63,-125.8 458.63,-122.3 458.63,-129.3"/>
</g>
<!-- TemplateParsingService -->
<g id="node7" class="node">
<title>TemplateParsingService</title>
<ellipse fill="#fdb462" stroke="black" cx="129" cy="-66.8" rx="105.35" ry="18"/>
<text text-anchor="middle" x="129" y="-62.6" font-family="Times,serif" font-size="14.00">TemplateParsingService</text>
</g>
<!-- TemplateParsingService&#45;&gt;TemplateParsingModule -->
<g id="edge6" class="edge">
<title>TemplateParsingService&#45;&gt;TemplateParsingModule</title>
<path fill="none" stroke="black" d="M129,-85.08C129,-106.12 129,-137.8 129,-137.8 129,-137.8 458.54,-137.8 458.54,-137.8"/>
<polygon fill="black" stroke="black" points="458.54,-141.3 468.54,-137.8 458.54,-134.3 458.54,-141.3"/>
</g>
</g>
</svg>
