<?xml version="1.0" encoding="UTF-8" standalone="no"?>
<!DOCTYPE svg PUBLIC "-//W3C//DTD SVG 1.1//EN"
 "http://www.w3.org/Graphics/SVG/1.1/DTD/svg11.dtd">
<!-- Generated by graphviz version 2.47.3 (20210619.1520)
 -->
<!-- Title: dependencies Pages: 1 -->
<svg width="986pt" height="174pt"
 viewBox="0.00 0.00 986.00 173.80" xmlns="http://www.w3.org/2000/svg" xmlns:xlink="http://www.w3.org/1999/xlink">
<g id="graph0" class="graph" transform="scale(1 1) rotate(0) translate(4 169.8)">
<title>dependencies</title>
<polygon fill="white" stroke="transparent" points="-4,4 -4,-169.8 982,-169.8 982,4 -4,4"/>
<text text-anchor="middle" x="489" y="-8.2" font-family="sans-serif" font-size="14.00">dependencies</text>
<g id="clust1" class="cluster">
<title>cluster_TemplateParsingModule</title>
<polygon fill="none" stroke="black" stroke-dasharray="1,5" points="8,-32.8 8,-157.8 970,-157.8 970,-32.8 8,-32.8"/>
</g>
<g id="clust6" class="cluster">
<title>cluster_TemplateParsingModule_providers</title>
<polygon fill="none" stroke="black" points="736,-40.8 736,-92.8 962,-92.8 962,-40.8 736,-40.8"/>
</g>
<g id="clust3" class="cluster">
<title>cluster_TemplateParsingModule_imports</title>
<polygon fill="none" stroke="black" points="16,-40.8 16,-92.8 728,-92.8 728,-40.8 16,-40.8"/>
</g>
<!-- DidIdCachedModule -->
<g id="node1" class="node">
<title>DidIdCachedModule</title>
<polygon fill="#8dd3c7" stroke="black" points="720.19,-84.8 717.19,-88.8 696.19,-88.8 693.19,-84.8 585.81,-84.8 585.81,-48.8 720.19,-48.8 720.19,-84.8"/>
<text text-anchor="middle" x="653" y="-62.6" font-family="Times,serif" font-size="14.00">DidIdCachedModule</text>
</g>
<!-- TemplateParsingModule -->
<g id="node6" class="node">
<title>TemplateParsingModule</title>
<polygon fill="#8dd3c7" stroke="black" points="519.41,-149.8 516.41,-153.8 495.41,-153.8 492.41,-149.8 364.59,-149.8 364.59,-113.8 519.41,-113.8 519.41,-149.8"/>
<text text-anchor="middle" x="442" y="-127.6" font-family="Times,serif" font-size="14.00">TemplateParsingModule</text>
</g>
<!-- DidIdCachedModule&#45;&gt;TemplateParsingModule -->
<g id="edge1" class="edge">
<title>DidIdCachedModule&#45;&gt;TemplateParsingModule</title>
<path fill="none" stroke="black" d="M653,-84.82C653,-102.17 653,-125.8 653,-125.8 653,-125.8 529.37,-125.8 529.37,-125.8"/>
<polygon fill="black" stroke="black" points="529.37,-122.3 519.37,-125.8 529.37,-129.3 529.37,-122.3"/>
</g>
<!-- EventClientModule -->
<g id="node2" class="node">
<title>EventClientModule</title>
<polygon fill="#8dd3c7" stroke="black" points="568.43,-84.8 565.43,-88.8 544.43,-88.8 541.43,-84.8 441.57,-84.8 441.57,-48.8 568.43,-48.8 568.43,-84.8"/>
<text text-anchor="middle" x="505" y="-62.6" font-family="Times,serif" font-size="14.00">EventClientModule</text>
</g>
<!-- EventClientModule&#45;&gt;TemplateParsingModule -->
<g id="edge2" class="edge">
<title>EventClientModule&#45;&gt;TemplateParsingModule</title>
<path fill="none" stroke="black" d="M480.5,-84.91C480.5,-84.91 480.5,-103.79 480.5,-103.79"/>
<polygon fill="black" stroke="black" points="477,-103.79 480.5,-113.79 484,-103.79 477,-103.79"/>
</g>
<!-- HashModule -->
<g id="node3" class="node">
<title>HashModule</title>
<polygon fill="#8dd3c7" stroke="black" points="424.32,-84.8 421.32,-88.8 400.32,-88.8 397.32,-84.8 335.68,-84.8 335.68,-48.8 424.32,-48.8 424.32,-84.8"/>
<text text-anchor="middle" x="380" y="-62.6" font-family="Times,serif" font-size="14.00">HashModule</text>
</g>
<!-- HashModule&#45;&gt;TemplateParsingModule -->
<g id="edge3" class="edge">
<title>HashModule&#45;&gt;TemplateParsingModule</title>
<path fill="none" stroke="black" d="M394.48,-84.91C394.48,-84.91 394.48,-103.79 394.48,-103.79"/>
<polygon fill="black" stroke="black" points="390.98,-103.79 394.48,-113.79 397.98,-103.79 390.98,-103.79"/>
</g>
<!-- SchemaCachedModule -->
<g id="node4" class="node">
<title>SchemaCachedModule</title>
<polygon fill="#8dd3c7" stroke="black" points="317.85,-84.8 314.85,-88.8 293.85,-88.8 290.85,-84.8 172.15,-84.8 172.15,-48.8 317.85,-48.8 317.85,-84.8"/>
<text text-anchor="middle" x="245" y="-62.6" font-family="Times,serif" font-size="14.00">SchemaCachedModule</text>
</g>
<!-- SchemaCachedModule&#45;&gt;TemplateParsingModule -->
<g id="edge4" class="edge">
<title>SchemaCachedModule&#45;&gt;TemplateParsingModule</title>
<path fill="none" stroke="black" d="M245,-84.82C245,-102.17 245,-125.8 245,-125.8 245,-125.8 354.71,-125.8 354.71,-125.8"/>
<polygon fill="black" stroke="black" points="354.71,-129.3 364.71,-125.8 354.71,-122.3 354.71,-129.3"/>
</g>
<!-- TemplateDbModule -->
<g id="node5" class="node">
<title>TemplateDbModule</title>
<polygon fill="#8dd3c7" stroke="black" points="153.53,-84.8 150.53,-88.8 129.53,-88.8 126.53,-84.8 24.47,-84.8 24.47,-48.8 153.53,-48.8 153.53,-84.8"/>
<text text-anchor="middle" x="89" y="-62.6" font-family="Times,serif" font-size="14.00">TemplateDbModule</text>
</g>
<!-- TemplateDbModule&#45;&gt;TemplateParsingModule -->
<g id="edge5" class="edge">
<title>TemplateDbModule&#45;&gt;TemplateParsingModule</title>
<path fill="none" stroke="black" d="M89,-85.08C89,-106.12 89,-137.8 89,-137.8 89,-137.8 354.53,-137.8 354.53,-137.8"/>
<polygon fill="black" stroke="black" points="354.53,-141.3 364.53,-137.8 354.53,-134.3 354.53,-141.3"/>
</g>
<!-- TemplateParsingService -->
<g id="node7" class="node">
<title>TemplateParsingService</title>
<ellipse fill="#fdb462" stroke="black" cx="849" cy="-66.8" rx="105.35" ry="18"/>
<text text-anchor="middle" x="849" y="-62.6" font-family="Times,serif" font-size="14.00">TemplateParsingService</text>
</g>
<!-- TemplateParsingService&#45;&gt;TemplateParsingModule -->
<g id="edge6" class="edge">
<title>TemplateParsingService&#45;&gt;TemplateParsingModule</title>
<path fill="none" stroke="black" d="M849,-85.08C849,-106.12 849,-137.8 849,-137.8 849,-137.8 529.51,-137.8 529.51,-137.8"/>
<polygon fill="black" stroke="black" points="529.51,-134.3 519.51,-137.8 529.51,-141.3 529.51,-134.3"/>
</g>
</g>
</svg>
