<?xml version="1.0" encoding="UTF-8" standalone="no"?>
<!DOCTYPE svg PUBLIC "-//W3C//DTD SVG 1.1//EN"
 "http://www.w3.org/Graphics/SVG/1.1/DTD/svg11.dtd">
<!-- Generated by graphviz version 2.47.3 (20210619.1520)
 -->
<!-- Title: dependencies Pages: 1 -->
<svg width="1304pt" height="247pt"
 viewBox="0.00 0.00 1304.00 246.80" xmlns="http://www.w3.org/2000/svg" xmlns:xlink="http://www.w3.org/1999/xlink">
<g id="graph0" class="graph" transform="scale(1 1) rotate(0) translate(4 242.8)">
<title>dependencies</title>
<polygon fill="white" stroke="transparent" points="-4,4 -4,-242.8 1300,-242.8 1300,4 -4,4"/>
<text text-anchor="middle" x="648" y="-8.2" font-family="sans-serif" font-size="14.00">dependencies</text>
<g id="clust1" class="cluster">
<title>cluster_ValidatorDidModule</title>
<polygon fill="none" stroke="black" stroke-dasharray="1,5" points="8,-32.8 8,-230.8 1288,-230.8 1288,-32.8 8,-32.8"/>
</g>
<g id="clust4" class="cluster">
<title>cluster_ValidatorDidModule_exports</title>
<polygon fill="none" stroke="black" points="652,-170.8 652,-222.8 918,-222.8 918,-170.8 652,-170.8"/>
</g>
<g id="clust3" class="cluster">
<title>cluster_ValidatorDidModule_imports</title>
<polygon fill="none" stroke="black" points="222,-40.8 222,-92.8 1280,-92.8 1280,-40.8 222,-40.8"/>
</g>
<g id="clust6" class="cluster">
<title>cluster_ValidatorDidModule_providers</title>
<polygon fill="none" stroke="black" points="16,-40.8 16,-92.8 214,-92.8 214,-40.8 16,-40.8"/>
</g>
<!-- DidIdCachedModule -->
<g id="node1" class="node">
<title>DidIdCachedModule</title>
<polygon fill="#8dd3c7" stroke="black" points="1272.19,-84.8 1269.19,-88.8 1248.19,-88.8 1245.19,-84.8 1137.81,-84.8 1137.81,-48.8 1272.19,-48.8 1272.19,-84.8"/>
<text text-anchor="middle" x="1205" y="-62.6" font-family="Times,serif" font-size="14.00">DidIdCachedModule</text>
</g>
<!-- ValidatorDidModule -->
<g id="node8" class="node">
<title>ValidatorDidModule</title>
<polygon fill="#8dd3c7" stroke="black" points="861.92,-149.8 858.92,-153.8 837.92,-153.8 834.92,-149.8 728.08,-149.8 728.08,-113.8 861.92,-113.8 861.92,-149.8"/>
<text text-anchor="middle" x="795" y="-127.6" font-family="Times,serif" font-size="14.00">ValidatorDidModule</text>
</g>
<!-- DidIdCachedModule&#45;&gt;ValidatorDidModule -->
<g id="edge1" class="edge">
<title>DidIdCachedModule&#45;&gt;ValidatorDidModule</title>
<path fill="none" stroke="black" d="M1227.36,-84.81C1227.36,-107.29 1227.36,-142.8 1227.36,-142.8 1227.36,-142.8 872.08,-142.8 872.08,-142.8"/>
<polygon fill="black" stroke="black" points="872.08,-139.3 862.08,-142.8 872.08,-146.3 872.08,-139.3"/>
</g>
<!-- DidIdCachedModule&#45;&gt;ValidatorDidModule -->
<g id="edge2" class="edge">
<title>DidIdCachedModule&#45;&gt;ValidatorDidModule</title>
<path fill="none" stroke="black" d="M1182.64,-84.93C1182.64,-105.37 1182.64,-135.8 1182.64,-135.8 1182.64,-135.8 872.08,-135.8 872.08,-135.8"/>
<polygon fill="black" stroke="black" points="872.08,-132.3 862.08,-135.8 872.08,-139.3 872.08,-132.3"/>
</g>
<!-- EventClientModule -->
<g id="node2" class="node">
<title>EventClientModule</title>
<polygon fill="#8dd3c7" stroke="black" points="1120.43,-84.8 1117.43,-88.8 1096.43,-88.8 1093.43,-84.8 993.57,-84.8 993.57,-48.8 1120.43,-48.8 1120.43,-84.8"/>
<text text-anchor="middle" x="1057" y="-62.6" font-family="Times,serif" font-size="14.00">EventClientModule</text>
</g>
<!-- EventClientModule&#45;&gt;ValidatorDidModule -->
<g id="edge3" class="edge">
<title>EventClientModule&#45;&gt;ValidatorDidModule</title>
<path fill="none" stroke="black" d="M1057,-85.07C1057,-103.36 1057,-128.8 1057,-128.8 1057,-128.8 871.79,-128.8 871.79,-128.8"/>
<polygon fill="black" stroke="black" points="871.79,-125.3 861.79,-128.8 871.79,-132.3 871.79,-125.3"/>
</g>
<!-- InviteModule -->
<g id="node3" class="node">
<title>InviteModule</title>
<polygon fill="#8dd3c7" stroke="black" points="976.21,-84.8 973.21,-88.8 952.21,-88.8 949.21,-84.8 883.79,-84.8 883.79,-48.8 976.21,-48.8 976.21,-84.8"/>
<text text-anchor="middle" x="930" y="-62.6" font-family="Times,serif" font-size="14.00">InviteModule</text>
</g>
<!-- InviteModule&#45;&gt;ValidatorDidModule -->
<g id="edge4" class="edge">
<title>InviteModule&#45;&gt;ValidatorDidModule</title>
<path fill="none" stroke="black" d="M896.88,-84.81C896.88,-100.85 896.88,-121.8 896.88,-121.8 896.88,-121.8 871.82,-121.8 871.82,-121.8"/>
<polygon fill="black" stroke="black" points="871.82,-118.3 861.82,-121.8 871.82,-125.3 871.82,-118.3"/>
</g>
<!-- NetworkClientModule -->
<g id="node4" class="node">
<title>NetworkClientModule</title>
<polygon fill="#8dd3c7" stroke="black" points="866.25,-84.8 863.25,-88.8 842.25,-88.8 839.25,-84.8 723.75,-84.8 723.75,-48.8 866.25,-48.8 866.25,-84.8"/>
<text text-anchor="middle" x="795" y="-62.6" font-family="Times,serif" font-size="14.00">NetworkClientModule</text>
</g>
<!-- NetworkClientModule&#45;&gt;ValidatorDidModule -->
<g id="edge5" class="edge">
<title>NetworkClientModule&#45;&gt;ValidatorDidModule</title>
<path fill="none" stroke="black" d="M795,-84.91C795,-84.91 795,-103.79 795,-103.79"/>
<polygon fill="black" stroke="black" points="791.5,-103.79 795,-113.79 798.5,-103.79 791.5,-103.79"/>
</g>
<!-- PersistClientModule -->
<g id="node5" class="node">
<title>PersistClientModule</title>
<polygon fill="#8dd3c7" stroke="black" points="705.6,-84.8 702.6,-88.8 681.6,-88.8 678.6,-84.8 574.4,-84.8 574.4,-48.8 705.6,-48.8 705.6,-84.8"/>
<text text-anchor="middle" x="640" y="-62.6" font-family="Times,serif" font-size="14.00">PersistClientModule</text>
</g>
<!-- PersistClientModule&#45;&gt;ValidatorDidModule -->
<g id="edge6" class="edge">
<title>PersistClientModule&#45;&gt;ValidatorDidModule</title>
<path fill="none" stroke="black" d="M682.94,-84.81C682.94,-100.85 682.94,-121.8 682.94,-121.8 682.94,-121.8 718.2,-121.8 718.2,-121.8"/>
<polygon fill="black" stroke="black" points="718.2,-125.3 728.2,-121.8 718.2,-118.3 718.2,-125.3"/>
</g>
<!-- ValidatorBlockchainModule -->
<g id="node6" class="node">
<title>ValidatorBlockchainModule</title>
<polygon fill="#8dd3c7" stroke="black" points="556.18,-84.8 553.18,-88.8 532.18,-88.8 529.18,-84.8 379.82,-84.8 379.82,-48.8 556.18,-48.8 556.18,-84.8"/>
<text text-anchor="middle" x="468" y="-62.6" font-family="Times,serif" font-size="14.00">ValidatorBlockchainModule</text>
</g>
<!-- ValidatorBlockchainModule&#45;&gt;ValidatorDidModule -->
<g id="edge7" class="edge">
<title>ValidatorBlockchainModule&#45;&gt;ValidatorDidModule</title>
<path fill="none" stroke="black" d="M468,-85.07C468,-103.36 468,-128.8 468,-128.8 468,-128.8 718.04,-128.8 718.04,-128.8"/>
<polygon fill="black" stroke="black" points="718.04,-132.3 728.04,-128.8 718.04,-125.3 718.04,-132.3"/>
</g>
<!-- WalletClientModule -->
<g id="node7" class="node">
<title>WalletClientModule</title>
<polygon fill="#8dd3c7" stroke="black" points="361.59,-84.8 358.59,-88.8 337.59,-88.8 334.59,-84.8 230.41,-84.8 230.41,-48.8 361.59,-48.8 361.59,-84.8"/>
<text text-anchor="middle" x="296" y="-62.6" font-family="Times,serif" font-size="14.00">WalletClientModule</text>
</g>
<!-- WalletClientModule&#45;&gt;ValidatorDidModule -->
<g id="edge8" class="edge">
<title>WalletClientModule&#45;&gt;ValidatorDidModule</title>
<path fill="none" stroke="black" d="M296,-84.93C296,-105.37 296,-135.8 296,-135.8 296,-135.8 718.22,-135.8 718.22,-135.8"/>
<polygon fill="black" stroke="black" points="718.22,-139.3 728.22,-135.8 718.22,-132.3 718.22,-139.3"/>
</g>
<!-- InviteModule  -->
<g id="node9" class="node">
<title>InviteModule </title>
<polygon fill="#fb8072" stroke="black" points="909.71,-214.8 814.29,-214.8 814.29,-178.8 909.71,-178.8 909.71,-214.8"/>
<text text-anchor="middle" x="862" y="-192.6" font-family="Times,serif" font-size="14.00">InviteModule </text>
</g>
<!-- ValidatorDidModule&#45;&gt;InviteModule  -->
<g id="edge9" class="edge">
<title>ValidatorDidModule&#45;&gt;InviteModule </title>
<path fill="none" stroke="black" stroke-dasharray="5,2" d="M837.93,-149.91C837.93,-149.91 837.93,-168.79 837.93,-168.79"/>
<polygon fill="black" stroke="black" points="834.43,-168.79 837.93,-178.79 841.43,-168.79 834.43,-168.79"/>
</g>
<!-- ValidatorDidService  -->
<g id="node10" class="node">
<title>ValidatorDidService </title>
<polygon fill="#fb8072" stroke="black" points="795.84,-214.8 660.16,-214.8 660.16,-178.8 795.84,-178.8 795.84,-214.8"/>
<text text-anchor="middle" x="728" y="-192.6" font-family="Times,serif" font-size="14.00">ValidatorDidService </text>
</g>
<!-- ValidatorDidModule&#45;&gt;ValidatorDidService  -->
<g id="edge10" class="edge">
<title>ValidatorDidModule&#45;&gt;ValidatorDidService </title>
<path fill="none" stroke="black" stroke-dasharray="5,2" d="M761.98,-149.91C761.98,-149.91 761.98,-168.79 761.98,-168.79"/>
<polygon fill="black" stroke="black" points="758.48,-168.79 761.98,-178.79 765.48,-168.79 758.48,-168.79"/>
</g>
<!-- ValidatorDidService -->
<g id="node11" class="node">
<title>ValidatorDidService</title>
<ellipse fill="#fdb462" stroke="black" cx="115" cy="-66.8" rx="90.89" ry="18"/>
<text text-anchor="middle" x="115" y="-62.6" font-family="Times,serif" font-size="14.00">ValidatorDidService</text>
</g>
<!-- ValidatorDidService&#45;&gt;ValidatorDidModule -->
<g id="edge11" class="edge">
<title>ValidatorDidService&#45;&gt;ValidatorDidModule</title>
<path fill="none" stroke="black" d="M115,-84.81C115,-107.29 115,-142.8 115,-142.8 115,-142.8 718.25,-142.8 718.25,-142.8"/>
<polygon fill="black" stroke="black" points="718.25,-146.3 728.25,-142.8 718.25,-139.3 718.25,-146.3"/>
</g>
</g>
</svg>
