<?xml version="1.0" encoding="UTF-8" standalone="no"?>
<!DOCTYPE svg PUBLIC "-//W3C//DTD SVG 1.1//EN"
 "http://www.w3.org/Graphics/SVG/1.1/DTD/svg11.dtd">
<!-- Generated by graphviz version 2.47.3 (20210619.1520)
 -->
<!-- Title: dependencies Pages: 1 -->
<svg width="1304pt" height="247pt"
 viewBox="0.00 0.00 1304.00 246.80" xmlns="http://www.w3.org/2000/svg" xmlns:xlink="http://www.w3.org/1999/xlink">
<g id="graph0" class="graph" transform="scale(1 1) rotate(0) translate(4 242.8)">
<title>dependencies</title>
<polygon fill="white" stroke="transparent" points="-4,4 -4,-242.8 1300,-242.8 1300,4 -4,4"/>
<text text-anchor="middle" x="648" y="-8.2" font-family="sans-serif" font-size="14.00">dependencies</text>
<g id="clust1" class="cluster">
<title>cluster_ValidatorDidModule</title>
<polygon fill="none" stroke="black" stroke-dasharray="1,5" points="8,-32.8 8,-230.8 1288,-230.8 1288,-32.8 8,-32.8"/>
</g>
<g id="clust6" class="cluster">
<title>cluster_ValidatorDidModule_providers</title>
<polygon fill="none" stroke="black" points="1082,-40.8 1082,-92.8 1280,-92.8 1280,-40.8 1082,-40.8"/>
</g>
<g id="clust4" class="cluster">
<title>cluster_ValidatorDidModule_exports</title>
<polygon fill="none" stroke="black" points="581,-170.8 581,-222.8 847,-222.8 847,-170.8 581,-170.8"/>
</g>
<g id="clust3" class="cluster">
<title>cluster_ValidatorDidModule_imports</title>
<polygon fill="none" stroke="black" points="16,-40.8 16,-92.8 1074,-92.8 1074,-40.8 16,-40.8"/>
</g>
<!-- DidIdCachedModule -->
<g id="node1" class="node">
<title>DidIdCachedModule</title>
<polygon fill="#8dd3c7" stroke="black" points="1066.19,-84.8 1063.19,-88.8 1042.19,-88.8 1039.19,-84.8 931.81,-84.8 931.81,-48.8 1066.19,-48.8 1066.19,-84.8"/>
<text text-anchor="middle" x="999" y="-62.6" font-family="Times,serif" font-size="14.00">DidIdCachedModule</text>
</g>
<!-- ValidatorDidModule -->
<g id="node8" class="node">
<title>ValidatorDidModule</title>
<polygon fill="#8dd3c7" stroke="black" points="790.92,-149.8 787.92,-153.8 766.92,-153.8 763.92,-149.8 657.08,-149.8 657.08,-113.8 790.92,-113.8 790.92,-149.8"/>
<text text-anchor="middle" x="724" y="-127.6" font-family="Times,serif" font-size="14.00">ValidatorDidModule</text>
</g>
<!-- DidIdCachedModule&#45;&gt;ValidatorDidModule -->
<g id="edge1" class="edge">
<title>DidIdCachedModule&#45;&gt;ValidatorDidModule</title>
<path fill="none" stroke="black" d="M1021.36,-84.91C1021.36,-104.14 1021.36,-131.8 1021.36,-131.8 1021.36,-131.8 800.73,-131.8 800.73,-131.8"/>
<polygon fill="black" stroke="black" points="800.73,-128.3 790.73,-131.8 800.73,-135.3 800.73,-128.3"/>
</g>
<!-- DidIdCachedModule&#45;&gt;ValidatorDidModule -->
<g id="edge2" class="edge">
<title>DidIdCachedModule&#45;&gt;ValidatorDidModule</title>
<path fill="none" stroke="black" d="M976.64,-84.83C976.64,-101.2 976.64,-122.8 976.64,-122.8 976.64,-122.8 801.04,-122.8 801.04,-122.8"/>
<polygon fill="black" stroke="black" points="801.04,-119.3 791.04,-122.8 801.04,-126.3 801.04,-119.3"/>
</g>
<!-- EventClientModule -->
<g id="node2" class="node">
<title>EventClientModule</title>
<polygon fill="#8dd3c7" stroke="black" points="914.43,-84.8 911.43,-88.8 890.43,-88.8 887.43,-84.8 787.57,-84.8 787.57,-48.8 914.43,-48.8 914.43,-84.8"/>
<text text-anchor="middle" x="851" y="-62.6" font-family="Times,serif" font-size="14.00">EventClientModule</text>
</g>
<!-- EventClientModule&#45;&gt;ValidatorDidModule -->
<g id="edge3" class="edge">
<title>EventClientModule&#45;&gt;ValidatorDidModule</title>
<path fill="none" stroke="black" d="M787.78,-66.8C782.39,-66.8 778.94,-66.8 778.94,-66.8 778.94,-66.8 778.94,-103.69 778.94,-103.69"/>
<polygon fill="black" stroke="black" points="775.44,-103.69 778.94,-113.69 782.44,-103.69 775.44,-103.69"/>
</g>
<!-- InviteModule -->
<g id="node3" class="node">
<title>InviteModule</title>
<polygon fill="#8dd3c7" stroke="black" points="770.21,-84.8 767.21,-88.8 746.21,-88.8 743.21,-84.8 677.79,-84.8 677.79,-48.8 770.21,-48.8 770.21,-84.8"/>
<text text-anchor="middle" x="724" y="-62.6" font-family="Times,serif" font-size="14.00">InviteModule</text>
</g>
<!-- InviteModule&#45;&gt;ValidatorDidModule -->
<g id="edge4" class="edge">
<title>InviteModule&#45;&gt;ValidatorDidModule</title>
<path fill="none" stroke="black" d="M724,-84.91C724,-84.91 724,-103.79 724,-103.79"/>
<polygon fill="black" stroke="black" points="720.5,-103.79 724,-113.79 727.5,-103.79 720.5,-103.79"/>
</g>
<!-- NetworkClientModule -->
<g id="node4" class="node">
<title>NetworkClientModule</title>
<polygon fill="#8dd3c7" stroke="black" points="660.25,-84.8 657.25,-88.8 636.25,-88.8 633.25,-84.8 517.75,-84.8 517.75,-48.8 660.25,-48.8 660.25,-84.8"/>
<text text-anchor="middle" x="589" y="-62.6" font-family="Times,serif" font-size="14.00">NetworkClientModule</text>
</g>
<!-- NetworkClientModule&#45;&gt;ValidatorDidModule -->
<g id="edge5" class="edge">
<title>NetworkClientModule&#45;&gt;ValidatorDidModule</title>
<path fill="none" stroke="black" d="M660.25,-66.8C665.7,-66.8 669.14,-66.8 669.14,-66.8 669.14,-66.8 669.14,-103.69 669.14,-103.69"/>
<polygon fill="black" stroke="black" points="665.64,-103.69 669.14,-113.69 672.64,-103.69 665.64,-103.69"/>
</g>
<!-- PersistClientModule -->
<g id="node5" class="node">
<title>PersistClientModule</title>
<polygon fill="#8dd3c7" stroke="black" points="499.6,-84.8 496.6,-88.8 475.6,-88.8 472.6,-84.8 368.4,-84.8 368.4,-48.8 499.6,-48.8 499.6,-84.8"/>
<text text-anchor="middle" x="434" y="-62.6" font-family="Times,serif" font-size="14.00">PersistClientModule</text>
</g>
<!-- PersistClientModule&#45;&gt;ValidatorDidModule -->
<g id="edge6" class="edge">
<title>PersistClientModule&#45;&gt;ValidatorDidModule</title>
<path fill="none" stroke="black" d="M434,-84.83C434,-101.2 434,-122.8 434,-122.8 434,-122.8 647.1,-122.8 647.1,-122.8"/>
<polygon fill="black" stroke="black" points="647.1,-126.3 657.1,-122.8 647.1,-119.3 647.1,-126.3"/>
</g>
<!-- ValidatorBlockchainModule -->
<g id="node6" class="node">
<title>ValidatorBlockchainModule</title>
<polygon fill="#8dd3c7" stroke="black" points="350.18,-84.8 347.18,-88.8 326.18,-88.8 323.18,-84.8 173.82,-84.8 173.82,-48.8 350.18,-48.8 350.18,-84.8"/>
<text text-anchor="middle" x="262" y="-62.6" font-family="Times,serif" font-size="14.00">ValidatorBlockchainModule</text>
</g>
<!-- ValidatorBlockchainModule&#45;&gt;ValidatorDidModule -->
<g id="edge7" class="edge">
<title>ValidatorBlockchainModule&#45;&gt;ValidatorDidModule</title>
<path fill="none" stroke="black" d="M262,-84.91C262,-104.14 262,-131.8 262,-131.8 262,-131.8 646.82,-131.8 646.82,-131.8"/>
<polygon fill="black" stroke="black" points="646.82,-135.3 656.82,-131.8 646.82,-128.3 646.82,-135.3"/>
</g>
<!-- WalletClientModule -->
<g id="node7" class="node">
<title>WalletClientModule</title>
<polygon fill="#8dd3c7" stroke="black" points="155.59,-84.8 152.59,-88.8 131.59,-88.8 128.59,-84.8 24.41,-84.8 24.41,-48.8 155.59,-48.8 155.59,-84.8"/>
<text text-anchor="middle" x="90" y="-62.6" font-family="Times,serif" font-size="14.00">WalletClientModule</text>
</g>
<!-- WalletClientModule&#45;&gt;ValidatorDidModule -->
<g id="edge8" class="edge">
<title>WalletClientModule&#45;&gt;ValidatorDidModule</title>
<path fill="none" stroke="black" d="M90,-85.09C90,-107.01 90,-140.8 90,-140.8 90,-140.8 647.05,-140.8 647.05,-140.8"/>
<polygon fill="black" stroke="black" points="647.05,-144.3 657.05,-140.8 647.05,-137.3 647.05,-144.3"/>
</g>
<!-- InviteModule  -->
<g id="node9" class="node">
<title>InviteModule </title>
<polygon fill="#fb8072" stroke="black" points="838.71,-214.8 743.29,-214.8 743.29,-178.8 838.71,-178.8 838.71,-214.8"/>
<text text-anchor="middle" x="791" y="-192.6" font-family="Times,serif" font-size="14.00">InviteModule </text>
</g>
<!-- ValidatorDidModule&#45;&gt;InviteModule  -->
<g id="edge9" class="edge">
<title>ValidatorDidModule&#45;&gt;InviteModule </title>
<path fill="none" stroke="black" stroke-dasharray="5,2" d="M766.93,-149.91C766.93,-149.91 766.93,-168.79 766.93,-168.79"/>
<polygon fill="black" stroke="black" points="763.43,-168.79 766.93,-178.79 770.43,-168.79 763.43,-168.79"/>
</g>
<!-- ValidatorDidService  -->
<g id="node10" class="node">
<title>ValidatorDidService </title>
<polygon fill="#fb8072" stroke="black" points="724.84,-214.8 589.16,-214.8 589.16,-178.8 724.84,-178.8 724.84,-214.8"/>
<text text-anchor="middle" x="657" y="-192.6" font-family="Times,serif" font-size="14.00">ValidatorDidService </text>
</g>
<!-- ValidatorDidModule&#45;&gt;ValidatorDidService  -->
<g id="edge10" class="edge">
<title>ValidatorDidModule&#45;&gt;ValidatorDidService </title>
<path fill="none" stroke="black" stroke-dasharray="5,2" d="M690.98,-149.91C690.98,-149.91 690.98,-168.79 690.98,-168.79"/>
<polygon fill="black" stroke="black" points="687.48,-168.79 690.98,-178.79 694.48,-168.79 687.48,-168.79"/>
</g>
<!-- ValidatorDidService -->
<g id="node11" class="node">
<title>ValidatorDidService</title>
<ellipse fill="#fdb462" stroke="black" cx="1181" cy="-66.8" rx="90.89" ry="18"/>
<text text-anchor="middle" x="1181" y="-62.6" font-family="Times,serif" font-size="14.00">ValidatorDidService</text>
</g>
<!-- ValidatorDidService&#45;&gt;ValidatorDidModule -->
<g id="edge11" class="edge">
<title>ValidatorDidService&#45;&gt;ValidatorDidModule</title>
<path fill="none" stroke="black" d="M1181,-85.09C1181,-107.01 1181,-140.8 1181,-140.8 1181,-140.8 800.94,-140.8 800.94,-140.8"/>
<polygon fill="black" stroke="black" points="800.94,-137.3 790.94,-140.8 800.94,-144.3 800.94,-137.3"/>
</g>
</g>
</svg>
