<?xml version="1.0" encoding="UTF-8" standalone="no"?>
<!DOCTYPE svg PUBLIC "-//W3C//DTD SVG 1.1//EN"
 "http://www.w3.org/Graphics/SVG/1.1/DTD/svg11.dtd">
<!-- Generated by graphviz version 2.47.3 (20210619.1520)
 -->
<!-- Title: dependencies Pages: 1 -->
<svg width="420pt" height="247pt"
 viewBox="0.00 0.00 420.00 246.80" xmlns="http://www.w3.org/2000/svg" xmlns:xlink="http://www.w3.org/1999/xlink">
<g id="graph0" class="graph" transform="scale(1 1) rotate(0) translate(4 242.8)">
<title>dependencies</title>
<polygon fill="white" stroke="transparent" points="-4,4 -4,-242.8 416,-242.8 416,4 -4,4"/>
<text text-anchor="middle" x="206" y="-8.2" font-family="sans-serif" font-size="14.00">dependencies</text>
<g id="clust1" class="cluster">
<title>cluster_TemplateCachedModule</title>
<polygon fill="none" stroke="black" stroke-dasharray="1,5" points="8,-32.8 8,-230.8 404,-230.8 404,-32.8 8,-32.8"/>
</g>
<g id="clust3" class="cluster">
<title>cluster_TemplateCachedModule_imports</title>
<polygon fill="none" stroke="black" points="250,-40.8 250,-92.8 396,-92.8 396,-40.8 250,-40.8"/>
</g>
<g id="clust4" class="cluster">
<title>cluster_TemplateCachedModule_exports</title>
<polygon fill="none" stroke="black" points="133,-170.8 133,-222.8 305,-222.8 305,-170.8 133,-170.8"/>
</g>
<g id="clust6" class="cluster">
<title>cluster_TemplateCachedModule_providers</title>
<polygon fill="none" stroke="black" points="16,-40.8 16,-92.8 242,-92.8 242,-40.8 16,-40.8"/>
</g>
<!-- TemplateDbModule -->
<g id="node1" class="node">
<title>TemplateDbModule</title>
<polygon fill="#8dd3c7" stroke="black" points="387.53,-84.8 384.53,-88.8 363.53,-88.8 360.53,-84.8 258.47,-84.8 258.47,-48.8 387.53,-48.8 387.53,-84.8"/>
<text text-anchor="middle" x="323" y="-62.6" font-family="Times,serif" font-size="14.00">TemplateDbModule</text>
</g>
<!-- TemplateCachedModule -->
<g id="node2" class="node">
<title>TemplateCachedModule</title>
<polygon fill="#8dd3c7" stroke="black" points="296.4,-149.8 293.4,-153.8 272.4,-153.8 269.4,-149.8 141.6,-149.8 141.6,-113.8 296.4,-113.8 296.4,-149.8"/>
<text text-anchor="middle" x="219" y="-127.6" font-family="Times,serif" font-size="14.00">TemplateCachedModule</text>
</g>
<!-- TemplateDbModule&#45;&gt;TemplateCachedModule -->
<g id="edge1" class="edge">
<title>TemplateDbModule&#45;&gt;TemplateCachedModule</title>
<path fill="none" stroke="black" d="M277.22,-84.91C277.22,-84.91 277.22,-103.79 277.22,-103.79"/>
<polygon fill="black" stroke="black" points="273.72,-103.79 277.22,-113.79 280.72,-103.79 273.72,-103.79"/>
</g>
<!-- TemplateCachedService  -->
<g id="node3" class="node">
<title>TemplateCachedService </title>
<polygon fill="#fb8072" stroke="black" points="297.33,-214.8 140.67,-214.8 140.67,-178.8 297.33,-178.8 297.33,-214.8"/>
<text text-anchor="middle" x="219" y="-192.6" font-family="Times,serif" font-size="14.00">TemplateCachedService </text>
</g>
<!-- TemplateCachedModule&#45;&gt;TemplateCachedService  -->
<g id="edge2" class="edge">
<title>TemplateCachedModule&#45;&gt;TemplateCachedService </title>
<path fill="none" stroke="black" stroke-dasharray="5,2" d="M219,-149.91C219,-149.91 219,-168.79 219,-168.79"/>
<polygon fill="black" stroke="black" points="215.5,-168.79 219,-178.79 222.5,-168.79 215.5,-168.79"/>
</g>
<!-- TemplateCachedService -->
<g id="node4" class="node">
<title>TemplateCachedService</title>
<ellipse fill="#fdb462" stroke="black" cx="129" cy="-66.8" rx="105.33" ry="18"/>
<text text-anchor="middle" x="129" y="-62.6" font-family="Times,serif" font-size="14.00">TemplateCachedService</text>
</g>
<!-- TemplateCachedService&#45;&gt;TemplateCachedModule -->
<g id="edge3" class="edge">
<title>TemplateCachedService&#45;&gt;TemplateCachedModule</title>
<path fill="none" stroke="black" d="M188.11,-81.88C188.11,-81.88 188.11,-103.56 188.11,-103.56"/>
<polygon fill="black" stroke="black" points="184.61,-103.56 188.11,-113.56 191.61,-103.56 184.61,-103.56"/>
</g>
</g>
</svg>
