<?xml version="1.0" encoding="UTF-8" standalone="no"?>
<!DOCTYPE svg PUBLIC "-//W3C//DTD SVG 1.1//EN"
 "http://www.w3.org/Graphics/SVG/1.1/DTD/svg11.dtd">
<!-- Generated by graphviz version 2.47.3 (20210619.1520)
 -->
<!-- Title: dependencies Pages: 1 -->
<svg width="516pt" height="247pt"
 viewBox="0.00 0.00 516.00 246.80" xmlns="http://www.w3.org/2000/svg" xmlns:xlink="http://www.w3.org/1999/xlink">
<g id="graph0" class="graph" transform="scale(1 1) rotate(0) translate(4 242.8)">
<title>dependencies</title>
<polygon fill="white" stroke="transparent" points="-4,4 -4,-242.8 512,-242.8 512,4 -4,4"/>
<text text-anchor="middle" x="254" y="-8.2" font-family="sans-serif" font-size="14.00">dependencies</text>
<g id="clust1" class="cluster">
<title>cluster_HashCachedModule</title>
<polygon fill="none" stroke="black" stroke-dasharray="1,5" points="8,-32.8 8,-230.8 500,-230.8 500,-32.8 8,-32.8"/>
</g>
<g id="clust3" class="cluster">
<title>cluster_HashCachedModule_imports</title>
<polygon fill="none" stroke="black" points="218,-40.8 218,-92.8 492,-92.8 492,-40.8 218,-40.8"/>
</g>
<g id="clust4" class="cluster">
<title>cluster_HashCachedModule_exports</title>
<polygon fill="none" stroke="black" points="205,-170.8 205,-222.8 353,-222.8 353,-170.8 205,-170.8"/>
</g>
<g id="clust6" class="cluster">
<title>cluster_HashCachedModule_providers</title>
<polygon fill="none" stroke="black" points="16,-40.8 16,-92.8 210,-92.8 210,-40.8 16,-40.8"/>
</g>
<!-- DidIdCachedModule -->
<g id="node1" class="node">
<title>DidIdCachedModule</title>
<polygon fill="#8dd3c7" stroke="black" points="484.19,-84.8 481.19,-88.8 460.19,-88.8 457.19,-84.8 349.81,-84.8 349.81,-48.8 484.19,-48.8 484.19,-84.8"/>
<text text-anchor="middle" x="417" y="-62.6" font-family="Times,serif" font-size="14.00">DidIdCachedModule</text>
</g>
<!-- HashCachedModule -->
<g id="node3" class="node">
<title>HashCachedModule</title>
<polygon fill="#8dd3c7" stroke="black" points="344.3,-149.8 341.3,-153.8 320.3,-153.8 317.3,-149.8 213.7,-149.8 213.7,-113.8 344.3,-113.8 344.3,-149.8"/>
<text text-anchor="middle" x="279" y="-127.6" font-family="Times,serif" font-size="14.00">HashCachedModule</text>
</g>
<!-- DidIdCachedModule&#45;&gt;HashCachedModule -->
<g id="edge1" class="edge">
<title>DidIdCachedModule&#45;&gt;HashCachedModule</title>
<path fill="none" stroke="black" d="M349.6,-66.8C342.57,-66.8 337.93,-66.8 337.93,-66.8 337.93,-66.8 337.93,-103.69 337.93,-103.69"/>
<polygon fill="black" stroke="black" points="334.43,-103.69 337.93,-113.69 341.43,-103.69 334.43,-103.69"/>
</g>
<!-- HashDbModule -->
<g id="node2" class="node">
<title>HashDbModule</title>
<polygon fill="#8dd3c7" stroke="black" points="331.92,-84.8 328.92,-88.8 307.92,-88.8 304.92,-84.8 226.08,-84.8 226.08,-48.8 331.92,-48.8 331.92,-84.8"/>
<text text-anchor="middle" x="279" y="-62.6" font-family="Times,serif" font-size="14.00">HashDbModule</text>
</g>
<!-- HashDbModule&#45;&gt;HashCachedModule -->
<g id="edge2" class="edge">
<title>HashDbModule&#45;&gt;HashCachedModule</title>
<path fill="none" stroke="black" d="M279,-84.91C279,-84.91 279,-103.79 279,-103.79"/>
<polygon fill="black" stroke="black" points="275.5,-103.79 279,-113.79 282.5,-103.79 275.5,-103.79"/>
</g>
<!-- HashCachedService  -->
<g id="node4" class="node">
<title>HashCachedService </title>
<polygon fill="#fb8072" stroke="black" points="345.22,-214.8 212.78,-214.8 212.78,-178.8 345.22,-178.8 345.22,-214.8"/>
<text text-anchor="middle" x="279" y="-192.6" font-family="Times,serif" font-size="14.00">HashCachedService </text>
</g>
<!-- HashCachedModule&#45;&gt;HashCachedService  -->
<g id="edge3" class="edge">
<title>HashCachedModule&#45;&gt;HashCachedService </title>
<path fill="none" stroke="black" stroke-dasharray="5,2" d="M279,-149.91C279,-149.91 279,-168.79 279,-168.79"/>
<polygon fill="black" stroke="black" points="275.5,-168.79 279,-178.79 282.5,-168.79 275.5,-168.79"/>
</g>
<!-- HashCachedService -->
<g id="node5" class="node">
<title>HashCachedService</title>
<ellipse fill="#fdb462" stroke="black" cx="113" cy="-66.8" rx="88.58" ry="18"/>
<text text-anchor="middle" x="113" y="-62.6" font-family="Times,serif" font-size="14.00">HashCachedService</text>
</g>
<!-- HashCachedService&#45;&gt;HashCachedModule -->
<g id="edge4" class="edge">
<title>HashCachedService&#45;&gt;HashCachedModule</title>
<path fill="none" stroke="black" d="M201.91,-66.8C212.74,-66.8 220.07,-66.8 220.07,-66.8 220.07,-66.8 220.07,-103.69 220.07,-103.69"/>
<polygon fill="black" stroke="black" points="216.57,-103.69 220.07,-113.69 223.57,-103.69 216.57,-103.69"/>
</g>
</g>
</svg>
