<?xml version="1.0" encoding="UTF-8" standalone="no"?>
<!DOCTYPE svg PUBLIC "-//W3C//DTD SVG 1.1//EN"
 "http://www.w3.org/Graphics/SVG/1.1/DTD/svg11.dtd">
<!-- Generated by graphviz version 3.0.0 (20220226.1711)
 -->
<!-- Title: dependencies Pages: 1 -->
<svg width="516pt" height="247pt"
 viewBox="0.00 0.00 516.00 246.80" xmlns="http://www.w3.org/2000/svg" xmlns:xlink="http://www.w3.org/1999/xlink">
<g id="graph0" class="graph" transform="scale(1 1) rotate(0) translate(4 242.8)">
<title>dependencies</title>
<polygon fill="white" stroke="transparent" points="-4,4 -4,-242.8 512,-242.8 512,4 -4,4"/>
<text text-anchor="middle" x="254" y="-8.2" font-family="sans-serif" font-size="14.00">dependencies</text>
<g id="clust1" class="cluster">
<title>cluster_HashCachedModule</title>
<polygon fill="none" stroke="black" stroke-dasharray="1,5" points="8,-32.8 8,-230.8 500,-230.8 500,-32.8 8,-32.8"/>
</g>
<g id="clust6" class="cluster">
<title>cluster_HashCachedModule_providers</title>
<polygon fill="none" stroke="black" points="298,-40.8 298,-92.8 492,-92.8 492,-40.8 298,-40.8"/>
</g>
<g id="clust3" class="cluster">
<title>cluster_HashCachedModule_imports</title>
<polygon fill="none" stroke="black" points="16,-40.8 16,-92.8 290,-92.8 290,-40.8 16,-40.8"/>
</g>
<g id="clust4" class="cluster">
<title>cluster_HashCachedModule_exports</title>
<polygon fill="none" stroke="black" points="141,-170.8 141,-222.8 289,-222.8 289,-170.8 141,-170.8"/>
</g>
<!-- DidIdCachedModule -->
<g id="node1" class="node">
<title>DidIdCachedModule</title>
<polygon fill="#8dd3c7" stroke="black" points="282.19,-84.8 279.19,-88.8 258.19,-88.8 255.19,-84.8 147.81,-84.8 147.81,-48.8 282.19,-48.8 282.19,-84.8"/>
<text text-anchor="middle" x="215" y="-62.6" font-family="Times,serif" font-size="14.00">DidIdCachedModule</text>
</g>
<!-- HashCachedModule -->
<g id="node3" class="node">
<title>HashCachedModule</title>
<polygon fill="#8dd3c7" stroke="black" points="280.3,-149.8 277.3,-153.8 256.3,-153.8 253.3,-149.8 149.7,-149.8 149.7,-113.8 280.3,-113.8 280.3,-149.8"/>
<text text-anchor="middle" x="215" y="-127.6" font-family="Times,serif" font-size="14.00">HashCachedModule</text>
</g>
<!-- DidIdCachedModule&#45;&gt;HashCachedModule -->
<g id="edge1" class="edge">
<title>DidIdCachedModule&#45;&gt;HashCachedModule</title>
<path fill="none" stroke="black" d="M215,-84.91C215,-84.91 215,-103.79 215,-103.79"/>
<polygon fill="black" stroke="black" points="211.5,-103.79 215,-113.79 218.5,-103.79 211.5,-103.79"/>
</g>
<!-- HashDbModule -->
<g id="node2" class="node">
<title>HashDbModule</title>
<polygon fill="#8dd3c7" stroke="black" points="129.94,-84.8 126.94,-88.8 105.94,-88.8 102.94,-84.8 24.06,-84.8 24.06,-48.8 129.94,-48.8 129.94,-84.8"/>
<text text-anchor="middle" x="77" y="-62.6" font-family="Times,serif" font-size="14.00">HashDbModule</text>
</g>
<!-- HashDbModule&#45;&gt;HashCachedModule -->
<g id="edge2" class="edge">
<title>HashDbModule&#45;&gt;HashCachedModule</title>
<path fill="none" stroke="black" d="M77,-84.91C77,-104.14 77,-131.8 77,-131.8 77,-131.8 139.64,-131.8 139.64,-131.8"/>
<polygon fill="black" stroke="black" points="139.64,-135.3 149.64,-131.8 139.64,-128.3 139.64,-135.3"/>
</g>
<!-- HashCachedService  -->
<g id="node4" class="node">
<title>HashCachedService </title>
<polygon fill="#fb8072" stroke="black" points="281.23,-214.8 148.77,-214.8 148.77,-178.8 281.23,-178.8 281.23,-214.8"/>
<text text-anchor="middle" x="215" y="-192.6" font-family="Times,serif" font-size="14.00">HashCachedService </text>
</g>
<!-- HashCachedModule&#45;&gt;HashCachedService  -->
<g id="edge3" class="edge">
<title>HashCachedModule&#45;&gt;HashCachedService </title>
<path fill="none" stroke="black" stroke-dasharray="5,2" d="M215,-149.91C215,-149.91 215,-168.79 215,-168.79"/>
<polygon fill="black" stroke="black" points="211.5,-168.79 215,-178.79 218.5,-168.79 211.5,-168.79"/>
</g>
<!-- HashCachedService -->
<g id="node5" class="node">
<title>HashCachedService</title>
<ellipse fill="#fdb462" stroke="black" cx="395" cy="-66.8" rx="88.59" ry="18"/>
<text text-anchor="middle" x="395" y="-62.6" font-family="Times,serif" font-size="14.00">HashCachedService</text>
</g>
<!-- HashCachedService&#45;&gt;HashCachedModule -->
<g id="edge4" class="edge">
<title>HashCachedService&#45;&gt;HashCachedModule</title>
<path fill="none" stroke="black" d="M395,-84.91C395,-104.14 395,-131.8 395,-131.8 395,-131.8 290.24,-131.8 290.24,-131.8"/>
<polygon fill="black" stroke="black" points="290.24,-128.3 280.24,-131.8 290.24,-135.3 290.24,-128.3"/>
</g>
</g>
</svg>
