<?xml version="1.0" encoding="UTF-8" standalone="no"?>
<!DOCTYPE svg PUBLIC "-//W3C//DTD SVG 1.1//EN"
 "http://www.w3.org/Graphics/SVG/1.1/DTD/svg11.dtd">
<!-- Generated by graphviz version 2.47.3 (20210619.1520)
 -->
<!-- Title: dependencies Pages: 1 -->
<svg width="675pt" height="247pt"
 viewBox="0.00 0.00 675.00 246.80" xmlns="http://www.w3.org/2000/svg" xmlns:xlink="http://www.w3.org/1999/xlink">
<g id="graph0" class="graph" transform="scale(1 1) rotate(0) translate(4 242.8)">
<title>dependencies</title>
<polygon fill="white" stroke="transparent" points="-4,4 -4,-242.8 671,-242.8 671,4 -4,4"/>
<text text-anchor="middle" x="333.5" y="-8.2" font-family="sans-serif" font-size="14.00">dependencies</text>
<g id="clust1" class="cluster">
<title>cluster_TemplateBlockchainModule</title>
<polygon fill="none" stroke="black" stroke-dasharray="1,5" points="8,-32.8 8,-230.8 659,-230.8 659,-32.8 8,-32.8"/>
</g>
<g id="clust3" class="cluster">
<title>cluster_TemplateBlockchainModule_imports</title>
<polygon fill="none" stroke="black" points="334,-40.8 334,-92.8 651,-92.8 651,-40.8 334,-40.8"/>
</g>
<g id="clust6" class="cluster">
<title>cluster_TemplateBlockchainModule_providers</title>
<polygon fill="none" stroke="black" points="16,-40.8 16,-92.8 326,-92.8 326,-40.8 16,-40.8"/>
</g>
<g id="clust4" class="cluster">
<title>cluster_TemplateBlockchainModule_exports</title>
<polygon fill="none" stroke="black" points="303,-170.8 303,-222.8 535,-222.8 535,-170.8 303,-170.8"/>
</g>
<!-- BlockCheckModule -->
<g id="node1" class="node">
<title>BlockCheckModule</title>
<polygon fill="#8dd3c7" stroke="black" points="643.26,-84.8 640.26,-88.8 619.26,-88.8 616.26,-84.8 514.74,-84.8 514.74,-48.8 643.26,-48.8 643.26,-84.8"/>
<text text-anchor="middle" x="579" y="-62.6" font-family="Times,serif" font-size="14.00">BlockCheckModule</text>
</g>
<!-- TemplateBlockchainModule -->
<g id="node3" class="node">
<title>TemplateBlockchainModule</title>
<polygon fill="#8dd3c7" stroke="black" points="507.18,-149.8 504.18,-153.8 483.18,-153.8 480.18,-149.8 330.82,-149.8 330.82,-113.8 507.18,-113.8 507.18,-149.8"/>
<text text-anchor="middle" x="419" y="-127.6" font-family="Times,serif" font-size="14.00">TemplateBlockchainModule</text>
</g>
<!-- BlockCheckModule&#45;&gt;TemplateBlockchainModule -->
<g id="edge1" class="edge">
<title>BlockCheckModule&#45;&gt;TemplateBlockchainModule</title>
<path fill="none" stroke="black" d="M514.42,-66.8C506.79,-66.8 501.64,-66.8 501.64,-66.8 501.64,-66.8 501.64,-103.69 501.64,-103.69"/>
<polygon fill="black" stroke="black" points="498.14,-103.69 501.64,-113.69 505.14,-103.69 498.14,-103.69"/>
</g>
<!-- TemplateCachedModule -->
<g id="node2" class="node">
<title>TemplateCachedModule</title>
<polygon fill="#8dd3c7" stroke="black" points="496.4,-84.8 493.4,-88.8 472.4,-88.8 469.4,-84.8 341.6,-84.8 341.6,-48.8 496.4,-48.8 496.4,-84.8"/>
<text text-anchor="middle" x="419" y="-62.6" font-family="Times,serif" font-size="14.00">TemplateCachedModule</text>
</g>
<!-- TemplateCachedModule&#45;&gt;TemplateBlockchainModule -->
<g id="edge2" class="edge">
<title>TemplateCachedModule&#45;&gt;TemplateBlockchainModule</title>
<path fill="none" stroke="black" d="M419,-84.91C419,-84.91 419,-103.79 419,-103.79"/>
<polygon fill="black" stroke="black" points="415.5,-103.79 419,-113.79 422.5,-103.79 415.5,-103.79"/>
</g>
<!-- TemplateTransactionCheckService  -->
<g id="node4" class="node">
<title>TemplateTransactionCheckService </title>
<polygon fill="#fb8072" stroke="black" points="527.19,-214.8 310.81,-214.8 310.81,-178.8 527.19,-178.8 527.19,-214.8"/>
<text text-anchor="middle" x="419" y="-192.6" font-family="Times,serif" font-size="14.00">TemplateTransactionCheckService </text>
</g>
<!-- TemplateBlockchainModule&#45;&gt;TemplateTransactionCheckService  -->
<g id="edge3" class="edge">
<title>TemplateBlockchainModule&#45;&gt;TemplateTransactionCheckService </title>
<path fill="none" stroke="black" stroke-dasharray="5,2" d="M419,-149.91C419,-149.91 419,-168.79 419,-168.79"/>
<polygon fill="black" stroke="black" points="415.5,-168.79 419,-178.79 422.5,-168.79 415.5,-168.79"/>
</g>
<!-- TemplateTransactionCheckService -->
<g id="node5" class="node">
<title>TemplateTransactionCheckService</title>
<ellipse fill="#fdb462" stroke="black" cx="171" cy="-66.8" rx="146.93" ry="18"/>
<text text-anchor="middle" x="171" y="-62.6" font-family="Times,serif" font-size="14.00">TemplateTransactionCheckService</text>
</g>
<!-- TemplateTransactionCheckService&#45;&gt;TemplateBlockchainModule -->
<g id="edge4" class="edge">
<title>TemplateTransactionCheckService&#45;&gt;TemplateBlockchainModule</title>
<path fill="none" stroke="black" d="M318.03,-66.8C329.27,-66.8 336.36,-66.8 336.36,-66.8 336.36,-66.8 336.36,-103.69 336.36,-103.69"/>
<polygon fill="black" stroke="black" points="332.86,-103.69 336.36,-113.69 339.86,-103.69 332.86,-103.69"/>
</g>
</g>
</svg>
