<?xml version="1.0" encoding="UTF-8" standalone="no"?>
<!DOCTYPE svg PUBLIC "-//W3C//DTD SVG 1.1//EN"
 "http://www.w3.org/Graphics/SVG/1.1/DTD/svg11.dtd">
<!-- Generated by graphviz version 2.47.3 (20210619.1520)
 -->
<!-- Title: dependencies Pages: 1 -->
<svg width="675pt" height="247pt"
 viewBox="0.00 0.00 675.00 246.80" xmlns="http://www.w3.org/2000/svg" xmlns:xlink="http://www.w3.org/1999/xlink">
<g id="graph0" class="graph" transform="scale(1 1) rotate(0) translate(4 242.8)">
<title>dependencies</title>
<polygon fill="white" stroke="transparent" points="-4,4 -4,-242.8 671,-242.8 671,4 -4,4"/>
<text text-anchor="middle" x="333.5" y="-8.2" font-family="sans-serif" font-size="14.00">dependencies</text>
<g id="clust1" class="cluster">
<title>cluster_TemplateBlockchainModule</title>
<polygon fill="none" stroke="black" stroke-dasharray="1,5" points="8,-32.8 8,-230.8 659,-230.8 659,-32.8 8,-32.8"/>
</g>
<g id="clust4" class="cluster">
<title>cluster_TemplateBlockchainModule_exports</title>
<polygon fill="none" stroke="black" points="145,-170.8 145,-222.8 377,-222.8 377,-170.8 145,-170.8"/>
</g>
<g id="clust6" class="cluster">
<title>cluster_TemplateBlockchainModule_providers</title>
<polygon fill="none" stroke="black" points="341,-40.8 341,-92.8 651,-92.8 651,-40.8 341,-40.8"/>
</g>
<g id="clust3" class="cluster">
<title>cluster_TemplateBlockchainModule_imports</title>
<polygon fill="none" stroke="black" points="16,-40.8 16,-92.8 333,-92.8 333,-40.8 16,-40.8"/>
</g>
<!-- BlockCheckModule -->
<g id="node1" class="node">
<title>BlockCheckModule</title>
<polygon fill="#8dd3c7" stroke="black" points="325.26,-84.8 322.26,-88.8 301.26,-88.8 298.26,-84.8 196.74,-84.8 196.74,-48.8 325.26,-48.8 325.26,-84.8"/>
<text text-anchor="middle" x="261" y="-62.6" font-family="Times,serif" font-size="14.00">BlockCheckModule</text>
</g>
<!-- TemplateBlockchainModule -->
<g id="node3" class="node">
<title>TemplateBlockchainModule</title>
<polygon fill="#8dd3c7" stroke="black" points="349.18,-149.8 346.18,-153.8 325.18,-153.8 322.18,-149.8 172.82,-149.8 172.82,-113.8 349.18,-113.8 349.18,-149.8"/>
<text text-anchor="middle" x="261" y="-127.6" font-family="Times,serif" font-size="14.00">TemplateBlockchainModule</text>
</g>
<!-- BlockCheckModule&#45;&gt;TemplateBlockchainModule -->
<g id="edge1" class="edge">
<title>BlockCheckModule&#45;&gt;TemplateBlockchainModule</title>
<path fill="none" stroke="black" d="M261,-84.91C261,-84.91 261,-103.79 261,-103.79"/>
<polygon fill="black" stroke="black" points="257.5,-103.79 261,-113.79 264.5,-103.79 257.5,-103.79"/>
</g>
<!-- TemplateCachedModule -->
<g id="node2" class="node">
<title>TemplateCachedModule</title>
<polygon fill="#8dd3c7" stroke="black" points="178.4,-84.8 175.4,-88.8 154.4,-88.8 151.4,-84.8 23.6,-84.8 23.6,-48.8 178.4,-48.8 178.4,-84.8"/>
<text text-anchor="middle" x="101" y="-62.6" font-family="Times,serif" font-size="14.00">TemplateCachedModule</text>
</g>
<!-- TemplateCachedModule&#45;&gt;TemplateBlockchainModule -->
<g id="edge2" class="edge">
<title>TemplateCachedModule&#45;&gt;TemplateBlockchainModule</title>
<path fill="none" stroke="black" d="M178.49,-66.8C183.98,-66.8 187.41,-66.8 187.41,-66.8 187.41,-66.8 187.41,-103.69 187.41,-103.69"/>
<polygon fill="black" stroke="black" points="183.91,-103.69 187.41,-113.69 190.91,-103.69 183.91,-103.69"/>
</g>
<!-- TemplateTransactionCheckService  -->
<g id="node4" class="node">
<title>TemplateTransactionCheckService </title>
<polygon fill="#fb8072" stroke="black" points="369.19,-214.8 152.81,-214.8 152.81,-178.8 369.19,-178.8 369.19,-214.8"/>
<text text-anchor="middle" x="261" y="-192.6" font-family="Times,serif" font-size="14.00">TemplateTransactionCheckService </text>
</g>
<!-- TemplateBlockchainModule&#45;&gt;TemplateTransactionCheckService  -->
<g id="edge3" class="edge">
<title>TemplateBlockchainModule&#45;&gt;TemplateTransactionCheckService </title>
<path fill="none" stroke="black" stroke-dasharray="5,2" d="M261,-149.91C261,-149.91 261,-168.79 261,-168.79"/>
<polygon fill="black" stroke="black" points="257.5,-168.79 261,-178.79 264.5,-168.79 257.5,-168.79"/>
</g>
<!-- TemplateTransactionCheckService -->
<g id="node5" class="node">
<title>TemplateTransactionCheckService</title>
<ellipse fill="#fdb462" stroke="black" cx="496" cy="-66.8" rx="146.93" ry="18"/>
<text text-anchor="middle" x="496" y="-62.6" font-family="Times,serif" font-size="14.00">TemplateTransactionCheckService</text>
</g>
<!-- TemplateTransactionCheckService&#45;&gt;TemplateBlockchainModule -->
<g id="edge4" class="edge">
<title>TemplateTransactionCheckService&#45;&gt;TemplateBlockchainModule</title>
<path fill="none" stroke="black" d="M359.19,-73.76C359.19,-90.52 359.19,-131.8 359.19,-131.8 359.19,-131.8 358.21,-131.8 358.21,-131.8"/>
<polygon fill="black" stroke="black" points="359.42,-128.3 349.42,-131.8 359.42,-135.3 359.42,-128.3"/>
</g>
</g>
</svg>
