<?xml version="1.0" encoding="UTF-8" standalone="no"?>
<!DOCTYPE svg PUBLIC "-//W3C//DTD SVG 1.1//EN"
 "http://www.w3.org/Graphics/SVG/1.1/DTD/svg11.dtd">
<!-- Generated by graphviz version 2.47.3 (20210619.1520)
 -->
<!-- Title: dependencies Pages: 1 -->
<svg width="1272pt" height="247pt"
 viewBox="0.00 0.00 1272.00 246.80" xmlns="http://www.w3.org/2000/svg" xmlns:xlink="http://www.w3.org/1999/xlink">
<g id="graph0" class="graph" transform="scale(1 1) rotate(0) translate(4 242.8)">
<title>dependencies</title>
<polygon fill="white" stroke="transparent" points="-4,4 -4,-242.8 1268,-242.8 1268,4 -4,4"/>
<text text-anchor="middle" x="632" y="-8.2" font-family="sans-serif" font-size="14.00">dependencies</text>
<g id="clust1" class="cluster">
<title>cluster_P2PModule</title>
<polygon fill="none" stroke="black" stroke-dasharray="1,5" points="8,-32.8 8,-230.8 1256,-230.8 1256,-32.8 8,-32.8"/>
</g>
<g id="clust6" class="cluster">
<title>cluster_P2PModule_providers</title>
<polygon fill="none" stroke="black" points="937,-40.8 937,-92.8 1248,-92.8 1248,-40.8 937,-40.8"/>
</g>
<g id="clust3" class="cluster">
<title>cluster_P2PModule_imports</title>
<polygon fill="none" stroke="black" points="16,-40.8 16,-92.8 929,-92.8 929,-40.8 16,-40.8"/>
</g>
<g id="clust4" class="cluster">
<title>cluster_P2PModule_exports</title>
<polygon fill="none" stroke="black" points="490,-170.8 490,-222.8 732,-222.8 732,-170.8 490,-170.8"/>
</g>
<!-- BlockReceivedModule -->
<g id="node1" class="node">
<title>BlockReceivedModule</title>
<polygon fill="#8dd3c7" stroke="black" points="920.58,-84.8 917.58,-88.8 896.58,-88.8 893.58,-84.8 775.42,-84.8 775.42,-48.8 920.58,-48.8 920.58,-84.8"/>
<text text-anchor="middle" x="848" y="-62.6" font-family="Times,serif" font-size="14.00">BlockReceivedModule</text>
</g>
<!-- P2PModule -->
<g id="node7" class="node">
<title>P2PModule</title>
<polygon fill="#8dd3c7" stroke="black" points="642.12,-149.8 639.12,-153.8 618.12,-153.8 615.12,-149.8 559.88,-149.8 559.88,-113.8 642.12,-113.8 642.12,-149.8"/>
<text text-anchor="middle" x="601" y="-127.6" font-family="Times,serif" font-size="14.00">P2PModule</text>
</g>
<!-- BlockReceivedModule&#45;&gt;P2PModule -->
<g id="edge1" class="edge">
<title>BlockReceivedModule&#45;&gt;P2PModule</title>
<path fill="none" stroke="black" d="M848,-84.83C848,-101.2 848,-122.8 848,-122.8 848,-122.8 652.06,-122.8 652.06,-122.8"/>
<polygon fill="black" stroke="black" points="652.06,-119.3 642.06,-122.8 652.06,-126.3 652.06,-119.3"/>
</g>
<!-- BlockchainSyncModule -->
<g id="node2" class="node">
<title>BlockchainSyncModule</title>
<polygon fill="#8dd3c7" stroke="black" points="757.81,-84.8 754.81,-88.8 733.81,-88.8 730.81,-84.8 606.19,-84.8 606.19,-48.8 757.81,-48.8 757.81,-84.8"/>
<text text-anchor="middle" x="682" y="-62.6" font-family="Times,serif" font-size="14.00">BlockchainSyncModule</text>
</g>
<!-- BlockchainSyncModule&#45;&gt;P2PModule -->
<g id="edge2" class="edge">
<title>BlockchainSyncModule&#45;&gt;P2PModule</title>
<path fill="none" stroke="black" d="M624.2,-84.91C624.2,-84.91 624.2,-103.79 624.2,-103.79"/>
<polygon fill="black" stroke="black" points="620.7,-103.79 624.2,-113.79 627.7,-103.79 620.7,-103.79"/>
</g>
<!-- DidIdCachedModule -->
<g id="node3" class="node">
<title>DidIdCachedModule</title>
<polygon fill="#8dd3c7" stroke="black" points="588.19,-84.8 585.19,-88.8 564.19,-88.8 561.19,-84.8 453.81,-84.8 453.81,-48.8 588.19,-48.8 588.19,-84.8"/>
<text text-anchor="middle" x="521" y="-62.6" font-family="Times,serif" font-size="14.00">DidIdCachedModule</text>
</g>
<!-- DidIdCachedModule&#45;&gt;P2PModule -->
<g id="edge3" class="edge">
<title>DidIdCachedModule&#45;&gt;P2PModule</title>
<path fill="none" stroke="black" d="M574.02,-84.91C574.02,-84.91 574.02,-103.79 574.02,-103.79"/>
<polygon fill="black" stroke="black" points="570.52,-103.79 574.02,-113.79 577.52,-103.79 570.52,-103.79"/>
</g>
<!-- PersistClientModule -->
<g id="node4" class="node">
<title>PersistClientModule</title>
<polygon fill="#8dd3c7" stroke="black" points="435.6,-84.8 432.6,-88.8 411.6,-88.8 408.6,-84.8 304.4,-84.8 304.4,-48.8 435.6,-48.8 435.6,-84.8"/>
<text text-anchor="middle" x="370" y="-62.6" font-family="Times,serif" font-size="14.00">PersistClientModule</text>
</g>
<!-- PersistClientModule&#45;&gt;P2PModule -->
<g id="edge4" class="edge">
<title>PersistClientModule&#45;&gt;P2PModule</title>
<path fill="none" stroke="black" d="M370,-84.83C370,-101.2 370,-122.8 370,-122.8 370,-122.8 549.7,-122.8 549.7,-122.8"/>
<polygon fill="black" stroke="black" points="549.7,-126.3 559.7,-122.8 549.7,-119.3 549.7,-126.3"/>
</g>
<!-- SignatureModule -->
<g id="node5" class="node">
<title>SignatureModule</title>
<polygon fill="#8dd3c7" stroke="black" points="286.7,-84.8 283.7,-88.8 262.7,-88.8 259.7,-84.8 173.3,-84.8 173.3,-48.8 286.7,-48.8 286.7,-84.8"/>
<text text-anchor="middle" x="230" y="-62.6" font-family="Times,serif" font-size="14.00">SignatureModule</text>
</g>
<!-- SignatureModule&#45;&gt;P2PModule -->
<g id="edge5" class="edge">
<title>SignatureModule&#45;&gt;P2PModule</title>
<path fill="none" stroke="black" d="M230,-84.91C230,-104.14 230,-131.8 230,-131.8 230,-131.8 549.88,-131.8 549.88,-131.8"/>
<polygon fill="black" stroke="black" points="549.88,-135.3 559.88,-131.8 549.88,-128.3 549.88,-135.3"/>
</g>
<!-- WalletClientModule -->
<g id="node6" class="node">
<title>WalletClientModule</title>
<polygon fill="#8dd3c7" stroke="black" points="155.59,-84.8 152.59,-88.8 131.59,-88.8 128.59,-84.8 24.41,-84.8 24.41,-48.8 155.59,-48.8 155.59,-84.8"/>
<text text-anchor="middle" x="90" y="-62.6" font-family="Times,serif" font-size="14.00">WalletClientModule</text>
</g>
<!-- WalletClientModule&#45;&gt;P2PModule -->
<g id="edge6" class="edge">
<title>WalletClientModule&#45;&gt;P2PModule</title>
<path fill="none" stroke="black" d="M90,-85.09C90,-107.01 90,-140.8 90,-140.8 90,-140.8 549.62,-140.8 549.62,-140.8"/>
<polygon fill="black" stroke="black" points="549.62,-144.3 559.62,-140.8 549.62,-137.3 549.62,-144.3"/>
</g>
<!-- HandshakeService  -->
<g id="node8" class="node">
<title>HandshakeService </title>
<polygon fill="#fb8072" stroke="black" points="723.67,-214.8 600.33,-214.8 600.33,-178.8 723.67,-178.8 723.67,-214.8"/>
<text text-anchor="middle" x="662" y="-192.6" font-family="Times,serif" font-size="14.00">HandshakeService </text>
</g>
<!-- P2PModule&#45;&gt;HandshakeService  -->
<g id="edge7" class="edge">
<title>P2PModule&#45;&gt;HandshakeService </title>
<path fill="none" stroke="black" stroke-dasharray="5,2" d="M621.11,-149.91C621.11,-149.91 621.11,-168.79 621.11,-168.79"/>
<polygon fill="black" stroke="black" points="617.61,-168.79 621.11,-178.79 624.61,-168.79 617.61,-168.79"/>
</g>
<!-- P2PService  -->
<g id="node9" class="node">
<title>P2PService </title>
<polygon fill="#fb8072" stroke="black" points="582.04,-214.8 497.96,-214.8 497.96,-178.8 582.04,-178.8 582.04,-214.8"/>
<text text-anchor="middle" x="540" y="-192.6" font-family="Times,serif" font-size="14.00">P2PService </text>
</g>
<!-- P2PModule&#45;&gt;P2PService  -->
<g id="edge8" class="edge">
<title>P2PModule&#45;&gt;P2PService </title>
<path fill="none" stroke="black" stroke-dasharray="5,2" d="M570.98,-149.91C570.98,-149.91 570.98,-168.79 570.98,-168.79"/>
<polygon fill="black" stroke="black" points="567.48,-168.79 570.98,-178.79 574.48,-168.79 567.48,-168.79"/>
</g>
<!-- HandshakeService -->
<g id="node10" class="node">
<title>HandshakeService</title>
<ellipse fill="#fdb462" stroke="black" cx="1157" cy="-66.8" rx="82.79" ry="18"/>
<text text-anchor="middle" x="1157" y="-62.6" font-family="Times,serif" font-size="14.00">HandshakeService</text>
</g>
<!-- HandshakeService&#45;&gt;P2PModule -->
<g id="edge9" class="edge">
<title>HandshakeService&#45;&gt;P2PModule</title>
<path fill="none" stroke="black" d="M1157,-85.09C1157,-107.01 1157,-140.8 1157,-140.8 1157,-140.8 652.34,-140.8 652.34,-140.8"/>
<polygon fill="black" stroke="black" points="652.34,-137.3 642.34,-140.8 652.34,-144.3 652.34,-137.3"/>
</g>
<!-- P2PService -->
<g id="node11" class="node">
<title>P2PService</title>
<ellipse fill="#fdb462" stroke="black" cx="1001" cy="-66.8" rx="55.61" ry="18"/>
<text text-anchor="middle" x="1001" y="-62.6" font-family="Times,serif" font-size="14.00">P2PService</text>
</g>
<!-- P2PService&#45;&gt;P2PModule -->
<g id="edge10" class="edge">
<title>P2PService&#45;&gt;P2PModule</title>
<path fill="none" stroke="black" d="M1001,-84.91C1001,-104.14 1001,-131.8 1001,-131.8 1001,-131.8 652.3,-131.8 652.3,-131.8"/>
<polygon fill="black" stroke="black" points="652.3,-128.3 642.3,-131.8 652.3,-135.3 652.3,-128.3"/>
</g>
</g>
</svg>
