<?xml version="1.0" encoding="UTF-8" standalone="no"?>
<!DOCTYPE svg PUBLIC "-//W3C//DTD SVG 1.1//EN"
 "http://www.w3.org/Graphics/SVG/1.1/DTD/svg11.dtd">
<!-- Generated by graphviz version 2.47.3 (20210619.1520)
 -->
<!-- Title: dependencies Pages: 1 -->
<svg width="958pt" height="174pt"
 viewBox="0.00 0.00 958.00 173.80" xmlns="http://www.w3.org/2000/svg" xmlns:xlink="http://www.w3.org/1999/xlink">
<g id="graph0" class="graph" transform="scale(1 1) rotate(0) translate(4 169.8)">
<title>dependencies</title>
<polygon fill="white" stroke="transparent" points="-4,4 -4,-169.8 954,-169.8 954,4 -4,4"/>
<text text-anchor="middle" x="475" y="-8.2" font-family="sans-serif" font-size="14.00">dependencies</text>
<g id="clust1" class="cluster">
<title>cluster_NetworkGatewayModule</title>
<polygon fill="none" stroke="black" stroke-dasharray="1,5" points="8,-32.8 8,-157.8 942,-157.8 942,-32.8 8,-32.8"/>
</g>
<g id="clust3" class="cluster">
<title>cluster_NetworkGatewayModule_imports</title>
<polygon fill="none" stroke="black" points="256,-40.8 256,-92.8 934,-92.8 934,-40.8 256,-40.8"/>
</g>
<g id="clust6" class="cluster">
<title>cluster_NetworkGatewayModule_providers</title>
<polygon fill="none" stroke="black" points="16,-40.8 16,-92.8 248,-92.8 248,-40.8 16,-40.8"/>
</g>
<!-- ConfigModule -->
<g id="node1" class="node">
<title>ConfigModule</title>
<polygon fill="#8dd3c7" stroke="black" points="926.44,-84.8 923.44,-88.8 902.44,-88.8 899.44,-84.8 827.56,-84.8 827.56,-48.8 926.44,-48.8 926.44,-84.8"/>
<text text-anchor="middle" x="877" y="-62.6" font-family="Times,serif" font-size="14.00">ConfigModule</text>
</g>
<!-- NetworkGatewayModule -->
<g id="node6" class="node">
<title>NetworkGatewayModule</title>
<polygon fill="#8dd3c7" stroke="black" points="601.28,-149.8 598.28,-153.8 577.28,-153.8 574.28,-149.8 442.72,-149.8 442.72,-113.8 601.28,-113.8 601.28,-149.8"/>
<text text-anchor="middle" x="522" y="-127.6" font-family="Times,serif" font-size="14.00">NetworkGatewayModule</text>
</g>
<!-- ConfigModule&#45;&gt;NetworkGatewayModule -->
<g id="edge1" class="edge">
<title>ConfigModule&#45;&gt;NetworkGatewayModule</title>
<path fill="none" stroke="black" d="M877,-85.08C877,-106.12 877,-137.8 877,-137.8 877,-137.8 611.23,-137.8 611.23,-137.8"/>
<polygon fill="black" stroke="black" points="611.23,-134.3 601.23,-137.8 611.23,-141.3 611.23,-134.3"/>
</g>
<!-- EventClientModule -->
<g id="node2" class="node">
<title>EventClientModule</title>
<polygon fill="#8dd3c7" stroke="black" points="810.43,-84.8 807.43,-88.8 786.43,-88.8 783.43,-84.8 683.57,-84.8 683.57,-48.8 810.43,-48.8 810.43,-84.8"/>
<text text-anchor="middle" x="747" y="-62.6" font-family="Times,serif" font-size="14.00">EventClientModule</text>
</g>
<!-- EventClientModule&#45;&gt;NetworkGatewayModule -->
<g id="edge2" class="edge">
<title>EventClientModule&#45;&gt;NetworkGatewayModule</title>
<path fill="none" stroke="black" d="M747,-84.82C747,-102.17 747,-125.8 747,-125.8 747,-125.8 611.33,-125.8 611.33,-125.8"/>
<polygon fill="black" stroke="black" points="611.33,-122.3 601.33,-125.8 611.33,-129.3 611.33,-122.3"/>
</g>
<!-- HashBlockchainModule -->
<g id="node3" class="node">
<title>HashBlockchainModule</title>
<polygon fill="#8dd3c7" stroke="black" points="666.08,-84.8 663.08,-88.8 642.08,-88.8 639.08,-84.8 513.92,-84.8 513.92,-48.8 666.08,-48.8 666.08,-84.8"/>
<text text-anchor="middle" x="590" y="-62.6" font-family="Times,serif" font-size="14.00">HashBlockchainModule</text>
</g>
<!-- HashBlockchainModule&#45;&gt;NetworkGatewayModule -->
<g id="edge3" class="edge">
<title>HashBlockchainModule&#45;&gt;NetworkGatewayModule</title>
<path fill="none" stroke="black" d="M557.55,-84.91C557.55,-84.91 557.55,-103.79 557.55,-103.79"/>
<polygon fill="black" stroke="black" points="554.05,-103.79 557.55,-113.79 561.05,-103.79 554.05,-103.79"/>
</g>
<!-- P2PModule -->
<g id="node4" class="node">
<title>P2PModule</title>
<polygon fill="#8dd3c7" stroke="black" points="496.12,-84.8 493.12,-88.8 472.12,-88.8 469.12,-84.8 413.88,-84.8 413.88,-48.8 496.12,-48.8 496.12,-84.8"/>
<text text-anchor="middle" x="455" y="-62.6" font-family="Times,serif" font-size="14.00">P2PModule</text>
</g>
<!-- P2PModule&#45;&gt;NetworkGatewayModule -->
<g id="edge4" class="edge">
<title>P2PModule&#45;&gt;NetworkGatewayModule</title>
<path fill="none" stroke="black" d="M469.46,-84.91C469.46,-84.91 469.46,-103.79 469.46,-103.79"/>
<polygon fill="black" stroke="black" points="465.96,-103.79 469.46,-113.79 472.96,-103.79 465.96,-103.79"/>
</g>
<!-- PersistClientModule -->
<g id="node5" class="node">
<title>PersistClientModule</title>
<polygon fill="#8dd3c7" stroke="black" points="395.6,-84.8 392.6,-88.8 371.6,-88.8 368.6,-84.8 264.4,-84.8 264.4,-48.8 395.6,-48.8 395.6,-84.8"/>
<text text-anchor="middle" x="330" y="-62.6" font-family="Times,serif" font-size="14.00">PersistClientModule</text>
</g>
<!-- PersistClientModule&#45;&gt;NetworkGatewayModule -->
<g id="edge5" class="edge">
<title>PersistClientModule&#45;&gt;NetworkGatewayModule</title>
<path fill="none" stroke="black" d="M330,-84.82C330,-102.17 330,-125.8 330,-125.8 330,-125.8 432.8,-125.8 432.8,-125.8"/>
<polygon fill="black" stroke="black" points="432.8,-129.3 442.8,-125.8 432.8,-122.3 432.8,-129.3"/>
</g>
<!-- NetworkGatewayService -->
<g id="node7" class="node">
<title>NetworkGatewayService</title>
<ellipse fill="#fdb462" stroke="black" cx="132" cy="-66.8" rx="108.18" ry="18"/>
<text text-anchor="middle" x="132" y="-62.6" font-family="Times,serif" font-size="14.00">NetworkGatewayService</text>
</g>
<!-- NetworkGatewayService&#45;&gt;NetworkGatewayModule -->
<g id="edge6" class="edge">
<title>NetworkGatewayService&#45;&gt;NetworkGatewayModule</title>
<path fill="none" stroke="black" d="M132,-85.08C132,-106.12 132,-137.8 132,-137.8 132,-137.8 432.61,-137.8 432.61,-137.8"/>
<polygon fill="black" stroke="black" points="432.61,-141.3 442.61,-137.8 432.61,-134.3 432.61,-141.3"/>
</g>
</g>
</svg>
