<?xml version="1.0" encoding="UTF-8" standalone="no"?>
<!DOCTYPE svg PUBLIC "-//W3C//DTD SVG 1.1//EN"
 "http://www.w3.org/Graphics/SVG/1.1/DTD/svg11.dtd">
<!-- Generated by graphviz version 2.47.3 (20210619.1520)
 -->
<!-- Title: dependencies Pages: 1 -->
<svg width="788pt" height="174pt"
 viewBox="0.00 0.00 788.00 173.80" xmlns="http://www.w3.org/2000/svg" xmlns:xlink="http://www.w3.org/1999/xlink">
<g id="graph0" class="graph" transform="scale(1 1) rotate(0) translate(4 169.8)">
<title>dependencies</title>
<polygon fill="white" stroke="transparent" points="-4,4 -4,-169.8 784,-169.8 784,4 -4,4"/>
<text text-anchor="middle" x="390" y="-8.2" font-family="sans-serif" font-size="14.00">dependencies</text>
<g id="clust1" class="cluster">
<title>cluster_NetworkGatewayModule</title>
<polygon fill="none" stroke="black" stroke-dasharray="1,5" points="8,-32.8 8,-157.8 772,-157.8 772,-32.8 8,-32.8"/>
</g>
<g id="clust3" class="cluster">
<title>cluster_NetworkGatewayModule_imports</title>
<polygon fill="none" stroke="black" points="256,-40.8 256,-92.8 764,-92.8 764,-40.8 256,-40.8"/>
</g>
<g id="clust6" class="cluster">
<title>cluster_NetworkGatewayModule_providers</title>
<polygon fill="none" stroke="black" points="16,-40.8 16,-92.8 248,-92.8 248,-40.8 16,-40.8"/>
</g>
<!-- ConfigModule -->
<g id="node1" class="node">
<title>ConfigModule</title>
<polygon fill="#8dd3c7" stroke="black" points="756.44,-84.8 753.44,-88.8 732.44,-88.8 729.44,-84.8 657.56,-84.8 657.56,-48.8 756.44,-48.8 756.44,-84.8"/>
<text text-anchor="middle" x="707" y="-62.6" font-family="Times,serif" font-size="14.00">ConfigModule</text>
</g>
<!-- NetworkGatewayModule -->
<g id="node5" class="node">
<title>NetworkGatewayModule</title>
<polygon fill="#8dd3c7" stroke="black" points="534.28,-149.8 531.28,-153.8 510.28,-153.8 507.28,-149.8 375.72,-149.8 375.72,-113.8 534.28,-113.8 534.28,-149.8"/>
<text text-anchor="middle" x="455" y="-127.6" font-family="Times,serif" font-size="14.00">NetworkGatewayModule</text>
</g>
<!-- ConfigModule&#45;&gt;NetworkGatewayModule -->
<g id="edge1" class="edge">
<title>ConfigModule&#45;&gt;NetworkGatewayModule</title>
<path fill="none" stroke="black" d="M707,-84.91C707,-104.14 707,-131.8 707,-131.8 707,-131.8 544.39,-131.8 544.39,-131.8"/>
<polygon fill="black" stroke="black" points="544.39,-128.3 534.39,-131.8 544.39,-135.3 544.39,-128.3"/>
</g>
<!-- EventClientModule -->
<g id="node2" class="node">
<title>EventClientModule</title>
<polygon fill="#8dd3c7" stroke="black" points="640.43,-84.8 637.43,-88.8 616.43,-88.8 613.43,-84.8 513.57,-84.8 513.57,-48.8 640.43,-48.8 640.43,-84.8"/>
<text text-anchor="middle" x="577" y="-62.6" font-family="Times,serif" font-size="14.00">EventClientModule</text>
</g>
<!-- EventClientModule&#45;&gt;NetworkGatewayModule -->
<g id="edge2" class="edge">
<title>EventClientModule&#45;&gt;NetworkGatewayModule</title>
<path fill="none" stroke="black" d="M523.96,-84.91C523.96,-84.91 523.96,-103.79 523.96,-103.79"/>
<polygon fill="black" stroke="black" points="520.46,-103.79 523.96,-113.79 527.46,-103.79 520.46,-103.79"/>
</g>
<!-- P2PModule -->
<g id="node3" class="node">
<title>P2PModule</title>
<polygon fill="#8dd3c7" stroke="black" points="496.12,-84.8 493.12,-88.8 472.12,-88.8 469.12,-84.8 413.88,-84.8 413.88,-48.8 496.12,-48.8 496.12,-84.8"/>
<text text-anchor="middle" x="455" y="-62.6" font-family="Times,serif" font-size="14.00">P2PModule</text>
</g>
<!-- P2PModule&#45;&gt;NetworkGatewayModule -->
<g id="edge3" class="edge">
<title>P2PModule&#45;&gt;NetworkGatewayModule</title>
<path fill="none" stroke="black" d="M455,-84.91C455,-84.91 455,-103.79 455,-103.79"/>
<polygon fill="black" stroke="black" points="451.5,-103.79 455,-113.79 458.5,-103.79 451.5,-103.79"/>
</g>
<!-- PersistClientModule -->
<g id="node4" class="node">
<title>PersistClientModule</title>
<polygon fill="#8dd3c7" stroke="black" points="395.6,-84.8 392.6,-88.8 371.6,-88.8 368.6,-84.8 264.4,-84.8 264.4,-48.8 395.6,-48.8 395.6,-84.8"/>
<text text-anchor="middle" x="330" y="-62.6" font-family="Times,serif" font-size="14.00">PersistClientModule</text>
</g>
<!-- PersistClientModule&#45;&gt;NetworkGatewayModule -->
<g id="edge4" class="edge">
<title>PersistClientModule&#45;&gt;NetworkGatewayModule</title>
<path fill="none" stroke="black" d="M385.71,-84.91C385.71,-84.91 385.71,-103.79 385.71,-103.79"/>
<polygon fill="black" stroke="black" points="382.21,-103.79 385.71,-113.79 389.21,-103.79 382.21,-103.79"/>
</g>
<!-- NetworkGatewayService -->
<g id="node6" class="node">
<title>NetworkGatewayService</title>
<ellipse fill="#fdb462" stroke="black" cx="132" cy="-66.8" rx="108.18" ry="18"/>
<text text-anchor="middle" x="132" y="-62.6" font-family="Times,serif" font-size="14.00">NetworkGatewayService</text>
</g>
<!-- NetworkGatewayService&#45;&gt;NetworkGatewayModule -->
<g id="edge5" class="edge">
<title>NetworkGatewayService&#45;&gt;NetworkGatewayModule</title>
<path fill="none" stroke="black" d="M132,-84.91C132,-104.14 132,-131.8 132,-131.8 132,-131.8 365.57,-131.8 365.57,-131.8"/>
<polygon fill="black" stroke="black" points="365.57,-135.3 375.57,-131.8 365.57,-128.3 365.57,-135.3"/>
</g>
</g>
</svg>
